<svg width="19" height="18" viewBox="0 0 19 18" fill="none" xmlns="http://www.w3.org/2000/svg">
<path d="M14.5 11V17M11.5 14H17.5M3.5 7H5.5C6.60457 7 7.5 6.10457 7.5 5V3C7.5 1.89543 6.60457 1 5.5 1H3.5C2.39543 1 1.5 1.89543 1.5 3V5C1.5 6.10457 2.39543 7 3.5 7ZM13.5 7H15.5C16.6046 7 17.5 6.10457 17.5 5V3C17.5 1.89543 16.6046 1 15.5 1H13.5C12.3954 1 11.5 1.89543 11.5 3V5C11.5 6.10457 12.3954 7 13.5 7ZM3.5 17H5.5C6.60457 17 7.5 16.1046 7.5 15V13C7.5 11.8954 6.60457 11 5.5 11H3.5C2.39543 11 1.5 11.8954 1.5 13V15C1.5 16.1046 2.39543 17 3.5 17Z" stroke="#4F46E5" stroke-width="1.8" stroke-linecap="round" stroke-linejoin="round"/>
</svg>
