<svg width="403" height="413" viewBox="0 0 403 413" fill="none" xmlns="http://www.w3.org/2000/svg">
<rect x="0.5" y="0.5" width="402" height="412.005" rx="23.5" stroke="black"/>
<circle cx="47.5" cy="81" r="23" fill="white" stroke="#CBD0DC"/>
<path d="M43.1491 88.0342H41.309C38.4915 87.833 37.2266 85.6672 37.2266 83.7409C37.2266 81.8147 38.4915 79.6392 41.2611 79.4476C41.654 79.4092 41.999 79.7159 42.0278 80.1184C42.0565 80.5113 41.7595 80.8563 41.357 80.8851C39.4978 81.0192 38.6641 82.4184 38.6641 83.7505C38.6641 85.0826 39.4978 86.4817 41.357 86.6159H43.1491C43.542 86.6159 43.8678 86.9417 43.8678 87.3347C43.8678 87.7276 43.542 88.0342 43.1491 88.0342Z" fill="#292D32"/>
<path d="M51.9751 88.0344C51.9559 88.0344 51.9464 88.0344 51.9272 88.0344C51.5343 88.0344 51.1701 87.7085 51.1701 87.3156C51.1701 86.9035 51.4768 86.5969 51.8793 86.5969C53.0581 86.5969 54.1122 86.1848 54.9364 85.4469C56.4314 84.1435 56.5272 82.2652 56.1247 80.9427C55.7222 79.6298 54.601 78.1252 52.646 77.8856C52.3297 77.8473 52.0805 77.6077 52.023 77.2915C51.6397 74.9915 50.4035 73.4006 48.5251 72.8256C46.5893 72.2219 44.3276 72.816 42.9189 74.2919C41.5484 75.7198 41.2322 77.7227 42.0276 79.9269C42.1618 80.3006 41.9702 80.7127 41.5964 80.8469C41.2227 80.981 40.8106 80.7894 40.6764 80.4156C39.7085 77.7131 40.1493 75.1256 41.8839 73.3048C43.6568 71.4456 46.5031 70.7077 48.9468 71.4552C51.1893 72.1452 52.7705 73.9948 53.3455 76.5631C55.3005 77.004 56.8722 78.4894 57.4951 80.5402C58.1755 82.7731 57.5622 85.0731 55.8851 86.5298C54.8214 87.4881 53.4318 88.0344 51.9751 88.0344Z" fill="#292D32"/>
<path d="M47.5007 90.8519C45.5744 90.8519 43.7728 89.8265 42.7857 88.1686C42.6803 88.0056 42.5748 87.814 42.4886 87.6031C42.1628 86.9227 41.9902 86.1465 41.9902 85.3415C41.9902 82.3036 44.4627 79.8311 47.5007 79.8311C50.5386 79.8311 53.0111 82.3036 53.0111 85.3415C53.0111 86.1561 52.8386 86.9227 52.4936 87.6319C52.4169 87.814 52.3115 88.0056 52.1965 88.1877C51.2286 89.8265 49.4269 90.8519 47.5007 90.8519ZM47.5007 81.2686C45.2582 81.2686 43.4277 83.099 43.4277 85.3415C43.4277 85.9356 43.5523 86.4915 43.7919 86.9994C43.8686 87.1623 43.9356 87.2965 44.0123 87.4211C44.7406 88.6573 46.0727 89.4144 47.4911 89.4144C48.9094 89.4144 50.2415 88.6573 50.9602 87.4402C51.0465 87.2965 51.1232 87.1623 51.1807 87.0281C51.4394 86.501 51.564 85.9452 51.564 85.351C51.5736 83.099 49.7432 81.2686 47.5007 81.2686Z" fill="#292D32"/>
<path d="M46.9542 87.0091C46.7721 87.0091 46.59 86.942 46.4463 86.7983L45.4975 85.8495C45.2196 85.5716 45.2196 85.1116 45.4975 84.8337C45.7754 84.5558 46.2354 84.5558 46.5133 84.8337L46.9734 85.2937L48.5067 83.8754C48.8038 83.607 49.2542 83.6262 49.5225 83.9137C49.7908 84.2012 49.7717 84.6612 49.4842 84.9296L47.4429 86.8175C47.2992 86.9421 47.1267 87.0091 46.9542 87.0091Z" fill="#292D32"/>
<path d="M89.008 54.88V61.968C89.008 62.8107 89.2267 63.4453 89.664 63.872C90.112 64.2987 90.7307 64.512 91.52 64.512C92.32 64.512 92.9387 64.2987 93.376 63.872C93.824 63.4453 94.048 62.8107 94.048 61.968V54.88H95.872V61.936C95.872 62.8427 95.6747 63.6107 95.28 64.24C94.8853 64.8693 94.3573 65.3387 93.696 65.648C93.0347 65.9573 92.304 66.112 91.504 66.112C90.704 66.112 89.9733 65.9573 89.312 65.648C88.6613 65.3387 88.144 64.8693 87.76 64.24C87.376 63.6107 87.184 62.8427 87.184 61.936V54.88H89.008ZM100.071 58.48C100.38 58.0747 100.802 57.7333 101.335 57.456C101.868 57.1787 102.471 57.04 103.143 57.04C103.911 57.04 104.61 57.232 105.239 57.616C105.879 57.9893 106.38 58.5173 106.743 59.2C107.106 59.8827 107.287 60.6667 107.287 61.552C107.287 62.4373 107.106 63.232 106.743 63.936C106.38 64.6293 105.879 65.1733 105.239 65.568C104.61 65.952 103.911 66.144 103.143 66.144C102.471 66.144 101.874 66.0107 101.351 65.744C100.828 65.4667 100.402 65.1253 100.071 64.72V70.192H98.2469V57.184H100.071V58.48ZM105.431 61.552C105.431 60.944 105.303 60.4213 105.047 59.984C104.802 59.536 104.471 59.2 104.055 58.976C103.65 58.7413 103.212 58.624 102.743 58.624C102.284 58.624 101.847 58.7413 101.431 58.976C101.026 59.2107 100.695 59.552 100.439 60C100.194 60.448 100.071 60.976 100.071 61.584C100.071 62.192 100.194 62.7253 100.439 63.184C100.695 63.632 101.026 63.9733 101.431 64.208C101.847 64.4427 102.284 64.56 102.743 64.56C103.212 64.56 103.65 64.4427 104.055 64.208C104.471 63.9627 104.802 63.6107 105.047 63.152C105.303 62.6933 105.431 62.16 105.431 61.552ZM110.915 54.16V66H109.091V54.16H110.915ZM117.133 66.144C116.301 66.144 115.549 65.9573 114.877 65.584C114.205 65.2 113.677 64.6667 113.293 63.984C112.909 63.2907 112.717 62.4907 112.717 61.584C112.717 60.688 112.915 59.8933 113.309 59.2C113.704 58.5067 114.243 57.9733 114.925 57.6C115.608 57.2267 116.371 57.04 117.213 57.04C118.056 57.04 118.819 57.2267 119.501 57.6C120.184 57.9733 120.723 58.5067 121.117 59.2C121.512 59.8933 121.709 60.688 121.709 61.584C121.709 62.48 121.507 63.2747 121.101 63.968C120.696 64.6613 120.141 65.2 119.437 65.584C118.744 65.9573 117.976 66.144 117.133 66.144ZM117.133 64.56C117.603 64.56 118.04 64.448 118.445 64.224C118.861 64 119.197 63.664 119.453 63.216C119.709 62.768 119.837 62.224 119.837 61.584C119.837 60.944 119.715 60.4053 119.469 59.968C119.224 59.52 118.899 59.184 118.493 58.96C118.088 58.736 117.651 58.624 117.181 58.624C116.712 58.624 116.275 58.736 115.869 58.96C115.475 59.184 115.16 59.52 114.925 59.968C114.691 60.4053 114.573 60.944 114.573 61.584C114.573 62.5333 114.813 63.2693 115.293 63.792C115.784 64.304 116.397 64.56 117.133 64.56ZM122.905 61.552C122.905 60.6667 123.086 59.8827 123.449 59.2C123.822 58.5173 124.323 57.9893 124.953 57.616C125.593 57.232 126.297 57.04 127.065 57.04C127.758 57.04 128.361 57.1787 128.873 57.456C129.395 57.7227 129.811 58.0587 130.121 58.464V57.184H131.961V66H130.121V64.688C129.811 65.104 129.39 65.4507 128.857 65.728C128.323 66.0053 127.715 66.144 127.033 66.144C126.275 66.144 125.582 65.952 124.953 65.568C124.323 65.1733 123.822 64.6293 123.449 63.936C123.086 63.232 122.905 62.4373 122.905 61.552ZM130.121 61.584C130.121 60.976 129.993 60.448 129.737 60C129.491 59.552 129.166 59.2107 128.761 58.976C128.355 58.7413 127.918 58.624 127.449 58.624C126.979 58.624 126.542 58.7413 126.137 58.976C125.731 59.2 125.401 59.536 125.145 59.984C124.899 60.4213 124.777 60.944 124.777 61.552C124.777 62.16 124.899 62.6933 125.145 63.152C125.401 63.6107 125.731 63.9627 126.137 64.208C126.553 64.4427 126.99 64.56 127.449 64.56C127.918 64.56 128.355 64.4427 128.761 64.208C129.166 63.9733 129.491 63.632 129.737 63.184C129.993 62.7253 130.121 62.192 130.121 61.584ZM133.748 61.552C133.748 60.6667 133.93 59.8827 134.292 59.2C134.666 58.5173 135.167 57.9893 135.796 57.616C136.436 57.232 137.146 57.04 137.924 57.04C138.5 57.04 139.066 57.168 139.62 57.424C140.186 57.6693 140.634 58 140.964 58.416V54.16H142.804V66H140.964V64.672C140.666 65.0987 140.25 65.4507 139.716 65.728C139.194 66.0053 138.591 66.144 137.908 66.144C137.14 66.144 136.436 65.952 135.796 65.568C135.167 65.1733 134.666 64.6293 134.292 63.936C133.93 63.232 133.748 62.4373 133.748 61.552ZM140.964 61.584C140.964 60.976 140.836 60.448 140.58 60C140.335 59.552 140.01 59.2107 139.604 58.976C139.199 58.7413 138.762 58.624 138.292 58.624C137.823 58.624 137.386 58.7413 136.98 58.976C136.575 59.2 136.244 59.536 135.988 59.984C135.743 60.4213 135.62 60.944 135.62 61.552C135.62 62.16 135.743 62.6933 135.988 63.152C136.244 63.6107 136.575 63.9627 136.98 64.208C137.396 64.4427 137.834 64.56 138.292 64.56C138.762 64.56 139.199 64.4427 139.604 64.208C140.01 63.9733 140.335 63.632 140.58 63.184C140.836 62.7253 140.964 62.192 140.964 61.584ZM155.308 60.288C155.906 60.3947 156.412 60.7093 156.828 61.232C157.244 61.7547 157.452 62.3467 157.452 63.008C157.452 63.5733 157.303 64.0853 157.004 64.544C156.716 64.992 156.295 65.3493 155.74 65.616C155.186 65.872 154.54 66 153.804 66H149.356V54.88H153.596C154.354 54.88 155.004 55.008 155.548 55.264C156.092 55.52 156.503 55.8667 156.78 56.304C157.058 56.7307 157.196 57.2107 157.196 57.744C157.196 58.384 157.026 58.9173 156.684 59.344C156.343 59.7707 155.884 60.0853 155.308 60.288ZM151.18 59.552H153.436C154.034 59.552 154.498 59.4187 154.828 59.152C155.17 58.8747 155.34 58.48 155.34 57.968C155.34 57.4667 155.17 57.0773 154.828 56.8C154.498 56.512 154.034 56.368 153.436 56.368H151.18V59.552ZM153.644 64.512C154.263 64.512 154.748 64.3627 155.1 64.064C155.452 63.7653 155.628 63.3493 155.628 62.816C155.628 62.272 155.442 61.84 155.068 61.52C154.695 61.2 154.199 61.04 153.58 61.04H151.18V64.512H153.644ZM158.826 61.552C158.826 60.6667 159.008 59.8827 159.37 59.2C159.744 58.5173 160.245 57.9893 160.874 57.616C161.514 57.232 162.218 57.04 162.986 57.04C163.68 57.04 164.282 57.1787 164.794 57.456C165.317 57.7227 165.733 58.0587 166.042 58.464V57.184H167.882V66H166.042V64.688C165.733 65.104 165.312 65.4507 164.778 65.728C164.245 66.0053 163.637 66.144 162.954 66.144C162.197 66.144 161.504 65.952 160.874 65.568C160.245 65.1733 159.744 64.6293 159.37 63.936C159.008 63.232 158.826 62.4373 158.826 61.552ZM166.042 61.584C166.042 60.976 165.914 60.448 165.658 60C165.413 59.552 165.088 59.2107 164.682 58.976C164.277 58.7413 163.84 58.624 163.37 58.624C162.901 58.624 162.464 58.7413 162.058 58.976C161.653 59.2 161.322 59.536 161.066 59.984C160.821 60.4213 160.698 60.944 160.698 61.552C160.698 62.16 160.821 62.6933 161.066 63.152C161.322 63.6107 161.653 63.9627 162.058 64.208C162.474 64.4427 162.912 64.56 163.37 64.56C163.84 64.56 164.277 64.4427 164.682 64.208C165.088 63.9733 165.413 63.632 165.658 63.184C165.914 62.7253 166.042 62.192 166.042 61.584ZM174.726 57.04C175.419 57.04 176.038 57.184 176.582 57.472C177.137 57.76 177.569 58.1867 177.878 58.752C178.187 59.3173 178.342 60 178.342 60.8V66H176.534V61.072C176.534 60.2827 176.337 59.68 175.942 59.264C175.547 58.8373 175.009 58.624 174.326 58.624C173.643 58.624 173.099 58.8373 172.694 59.264C172.299 59.68 172.102 60.2827 172.102 61.072V66H170.278V57.184H172.102V58.192C172.401 57.8293 172.779 57.5467 173.238 57.344C173.707 57.1413 174.203 57.04 174.726 57.04ZM185.117 57.04C185.81 57.04 186.429 57.184 186.973 57.472C187.527 57.76 187.959 58.1867 188.269 58.752C188.578 59.3173 188.733 60 188.733 60.8V66H186.925V61.072C186.925 60.2827 186.727 59.68 186.333 59.264C185.938 58.8373 185.399 58.624 184.717 58.624C184.034 58.624 183.49 58.8373 183.085 59.264C182.69 59.68 182.493 60.2827 182.493 61.072V66H180.669V57.184H182.493V58.192C182.791 57.8293 183.17 57.5467 183.629 57.344C184.098 57.1413 184.594 57.04 185.117 57.04ZM199.139 61.376C199.139 61.7067 199.118 62.0053 199.075 62.272H192.339C192.393 62.976 192.654 63.5413 193.123 63.968C193.593 64.3947 194.169 64.608 194.851 64.608C195.833 64.608 196.526 64.1973 196.931 63.376H198.899C198.633 64.1867 198.147 64.8533 197.443 65.376C196.75 65.888 195.886 66.144 194.851 66.144C194.009 66.144 193.251 65.9573 192.579 65.584C191.918 65.2 191.395 64.6667 191.011 63.984C190.638 63.2907 190.451 62.4907 190.451 61.584C190.451 60.6773 190.633 59.8827 190.995 59.2C191.369 58.5067 191.886 57.9733 192.547 57.6C193.219 57.2267 193.987 57.04 194.851 57.04C195.683 57.04 196.425 57.2213 197.075 57.584C197.726 57.9467 198.233 58.4587 198.595 59.12C198.958 59.7707 199.139 60.5227 199.139 61.376ZM197.235 60.8C197.225 60.128 196.985 59.5893 196.515 59.184C196.046 58.7787 195.465 58.576 194.771 58.576C194.142 58.576 193.603 58.7787 193.155 59.184C192.707 59.5787 192.441 60.1173 192.355 60.8H197.235ZM202.758 58.464C203.025 58.016 203.377 57.6693 203.814 57.424C204.262 57.168 204.79 57.04 205.398 57.04V58.928H204.934C204.22 58.928 203.676 59.1093 203.302 59.472C202.94 59.8347 202.758 60.464 202.758 61.36V66H200.934V57.184H202.758V58.464Z" fill="black"/>
<path d="M89.648 88.084C89.088 88.084 88.584 87.988 88.136 87.796C87.688 87.596 87.336 87.316 87.08 86.956C86.824 86.596 86.696 86.176 86.696 85.696H88.16C88.192 86.056 88.332 86.352 88.58 86.584C88.836 86.816 89.192 86.932 89.648 86.932C90.12 86.932 90.488 86.82 90.752 86.596C91.016 86.364 91.148 86.068 91.148 85.708C91.148 85.428 91.064 85.2 90.896 85.024C90.736 84.848 90.532 84.712 90.284 84.616C90.044 84.52 89.708 84.416 89.276 84.304C88.732 84.16 88.288 84.016 87.944 83.872C87.608 83.72 87.32 83.488 87.08 83.176C86.84 82.864 86.72 82.448 86.72 81.928C86.72 81.448 86.84 81.028 87.08 80.668C87.32 80.308 87.656 80.032 88.088 79.84C88.52 79.648 89.02 79.552 89.588 79.552C90.396 79.552 91.056 79.756 91.568 80.164C92.088 80.564 92.376 81.116 92.432 81.82H90.92C90.896 81.516 90.752 81.256 90.488 81.04C90.224 80.824 89.876 80.716 89.444 80.716C89.052 80.716 88.732 80.816 88.484 81.016C88.236 81.216 88.112 81.504 88.112 81.88C88.112 82.136 88.188 82.348 88.34 82.516C88.5 82.676 88.7 82.804 88.94 82.9C89.18 82.996 89.508 83.1 89.924 83.212C90.476 83.364 90.924 83.516 91.268 83.668C91.62 83.82 91.916 84.056 92.156 84.376C92.404 84.688 92.528 85.108 92.528 85.636C92.528 86.06 92.412 86.46 92.18 86.836C91.956 87.212 91.624 87.516 91.184 87.748C90.752 87.972 90.24 88.084 89.648 88.084ZM100.202 84.532C100.202 84.78 100.186 85.004 100.154 85.204H95.1022C95.1422 85.732 95.3382 86.156 95.6902 86.476C96.0422 86.796 96.4742 86.956 96.9862 86.956C97.7222 86.956 98.2422 86.648 98.5462 86.032H100.022C99.8222 86.64 99.4582 87.14 98.9302 87.532C98.4102 87.916 97.7622 88.108 96.9862 88.108C96.3542 88.108 95.7862 87.968 95.2822 87.688C94.7862 87.4 94.3942 87 94.1062 86.488C93.8262 85.968 93.6862 85.368 93.6862 84.688C93.6862 84.008 93.8222 83.412 94.0942 82.9C94.3742 82.38 94.7622 81.98 95.2582 81.7C95.7622 81.42 96.3382 81.28 96.9862 81.28C97.6102 81.28 98.1662 81.416 98.6542 81.688C99.1422 81.96 99.5222 82.344 99.7942 82.84C100.066 83.328 100.202 83.892 100.202 84.532ZM98.7742 84.1C98.7662 83.596 98.5862 83.192 98.2342 82.888C97.8822 82.584 97.4462 82.432 96.9262 82.432C96.4542 82.432 96.0502 82.584 95.7142 82.888C95.3782 83.184 95.1782 83.588 95.1142 84.1H98.7742ZM102.916 79.12V88H101.548V79.12H102.916ZM110.773 84.532C110.773 84.78 110.757 85.004 110.725 85.204H105.673C105.713 85.732 105.909 86.156 106.261 86.476C106.613 86.796 107.045 86.956 107.557 86.956C108.293 86.956 108.813 86.648 109.117 86.032H110.592C110.393 86.64 110.029 87.14 109.501 87.532C108.981 87.916 108.333 88.108 107.557 88.108C106.925 88.108 106.357 87.968 105.853 87.688C105.357 87.4 104.965 87 104.677 86.488C104.397 85.968 104.257 85.368 104.257 84.688C104.257 84.008 104.393 83.412 104.665 82.9C104.945 82.38 105.333 81.98 105.829 81.7C106.333 81.42 106.909 81.28 107.557 81.28C108.181 81.28 108.737 81.416 109.225 81.688C109.713 81.96 110.093 82.344 110.365 82.84C110.637 83.328 110.773 83.892 110.773 84.532ZM109.345 84.1C109.337 83.596 109.157 83.192 108.805 82.888C108.453 82.584 108.017 82.432 107.497 82.432C107.025 82.432 106.621 82.584 106.285 82.888C105.949 83.184 105.749 83.588 105.685 84.1H109.345ZM111.663 84.688C111.663 84.008 111.799 83.412 112.071 82.9C112.351 82.38 112.735 81.98 113.223 81.7C113.711 81.42 114.271 81.28 114.903 81.28C115.703 81.28 116.363 81.472 116.883 81.856C117.411 82.232 117.767 82.772 117.951 83.476H116.475C116.355 83.148 116.163 82.892 115.899 82.708C115.635 82.524 115.303 82.432 114.903 82.432C114.343 82.432 113.895 82.632 113.559 83.032C113.231 83.424 113.067 83.976 113.067 84.688C113.067 85.4 113.231 85.956 113.559 86.356C113.895 86.756 114.343 86.956 114.903 86.956C115.695 86.956 116.219 86.608 116.475 85.912H117.951C117.759 86.584 117.399 87.12 116.871 87.52C116.343 87.912 115.687 88.108 114.903 88.108C114.271 88.108 113.711 87.968 113.223 87.688C112.735 87.4 112.351 87 112.071 86.488C111.799 85.968 111.663 85.368 111.663 84.688ZM120.91 82.504V86.164C120.91 86.412 120.966 86.592 121.078 86.704C121.198 86.808 121.398 86.86 121.678 86.86H122.518V88H121.438C120.822 88 120.35 87.856 120.022 87.568C119.694 87.28 119.53 86.812 119.53 86.164V82.504H118.75V81.388H119.53V79.744H120.91V81.388H122.518V82.504H120.91ZM126.44 84.664C126.44 84 126.576 83.412 126.848 82.9C127.128 82.388 127.504 81.992 127.976 81.712C128.456 81.424 128.984 81.28 129.56 81.28C130.08 81.28 130.532 81.384 130.916 81.592C131.308 81.792 131.62 82.044 131.852 82.348V81.388H133.232V88H131.852V87.016C131.62 87.328 131.304 87.588 130.904 87.796C130.504 88.004 130.048 88.108 129.536 88.108C128.968 88.108 128.448 87.964 127.976 87.676C127.504 87.38 127.128 86.972 126.848 86.452C126.576 85.924 126.44 85.328 126.44 84.664ZM131.852 84.688C131.852 84.232 131.756 83.836 131.564 83.5C131.38 83.164 131.136 82.908 130.832 82.732C130.528 82.556 130.2 82.468 129.848 82.468C129.496 82.468 129.168 82.556 128.864 82.732C128.56 82.9 128.312 83.152 128.12 83.488C127.936 83.816 127.844 84.208 127.844 84.664C127.844 85.12 127.936 85.52 128.12 85.864C128.312 86.208 128.56 86.472 128.864 86.656C129.176 86.832 129.504 86.92 129.848 86.92C130.2 86.92 130.528 86.832 130.832 86.656C131.136 86.48 131.38 86.224 131.564 85.888C131.756 85.544 131.852 85.144 131.852 84.688ZM138.365 81.28C138.885 81.28 139.349 81.388 139.757 81.604C140.173 81.82 140.497 82.14 140.729 82.564C140.961 82.988 141.077 83.5 141.077 84.1V88H139.721V84.304C139.721 83.712 139.573 83.26 139.277 82.948C138.981 82.628 138.577 82.468 138.065 82.468C137.553 82.468 137.145 82.628 136.841 82.948C136.545 83.26 136.397 83.712 136.397 84.304V88H135.029V81.388H136.397V82.144C136.621 81.872 136.905 81.66 137.249 81.508C137.601 81.356 137.973 81.28 138.365 81.28ZM142.366 84.664C142.366 84 142.502 83.412 142.774 82.9C143.054 82.388 143.43 81.992 143.902 81.712C144.382 81.424 144.914 81.28 145.498 81.28C145.93 81.28 146.354 81.376 146.77 81.568C147.194 81.752 147.53 82 147.778 82.312V79.12H149.158V88H147.778V87.004C147.554 87.324 147.242 87.588 146.842 87.796C146.45 88.004 145.998 88.108 145.486 88.108C144.91 88.108 144.382 87.964 143.902 87.676C143.43 87.38 143.054 86.972 142.774 86.452C142.502 85.924 142.366 85.328 142.366 84.664ZM147.778 84.688C147.778 84.232 147.682 83.836 147.49 83.5C147.306 83.164 147.062 82.908 146.758 82.732C146.454 82.556 146.126 82.468 145.774 82.468C145.422 82.468 145.094 82.556 144.79 82.732C144.486 82.9 144.238 83.152 144.046 83.488C143.862 83.816 143.77 84.208 143.77 84.664C143.77 85.12 143.862 85.52 144.046 85.864C144.238 86.208 144.486 86.472 144.79 86.656C145.102 86.832 145.43 86.92 145.774 86.92C146.126 86.92 146.454 86.832 146.758 86.656C147.062 86.48 147.306 86.224 147.49 85.888C147.682 85.544 147.778 85.144 147.778 84.688ZM160.06 81.388V88H158.692V87.22C158.476 87.492 158.192 87.708 157.84 87.868C157.496 88.02 157.128 88.096 156.736 88.096C156.216 88.096 155.748 87.988 155.332 87.772C154.924 87.556 154.6 87.236 154.36 86.812C154.128 86.388 154.012 85.876 154.012 85.276V81.388H155.368V85.072C155.368 85.664 155.516 86.12 155.812 86.44C156.108 86.752 156.512 86.908 157.024 86.908C157.536 86.908 157.94 86.752 158.236 86.44C158.54 86.12 158.692 85.664 158.692 85.072V81.388H160.06ZM163.233 82.36C163.465 82.056 163.781 81.8 164.181 81.592C164.581 81.384 165.033 81.28 165.537 81.28C166.113 81.28 166.637 81.424 167.109 81.712C167.589 81.992 167.965 82.388 168.237 82.9C168.509 83.412 168.645 84 168.645 84.664C168.645 85.328 168.509 85.924 168.237 86.452C167.965 86.972 167.589 87.38 167.109 87.676C166.637 87.964 166.113 88.108 165.537 88.108C165.033 88.108 164.585 88.008 164.193 87.808C163.801 87.6 163.481 87.344 163.233 87.04V91.144H161.865V81.388H163.233V82.36ZM167.253 84.664C167.253 84.208 167.157 83.816 166.965 83.488C166.781 83.152 166.533 82.9 166.221 82.732C165.917 82.556 165.589 82.468 165.237 82.468C164.893 82.468 164.565 82.556 164.253 82.732C163.949 82.908 163.701 83.164 163.509 83.5C163.325 83.836 163.233 84.232 163.233 84.688C163.233 85.144 163.325 85.544 163.509 85.888C163.701 86.224 163.949 86.48 164.253 86.656C164.565 86.832 164.893 86.92 165.237 86.92C165.589 86.92 165.917 86.832 166.221 86.656C166.533 86.472 166.781 86.208 166.965 85.864C167.157 85.52 167.253 85.12 167.253 84.664ZM171.366 79.12V88H169.998V79.12H171.366ZM176.03 88.108C175.406 88.108 174.842 87.968 174.338 87.688C173.834 87.4 173.438 87 173.15 86.488C172.862 85.968 172.718 85.368 172.718 84.688C172.718 84.016 172.866 83.42 173.162 82.9C173.458 82.38 173.862 81.98 174.374 81.7C174.886 81.42 175.458 81.28 176.09 81.28C176.722 81.28 177.294 81.42 177.806 81.7C178.318 81.98 178.722 82.38 179.018 82.9C179.314 83.42 179.462 84.016 179.462 84.688C179.462 85.36 179.31 85.956 179.006 86.476C178.702 86.996 178.286 87.4 177.758 87.688C177.238 87.968 176.662 88.108 176.03 88.108ZM176.03 86.92C176.382 86.92 176.71 86.836 177.014 86.668C177.326 86.5 177.578 86.248 177.77 85.912C177.962 85.576 178.058 85.168 178.058 84.688C178.058 84.208 177.966 83.804 177.782 83.476C177.598 83.14 177.354 82.888 177.05 82.72C176.746 82.552 176.418 82.468 176.066 82.468C175.714 82.468 175.386 82.552 175.082 82.72C174.786 82.888 174.55 83.14 174.374 83.476C174.198 83.804 174.11 84.208 174.11 84.688C174.11 85.4 174.29 85.952 174.65 86.344C175.018 86.728 175.478 86.92 176.03 86.92ZM180.358 84.664C180.358 84 180.494 83.412 180.766 82.9C181.046 82.388 181.422 81.992 181.894 81.712C182.374 81.424 182.902 81.28 183.478 81.28C183.998 81.28 184.45 81.384 184.834 81.592C185.226 81.792 185.538 82.044 185.77 82.348V81.388H187.15V88H185.77V87.016C185.538 87.328 185.222 87.588 184.822 87.796C184.422 88.004 183.966 88.108 183.454 88.108C182.886 88.108 182.366 87.964 181.894 87.676C181.422 87.38 181.046 86.972 180.766 86.452C180.494 85.924 180.358 85.328 180.358 84.664ZM185.77 84.688C185.77 84.232 185.674 83.836 185.482 83.5C185.298 83.164 185.054 82.908 184.75 82.732C184.446 82.556 184.118 82.468 183.766 82.468C183.414 82.468 183.086 82.556 182.782 82.732C182.478 82.9 182.23 83.152 182.038 83.488C181.854 83.816 181.762 84.208 181.762 84.664C181.762 85.12 181.854 85.52 182.038 85.864C182.23 86.208 182.478 86.472 182.782 86.656C183.094 86.832 183.422 86.92 183.766 86.92C184.118 86.92 184.446 86.832 184.75 86.656C185.054 86.48 185.298 86.224 185.482 85.888C185.674 85.544 185.77 85.144 185.77 84.688ZM188.491 84.664C188.491 84 188.627 83.412 188.899 82.9C189.179 82.388 189.555 81.992 190.027 81.712C190.507 81.424 191.039 81.28 191.623 81.28C192.055 81.28 192.479 81.376 192.895 81.568C193.319 81.752 193.655 82 193.903 82.312V79.12H195.283V88H193.903V87.004C193.679 87.324 193.367 87.588 192.967 87.796C192.575 88.004 192.123 88.108 191.611 88.108C191.035 88.108 190.507 87.964 190.027 87.676C189.555 87.38 189.179 86.972 188.899 86.452C188.627 85.924 188.491 85.328 188.491 84.664ZM193.903 84.688C193.903 84.232 193.807 83.836 193.615 83.5C193.431 83.164 193.187 82.908 192.883 82.732C192.579 82.556 192.251 82.468 191.899 82.468C191.547 82.468 191.219 82.556 190.915 82.732C190.611 82.9 190.363 83.152 190.171 83.488C189.987 83.816 189.895 84.208 189.895 84.664C189.895 85.12 189.987 85.52 190.171 85.864C190.363 86.208 190.611 86.472 190.915 86.656C191.227 86.832 191.555 86.92 191.899 86.92C192.251 86.92 192.579 86.832 192.883 86.656C193.187 86.48 193.431 86.224 193.615 85.888C193.807 85.544 193.903 85.144 193.903 84.688ZM201.793 82.504V86.164C201.793 86.412 201.849 86.592 201.961 86.704C202.081 86.808 202.281 86.86 202.561 86.86H203.401V88H202.321C201.705 88 201.233 87.856 200.905 87.568C200.577 87.28 200.413 86.812 200.413 86.164V82.504H199.633V81.388H200.413V79.744H201.793V81.388H203.401V82.504H201.793ZM208.082 81.28C208.586 81.28 209.034 81.388 209.426 81.604C209.826 81.82 210.138 82.14 210.362 82.564C210.594 82.988 210.71 83.5 210.71 84.1V88H209.354V84.304C209.354 83.712 209.206 83.26 208.91 82.948C208.614 82.628 208.21 82.468 207.698 82.468C207.186 82.468 206.778 82.628 206.474 82.948C206.178 83.26 206.03 83.712 206.03 84.304V88H204.662V79.12H206.03V82.156C206.262 81.876 206.554 81.66 206.906 81.508C207.266 81.356 207.658 81.28 208.082 81.28ZM218.515 84.532C218.515 84.78 218.499 85.004 218.467 85.204H213.415C213.455 85.732 213.651 86.156 214.003 86.476C214.355 86.796 214.787 86.956 215.299 86.956C216.035 86.956 216.555 86.648 216.859 86.032H218.335C218.135 86.64 217.771 87.14 217.243 87.532C216.723 87.916 216.075 88.108 215.299 88.108C214.667 88.108 214.099 87.968 213.595 87.688C213.099 87.4 212.707 87 212.419 86.488C212.139 85.968 211.999 85.368 211.999 84.688C211.999 84.008 212.135 83.412 212.407 82.9C212.687 82.38 213.075 81.98 213.571 81.7C214.075 81.42 214.651 81.28 215.299 81.28C215.923 81.28 216.479 81.416 216.967 81.688C217.455 81.96 217.835 82.344 218.107 82.84C218.379 83.328 218.515 83.892 218.515 84.532ZM217.087 84.1C217.079 83.596 216.899 83.192 216.547 82.888C216.195 82.584 215.759 82.432 215.239 82.432C214.767 82.432 214.363 82.584 214.027 82.888C213.691 83.184 213.491 83.588 213.427 84.1H217.087ZM224.346 82.372C224.578 82.052 224.894 81.792 225.294 81.592C225.702 81.384 226.154 81.28 226.65 81.28C227.234 81.28 227.762 81.42 228.234 81.7C228.706 81.98 229.078 82.38 229.35 82.9C229.622 83.412 229.758 84 229.758 84.664C229.758 85.328 229.622 85.924 229.35 86.452C229.078 86.972 228.702 87.38 228.222 87.676C227.75 87.964 227.226 88.108 226.65 88.108C226.138 88.108 225.682 88.008 225.282 87.808C224.89 87.608 224.578 87.352 224.346 87.04V88H222.978V79.12H224.346V82.372ZM228.366 84.664C228.366 84.208 228.27 83.816 228.078 83.488C227.894 83.152 227.646 82.9 227.334 82.732C227.03 82.556 226.702 82.468 226.35 82.468C226.006 82.468 225.678 82.556 225.366 82.732C225.062 82.908 224.814 83.164 224.622 83.5C224.438 83.836 224.346 84.232 224.346 84.688C224.346 85.144 224.438 85.544 224.622 85.888C224.814 86.224 225.062 86.48 225.366 86.656C225.678 86.832 226.006 86.92 226.35 86.92C226.702 86.92 227.03 86.832 227.334 86.656C227.646 86.472 227.894 86.208 228.078 85.864C228.27 85.52 228.366 85.12 228.366 84.664ZM230.655 84.664C230.655 84 230.791 83.412 231.063 82.9C231.343 82.388 231.719 81.992 232.191 81.712C232.671 81.424 233.199 81.28 233.775 81.28C234.295 81.28 234.747 81.384 235.131 81.592C235.523 81.792 235.835 82.044 236.067 82.348V81.388H237.447V88H236.067V87.016C235.835 87.328 235.519 87.588 235.119 87.796C234.719 88.004 234.263 88.108 233.751 88.108C233.183 88.108 232.663 87.964 232.191 87.676C231.719 87.38 231.343 86.972 231.063 86.452C230.791 85.924 230.655 85.328 230.655 84.664ZM236.067 84.688C236.067 84.232 235.971 83.836 235.779 83.5C235.595 83.164 235.351 82.908 235.047 82.732C234.743 82.556 234.415 82.468 234.063 82.468C233.711 82.468 233.383 82.556 233.079 82.732C232.775 82.9 232.527 83.152 232.335 83.488C232.151 83.816 232.059 84.208 232.059 84.664C232.059 85.12 232.151 85.52 232.335 85.864C232.527 86.208 232.775 86.472 233.079 86.656C233.391 86.832 233.719 86.92 234.063 86.92C234.415 86.92 234.743 86.832 235.047 86.656C235.351 86.48 235.595 86.224 235.779 85.888C235.971 85.544 236.067 85.144 236.067 84.688ZM242.58 81.28C243.1 81.28 243.564 81.388 243.972 81.604C244.388 81.82 244.712 82.14 244.944 82.564C245.176 82.988 245.292 83.5 245.292 84.1V88H243.936V84.304C243.936 83.712 243.788 83.26 243.492 82.948C243.196 82.628 242.792 82.468 242.28 82.468C241.768 82.468 241.36 82.628 241.056 82.948C240.76 83.26 240.612 83.712 240.612 84.304V88H239.244V81.388H240.612V82.144C240.836 81.872 241.12 81.66 241.464 81.508C241.816 81.356 242.188 81.28 242.58 81.28ZM250.373 81.28C250.893 81.28 251.357 81.388 251.765 81.604C252.181 81.82 252.505 82.14 252.737 82.564C252.969 82.988 253.085 83.5 253.085 84.1V88H251.729V84.304C251.729 83.712 251.581 83.26 251.285 82.948C250.989 82.628 250.585 82.468 250.073 82.468C249.561 82.468 249.153 82.628 248.849 82.948C248.553 83.26 248.405 83.712 248.405 84.304V88H247.037V81.388H248.405V82.144C248.629 81.872 248.913 81.66 249.257 81.508C249.609 81.356 249.981 81.28 250.373 81.28ZM260.89 84.532C260.89 84.78 260.874 85.004 260.842 85.204H255.79C255.83 85.732 256.026 86.156 256.378 86.476C256.73 86.796 257.162 86.956 257.674 86.956C258.41 86.956 258.93 86.648 259.234 86.032H260.71C260.51 86.64 260.146 87.14 259.618 87.532C259.098 87.916 258.45 88.108 257.674 88.108C257.042 88.108 256.474 87.968 255.97 87.688C255.474 87.4 255.082 87 254.794 86.488C254.514 85.968 254.374 85.368 254.374 84.688C254.374 84.008 254.51 83.412 254.782 82.9C255.062 82.38 255.45 81.98 255.946 81.7C256.45 81.42 257.026 81.28 257.674 81.28C258.298 81.28 258.854 81.416 259.342 81.688C259.83 81.96 260.21 82.344 260.482 82.84C260.754 83.328 260.89 83.892 260.89 84.532ZM259.462 84.1C259.454 83.596 259.274 83.192 258.922 82.888C258.57 82.584 258.134 82.432 257.614 82.432C257.142 82.432 256.738 82.584 256.402 82.888C256.066 83.184 255.866 83.588 255.802 84.1H259.462ZM263.604 82.348C263.804 82.012 264.068 81.752 264.396 81.568C264.732 81.376 265.128 81.28 265.584 81.28V82.696H265.236C264.7 82.696 264.292 82.832 264.012 83.104C263.74 83.376 263.604 83.848 263.604 84.52V88H262.236V81.388H263.604V82.348ZM267.393 88.084C267.145 88.084 266.937 88 266.769 87.832C266.601 87.664 266.517 87.456 266.517 87.208C266.517 86.96 266.601 86.752 266.769 86.584C266.937 86.416 267.145 86.332 267.393 86.332C267.633 86.332 267.837 86.416 268.005 86.584C268.173 86.752 268.257 86.96 268.257 87.208C268.257 87.456 268.173 87.664 268.005 87.832C267.837 88 267.633 88.084 267.393 88.084Z" fill="black" fill-opacity="0.7"/>
<path d="M91.844 104.68C92.332 104.784 92.724 105.028 93.02 105.412C93.316 105.788 93.464 106.22 93.464 106.708C93.464 107.412 93.216 107.972 92.72 108.388C92.232 108.796 91.548 109 90.668 109H86.744V100.576H90.536C91.392 100.576 92.06 100.772 92.54 101.164C93.028 101.556 93.272 102.088 93.272 102.76C93.272 103.256 93.14 103.668 92.876 103.996C92.62 104.324 92.276 104.552 91.844 104.68ZM88.796 103.984H90.14C90.476 103.984 90.732 103.912 90.908 103.768C91.092 103.616 91.184 103.396 91.184 103.108C91.184 102.82 91.092 102.6 90.908 102.448C90.732 102.296 90.476 102.22 90.14 102.22H88.796V103.984ZM90.308 107.344C90.652 107.344 90.916 107.268 91.1 107.116C91.292 106.956 91.388 106.728 91.388 106.432C91.388 106.136 91.288 105.904 91.088 105.736C90.896 105.568 90.628 105.484 90.284 105.484H88.796V107.344H90.308ZM94.2462 105.64C94.2462 104.952 94.3742 104.348 94.6302 103.828C94.8942 103.308 95.2502 102.908 95.6982 102.628C96.1462 102.348 96.6462 102.208 97.1982 102.208C97.6702 102.208 98.0822 102.304 98.4342 102.496C98.7942 102.688 99.0702 102.94 99.2622 103.252V102.304H101.314V109H99.2622V108.052C99.0622 108.364 98.7822 108.616 98.4222 108.808C98.0702 109 97.6582 109.096 97.1862 109.096C96.6422 109.096 96.1462 108.956 95.6982 108.676C95.2502 108.388 94.8942 107.984 94.6302 107.464C94.3742 106.936 94.2462 106.328 94.2462 105.64ZM99.2622 105.652C99.2622 105.14 99.1182 104.736 98.8302 104.44C98.5502 104.144 98.2062 103.996 97.7982 103.996C97.3902 103.996 97.0422 104.144 96.7542 104.44C96.4742 104.728 96.3342 105.128 96.3342 105.64C96.3342 106.152 96.4742 106.56 96.7542 106.864C97.0422 107.16 97.3902 107.308 97.7982 107.308C98.2062 107.308 98.5502 107.16 98.8302 106.864C99.1182 106.568 99.2622 106.164 99.2622 105.652ZM106.879 102.232C107.663 102.232 108.287 102.488 108.751 103C109.223 103.504 109.459 104.2 109.459 105.088V109H107.419V105.364C107.419 104.916 107.303 104.568 107.071 104.32C106.839 104.072 106.527 103.948 106.135 103.948C105.743 103.948 105.431 104.072 105.199 104.32C104.967 104.568 104.851 104.916 104.851 105.364V109H102.799V102.304H104.851V103.192C105.059 102.896 105.339 102.664 105.691 102.496C106.043 102.32 106.439 102.232 106.879 102.232ZM114.965 102.232C115.749 102.232 116.373 102.488 116.837 103C117.309 103.504 117.545 104.2 117.545 105.088V109H115.505V105.364C115.505 104.916 115.389 104.568 115.157 104.32C114.925 104.072 114.613 103.948 114.221 103.948C113.829 103.948 113.517 104.072 113.285 104.32C113.053 104.568 112.937 104.916 112.937 105.364V109H110.885V102.304H112.937V103.192C113.145 102.896 113.425 102.664 113.777 102.496C114.129 102.32 114.525 102.232 114.965 102.232ZM125.283 105.544C125.283 105.736 125.271 105.936 125.247 106.144H120.603C120.635 106.56 120.767 106.88 120.999 107.104C121.239 107.32 121.531 107.428 121.875 107.428C122.387 107.428 122.743 107.212 122.943 106.78H125.127C125.015 107.22 124.811 107.616 124.515 107.968C124.227 108.32 123.863 108.596 123.423 108.796C122.983 108.996 122.491 109.096 121.947 109.096C121.291 109.096 120.707 108.956 120.195 108.676C119.683 108.396 119.283 107.996 118.995 107.476C118.707 106.956 118.563 106.348 118.563 105.652C118.563 104.956 118.703 104.348 118.983 103.828C119.271 103.308 119.671 102.908 120.183 102.628C120.695 102.348 121.283 102.208 121.947 102.208C122.595 102.208 123.171 102.344 123.675 102.616C124.179 102.888 124.571 103.276 124.851 103.78C125.139 104.284 125.283 104.872 125.283 105.544ZM123.183 105.004C123.183 104.652 123.063 104.372 122.823 104.164C122.583 103.956 122.283 103.852 121.923 103.852C121.579 103.852 121.287 103.952 121.047 104.152C120.815 104.352 120.671 104.636 120.615 105.004H123.183ZM128.417 103.42C128.657 103.052 128.957 102.764 129.317 102.556C129.677 102.34 130.077 102.232 130.517 102.232V104.404H129.953C129.441 104.404 129.057 104.516 128.801 104.74C128.545 104.956 128.417 105.34 128.417 105.892V109H126.365V102.304H128.417V103.42ZM133.633 105.64C133.633 104.952 133.761 104.348 134.017 103.828C134.281 103.308 134.637 102.908 135.085 102.628C135.533 102.348 136.033 102.208 136.585 102.208C137.025 102.208 137.425 102.3 137.785 102.484C138.153 102.668 138.441 102.916 138.649 103.228V100.12H140.701V109H138.649V108.04C138.457 108.36 138.181 108.616 137.821 108.808C137.469 109 137.057 109.096 136.585 109.096C136.033 109.096 135.533 108.956 135.085 108.676C134.637 108.388 134.281 107.984 134.017 107.464C133.761 106.936 133.633 106.328 133.633 105.64ZM138.649 105.652C138.649 105.14 138.505 104.736 138.217 104.44C137.937 104.144 137.593 103.996 137.185 103.996C136.777 103.996 136.429 104.144 136.141 104.44C135.861 104.728 135.721 105.128 135.721 105.64C135.721 106.152 135.861 106.56 136.141 106.864C136.429 107.16 136.777 107.308 137.185 107.308C137.593 107.308 137.937 107.16 138.217 106.864C138.505 106.568 138.649 106.164 138.649 105.652ZM148.497 105.544C148.497 105.736 148.485 105.936 148.461 106.144H143.817C143.849 106.56 143.981 106.88 144.213 107.104C144.453 107.32 144.745 107.428 145.089 107.428C145.601 107.428 145.957 107.212 146.157 106.78H148.341C148.229 107.22 148.025 107.616 147.729 107.968C147.441 108.32 147.077 108.596 146.637 108.796C146.197 108.996 145.705 109.096 145.161 109.096C144.505 109.096 143.921 108.956 143.409 108.676C142.897 108.396 142.497 107.996 142.209 107.476C141.921 106.956 141.777 106.348 141.777 105.652C141.777 104.956 141.917 104.348 142.197 103.828C142.485 103.308 142.885 102.908 143.397 102.628C143.909 102.348 144.497 102.208 145.161 102.208C145.809 102.208 146.385 102.344 146.889 102.616C147.393 102.888 147.785 103.276 148.065 103.78C148.353 104.284 148.497 104.872 148.497 105.544ZM146.397 105.004C146.397 104.652 146.277 104.372 146.037 104.164C145.797 103.956 145.497 103.852 145.137 103.852C144.793 103.852 144.501 103.952 144.261 104.152C144.029 104.352 143.885 104.636 143.829 105.004H146.397ZM152.304 109.096C151.72 109.096 151.2 108.996 150.744 108.796C150.288 108.596 149.928 108.324 149.664 107.98C149.4 107.628 149.252 107.236 149.22 106.804H151.248C151.272 107.036 151.38 107.224 151.572 107.368C151.764 107.512 152 107.584 152.28 107.584C152.536 107.584 152.732 107.536 152.868 107.44C153.012 107.336 153.084 107.204 153.084 107.044C153.084 106.852 152.984 106.712 152.784 106.624C152.584 106.528 152.26 106.424 151.812 106.312C151.332 106.2 150.932 106.084 150.612 105.964C150.292 105.836 150.016 105.64 149.784 105.376C149.552 105.104 149.436 104.74 149.436 104.284C149.436 103.9 149.54 103.552 149.748 103.24C149.964 102.92 150.276 102.668 150.684 102.484C151.1 102.3 151.592 102.208 152.16 102.208C153 102.208 153.66 102.416 154.14 102.832C154.628 103.248 154.908 103.8 154.98 104.488H153.084C153.052 104.256 152.948 104.072 152.772 103.936C152.604 103.8 152.38 103.732 152.1 103.732C151.86 103.732 151.676 103.78 151.548 103.876C151.42 103.964 151.356 104.088 151.356 104.248C151.356 104.44 151.456 104.584 151.656 104.68C151.864 104.776 152.184 104.872 152.616 104.968C153.112 105.096 153.516 105.224 153.828 105.352C154.14 105.472 154.412 105.672 154.644 105.952C154.884 106.224 155.008 106.592 155.016 107.056C155.016 107.448 154.904 107.8 154.68 108.112C154.464 108.416 154.148 108.656 153.732 108.832C153.324 109.008 152.848 109.096 152.304 109.096ZM157.303 101.608C156.943 101.608 156.647 101.504 156.415 101.296C156.191 101.08 156.079 100.816 156.079 100.504C156.079 100.184 156.191 99.92 156.415 99.712C156.647 99.496 156.943 99.388 157.303 99.388C157.655 99.388 157.943 99.496 158.167 99.712C158.399 99.92 158.515 100.184 158.515 100.504C158.515 100.816 158.399 101.08 158.167 101.296C157.943 101.504 157.655 101.608 157.303 101.608ZM158.323 102.304V109H156.271V102.304H158.323ZM162.354 102.208C162.826 102.208 163.238 102.304 163.59 102.496C163.95 102.688 164.226 102.94 164.418 103.252V102.304H166.47V108.988C166.47 109.604 166.346 110.16 166.098 110.656C165.858 111.16 165.486 111.56 164.982 111.856C164.486 112.152 163.866 112.3 163.122 112.3C162.13 112.3 161.326 112.064 160.71 111.592C160.094 111.128 159.742 110.496 159.654 109.696H161.682C161.746 109.952 161.898 110.152 162.138 110.296C162.378 110.448 162.674 110.524 163.026 110.524C163.45 110.524 163.786 110.4 164.034 110.152C164.29 109.912 164.418 109.524 164.418 108.988V108.04C164.218 108.352 163.942 108.608 163.59 108.808C163.238 109 162.826 109.096 162.354 109.096C161.802 109.096 161.302 108.956 160.854 108.676C160.406 108.388 160.05 107.984 159.786 107.464C159.53 106.936 159.402 106.328 159.402 105.64C159.402 104.952 159.53 104.348 159.786 103.828C160.05 103.308 160.406 102.908 160.854 102.628C161.302 102.348 161.802 102.208 162.354 102.208ZM164.418 105.652C164.418 105.14 164.274 104.736 163.986 104.44C163.706 104.144 163.362 103.996 162.954 103.996C162.546 103.996 162.198 104.144 161.91 104.44C161.63 104.728 161.49 105.128 161.49 105.64C161.49 106.152 161.63 106.56 161.91 106.864C162.198 107.16 162.546 107.308 162.954 107.308C163.362 107.308 163.706 107.16 163.986 106.864C164.274 106.568 164.418 106.164 164.418 105.652ZM172.035 102.232C172.819 102.232 173.443 102.488 173.907 103C174.379 103.504 174.615 104.2 174.615 105.088V109H172.575V105.364C172.575 104.916 172.459 104.568 172.227 104.32C171.995 104.072 171.683 103.948 171.291 103.948C170.899 103.948 170.587 104.072 170.355 104.32C170.123 104.568 170.007 104.916 170.007 105.364V109H167.955V102.304H170.007V103.192C170.215 102.896 170.495 102.664 170.847 102.496C171.199 102.32 171.595 102.232 172.035 102.232ZM187.128 102.232C187.96 102.232 188.62 102.484 189.108 102.988C189.604 103.492 189.852 104.192 189.852 105.088V109H187.812V105.364C187.812 104.932 187.696 104.6 187.464 104.368C187.24 104.128 186.928 104.008 186.528 104.008C186.128 104.008 185.812 104.128 185.58 104.368C185.356 104.6 185.244 104.932 185.244 105.364V109H183.204V105.364C183.204 104.932 183.088 104.6 182.856 104.368C182.632 104.128 182.32 104.008 181.92 104.008C181.52 104.008 181.204 104.128 180.972 104.368C180.748 104.6 180.636 104.932 180.636 105.364V109H178.584V102.304H180.636V103.144C180.844 102.864 181.116 102.644 181.452 102.484C181.788 102.316 182.168 102.232 182.592 102.232C183.096 102.232 183.544 102.34 183.936 102.556C184.336 102.772 184.648 103.08 184.872 103.48C185.104 103.112 185.42 102.812 185.82 102.58C186.22 102.348 186.656 102.232 187.128 102.232ZM197.899 102.304V109H195.847V108.088C195.639 108.384 195.355 108.624 194.995 108.808C194.643 108.984 194.251 109.072 193.819 109.072C193.307 109.072 192.855 108.96 192.463 108.736C192.071 108.504 191.767 108.172 191.551 107.74C191.335 107.308 191.227 106.8 191.227 106.216V102.304H193.267V105.94C193.267 106.388 193.383 106.736 193.615 106.984C193.847 107.232 194.159 107.356 194.551 107.356C194.951 107.356 195.267 107.232 195.499 106.984C195.731 106.736 195.847 106.388 195.847 105.94V102.304H197.899ZM202.097 109.096C201.513 109.096 200.993 108.996 200.537 108.796C200.081 108.596 199.721 108.324 199.457 107.98C199.193 107.628 199.045 107.236 199.013 106.804H201.041C201.065 107.036 201.173 107.224 201.365 107.368C201.557 107.512 201.793 107.584 202.073 107.584C202.329 107.584 202.525 107.536 202.661 107.44C202.805 107.336 202.877 107.204 202.877 107.044C202.877 106.852 202.777 106.712 202.577 106.624C202.377 106.528 202.053 106.424 201.605 106.312C201.125 106.2 200.725 106.084 200.405 105.964C200.085 105.836 199.809 105.64 199.577 105.376C199.345 105.104 199.229 104.74 199.229 104.284C199.229 103.9 199.333 103.552 199.541 103.24C199.757 102.92 200.069 102.668 200.477 102.484C200.893 102.3 201.385 102.208 201.953 102.208C202.793 102.208 203.453 102.416 203.933 102.832C204.421 103.248 204.701 103.8 204.773 104.488H202.877C202.845 104.256 202.741 104.072 202.565 103.936C202.397 103.8 202.173 103.732 201.893 103.732C201.653 103.732 201.469 103.78 201.341 103.876C201.213 103.964 201.149 104.088 201.149 104.248C201.149 104.44 201.249 104.584 201.449 104.68C201.657 104.776 201.977 104.872 202.409 104.968C202.905 105.096 203.309 105.224 203.621 105.352C203.933 105.472 204.205 105.672 204.437 105.952C204.677 106.224 204.801 106.592 204.809 107.056C204.809 107.448 204.697 107.8 204.473 108.112C204.257 108.416 203.941 108.656 203.525 108.832C203.117 109.008 202.641 109.096 202.097 109.096ZM209.796 107.26V109H208.752C208.008 109 207.428 108.82 207.012 108.46C206.596 108.092 206.388 107.496 206.388 106.672V104.008H205.572V102.304H206.388V100.672H208.44V102.304H209.784V104.008H208.44V106.696C208.44 106.896 208.488 107.04 208.584 107.128C208.68 107.216 208.84 107.26 209.064 107.26H209.796ZM215.534 103.252C215.726 102.94 216.002 102.688 216.362 102.496C216.722 102.304 217.134 102.208 217.598 102.208C218.15 102.208 218.65 102.348 219.098 102.628C219.546 102.908 219.898 103.308 220.154 103.828C220.418 104.348 220.55 104.952 220.55 105.64C220.55 106.328 220.418 106.936 220.154 107.464C219.898 107.984 219.546 108.388 219.098 108.676C218.65 108.956 218.15 109.096 217.598 109.096C217.126 109.096 216.714 109.004 216.362 108.82C216.01 108.628 215.734 108.376 215.534 108.064V109H213.482V100.12H215.534V103.252ZM218.462 105.64C218.462 105.128 218.318 104.728 218.03 104.44C217.75 104.144 217.402 103.996 216.986 103.996C216.578 103.996 216.23 104.144 215.942 104.44C215.662 104.736 215.522 105.14 215.522 105.652C215.522 106.164 215.662 106.568 215.942 106.864C216.23 107.16 216.578 107.308 216.986 107.308C217.394 107.308 217.742 107.16 218.03 106.864C218.318 106.56 218.462 106.152 218.462 105.64ZM227.939 105.544C227.939 105.736 227.927 105.936 227.903 106.144H223.259C223.291 106.56 223.423 106.88 223.655 107.104C223.895 107.32 224.187 107.428 224.531 107.428C225.043 107.428 225.399 107.212 225.599 106.78H227.783C227.671 107.22 227.467 107.616 227.171 107.968C226.883 108.32 226.519 108.596 226.079 108.796C225.639 108.996 225.147 109.096 224.603 109.096C223.947 109.096 223.363 108.956 222.851 108.676C222.339 108.396 221.939 107.996 221.651 107.476C221.363 106.956 221.219 106.348 221.219 105.652C221.219 104.956 221.359 104.348 221.639 103.828C221.927 103.308 222.327 102.908 222.839 102.628C223.351 102.348 223.939 102.208 224.603 102.208C225.251 102.208 225.827 102.344 226.331 102.616C226.835 102.888 227.227 103.276 227.507 103.78C227.795 104.284 227.939 104.872 227.939 105.544ZM225.839 105.004C225.839 104.652 225.719 104.372 225.479 104.164C225.239 103.956 224.939 103.852 224.579 103.852C224.235 103.852 223.943 103.952 223.703 104.152C223.471 104.352 223.327 104.636 223.271 105.004H225.839ZM231.144 102.148V100.24H234.468V109H232.332V102.148H231.144ZM235.92 107.44V105.784L239.712 100.36H242.004V105.664H242.988V107.44H242.004V109H239.952V107.44H235.92ZM240.096 102.616L238.08 105.664H240.096V102.616ZM244.041 107.44V105.784L247.833 100.36H250.125V105.664H251.109V107.44H250.125V109H248.073V107.44H244.041ZM248.217 102.616L246.201 105.664H248.217V102.616ZM252.114 104.5C252.114 103.124 252.378 102.04 252.906 101.248C253.442 100.456 254.302 100.06 255.486 100.06C256.67 100.06 257.526 100.456 258.054 101.248C258.59 102.04 258.858 103.124 258.858 104.5C258.858 105.892 258.59 106.984 258.054 107.776C257.526 108.568 256.67 108.964 255.486 108.964C254.302 108.964 253.442 108.568 252.906 107.776C252.378 106.984 252.114 105.892 252.114 104.5ZM256.842 104.5C256.842 103.692 256.754 103.072 256.578 102.64C256.402 102.2 256.038 101.98 255.486 101.98C254.934 101.98 254.57 102.2 254.394 102.64C254.218 103.072 254.13 103.692 254.13 104.5C254.13 105.044 254.162 105.496 254.226 105.856C254.29 106.208 254.418 106.496 254.61 106.72C254.81 106.936 255.102 107.044 255.486 107.044C255.87 107.044 256.158 106.936 256.35 106.72C256.55 106.496 256.682 106.208 256.746 105.856C256.81 105.496 256.842 105.044 256.842 104.5ZM266.649 109L265.365 107.14L264.285 109H262.065L264.273 105.58L262.005 102.304H264.309L265.593 104.152L266.673 102.304H268.893L266.649 105.676L268.953 109H266.649ZM272.011 107.356C272.283 107.14 272.407 107.04 272.383 107.056C273.167 106.408 273.783 105.876 274.231 105.46C274.687 105.044 275.071 104.608 275.383 104.152C275.695 103.696 275.851 103.252 275.851 102.82C275.851 102.492 275.775 102.236 275.623 102.052C275.471 101.868 275.243 101.776 274.939 101.776C274.635 101.776 274.395 101.892 274.219 102.124C274.051 102.348 273.967 102.668 273.967 103.084H271.987C272.003 102.404 272.147 101.836 272.419 101.38C272.699 100.924 273.063 100.588 273.511 100.372C273.967 100.156 274.471 100.048 275.023 100.048C275.975 100.048 276.691 100.292 277.171 100.78C277.659 101.268 277.903 101.904 277.903 102.688C277.903 103.544 277.611 104.34 277.027 105.076C276.443 105.804 275.699 106.516 274.795 107.212H278.035V108.88H272.011V107.356ZM279.01 102.712C279.042 101.856 279.322 101.196 279.85 100.732C280.378 100.268 281.094 100.036 281.998 100.036C282.598 100.036 283.11 100.14 283.534 100.348C283.966 100.556 284.29 100.84 284.506 101.2C284.73 101.56 284.842 101.964 284.842 102.412C284.842 102.94 284.71 103.372 284.446 103.708C284.182 104.036 283.874 104.26 283.522 104.38V104.428C283.978 104.58 284.338 104.832 284.602 105.184C284.866 105.536 284.998 105.988 284.998 106.54C284.998 107.036 284.882 107.476 284.65 107.86C284.426 108.236 284.094 108.532 283.654 108.748C283.222 108.964 282.706 109.072 282.106 109.072C281.146 109.072 280.378 108.836 279.802 108.364C279.234 107.892 278.934 107.18 278.902 106.228H280.894C280.902 106.58 281.002 106.86 281.194 107.068C281.386 107.268 281.666 107.368 282.034 107.368C282.346 107.368 282.586 107.28 282.754 107.104C282.93 106.92 283.018 106.68 283.018 106.384C283.018 106 282.894 105.724 282.646 105.556C282.406 105.38 282.018 105.292 281.482 105.292H281.098V103.624H281.482C281.89 103.624 282.218 103.556 282.466 103.42C282.722 103.276 282.85 103.024 282.85 102.664C282.85 102.376 282.77 102.152 282.61 101.992C282.45 101.832 282.23 101.752 281.95 101.752C281.646 101.752 281.418 101.844 281.266 102.028C281.122 102.212 281.038 102.44 281.014 102.712H279.01ZM288.412 106.432C288.532 107.064 288.9 107.38 289.516 107.38C289.94 107.38 290.24 107.192 290.416 106.816C290.592 106.44 290.68 105.828 290.68 104.98C290.504 105.228 290.264 105.42 289.96 105.556C289.656 105.692 289.316 105.76 288.94 105.76C288.428 105.76 287.972 105.656 287.572 105.448C287.172 105.232 286.856 104.916 286.624 104.5C286.4 104.076 286.288 103.564 286.288 102.964C286.288 102.372 286.408 101.856 286.648 101.416C286.896 100.976 287.244 100.636 287.692 100.396C288.148 100.156 288.684 100.036 289.3 100.036C290.484 100.036 291.312 100.404 291.784 101.14C292.256 101.876 292.492 102.96 292.492 104.392C292.492 105.432 292.396 106.292 292.204 106.972C292.02 107.644 291.704 108.156 291.256 108.508C290.816 108.86 290.212 109.036 289.444 109.036C288.836 109.036 288.316 108.916 287.884 108.676C287.46 108.436 287.132 108.12 286.9 107.728C286.676 107.336 286.548 106.904 286.516 106.432H288.412ZM289.408 104.14C289.744 104.14 290.012 104.04 290.212 103.84C290.412 103.632 290.512 103.352 290.512 103C290.512 102.616 290.408 102.32 290.2 102.112C289.992 101.904 289.712 101.8 289.36 101.8C289.008 101.8 288.728 101.908 288.52 102.124C288.32 102.332 288.22 102.62 288.22 102.988C288.22 103.332 288.32 103.612 288.52 103.828C288.728 104.036 289.024 104.14 289.408 104.14ZM298.386 103.252C298.586 102.94 298.862 102.688 299.214 102.496C299.566 102.304 299.978 102.208 300.45 102.208C301.002 102.208 301.502 102.348 301.95 102.628C302.398 102.908 302.75 103.308 303.006 103.828C303.27 104.348 303.402 104.952 303.402 105.64C303.402 106.328 303.27 106.936 303.006 107.464C302.75 107.984 302.398 108.388 301.95 108.676C301.502 108.956 301.002 109.096 300.45 109.096C299.986 109.096 299.574 109 299.214 108.808C298.862 108.616 298.586 108.368 298.386 108.064V112.192H296.334V102.304H298.386V103.252ZM301.314 105.64C301.314 105.128 301.17 104.728 300.882 104.44C300.602 104.144 300.254 103.996 299.838 103.996C299.43 103.996 299.082 104.144 298.794 104.44C298.514 104.736 298.374 105.14 298.374 105.652C298.374 106.164 298.514 106.568 298.794 106.864C299.082 107.16 299.43 107.308 299.838 107.308C300.246 107.308 300.594 107.16 300.882 106.864C301.17 106.56 301.314 106.152 301.314 105.64ZM305.51 101.608C305.15 101.608 304.854 101.504 304.622 101.296C304.398 101.08 304.286 100.816 304.286 100.504C304.286 100.184 304.398 99.92 304.622 99.712C304.854 99.496 305.15 99.388 305.51 99.388C305.862 99.388 306.15 99.496 306.374 99.712C306.606 99.92 306.722 100.184 306.722 100.504C306.722 100.816 306.606 101.08 306.374 101.296C306.15 101.504 305.862 101.608 305.51 101.608ZM306.53 102.304V109H304.478V102.304H306.53ZM311.977 109L310.693 107.14L309.613 109H307.393L309.601 105.58L307.333 102.304H309.637L310.921 104.152L312.001 102.304H314.221L311.977 105.676L314.281 109H311.977ZM321.384 105.544C321.384 105.736 321.372 105.936 321.348 106.144H316.704C316.736 106.56 316.868 106.88 317.1 107.104C317.34 107.32 317.632 107.428 317.976 107.428C318.488 107.428 318.844 107.212 319.044 106.78H321.228C321.116 107.22 320.912 107.616 320.616 107.968C320.328 108.32 319.964 108.596 319.524 108.796C319.084 108.996 318.592 109.096 318.048 109.096C317.392 109.096 316.808 108.956 316.296 108.676C315.784 108.396 315.384 107.996 315.096 107.476C314.808 106.956 314.664 106.348 314.664 105.652C314.664 104.956 314.804 104.348 315.084 103.828C315.372 103.308 315.772 102.908 316.284 102.628C316.796 102.348 317.384 102.208 318.048 102.208C318.696 102.208 319.272 102.344 319.776 102.616C320.28 102.888 320.672 103.276 320.952 103.78C321.24 104.284 321.384 104.872 321.384 105.544ZM319.284 105.004C319.284 104.652 319.164 104.372 318.924 104.164C318.684 103.956 318.384 103.852 318.024 103.852C317.68 103.852 317.388 103.952 317.148 104.152C316.916 104.352 316.772 104.636 316.716 105.004H319.284ZM324.519 100.12V109H322.467V100.12H324.519ZM328.73 109.096C328.146 109.096 327.626 108.996 327.17 108.796C326.714 108.596 326.354 108.324 326.09 107.98C325.826 107.628 325.678 107.236 325.646 106.804H327.674C327.698 107.036 327.806 107.224 327.998 107.368C328.19 107.512 328.426 107.584 328.706 107.584C328.962 107.584 329.158 107.536 329.294 107.44C329.438 107.336 329.51 107.204 329.51 107.044C329.51 106.852 329.41 106.712 329.21 106.624C329.01 106.528 328.686 106.424 328.238 106.312C327.758 106.2 327.358 106.084 327.038 105.964C326.718 105.836 326.442 105.64 326.21 105.376C325.978 105.104 325.862 104.74 325.862 104.284C325.862 103.9 325.966 103.552 326.174 103.24C326.39 102.92 326.702 102.668 327.11 102.484C327.526 102.3 328.018 102.208 328.586 102.208C329.426 102.208 330.086 102.416 330.566 102.832C331.054 103.248 331.334 103.8 331.406 104.488H329.51C329.478 104.256 329.374 104.072 329.198 103.936C329.03 103.8 328.806 103.732 328.526 103.732C328.286 103.732 328.102 103.78 327.974 103.876C327.846 103.964 327.782 104.088 327.782 104.248C327.782 104.44 327.882 104.584 328.082 104.68C328.29 104.776 328.61 104.872 329.042 104.968C329.538 105.096 329.942 105.224 330.254 105.352C330.566 105.472 330.838 105.672 331.07 105.952C331.31 106.224 331.434 106.592 331.442 107.056C331.442 107.448 331.33 107.8 331.106 108.112C330.89 108.416 330.574 108.656 330.158 108.832C329.75 109.008 329.274 109.096 328.73 109.096ZM333.657 109.096C333.297 109.096 333.001 108.992 332.769 108.784C332.545 108.568 332.433 108.304 332.433 107.992C332.433 107.672 332.545 107.404 332.769 107.188C333.001 106.972 333.297 106.864 333.657 106.864C334.009 106.864 334.297 106.972 334.521 107.188C334.753 107.404 334.869 107.672 334.869 107.992C334.869 108.304 334.753 108.568 334.521 108.784C334.297 108.992 334.009 109.096 333.657 109.096Z" fill="black" fill-opacity="0.7"/>
<path d="M24 130L379 130" stroke="white" stroke-opacity="0.2"/>
<rect x="25" y="179" width="353" height="185.005" rx="12" stroke="#CBD0DC" stroke-width="2" stroke-dasharray="6 6"/>
<path d="M197.151 223.255H195.311C192.493 223.054 191.229 220.888 191.229 218.962C191.229 217.035 192.493 214.86 195.263 214.668C195.656 214.63 196.001 214.937 196.03 215.339C196.058 215.732 195.761 216.077 195.359 216.106C193.5 216.24 192.666 217.639 192.666 218.971C192.666 220.303 193.5 221.702 195.359 221.837H197.151C197.544 221.837 197.87 222.162 197.87 222.555C197.87 222.948 197.544 223.255 197.151 223.255Z" fill="black"/>
<path d="M205.976 223.255C205.957 223.255 205.947 223.255 205.928 223.255C205.535 223.255 205.171 222.929 205.171 222.536C205.171 222.124 205.478 221.818 205.88 221.818C207.059 221.818 208.113 221.405 208.937 220.668C210.432 219.364 210.528 217.486 210.126 216.163C209.723 214.85 208.602 213.346 206.647 213.106C206.331 213.068 206.081 212.828 206.024 212.512C205.641 210.212 204.404 208.621 202.526 208.046C200.59 207.443 198.329 208.037 196.92 209.513C195.549 210.94 195.233 212.943 196.029 215.148C196.163 215.521 195.971 215.933 195.597 216.068C195.224 216.202 194.812 216.01 194.677 215.636C193.709 212.934 194.15 210.346 195.885 208.525C197.658 206.666 200.504 205.928 202.948 206.676C205.19 207.366 206.771 209.215 207.346 211.784C209.301 212.225 210.873 213.71 211.496 215.761C212.177 217.994 211.563 220.294 209.886 221.75C208.822 222.709 207.433 223.255 205.976 223.255Z" fill="black"/>
<path d="M201.501 226.073C199.574 226.073 197.773 225.047 196.786 223.389C196.68 223.226 196.575 223.035 196.489 222.824C196.163 222.143 195.99 221.367 195.99 220.562C195.99 217.524 198.463 215.052 201.501 215.052C204.539 215.052 207.011 217.524 207.011 220.562C207.011 221.377 206.839 222.143 206.494 222.853C206.417 223.035 206.312 223.226 206.197 223.408C205.229 225.047 203.427 226.073 201.501 226.073ZM201.501 216.489C199.258 216.489 197.428 218.32 197.428 220.562C197.428 221.156 197.552 221.712 197.792 222.22C197.869 222.383 197.936 222.517 198.012 222.642C198.741 223.878 200.073 224.635 201.491 224.635C202.909 224.635 204.241 223.878 204.96 222.661C205.046 222.517 205.123 222.383 205.181 222.249C205.439 221.722 205.564 221.166 205.564 220.572C205.574 218.32 203.743 216.489 201.501 216.489Z" fill="black"/>
<path d="M200.954 222.23C200.772 222.23 200.59 222.163 200.446 222.019L199.498 221.07C199.22 220.792 199.22 220.332 199.498 220.054C199.775 219.776 200.235 219.776 200.513 220.054L200.973 220.514L202.507 219.096C202.804 218.828 203.254 218.847 203.523 219.134C203.791 219.422 203.772 219.882 203.484 220.15L201.443 222.038C201.299 222.163 201.127 222.23 200.954 222.23Z" fill="black"/>
<path d="M79.0883 253.835C79.0883 252.883 79.3076 252.029 79.7463 251.273C80.1943 250.517 80.7963 249.929 81.5523 249.509C82.3176 249.079 83.153 248.865 84.0583 248.865C85.0943 248.865 86.0136 249.121 86.8163 249.635C87.6283 250.139 88.2163 250.857 88.5803 251.791H86.6623C86.4103 251.277 86.0603 250.895 85.6123 250.643C85.1643 250.391 84.6463 250.265 84.0583 250.265C83.4143 250.265 82.8403 250.409 82.3363 250.699C81.8323 250.988 81.4356 251.403 81.1463 251.945C80.8663 252.486 80.7263 253.116 80.7263 253.835C80.7263 254.553 80.8663 255.183 81.1463 255.725C81.4356 256.266 81.8323 256.686 82.3363 256.985C82.8403 257.274 83.4143 257.419 84.0583 257.419C84.6463 257.419 85.1643 257.293 85.6123 257.041C86.0603 256.789 86.4103 256.406 86.6623 255.893H88.5803C88.2163 256.826 87.6283 257.545 86.8163 258.049C86.0136 258.553 85.0943 258.805 84.0583 258.805C83.1436 258.805 82.3083 258.595 81.5523 258.175C80.7963 257.745 80.1943 257.153 79.7463 256.397C79.3076 255.641 79.0883 254.787 79.0883 253.835ZM94.4384 250.881C95.0264 250.881 95.5491 251.007 96.0064 251.259C96.4731 251.511 96.8371 251.884 97.0984 252.379C97.3691 252.873 97.5044 253.471 97.5044 254.171V258.721H95.9224V254.409C95.9224 253.718 95.7498 253.191 95.4044 252.827C95.0591 252.453 94.5878 252.267 93.9904 252.267C93.3931 252.267 92.9171 252.453 92.5624 252.827C92.2171 253.191 92.0444 253.718 92.0444 254.409V258.721H90.4484V248.361H92.0444V251.903C92.3151 251.576 92.6558 251.324 93.0664 251.147C93.4864 250.969 93.9438 250.881 94.4384 250.881ZM102.886 258.847C102.158 258.847 101.5 258.683 100.912 258.357C100.324 258.021 99.8622 257.554 99.5262 256.957C99.1902 256.35 99.0222 255.65 99.0222 254.857C99.0222 254.073 99.1949 253.377 99.5402 252.771C99.8856 252.164 100.357 251.697 100.954 251.371C101.552 251.044 102.219 250.881 102.956 250.881C103.694 250.881 104.361 251.044 104.958 251.371C105.556 251.697 106.027 252.164 106.372 252.771C106.718 253.377 106.89 254.073 106.89 254.857C106.89 255.641 106.713 256.336 106.358 256.943C106.004 257.549 105.518 258.021 104.902 258.357C104.296 258.683 103.624 258.847 102.886 258.847ZM102.886 257.461C103.297 257.461 103.68 257.363 104.034 257.167C104.398 256.971 104.692 256.677 104.916 256.285C105.14 255.893 105.252 255.417 105.252 254.857C105.252 254.297 105.145 253.825 104.93 253.443C104.716 253.051 104.431 252.757 104.076 252.561C103.722 252.365 103.339 252.267 102.928 252.267C102.518 252.267 102.135 252.365 101.78 252.561C101.435 252.757 101.16 253.051 100.954 253.443C100.749 253.825 100.646 254.297 100.646 254.857C100.646 255.687 100.856 256.331 101.276 256.789C101.706 257.237 102.242 257.461 102.886 257.461ZM111.814 258.847C111.086 258.847 110.428 258.683 109.84 258.357C109.252 258.021 108.79 257.554 108.454 256.957C108.118 256.35 107.95 255.65 107.95 254.857C107.95 254.073 108.123 253.377 108.468 252.771C108.813 252.164 109.285 251.697 109.882 251.371C110.479 251.044 111.147 250.881 111.884 250.881C112.621 250.881 113.289 251.044 113.886 251.371C114.483 251.697 114.955 252.164 115.3 252.771C115.645 253.377 115.818 254.073 115.818 254.857C115.818 255.641 115.641 256.336 115.286 256.943C114.931 257.549 114.446 258.021 113.83 258.357C113.223 258.683 112.551 258.847 111.814 258.847ZM111.814 257.461C112.225 257.461 112.607 257.363 112.962 257.167C113.326 256.971 113.62 256.677 113.844 256.285C114.068 255.893 114.18 255.417 114.18 254.857C114.18 254.297 114.073 253.825 113.858 253.443C113.643 253.051 113.359 252.757 113.004 252.561C112.649 252.365 112.267 252.267 111.856 252.267C111.445 252.267 111.063 252.365 110.708 252.561C110.363 252.757 110.087 253.051 109.882 253.443C109.677 253.825 109.574 254.297 109.574 254.857C109.574 255.687 109.784 256.331 110.204 256.789C110.633 257.237 111.17 257.461 111.814 257.461ZM120.196 258.847C119.589 258.847 119.043 258.739 118.558 258.525C118.082 258.301 117.704 258.002 117.424 257.629C117.144 257.246 116.994 256.821 116.976 256.355H118.628C118.656 256.681 118.81 256.957 119.09 257.181C119.379 257.395 119.738 257.503 120.168 257.503C120.616 257.503 120.961 257.419 121.204 257.251C121.456 257.073 121.582 256.849 121.582 256.579C121.582 256.289 121.442 256.075 121.162 255.935C120.891 255.795 120.457 255.641 119.86 255.473C119.281 255.314 118.81 255.16 118.446 255.011C118.082 254.861 117.764 254.633 117.494 254.325C117.232 254.017 117.102 253.611 117.102 253.107C117.102 252.696 117.223 252.323 117.466 251.987C117.708 251.641 118.054 251.371 118.502 251.175C118.959 250.979 119.482 250.881 120.07 250.881C120.947 250.881 121.652 251.105 122.184 251.553C122.725 251.991 123.014 252.593 123.052 253.359H121.456C121.428 253.013 121.288 252.738 121.036 252.533C120.784 252.327 120.443 252.225 120.014 252.225C119.594 252.225 119.272 252.304 119.048 252.463C118.824 252.621 118.712 252.831 118.712 253.093C118.712 253.298 118.786 253.471 118.936 253.611C119.085 253.751 119.267 253.863 119.482 253.947C119.696 254.021 120.014 254.119 120.434 254.241C120.994 254.39 121.451 254.544 121.806 254.703C122.17 254.852 122.482 255.076 122.744 255.375C123.005 255.673 123.14 256.07 123.15 256.565C123.15 257.003 123.028 257.395 122.786 257.741C122.543 258.086 122.198 258.357 121.75 258.553C121.311 258.749 120.793 258.847 120.196 258.847ZM131.944 254.675C131.944 254.964 131.926 255.225 131.888 255.459H125.994C126.041 256.075 126.27 256.569 126.68 256.943C127.091 257.316 127.595 257.503 128.192 257.503C129.051 257.503 129.658 257.143 130.012 256.425H131.734C131.501 257.134 131.076 257.717 130.46 258.175C129.854 258.623 129.098 258.847 128.192 258.847C127.455 258.847 126.792 258.683 126.204 258.357C125.626 258.021 125.168 257.554 124.832 256.957C124.506 256.35 124.342 255.65 124.342 254.857C124.342 254.063 124.501 253.368 124.818 252.771C125.145 252.164 125.598 251.697 126.176 251.371C126.764 251.044 127.436 250.881 128.192 250.881C128.92 250.881 129.569 251.039 130.138 251.357C130.708 251.674 131.151 252.122 131.468 252.701C131.786 253.27 131.944 253.928 131.944 254.675ZM130.278 254.171C130.269 253.583 130.059 253.111 129.648 252.757C129.238 252.402 128.729 252.225 128.122 252.225C127.572 252.225 127.1 252.402 126.708 252.757C126.316 253.102 126.083 253.573 126.008 254.171H130.278ZM136.62 254.829C136.62 254.054 136.778 253.368 137.096 252.771C137.422 252.173 137.861 251.711 138.412 251.385C138.972 251.049 139.588 250.881 140.26 250.881C140.866 250.881 141.394 251.002 141.842 251.245C142.299 251.478 142.663 251.772 142.934 252.127V251.007H144.544V258.721H142.934V257.573C142.663 257.937 142.294 258.24 141.828 258.483C141.361 258.725 140.829 258.847 140.232 258.847C139.569 258.847 138.962 258.679 138.412 258.343C137.861 257.997 137.422 257.521 137.096 256.915C136.778 256.299 136.62 255.603 136.62 254.829ZM142.934 254.857C142.934 254.325 142.822 253.863 142.598 253.471C142.383 253.079 142.098 252.78 141.744 252.575C141.389 252.369 141.006 252.267 140.596 252.267C140.185 252.267 139.802 252.369 139.448 252.575C139.093 252.771 138.804 253.065 138.58 253.457C138.365 253.839 138.258 254.297 138.258 254.829C138.258 255.361 138.365 255.827 138.58 256.229C138.804 256.63 139.093 256.938 139.448 257.153C139.812 257.358 140.194 257.461 140.596 257.461C141.006 257.461 141.389 257.358 141.744 257.153C142.098 256.947 142.383 256.649 142.598 256.257C142.822 255.855 142.934 255.389 142.934 254.857ZM153.511 252.309H152.083V258.721H150.473V252.309H149.563V251.007H150.473V250.461C150.473 249.574 150.706 248.93 151.173 248.529C151.649 248.118 152.391 247.913 153.399 247.913V249.243C152.913 249.243 152.573 249.336 152.377 249.523C152.181 249.7 152.083 250.013 152.083 250.461V251.007H153.511V252.309ZM155.737 249.985C155.448 249.985 155.205 249.887 155.009 249.691C154.813 249.495 154.715 249.252 154.715 248.963C154.715 248.673 154.813 248.431 155.009 248.235C155.205 248.039 155.448 247.941 155.737 247.941C156.017 247.941 156.255 248.039 156.451 248.235C156.647 248.431 156.745 248.673 156.745 248.963C156.745 249.252 156.647 249.495 156.451 249.691C156.255 249.887 156.017 249.985 155.737 249.985ZM156.521 251.007V258.721H154.925V251.007H156.521ZM160.212 248.361V258.721H158.616V248.361H160.212ZM169.378 254.675C169.378 254.964 169.359 255.225 169.322 255.459H163.428C163.474 256.075 163.703 256.569 164.114 256.943C164.524 257.316 165.028 257.503 165.626 257.503C166.484 257.503 167.091 257.143 167.446 256.425H169.168C168.934 257.134 168.51 257.717 167.894 258.175C167.287 258.623 166.531 258.847 165.626 258.847C164.888 258.847 164.226 258.683 163.638 258.357C163.059 258.021 162.602 257.554 162.266 256.957C161.939 256.35 161.776 255.65 161.776 254.857C161.776 254.063 161.934 253.368 162.252 252.771C162.578 252.164 163.031 251.697 163.61 251.371C164.198 251.044 164.87 250.881 165.626 250.881C166.354 250.881 167.002 251.039 167.572 251.357C168.141 251.674 168.584 252.122 168.902 252.701C169.219 253.27 169.378 253.928 169.378 254.675ZM167.712 254.171C167.702 253.583 167.492 253.111 167.082 252.757C166.671 252.402 166.162 252.225 165.556 252.225C165.005 252.225 164.534 252.402 164.142 252.757C163.75 253.102 163.516 253.573 163.442 254.171H167.712ZM177.931 258.847C177.203 258.847 176.545 258.683 175.957 258.357C175.369 258.021 174.907 257.554 174.571 256.957C174.235 256.35 174.067 255.65 174.067 254.857C174.067 254.073 174.24 253.377 174.585 252.771C174.93 252.164 175.402 251.697 175.999 251.371C176.596 251.044 177.264 250.881 178.001 250.881C178.738 250.881 179.406 251.044 180.003 251.371C180.6 251.697 181.072 252.164 181.417 252.771C181.762 253.377 181.935 254.073 181.935 254.857C181.935 255.641 181.758 256.336 181.403 256.943C181.048 257.549 180.563 258.021 179.947 258.357C179.34 258.683 178.668 258.847 177.931 258.847ZM177.931 257.461C178.342 257.461 178.724 257.363 179.079 257.167C179.443 256.971 179.737 256.677 179.961 256.285C180.185 255.893 180.297 255.417 180.297 254.857C180.297 254.297 180.19 253.825 179.975 253.443C179.76 253.051 179.476 252.757 179.121 252.561C178.766 252.365 178.384 252.267 177.973 252.267C177.562 252.267 177.18 252.365 176.825 252.561C176.48 252.757 176.204 253.051 175.999 253.443C175.794 253.825 175.691 254.297 175.691 254.857C175.691 255.687 175.901 256.331 176.321 256.789C176.75 257.237 177.287 257.461 177.931 257.461ZM185.109 252.127C185.342 251.735 185.65 251.431 186.033 251.217C186.425 250.993 186.887 250.881 187.419 250.881V252.533H187.013C186.388 252.533 185.912 252.691 185.585 253.009C185.268 253.326 185.109 253.877 185.109 254.661V258.721H183.513V251.007H185.109V252.127ZM191.991 254.829C191.991 254.054 192.149 253.368 192.467 252.771C192.793 252.173 193.232 251.711 193.783 251.385C194.343 251.049 194.963 250.881 195.645 250.881C196.149 250.881 196.643 250.993 197.129 251.217C197.623 251.431 198.015 251.721 198.305 252.085V248.361H199.915V258.721H198.305V257.559C198.043 257.932 197.679 258.24 197.213 258.483C196.755 258.725 196.228 258.847 195.631 258.847C194.959 258.847 194.343 258.679 193.783 258.343C193.232 257.997 192.793 257.521 192.467 256.915C192.149 256.299 191.991 255.603 191.991 254.829ZM198.305 254.857C198.305 254.325 198.193 253.863 197.969 253.471C197.754 253.079 197.469 252.78 197.115 252.575C196.76 252.369 196.377 252.267 195.967 252.267C195.556 252.267 195.173 252.369 194.819 252.575C194.464 252.771 194.175 253.065 193.951 253.457C193.736 253.839 193.629 254.297 193.629 254.829C193.629 255.361 193.736 255.827 193.951 256.229C194.175 256.63 194.464 256.938 194.819 257.153C195.183 257.358 195.565 257.461 195.967 257.461C196.377 257.461 196.76 257.358 197.115 257.153C197.469 256.947 197.754 256.649 197.969 256.257C198.193 255.855 198.305 255.389 198.305 254.857ZM203.607 252.127C203.84 251.735 204.148 251.431 204.531 251.217C204.923 250.993 205.385 250.881 205.917 250.881V252.533H205.511C204.886 252.533 204.41 252.691 204.083 253.009C203.766 253.326 203.607 253.877 203.607 254.661V258.721H202.011V251.007H203.607V252.127ZM206.852 254.829C206.852 254.054 207.011 253.368 207.328 252.771C207.655 252.173 208.093 251.711 208.644 251.385C209.204 251.049 209.82 250.881 210.492 250.881C211.099 250.881 211.626 251.002 212.074 251.245C212.531 251.478 212.895 251.772 213.166 252.127V251.007H214.776V258.721H213.166V257.573C212.895 257.937 212.527 258.24 212.06 258.483C211.593 258.725 211.061 258.847 210.464 258.847C209.801 258.847 209.195 258.679 208.644 258.343C208.093 257.997 207.655 257.521 207.328 256.915C207.011 256.299 206.852 255.603 206.852 254.829ZM213.166 254.857C213.166 254.325 213.054 253.863 212.83 253.471C212.615 253.079 212.331 252.78 211.976 252.575C211.621 252.369 211.239 252.267 210.828 252.267C210.417 252.267 210.035 252.369 209.68 252.575C209.325 252.771 209.036 253.065 208.812 253.457C208.597 253.839 208.49 254.297 208.49 254.829C208.49 255.361 208.597 255.827 208.812 256.229C209.036 256.63 209.325 256.938 209.68 257.153C210.044 257.358 210.427 257.461 210.828 257.461C211.239 257.461 211.621 257.358 211.976 257.153C212.331 256.947 212.615 256.649 212.83 256.257C213.054 255.855 213.166 255.389 213.166 254.857ZM219.98 250.881C220.578 250.881 221.105 251.002 221.562 251.245C222.029 251.478 222.393 251.772 222.654 252.127V251.007H224.264V258.847C224.264 259.556 224.115 260.186 223.816 260.737C223.518 261.297 223.084 261.735 222.514 262.053C221.954 262.37 221.282 262.529 220.498 262.529C219.453 262.529 218.585 262.281 217.894 261.787C217.204 261.301 216.812 260.639 216.718 259.799H218.3C218.422 260.2 218.678 260.522 219.07 260.765C219.472 261.017 219.948 261.143 220.498 261.143C221.142 261.143 221.66 260.947 222.052 260.555C222.454 260.163 222.654 259.593 222.654 258.847V257.559C222.384 257.923 222.015 258.231 221.548 258.483C221.091 258.725 220.568 258.847 219.98 258.847C219.308 258.847 218.692 258.679 218.132 258.343C217.582 257.997 217.143 257.521 216.816 256.915C216.499 256.299 216.34 255.603 216.34 254.829C216.34 254.054 216.499 253.368 216.816 252.771C217.143 252.173 217.582 251.711 218.132 251.385C218.692 251.049 219.308 250.881 219.98 250.881ZM222.654 254.857C222.654 254.325 222.542 253.863 222.318 253.471C222.104 253.079 221.819 252.78 221.464 252.575C221.11 252.369 220.727 252.267 220.316 252.267C219.906 252.267 219.523 252.369 219.168 252.575C218.814 252.771 218.524 253.065 218.3 253.457C218.086 253.839 217.978 254.297 217.978 254.829C217.978 255.361 218.086 255.827 218.3 256.229C218.524 256.63 218.814 256.938 219.168 257.153C219.532 257.358 219.915 257.461 220.316 257.461C220.727 257.461 221.11 257.358 221.464 257.153C221.819 256.947 222.104 256.649 222.318 256.257C222.542 255.855 222.654 255.389 222.654 254.857ZM237.515 258.721L236.311 257.517C235.845 257.983 235.336 258.333 234.785 258.567C234.235 258.791 233.619 258.903 232.937 258.903C232.247 258.903 231.635 258.781 231.103 258.539C230.571 258.296 230.161 257.951 229.871 257.503C229.582 257.045 229.437 256.518 229.437 255.921C229.437 255.249 229.629 254.651 230.011 254.129C230.394 253.597 230.963 253.177 231.719 252.869C231.449 252.542 231.257 252.239 231.145 251.959C231.033 251.669 230.977 251.352 230.977 251.007C230.977 250.577 231.085 250.195 231.299 249.859C231.523 249.523 231.841 249.257 232.251 249.061C232.662 248.865 233.138 248.767 233.679 248.767C234.23 248.767 234.697 248.874 235.079 249.089C235.471 249.294 235.761 249.579 235.947 249.943C236.143 250.307 236.223 250.713 236.185 251.161H234.589C234.599 250.815 234.515 250.549 234.337 250.363C234.16 250.167 233.917 250.069 233.609 250.069C233.301 250.069 233.049 250.162 232.853 250.349C232.667 250.526 232.573 250.745 232.573 251.007C232.573 251.259 232.643 251.511 232.783 251.763C232.933 252.005 233.189 252.323 233.553 252.715L236.129 255.277L237.123 253.639H238.845L237.585 255.795L237.235 256.369L239.601 258.721H237.515ZM232.937 257.545C233.815 257.545 234.589 257.185 235.261 256.467L232.685 253.877C231.584 254.315 231.033 254.978 231.033 255.865C231.033 256.341 231.211 256.742 231.565 257.069C231.92 257.386 232.377 257.545 232.937 257.545ZM243.752 254.829C243.752 254.054 243.911 253.368 244.228 252.771C244.555 252.173 244.994 251.711 245.544 251.385C246.104 251.049 246.725 250.881 247.406 250.881C247.91 250.881 248.405 250.993 248.89 251.217C249.385 251.431 249.777 251.721 250.066 252.085V248.361H251.676V258.721H250.066V257.559C249.805 257.932 249.441 258.24 248.974 258.483C248.517 258.725 247.99 258.847 247.392 258.847C246.72 258.847 246.104 258.679 245.544 258.343C244.994 257.997 244.555 257.521 244.228 256.915C243.911 256.299 243.752 255.603 243.752 254.829ZM250.066 254.857C250.066 254.325 249.954 253.863 249.73 253.471C249.516 253.079 249.231 252.78 248.876 252.575C248.522 252.369 248.139 252.267 247.728 252.267C247.318 252.267 246.935 252.369 246.58 252.575C246.226 252.771 245.936 253.065 245.712 253.457C245.498 253.839 245.39 254.297 245.39 254.829C245.39 255.361 245.498 255.827 245.712 256.229C245.936 256.63 246.226 256.938 246.58 257.153C246.944 257.358 247.327 257.461 247.728 257.461C248.139 257.461 248.522 257.358 248.876 257.153C249.231 256.947 249.516 256.649 249.73 256.257C249.954 255.855 250.066 255.389 250.066 254.857ZM255.369 252.127C255.602 251.735 255.91 251.431 256.293 251.217C256.685 250.993 257.147 250.881 257.679 250.881V252.533H257.273C256.647 252.533 256.171 252.691 255.845 253.009C255.527 253.326 255.369 253.877 255.369 254.661V258.721H253.773V251.007H255.369V252.127ZM262.492 258.847C261.764 258.847 261.106 258.683 260.518 258.357C259.93 258.021 259.468 257.554 259.132 256.957C258.796 256.35 258.628 255.65 258.628 254.857C258.628 254.073 258.8 253.377 259.146 252.771C259.491 252.164 259.962 251.697 260.56 251.371C261.157 251.044 261.824 250.881 262.562 250.881C263.299 250.881 263.966 251.044 264.564 251.371C265.161 251.697 265.632 252.164 265.978 252.771C266.323 253.377 266.496 254.073 266.496 254.857C266.496 255.641 266.318 256.336 265.964 256.943C265.609 257.549 265.124 258.021 264.508 258.357C263.901 258.683 263.229 258.847 262.492 258.847ZM262.492 257.461C262.902 257.461 263.285 257.363 263.64 257.167C264.004 256.971 264.298 256.677 264.522 256.285C264.746 255.893 264.858 255.417 264.858 254.857C264.858 254.297 264.75 253.825 264.536 253.443C264.321 253.051 264.036 252.757 263.682 252.561C263.327 252.365 262.944 252.267 262.534 252.267C262.123 252.267 261.74 252.365 261.386 252.561C261.04 252.757 260.765 253.051 260.56 253.443C260.354 253.825 260.252 254.297 260.252 254.857C260.252 255.687 260.462 256.331 260.882 256.789C261.311 257.237 261.848 257.461 262.492 257.461ZM269.669 252.141C269.94 251.786 270.309 251.487 270.775 251.245C271.242 251.002 271.769 250.881 272.357 250.881C273.029 250.881 273.641 251.049 274.191 251.385C274.751 251.711 275.19 252.173 275.507 252.771C275.825 253.368 275.983 254.054 275.983 254.829C275.983 255.603 275.825 256.299 275.507 256.915C275.19 257.521 274.751 257.997 274.191 258.343C273.641 258.679 273.029 258.847 272.357 258.847C271.769 258.847 271.247 258.73 270.789 258.497C270.332 258.254 269.959 257.955 269.669 257.601V262.389H268.073V251.007H269.669V252.141ZM274.359 254.829C274.359 254.297 274.247 253.839 274.023 253.457C273.809 253.065 273.519 252.771 273.155 252.575C272.801 252.369 272.418 252.267 272.007 252.267C271.606 252.267 271.223 252.369 270.859 252.575C270.505 252.78 270.215 253.079 269.991 253.471C269.777 253.863 269.669 254.325 269.669 254.857C269.669 255.389 269.777 255.855 269.991 256.257C270.215 256.649 270.505 256.947 270.859 257.153C271.223 257.358 271.606 257.461 272.007 257.461C272.418 257.461 272.801 257.358 273.155 257.153C273.519 256.938 273.809 256.63 274.023 256.229C274.247 255.827 274.359 255.361 274.359 254.829ZM282.01 249.985C281.721 249.985 281.478 249.887 281.282 249.691C281.086 249.495 280.988 249.252 280.988 248.963C280.988 248.673 281.086 248.431 281.282 248.235C281.478 248.039 281.721 247.941 282.01 247.941C282.29 247.941 282.528 248.039 282.724 248.235C282.92 248.431 283.018 248.673 283.018 248.963C283.018 249.252 282.92 249.495 282.724 249.691C282.528 249.887 282.29 249.985 282.01 249.985ZM282.794 251.007V258.721H281.198V251.007H282.794ZM286.752 252.309V256.579C286.752 256.868 286.817 257.078 286.948 257.209C287.088 257.33 287.321 257.391 287.648 257.391H288.628V258.721H287.368C286.649 258.721 286.099 258.553 285.716 258.217C285.333 257.881 285.142 257.335 285.142 256.579V252.309H284.232V251.007H285.142V249.089H286.752V251.007H288.628V252.309H286.752ZM297.726 250.881C298.314 250.881 298.836 251.007 299.294 251.259C299.76 251.511 300.124 251.884 300.386 252.379C300.656 252.873 300.792 253.471 300.792 254.171V258.721H299.21V254.409C299.21 253.718 299.037 253.191 298.692 252.827C298.346 252.453 297.875 252.267 297.278 252.267C296.68 252.267 296.204 252.453 295.85 252.827C295.504 253.191 295.332 253.718 295.332 254.409V258.721H293.736V248.361H295.332V251.903C295.602 251.576 295.943 251.324 296.354 251.147C296.774 250.969 297.231 250.881 297.726 250.881ZM309.897 254.675C309.897 254.964 309.879 255.225 309.841 255.459H303.947C303.994 256.075 304.223 256.569 304.633 256.943C305.044 257.316 305.548 257.503 306.145 257.503C307.004 257.503 307.611 257.143 307.965 256.425H309.687C309.454 257.134 309.029 257.717 308.413 258.175C307.807 258.623 307.051 258.847 306.145 258.847C305.408 258.847 304.745 258.683 304.157 258.357C303.579 258.021 303.121 257.554 302.785 256.957C302.459 256.35 302.295 255.65 302.295 254.857C302.295 254.063 302.454 253.368 302.771 252.771C303.098 252.164 303.551 251.697 304.129 251.371C304.717 251.044 305.389 250.881 306.145 250.881C306.873 250.881 307.522 251.039 308.091 251.357C308.661 251.674 309.104 252.122 309.421 252.701C309.739 253.27 309.897 253.928 309.897 254.675ZM308.231 254.171C308.222 253.583 308.012 253.111 307.601 252.757C307.191 252.402 306.682 252.225 306.075 252.225C305.525 252.225 305.053 252.402 304.661 252.757C304.269 253.102 304.036 253.573 303.961 254.171H308.231ZM313.064 252.127C313.297 251.735 313.605 251.431 313.988 251.217C314.38 250.993 314.842 250.881 315.374 250.881V252.533H314.968C314.343 252.533 313.867 252.691 313.54 253.009C313.223 253.326 313.064 253.877 313.064 254.661V258.721H311.468V251.007H313.064V252.127ZM323.911 254.675C323.911 254.964 323.892 255.225 323.855 255.459H317.961C318.008 256.075 318.236 256.569 318.647 256.943C319.058 257.316 319.562 257.503 320.159 257.503C321.018 257.503 321.624 257.143 321.979 256.425H323.701C323.468 257.134 323.043 257.717 322.427 258.175C321.82 258.623 321.064 258.847 320.159 258.847C319.422 258.847 318.759 258.683 318.171 258.357C317.592 258.021 317.135 257.554 316.799 256.957C316.472 256.35 316.309 255.65 316.309 254.857C316.309 254.063 316.468 253.368 316.785 252.771C317.112 252.164 317.564 251.697 318.143 251.371C318.731 251.044 319.403 250.881 320.159 250.881C320.887 250.881 321.536 251.039 322.105 251.357C322.674 251.674 323.118 252.122 323.435 252.701C323.752 253.27 323.911 253.928 323.911 254.675ZM322.245 254.171C322.236 253.583 322.026 253.111 321.615 252.757C321.204 252.402 320.696 252.225 320.089 252.225C319.538 252.225 319.067 252.402 318.675 252.757C318.283 253.102 318.05 253.573 317.975 254.171H322.245Z" fill="black"/>
<path d="M116.293 276.881V282.893C116.293 283.637 116.065 284.225 115.609 284.657C115.161 285.089 114.569 285.305 113.833 285.305C113.097 285.305 112.501 285.089 112.045 284.657C111.597 284.225 111.373 283.637 111.373 282.893H112.753C112.761 283.261 112.853 283.553 113.029 283.769C113.213 283.985 113.481 284.093 113.833 284.093C114.185 284.093 114.453 283.985 114.637 283.769C114.821 283.545 114.913 283.253 114.913 282.893V276.881H116.293ZM124.35 279.365C124.35 279.789 124.25 280.189 124.05 280.565C123.85 280.941 123.53 281.249 123.09 281.489C122.65 281.721 122.086 281.837 121.398 281.837H119.886V285.221H118.518V276.881H121.398C122.038 276.881 122.578 276.993 123.018 277.217C123.466 277.433 123.798 277.729 124.014 278.105C124.238 278.481 124.35 278.901 124.35 279.365ZM121.398 280.721C121.918 280.721 122.306 280.605 122.562 280.373C122.818 280.133 122.946 279.797 122.946 279.365C122.946 278.453 122.43 277.997 121.398 277.997H119.886V280.721H121.398ZM127.023 277.985V280.433H129.903V281.549H127.023V284.105H130.263V285.221H125.655V276.869H130.263V277.985H127.023ZM137.984 279.281C137.768 278.865 137.468 278.553 137.084 278.345C136.7 278.129 136.256 278.021 135.752 278.021C135.2 278.021 134.708 278.145 134.276 278.393C133.844 278.641 133.504 278.993 133.256 279.449C133.016 279.905 132.896 280.433 132.896 281.033C132.896 281.633 133.016 282.165 133.256 282.629C133.504 283.085 133.844 283.437 134.276 283.685C134.708 283.933 135.2 284.057 135.752 284.057C136.496 284.057 137.1 283.849 137.564 283.433C138.028 283.017 138.312 282.453 138.416 281.741H135.284V280.649H139.88V281.717C139.792 282.365 139.56 282.961 139.184 283.505C138.816 284.049 138.332 284.485 137.732 284.813C137.14 285.133 136.48 285.293 135.752 285.293C134.968 285.293 134.252 285.113 133.604 284.753C132.956 284.385 132.44 283.877 132.056 283.229C131.68 282.581 131.492 281.849 131.492 281.033C131.492 280.217 131.68 279.485 132.056 278.837C132.44 278.189 132.956 277.685 133.604 277.325C134.26 276.957 134.976 276.773 135.752 276.773C136.64 276.773 137.428 276.993 138.116 277.433C138.812 277.865 139.316 278.481 139.628 279.281H137.984ZM142.729 283.577L141.277 286.889H140.389L141.241 283.577H142.729ZM152.874 279.365C152.874 279.789 152.774 280.189 152.574 280.565C152.374 280.941 152.054 281.249 151.614 281.489C151.174 281.721 150.61 281.837 149.922 281.837H148.41V285.221H147.042V276.881H149.922C150.562 276.881 151.102 276.993 151.542 277.217C151.99 277.433 152.322 277.729 152.538 278.105C152.762 278.481 152.874 278.901 152.874 279.365ZM149.922 280.721C150.442 280.721 150.83 280.605 151.086 280.373C151.342 280.133 151.47 279.797 151.47 279.365C151.47 278.453 150.954 277.997 149.922 277.997H148.41V280.721H149.922ZM161.03 285.221H159.662L155.546 278.993V285.221H154.178V276.869H155.546L159.662 283.085V276.869H161.03V285.221ZM168.863 279.281C168.647 278.865 168.347 278.553 167.963 278.345C167.579 278.129 167.135 278.021 166.631 278.021C166.079 278.021 165.587 278.145 165.155 278.393C164.723 278.641 164.383 278.993 164.135 279.449C163.895 279.905 163.775 280.433 163.775 281.033C163.775 281.633 163.895 282.165 164.135 282.629C164.383 283.085 164.723 283.437 165.155 283.685C165.587 283.933 166.079 284.057 166.631 284.057C167.375 284.057 167.979 283.849 168.443 283.433C168.907 283.017 169.191 282.453 169.295 281.741H166.163V280.649H170.759V281.717C170.671 282.365 170.439 282.961 170.063 283.505C169.695 284.049 169.211 284.485 168.611 284.813C168.019 285.133 167.359 285.293 166.631 285.293C165.847 285.293 165.131 285.113 164.483 284.753C163.835 284.385 163.319 283.877 162.935 283.229C162.559 282.581 162.371 281.849 162.371 281.033C162.371 280.217 162.559 279.485 162.935 278.837C163.319 278.189 163.835 277.685 164.483 277.325C165.139 276.957 165.855 276.773 166.631 276.773C167.519 276.773 168.307 276.993 168.995 277.433C169.691 277.865 170.195 278.481 170.507 279.281H168.863ZM177.997 279.725H176.773V285.221H175.393V279.725H174.613V278.609H175.393V278.141C175.393 277.381 175.593 276.829 175.993 276.485C176.401 276.133 177.037 275.957 177.901 275.957V277.097C177.485 277.097 177.193 277.177 177.025 277.337C176.857 277.489 176.773 277.757 176.773 278.141V278.609H177.997V279.725ZM182.077 285.329C181.453 285.329 180.889 285.189 180.385 284.909C179.881 284.621 179.485 284.221 179.197 283.709C178.909 283.189 178.765 282.589 178.765 281.909C178.765 281.237 178.913 280.641 179.209 280.121C179.505 279.601 179.909 279.201 180.421 278.921C180.933 278.641 181.505 278.501 182.137 278.501C182.769 278.501 183.341 278.641 183.853 278.921C184.365 279.201 184.769 279.601 185.065 280.121C185.361 280.641 185.509 281.237 185.509 281.909C185.509 282.581 185.357 283.177 185.053 283.697C184.749 284.217 184.333 284.621 183.805 284.909C183.285 285.189 182.709 285.329 182.077 285.329ZM182.077 284.141C182.429 284.141 182.757 284.057 183.061 283.889C183.373 283.721 183.625 283.469 183.817 283.133C184.009 282.797 184.105 282.389 184.105 281.909C184.105 281.429 184.013 281.025 183.829 280.697C183.645 280.361 183.401 280.109 183.097 279.941C182.793 279.773 182.465 279.689 182.113 279.689C181.761 279.689 181.433 279.773 181.129 279.941C180.833 280.109 180.597 280.361 180.421 280.697C180.245 281.025 180.157 281.429 180.157 281.909C180.157 282.621 180.337 283.173 180.697 283.565C181.065 283.949 181.525 284.141 182.077 284.141ZM188.23 279.569C188.43 279.233 188.694 278.973 189.022 278.789C189.358 278.597 189.754 278.501 190.21 278.501V279.917H189.862C189.326 279.917 188.918 280.053 188.638 280.325C188.366 280.597 188.23 281.069 188.23 281.741V285.221H186.862V278.609H188.23V279.569ZM199.471 278.501C199.991 278.501 200.455 278.609 200.863 278.825C201.279 279.041 201.603 279.361 201.835 279.785C202.075 280.209 202.195 280.721 202.195 281.321V285.221H200.839V281.525C200.839 280.933 200.691 280.481 200.395 280.169C200.099 279.849 199.695 279.689 199.183 279.689C198.671 279.689 198.263 279.849 197.959 280.169C197.663 280.481 197.515 280.933 197.515 281.525V285.221H196.159V281.525C196.159 280.933 196.011 280.481 195.715 280.169C195.419 279.849 195.015 279.689 194.503 279.689C193.991 279.689 193.583 279.849 193.279 280.169C192.983 280.481 192.835 280.933 192.835 281.525V285.221H191.467V278.609H192.835V279.365C193.059 279.093 193.343 278.881 193.687 278.729C194.031 278.577 194.399 278.501 194.791 278.501C195.319 278.501 195.791 278.613 196.207 278.837C196.623 279.061 196.943 279.385 197.167 279.809C197.367 279.409 197.679 279.093 198.103 278.861C198.527 278.621 198.983 278.501 199.471 278.501ZM203.48 281.885C203.48 281.221 203.616 280.633 203.888 280.121C204.168 279.609 204.544 279.213 205.016 278.933C205.496 278.645 206.024 278.501 206.6 278.501C207.12 278.501 207.572 278.605 207.956 278.813C208.348 279.013 208.66 279.265 208.892 279.569V278.609H210.272V285.221H208.892V284.237C208.66 284.549 208.344 284.809 207.944 285.017C207.544 285.225 207.088 285.329 206.576 285.329C206.008 285.329 205.488 285.185 205.016 284.897C204.544 284.601 204.168 284.193 203.888 283.673C203.616 283.145 203.48 282.549 203.48 281.885ZM208.892 281.909C208.892 281.453 208.796 281.057 208.604 280.721C208.42 280.385 208.176 280.129 207.872 279.953C207.568 279.777 207.24 279.689 206.888 279.689C206.536 279.689 206.208 279.777 205.904 279.953C205.6 280.121 205.352 280.373 205.16 280.709C204.976 281.037 204.884 281.429 204.884 281.885C204.884 282.341 204.976 282.741 205.16 283.085C205.352 283.429 205.6 283.693 205.904 283.877C206.216 284.053 206.544 284.141 206.888 284.141C207.24 284.141 207.568 284.053 207.872 283.877C208.176 283.701 208.42 283.445 208.604 283.109C208.796 282.765 208.892 282.365 208.892 281.909ZM213.665 279.725V283.385C213.665 283.633 213.721 283.813 213.833 283.925C213.953 284.029 214.153 284.081 214.433 284.081H215.273V285.221H214.193C213.577 285.221 213.105 285.077 212.777 284.789C212.449 284.501 212.285 284.033 212.285 283.385V279.725H211.505V278.609H212.285V276.965H213.665V278.609H215.273V279.725H213.665ZM218.934 285.329C218.414 285.329 217.946 285.237 217.53 285.053C217.122 284.861 216.798 284.605 216.558 284.285C216.318 283.957 216.19 283.593 216.174 283.193H217.59C217.614 283.473 217.746 283.709 217.986 283.901C218.234 284.085 218.542 284.177 218.91 284.177C219.294 284.177 219.59 284.105 219.798 283.961C220.014 283.809 220.122 283.617 220.122 283.385C220.122 283.137 220.002 282.953 219.762 282.833C219.53 282.713 219.158 282.581 218.646 282.437C218.15 282.301 217.746 282.169 217.434 282.041C217.122 281.913 216.85 281.717 216.618 281.453C216.394 281.189 216.282 280.841 216.282 280.409C216.282 280.057 216.386 279.737 216.594 279.449C216.802 279.153 217.098 278.921 217.482 278.753C217.874 278.585 218.322 278.501 218.826 278.501C219.578 278.501 220.182 278.693 220.638 279.077C221.102 279.453 221.35 279.969 221.382 280.625H220.014C219.99 280.329 219.87 280.093 219.654 279.917C219.438 279.741 219.146 279.653 218.778 279.653C218.418 279.653 218.142 279.721 217.95 279.857C217.758 279.993 217.662 280.173 217.662 280.397C217.662 280.573 217.726 280.721 217.854 280.841C217.982 280.961 218.138 281.057 218.322 281.129C218.506 281.193 218.778 281.277 219.138 281.381C219.618 281.509 220.01 281.641 220.314 281.777C220.626 281.905 220.894 282.097 221.118 282.353C221.342 282.609 221.458 282.949 221.466 283.373C221.466 283.749 221.362 284.085 221.154 284.381C220.946 284.677 220.65 284.909 220.266 285.077C219.89 285.245 219.446 285.329 218.934 285.329ZM224.444 283.577L222.992 286.889H222.104L222.956 283.577H224.444ZM234.744 278.609V285.221H233.376V284.441C233.16 284.713 232.876 284.929 232.524 285.089C232.18 285.241 231.812 285.317 231.42 285.317C230.9 285.317 230.432 285.209 230.016 284.993C229.608 284.777 229.284 284.457 229.044 284.033C228.812 283.609 228.696 283.097 228.696 282.497V278.609H230.052V282.293C230.052 282.885 230.2 283.341 230.496 283.661C230.792 283.973 231.196 284.129 231.708 284.129C232.22 284.129 232.624 283.973 232.92 283.661C233.224 283.341 233.376 282.885 233.376 282.293V278.609H234.744ZM237.917 279.581C238.149 279.277 238.465 279.021 238.865 278.813C239.265 278.605 239.717 278.501 240.221 278.501C240.797 278.501 241.321 278.645 241.793 278.933C242.273 279.213 242.649 279.609 242.921 280.121C243.193 280.633 243.329 281.221 243.329 281.885C243.329 282.549 243.193 283.145 242.921 283.673C242.649 284.193 242.273 284.601 241.793 284.897C241.321 285.185 240.797 285.329 240.221 285.329C239.717 285.329 239.269 285.229 238.877 285.029C238.485 284.821 238.165 284.565 237.917 284.261V288.365H236.549V278.609H237.917V279.581ZM241.937 281.885C241.937 281.429 241.841 281.037 241.649 280.709C241.465 280.373 241.217 280.121 240.905 279.953C240.601 279.777 240.273 279.689 239.921 279.689C239.577 279.689 239.249 279.777 238.937 279.953C238.633 280.129 238.385 280.385 238.193 280.721C238.009 281.057 237.917 281.453 237.917 281.909C237.917 282.365 238.009 282.765 238.193 283.109C238.385 283.445 238.633 283.701 238.937 283.877C239.249 284.053 239.577 284.141 239.921 284.141C240.273 284.141 240.601 284.053 240.905 283.877C241.217 283.693 241.465 283.429 241.649 283.085C241.841 282.741 241.937 282.341 241.937 281.885ZM249.395 279.725V283.385C249.395 283.633 249.451 283.813 249.563 283.925C249.683 284.029 249.883 284.081 250.163 284.081H251.003V285.221H249.923C249.307 285.221 248.835 285.077 248.507 284.789C248.179 284.501 248.015 284.033 248.015 283.385V279.725H247.235V278.609H248.015V276.965H249.395V278.609H251.003V279.725H249.395ZM255.132 285.329C254.508 285.329 253.944 285.189 253.44 284.909C252.936 284.621 252.54 284.221 252.252 283.709C251.964 283.189 251.82 282.589 251.82 281.909C251.82 281.237 251.968 280.641 252.264 280.121C252.56 279.601 252.964 279.201 253.476 278.921C253.988 278.641 254.56 278.501 255.192 278.501C255.824 278.501 256.396 278.641 256.908 278.921C257.42 279.201 257.824 279.601 258.12 280.121C258.416 280.641 258.564 281.237 258.564 281.909C258.564 282.581 258.412 283.177 258.108 283.697C257.804 284.217 257.388 284.621 256.86 284.909C256.34 285.189 255.764 285.329 255.132 285.329ZM255.132 284.141C255.484 284.141 255.812 284.057 256.116 283.889C256.428 283.721 256.68 283.469 256.872 283.133C257.064 282.797 257.16 282.389 257.16 281.909C257.16 281.429 257.068 281.025 256.884 280.697C256.7 280.361 256.456 280.109 256.152 279.941C255.848 279.773 255.52 279.689 255.168 279.689C254.816 279.689 254.488 279.773 254.184 279.941C253.888 280.109 253.652 280.361 253.476 280.697C253.3 281.025 253.212 281.429 253.212 281.909C253.212 282.621 253.392 283.173 253.752 283.565C254.12 283.949 254.58 284.141 255.132 284.141ZM262.674 277.721V276.473H265.17V285.221H263.79V277.721H262.674ZM267.049 280.733C267.049 279.349 267.281 278.269 267.745 277.493C268.217 276.709 269.025 276.317 270.169 276.317C271.313 276.317 272.117 276.709 272.581 277.493C273.053 278.269 273.289 279.349 273.289 280.733C273.289 282.133 273.053 283.229 272.581 284.021C272.117 284.805 271.313 285.197 270.169 285.197C269.025 285.197 268.217 284.805 267.745 284.021C267.281 283.229 267.049 282.133 267.049 280.733ZM271.945 280.733C271.945 280.085 271.901 279.537 271.813 279.089C271.733 278.641 271.565 278.277 271.309 277.997C271.053 277.709 270.673 277.565 270.169 277.565C269.665 277.565 269.285 277.709 269.029 277.997C268.773 278.277 268.601 278.641 268.513 279.089C268.433 279.537 268.393 280.085 268.393 280.733C268.393 281.405 268.433 281.969 268.513 282.425C268.593 282.881 268.761 283.249 269.017 283.529C269.281 283.809 269.665 283.949 270.169 283.949C270.673 283.949 271.053 283.809 271.309 283.529C271.573 283.249 271.745 282.881 271.825 282.425C271.905 281.969 271.945 281.405 271.945 280.733ZM283.701 276.881V285.221H282.333V279.509L279.789 285.221H278.841L276.285 279.509V285.221H274.917V276.881H276.393L279.321 283.421L282.237 276.881H283.701ZM289.963 280.937C290.411 281.017 290.791 281.253 291.103 281.645C291.415 282.037 291.571 282.481 291.571 282.977C291.571 283.401 291.459 283.785 291.235 284.129C291.019 284.465 290.703 284.733 290.287 284.933C289.871 285.125 289.387 285.221 288.835 285.221H285.499V276.881H288.679C289.247 276.881 289.735 276.977 290.143 277.169C290.551 277.361 290.859 277.621 291.067 277.949C291.275 278.269 291.379 278.629 291.379 279.029C291.379 279.509 291.251 279.909 290.995 280.229C290.739 280.549 290.395 280.785 289.963 280.937ZM286.867 280.385H288.559C289.007 280.385 289.355 280.285 289.603 280.085C289.859 279.877 289.987 279.581 289.987 279.197C289.987 278.821 289.859 278.529 289.603 278.321C289.355 278.105 289.007 277.997 288.559 277.997H286.867V280.385ZM288.715 284.105C289.179 284.105 289.543 283.993 289.807 283.769C290.071 283.545 290.203 283.233 290.203 282.833C290.203 282.425 290.063 282.101 289.783 281.861C289.503 281.621 289.131 281.501 288.667 281.501H286.867V284.105H288.715Z" fill="black" fill-opacity="0.7"/>
<rect x="153.987" y="305.646" width="95.0246" height="28.7112" rx="3.5" stroke="black"/>
<path d="M166.603 320.147C167.163 320.247 167.638 320.542 168.028 321.032C168.418 321.522 168.613 322.077 168.613 322.697C168.613 323.227 168.473 323.707 168.193 324.137C167.923 324.557 167.528 324.892 167.008 325.142C166.488 325.382 165.883 325.502 165.193 325.502H161.023V315.077H164.998C165.708 315.077 166.318 315.197 166.828 315.437C167.338 315.677 167.723 316.002 167.983 316.412C168.243 316.812 168.373 317.262 168.373 317.762C168.373 318.362 168.213 318.862 167.893 319.262C167.573 319.662 167.143 319.957 166.603 320.147ZM162.733 319.457H164.848C165.408 319.457 165.843 319.332 166.153 319.082C166.473 318.822 166.633 318.452 166.633 317.972C166.633 317.502 166.473 317.137 166.153 316.877C165.843 316.607 165.408 316.472 164.848 316.472H162.733V319.457ZM165.043 324.107C165.623 324.107 166.078 323.967 166.408 323.687C166.738 323.407 166.903 323.017 166.903 322.517C166.903 322.007 166.728 321.602 166.378 321.302C166.028 321.002 165.563 320.852 164.983 320.852H162.733V324.107H165.043ZM172.182 318.437C172.432 318.017 172.762 317.692 173.172 317.462C173.592 317.222 174.087 317.102 174.657 317.102V318.872H174.222C173.552 318.872 173.042 319.042 172.692 319.382C172.352 319.722 172.182 320.312 172.182 321.152V325.502H170.472V317.237H172.182V318.437ZM179.814 325.637C179.034 325.637 178.329 325.462 177.699 325.112C177.069 324.752 176.574 324.252 176.214 323.612C175.854 322.962 175.674 322.212 175.674 321.362C175.674 320.522 175.859 319.777 176.229 319.127C176.599 318.477 177.104 317.977 177.744 317.627C178.384 317.277 179.099 317.102 179.889 317.102C180.679 317.102 181.394 317.277 182.034 317.627C182.674 317.977 183.179 318.477 183.549 319.127C183.919 319.777 184.104 320.522 184.104 321.362C184.104 322.202 183.914 322.947 183.534 323.597C183.154 324.247 182.634 324.752 181.974 325.112C181.324 325.462 180.604 325.637 179.814 325.637ZM179.814 324.152C180.254 324.152 180.664 324.047 181.044 323.837C181.434 323.627 181.749 323.312 181.989 322.892C182.229 322.472 182.349 321.962 182.349 321.362C182.349 320.762 182.234 320.257 182.004 319.847C181.774 319.427 181.469 319.112 181.089 318.902C180.709 318.692 180.299 318.587 179.859 318.587C179.419 318.587 179.009 318.692 178.629 318.902C178.259 319.112 177.964 319.427 177.744 319.847C177.524 320.257 177.414 320.762 177.414 321.362C177.414 322.252 177.639 322.942 178.089 323.432C178.549 323.912 179.124 324.152 179.814 324.152ZM196.894 317.237L194.329 325.502H192.529L190.864 319.397L189.199 325.502H187.399L184.819 317.237H186.559L188.284 323.882L190.039 317.237H191.824L193.504 323.852L195.214 317.237H196.894ZM201.172 325.637C200.522 325.637 199.937 325.522 199.417 325.292C198.907 325.052 198.502 324.732 198.202 324.332C197.902 323.922 197.742 323.467 197.722 322.967H199.492C199.522 323.317 199.687 323.612 199.987 323.852C200.297 324.082 200.682 324.197 201.142 324.197C201.622 324.197 201.992 324.107 202.252 323.927C202.522 323.737 202.657 323.497 202.657 323.207C202.657 322.897 202.507 322.667 202.207 322.517C201.917 322.367 201.452 322.202 200.812 322.022C200.192 321.852 199.687 321.687 199.297 321.527C198.907 321.367 198.567 321.122 198.277 320.792C197.997 320.462 197.857 320.027 197.857 319.487C197.857 319.047 197.987 318.647 198.247 318.287C198.507 317.917 198.877 317.627 199.357 317.417C199.847 317.207 200.407 317.102 201.037 317.102C201.977 317.102 202.732 317.342 203.302 317.822C203.882 318.292 204.192 318.937 204.232 319.757H202.522C202.492 319.387 202.342 319.092 202.072 318.872C201.802 318.652 201.437 318.542 200.977 318.542C200.527 318.542 200.182 318.627 199.942 318.797C199.702 318.967 199.582 319.192 199.582 319.472C199.582 319.692 199.662 319.877 199.822 320.027C199.982 320.177 200.177 320.297 200.407 320.387C200.637 320.467 200.977 320.572 201.427 320.702C202.027 320.862 202.517 321.027 202.897 321.197C203.287 321.357 203.622 321.597 203.902 321.917C204.182 322.237 204.327 322.662 204.337 323.192C204.337 323.662 204.207 324.082 203.947 324.452C203.687 324.822 203.317 325.112 202.837 325.322C202.367 325.532 201.812 325.637 201.172 325.637ZM213.76 321.167C213.76 321.477 213.74 321.757 213.7 322.007H207.385C207.435 322.667 207.68 323.197 208.12 323.597C208.56 323.997 209.1 324.197 209.74 324.197C210.66 324.197 211.31 323.812 211.69 323.042H213.535C213.285 323.802 212.83 324.427 212.17 324.917C211.52 325.397 210.71 325.637 209.74 325.637C208.95 325.637 208.24 325.462 207.61 325.112C206.99 324.752 206.5 324.252 206.14 323.612C205.79 322.962 205.615 322.212 205.615 321.362C205.615 320.512 205.785 319.767 206.125 319.127C206.475 318.477 206.96 317.977 207.58 317.627C208.21 317.277 208.93 317.102 209.74 317.102C210.52 317.102 211.215 317.272 211.825 317.612C212.435 317.952 212.91 318.432 213.25 319.052C213.59 319.662 213.76 320.367 213.76 321.167ZM211.975 320.627C211.965 319.997 211.74 319.492 211.3 319.112C210.86 318.732 210.315 318.542 209.665 318.542C209.075 318.542 208.57 318.732 208.15 319.112C207.73 319.482 207.48 319.987 207.4 320.627H211.975ZM225.474 315.077V316.472H221.049V319.547H224.499V320.942H221.049V325.502H219.339V315.077H225.474ZM227.929 316.142C227.619 316.142 227.359 316.037 227.149 315.827C226.939 315.617 226.834 315.357 226.834 315.047C226.834 314.737 226.939 314.477 227.149 314.267C227.359 314.057 227.619 313.952 227.929 313.952C228.229 313.952 228.484 314.057 228.694 314.267C228.904 314.477 229.009 314.737 229.009 315.047C229.009 315.357 228.904 315.617 228.694 315.827C228.484 316.037 228.229 316.142 227.929 316.142ZM228.769 317.237V325.502H227.059V317.237H228.769ZM232.724 314.402V325.502H231.014V314.402H232.724ZM242.544 321.167C242.544 321.477 242.524 321.757 242.484 322.007H236.169C236.219 322.667 236.464 323.197 236.904 323.597C237.344 323.997 237.884 324.197 238.524 324.197C239.444 324.197 240.094 323.812 240.474 323.042H242.319C242.069 323.802 241.614 324.427 240.954 324.917C240.304 325.397 239.494 325.637 238.524 325.637C237.734 325.637 237.024 325.462 236.394 325.112C235.774 324.752 235.284 324.252 234.924 323.612C234.574 322.962 234.399 322.212 234.399 321.362C234.399 320.512 234.569 319.767 234.909 319.127C235.259 318.477 235.744 317.977 236.364 317.627C236.994 317.277 237.714 317.102 238.524 317.102C239.304 317.102 239.999 317.272 240.609 317.612C241.219 317.952 241.694 318.432 242.034 319.052C242.374 319.662 242.544 320.367 242.544 321.167ZM240.759 320.627C240.749 319.997 240.524 319.492 240.084 319.112C239.644 318.732 239.099 318.542 238.449 318.542C237.859 318.542 237.354 318.732 236.934 319.112C236.514 319.482 236.264 319.987 236.184 320.627H240.759Z" fill="black" fill-opacity="0.7"/>
</svg>
