<svg width="375" height="268" viewBox="0 0 375 268" fill="none" xmlns="http://www.w3.org/2000/svg">
<g filter="url(#filter0_d_537_5707)">
<rect x="16" y="48" width="343" height="160" rx="14" fill="white"/>
<path opacity="0.7" d="M33.312 80V68.72H38.016C39.1893 68.72 40.096 68.9813 40.736 69.504C41.3867 70.016 41.712 70.736 41.712 71.664C41.712 72.3467 41.5093 72.9227 41.104 73.392C40.6987 73.8613 40.1493 74.176 39.456 74.336V74.096C39.9787 74.1707 40.4267 74.3307 40.8 74.576C41.184 74.8107 41.4773 75.1253 41.68 75.52C41.8827 75.904 41.984 76.3573 41.984 76.88C41.984 77.5413 41.8347 78.1067 41.536 78.576C41.2373 79.0453 40.8053 79.4027 40.24 79.648C39.6747 79.8827 38.9973 80 38.208 80H33.312ZM34.912 78.72H38.016C38.336 78.72 38.6187 78.6987 38.864 78.656C39.12 78.6027 39.3387 78.528 39.52 78.432C39.712 78.3253 39.872 78.1973 40 78.048C40.128 77.888 40.2187 77.7067 40.272 77.504C40.336 77.3013 40.368 77.072 40.368 76.816C40.368 76.56 40.336 76.3307 40.272 76.128C40.2187 75.9253 40.128 75.7493 40 75.6C39.872 75.4507 39.712 75.328 39.52 75.232C39.3387 75.1253 39.12 75.0507 38.864 75.008C38.6187 74.9547 38.336 74.928 38.016 74.928H34.912V78.72ZM34.912 73.648H37.76C38.528 73.648 39.1093 73.4933 39.504 73.184C39.8987 72.8747 40.096 72.4213 40.096 71.824C40.096 71.2267 39.8987 70.7733 39.504 70.464C39.1093 70.1547 38.528 70 37.76 70H34.912V73.648ZM46.5383 80.144C45.9943 80.144 45.5036 80.0373 45.0663 79.824C44.6396 79.6107 44.3036 79.3227 44.0583 78.96C43.8129 78.5973 43.6903 78.1867 43.6903 77.728C43.6903 77.152 43.8343 76.6987 44.1223 76.368C44.4209 76.0267 44.9063 75.7867 45.5783 75.648C46.2609 75.4987 47.1783 75.424 48.3303 75.424H49.0823V76.416H48.3463C47.7703 76.416 47.2849 76.4373 46.8903 76.48C46.4956 76.5227 46.1809 76.592 45.9463 76.688C45.7116 76.7733 45.5409 76.896 45.4343 77.056C45.3383 77.216 45.2903 77.408 45.2903 77.632C45.2903 78.0373 45.4289 78.368 45.7063 78.624C45.9836 78.8693 46.3676 78.992 46.8583 78.992C47.2529 78.992 47.5996 78.9013 47.8983 78.72C48.1969 78.528 48.4316 78.272 48.6023 77.952C48.7836 77.632 48.8743 77.264 48.8743 76.848V75.008C48.8743 74.4 48.7463 73.9627 48.4903 73.696C48.2343 73.4293 47.8129 73.296 47.2263 73.296C46.7783 73.296 46.3303 73.3653 45.8823 73.504C45.4343 73.632 44.9756 73.84 44.5063 74.128L44.0103 72.992C44.2876 72.8 44.6076 72.6347 44.9703 72.496C45.3329 72.3573 45.7116 72.2507 46.1063 72.176C46.5116 72.0907 46.9009 72.048 47.2743 72.048C47.9889 72.048 48.5756 72.16 49.0343 72.384C49.5036 72.608 49.8503 72.9493 50.0743 73.408C50.2983 73.8667 50.4103 74.4587 50.4103 75.184V80H48.8903V78.256H49.0343C48.9489 78.6507 48.7889 78.992 48.5543 79.28C48.3303 79.5573 48.0476 79.7707 47.7063 79.92C47.3649 80.0693 46.9756 80.144 46.5383 80.144ZM52.636 80V72.192H54.204V73.856H54.028C54.2627 73.2587 54.6307 72.8107 55.132 72.512C55.6333 72.2027 56.2093 72.048 56.86 72.048C57.4787 72.048 57.9907 72.1653 58.396 72.4C58.812 72.624 59.1213 72.9707 59.324 73.44C59.5267 73.8987 59.628 74.48 59.628 75.184V80H58.012V75.28C58.012 74.832 57.9533 74.4693 57.836 74.192C57.7187 73.904 57.5427 73.6907 57.308 73.552C57.0733 73.4133 56.7693 73.344 56.396 73.344C55.9693 73.344 55.5907 73.4347 55.26 73.616C54.94 73.7973 54.6893 74.0587 54.508 74.4C54.3373 74.7413 54.252 75.136 54.252 75.584V80H52.636ZM61.8548 80V72.192H63.4228V73.856H63.2468C63.4814 73.2587 63.8494 72.8107 64.3508 72.512C64.8521 72.2027 65.4281 72.048 66.0788 72.048C66.6974 72.048 67.2094 72.1653 67.6148 72.4C68.0308 72.624 68.3401 72.9707 68.5428 73.44C68.7454 73.8987 68.8468 74.48 68.8468 75.184V80H67.2308V75.28C67.2308 74.832 67.1721 74.4693 67.0548 74.192C66.9374 73.904 66.7614 73.6907 66.5268 73.552C66.2921 73.4133 65.9881 73.344 65.6148 73.344C65.1881 73.344 64.8094 73.4347 64.4788 73.616C64.1588 73.7973 63.9081 74.0587 63.7268 74.4C63.5561 74.7413 63.4708 75.136 63.4708 75.584V80H61.8548ZM74.7375 80.144C73.8842 80.144 73.1482 79.984 72.5295 79.664C71.9215 79.3333 71.4468 78.8693 71.1055 78.272C70.7748 77.664 70.6095 76.944 70.6095 76.112C70.6095 75.3013 70.7748 74.592 71.1055 73.984C71.4362 73.376 71.8895 72.9013 72.4655 72.56C73.0415 72.2187 73.6975 72.048 74.4335 72.048C75.1588 72.048 75.7775 72.208 76.2895 72.528C76.8122 72.8373 77.2122 73.28 77.4895 73.856C77.7668 74.432 77.9055 75.12 77.9055 75.92V76.464H71.8895V75.472H76.8175L76.5455 75.696C76.5455 74.896 76.3695 74.2773 76.0175 73.84C75.6655 73.4027 75.1588 73.184 74.4975 73.184C73.9962 73.184 73.5695 73.3013 73.2175 73.536C72.8762 73.7707 72.6148 74.096 72.4335 74.512C72.2522 74.928 72.1615 75.4133 72.1615 75.968V76.064C72.1615 76.6827 72.2575 77.2053 72.4495 77.632C72.6522 78.048 72.9455 78.3627 73.3295 78.576C73.7135 78.7893 74.1882 78.896 74.7535 78.896C75.2015 78.896 75.6388 78.8267 76.0655 78.688C76.5028 78.5387 76.9135 78.3093 77.2975 78L77.7775 79.12C77.4255 79.44 76.9722 79.6907 76.4175 79.872C75.8628 80.0533 75.3028 80.144 74.7375 80.144ZM79.6673 80V72.192H81.2353V74.064H81.0753C81.2459 73.424 81.5499 72.9387 81.9873 72.608C82.4353 72.2773 83.0273 72.0853 83.7633 72.032L84.2913 72L84.4033 73.376L83.4273 73.472C82.7339 73.536 82.2059 73.7547 81.8433 74.128C81.4806 74.5013 81.2993 75.0133 81.2993 75.664V80H79.6673Z" fill="#202224"/>
<rect x="283" y="64" width="60" height="60" rx="8" fill="#0084FF" fill-opacity="0.1"/>
<path d="M305.5 98.2422C304.294 97.435 303.5 96.0602 303.5 94.5C303.5 92.1564 305.292 90.2313 307.58 90.0194C308.048 87.1721 310.52 85 313.5 85C316.48 85 318.952 87.1721 319.42 90.0194C321.708 90.2313 323.5 92.1564 323.5 94.5C323.5 96.0602 322.706 97.435 321.5 98.2422M309.5 98L313.5 94M313.5 94L317.5 98M313.5 94V103" stroke="black" stroke-width="2" stroke-linecap="round" stroke-linejoin="round"/>
<path d="M39.344 148.24C38.608 148.24 37.88 148.16 37.16 148C36.456 147.84 35.792 147.616 35.168 147.328C34.56 147.04 34.032 146.704 33.584 146.32L34.592 143.968C35.328 144.528 36.088 144.952 36.872 145.24C37.656 145.512 38.464 145.648 39.296 145.648C40.304 145.648 41.088 145.392 41.648 144.88C42.224 144.352 42.512 143.648 42.512 142.768C42.512 141.872 42.24 141.152 41.696 140.608C41.152 140.048 40.408 139.768 39.464 139.768C38.776 139.768 38.16 139.904 37.616 140.176C37.072 140.432 36.576 140.832 36.128 141.376H34.064V131.08H44.456V133.624H37.064V139H36.272C36.688 138.44 37.232 138.008 37.904 137.704C38.592 137.4 39.352 137.248 40.184 137.248C41.256 137.248 42.184 137.48 42.968 137.944C43.768 138.392 44.384 139.024 44.816 139.84C45.264 140.64 45.488 141.576 45.488 142.648C45.488 143.752 45.24 144.728 44.744 145.576C44.248 146.408 43.536 147.064 42.608 147.544C41.696 148.008 40.608 148.24 39.344 148.24Z" fill="#202224"/>
<path d="M33.312 186V174.72H38.016C39.1893 174.72 40.096 174.981 40.736 175.504C41.3867 176.016 41.712 176.736 41.712 177.664C41.712 178.347 41.5093 178.923 41.104 179.392C40.6987 179.861 40.1493 180.176 39.456 180.336V180.096C39.9787 180.171 40.4267 180.331 40.8 180.576C41.184 180.811 41.4773 181.125 41.68 181.52C41.8827 181.904 41.984 182.357 41.984 182.88C41.984 183.541 41.8347 184.107 41.536 184.576C41.2373 185.045 40.8053 185.403 40.24 185.648C39.6747 185.883 38.9973 186 38.208 186H33.312ZM34.912 184.72H38.016C38.336 184.72 38.6187 184.699 38.864 184.656C39.12 184.603 39.3387 184.528 39.52 184.432C39.712 184.325 39.872 184.197 40 184.048C40.128 183.888 40.2187 183.707 40.272 183.504C40.336 183.301 40.368 183.072 40.368 182.816C40.368 182.56 40.336 182.331 40.272 182.128C40.2187 181.925 40.128 181.749 40 181.6C39.872 181.451 39.712 181.328 39.52 181.232C39.3387 181.125 39.12 181.051 38.864 181.008C38.6187 180.955 38.336 180.928 38.016 180.928H34.912V184.72ZM34.912 179.648H37.76C38.528 179.648 39.1093 179.493 39.504 179.184C39.8987 178.875 40.096 178.421 40.096 177.824C40.096 177.227 39.8987 176.773 39.504 176.464C39.1093 176.155 38.528 176 37.76 176H34.912V179.648ZM46.5383 186.144C45.9943 186.144 45.5036 186.037 45.0663 185.824C44.6396 185.611 44.3036 185.323 44.0583 184.96C43.8129 184.597 43.6903 184.187 43.6903 183.728C43.6903 183.152 43.8343 182.699 44.1223 182.368C44.4209 182.027 44.9063 181.787 45.5783 181.648C46.2609 181.499 47.1783 181.424 48.3303 181.424H49.0823V182.416H48.3463C47.7703 182.416 47.2849 182.437 46.8903 182.48C46.4956 182.523 46.1809 182.592 45.9463 182.688C45.7116 182.773 45.5409 182.896 45.4343 183.056C45.3383 183.216 45.2903 183.408 45.2903 183.632C45.2903 184.037 45.4289 184.368 45.7063 184.624C45.9836 184.869 46.3676 184.992 46.8583 184.992C47.2529 184.992 47.5996 184.901 47.8983 184.72C48.1969 184.528 48.4316 184.272 48.6023 183.952C48.7836 183.632 48.8743 183.264 48.8743 182.848V181.008C48.8743 180.4 48.7463 179.963 48.4903 179.696C48.2343 179.429 47.8129 179.296 47.2263 179.296C46.7783 179.296 46.3303 179.365 45.8823 179.504C45.4343 179.632 44.9756 179.84 44.5063 180.128L44.0103 178.992C44.2876 178.8 44.6076 178.635 44.9703 178.496C45.3329 178.357 45.7116 178.251 46.1063 178.176C46.5116 178.091 46.9009 178.048 47.2743 178.048C47.9889 178.048 48.5756 178.16 49.0343 178.384C49.5036 178.608 49.8503 178.949 50.0743 179.408C50.2983 179.867 50.4103 180.459 50.4103 181.184V186H48.8903V184.256H49.0343C48.9489 184.651 48.7889 184.992 48.5543 185.28C48.3303 185.557 48.0476 185.771 47.7063 185.92C47.3649 186.069 46.9756 186.144 46.5383 186.144ZM52.636 186V178.192H54.204V179.856H54.028C54.2627 179.259 54.6307 178.811 55.132 178.512C55.6333 178.203 56.2093 178.048 56.86 178.048C57.4787 178.048 57.9907 178.165 58.396 178.4C58.812 178.624 59.1213 178.971 59.324 179.44C59.5267 179.899 59.628 180.48 59.628 181.184V186H58.012V181.28C58.012 180.832 57.9533 180.469 57.836 180.192C57.7187 179.904 57.5427 179.691 57.308 179.552C57.0733 179.413 56.7693 179.344 56.396 179.344C55.9693 179.344 55.5907 179.435 55.26 179.616C54.94 179.797 54.6893 180.059 54.508 180.4C54.3373 180.741 54.252 181.136 54.252 181.584V186H52.636ZM61.8548 186V178.192H63.4228V179.856H63.2468C63.4814 179.259 63.8494 178.811 64.3508 178.512C64.8521 178.203 65.4281 178.048 66.0788 178.048C66.6974 178.048 67.2094 178.165 67.6148 178.4C68.0308 178.624 68.3401 178.971 68.5428 179.44C68.7454 179.899 68.8468 180.48 68.8468 181.184V186H67.2308V181.28C67.2308 180.832 67.1721 180.469 67.0548 180.192C66.9374 179.904 66.7614 179.691 66.5268 179.552C66.2921 179.413 65.9881 179.344 65.6148 179.344C65.1881 179.344 64.8094 179.435 64.4788 179.616C64.1588 179.797 63.9081 180.059 63.7268 180.4C63.5561 180.741 63.4708 181.136 63.4708 181.584V186H61.8548ZM74.7375 186.144C73.8842 186.144 73.1482 185.984 72.5295 185.664C71.9215 185.333 71.4468 184.869 71.1055 184.272C70.7748 183.664 70.6095 182.944 70.6095 182.112C70.6095 181.301 70.7748 180.592 71.1055 179.984C71.4362 179.376 71.8895 178.901 72.4655 178.56C73.0415 178.219 73.6975 178.048 74.4335 178.048C75.1588 178.048 75.7775 178.208 76.2895 178.528C76.8122 178.837 77.2122 179.28 77.4895 179.856C77.7668 180.432 77.9055 181.12 77.9055 181.92V182.464H71.8895V181.472H76.8175L76.5455 181.696C76.5455 180.896 76.3695 180.277 76.0175 179.84C75.6655 179.403 75.1588 179.184 74.4975 179.184C73.9962 179.184 73.5695 179.301 73.2175 179.536C72.8762 179.771 72.6148 180.096 72.4335 180.512C72.2522 180.928 72.1615 181.413 72.1615 181.968V182.064C72.1615 182.683 72.2575 183.205 72.4495 183.632C72.6522 184.048 72.9455 184.363 73.3295 184.576C73.7135 184.789 74.1882 184.896 74.7535 184.896C75.2015 184.896 75.6388 184.827 76.0655 184.688C76.5028 184.539 76.9135 184.309 77.2975 184L77.7775 185.12C77.4255 185.44 76.9722 185.691 76.4175 185.872C75.8628 186.053 75.3028 186.144 74.7375 186.144ZM79.6673 186V178.192H81.2353V180.064H81.0753C81.2459 179.424 81.5499 178.939 81.9873 178.608C82.4353 178.277 83.0273 178.085 83.7633 178.032L84.2913 178L84.4033 179.376L83.4273 179.472C82.7339 179.536 82.2059 179.755 81.8433 180.128C81.4806 180.501 81.2993 181.013 81.2993 181.664V186H79.6673ZM93.7751 186.144C93.1885 186.144 92.6285 186.096 92.0951 186C91.5725 185.893 91.0871 185.744 90.6391 185.552C90.2018 185.349 89.8125 185.109 89.4711 184.832L89.9991 183.52C90.3618 183.787 90.7351 184.011 91.1191 184.192C91.5031 184.373 91.9138 184.512 92.3511 184.608C92.7885 184.693 93.2631 184.736 93.7751 184.736C94.6818 184.736 95.3485 184.576 95.7751 184.256C96.2125 183.925 96.4311 183.499 96.4311 182.976C96.4311 182.688 96.3618 182.443 96.2231 182.24C96.0951 182.037 95.8818 181.867 95.5831 181.728C95.2845 181.579 94.8951 181.456 94.4151 181.36L92.7031 181.008C91.6898 180.795 90.9325 180.443 90.4311 179.952C89.9405 179.461 89.6951 178.8 89.6951 177.968C89.6951 177.285 89.8765 176.688 90.2391 176.176C90.6018 175.664 91.0978 175.269 91.7271 174.992C92.3671 174.715 93.1031 174.576 93.9351 174.576C94.4471 174.576 94.9325 174.629 95.3911 174.736C95.8605 174.832 96.2925 174.981 96.6871 175.184C97.0925 175.387 97.4445 175.632 97.7431 175.92L97.1991 177.184C96.7405 176.779 96.2445 176.48 95.7111 176.288C95.1778 176.085 94.5805 175.984 93.9191 175.984C93.3965 175.984 92.9378 176.064 92.5431 176.224C92.1591 176.384 91.8605 176.608 91.6471 176.896C91.4445 177.184 91.3431 177.525 91.3431 177.92C91.3431 178.368 91.4871 178.725 91.7751 178.992C92.0631 179.259 92.5431 179.461 93.2151 179.6L94.9111 179.952C95.9778 180.176 96.7725 180.523 97.2951 180.992C97.8178 181.461 98.0791 182.085 98.0791 182.864C98.0791 183.515 97.9031 184.091 97.5511 184.592C97.1991 185.083 96.7031 185.467 96.0631 185.744C95.4231 186.011 94.6605 186.144 93.7751 186.144ZM103.456 186.144C102.603 186.144 101.867 185.984 101.248 185.664C100.64 185.333 100.166 184.869 99.8243 184.272C99.4936 183.664 99.3283 182.944 99.3283 182.112C99.3283 181.301 99.4936 180.592 99.8243 179.984C100.155 179.376 100.608 178.901 101.184 178.56C101.76 178.219 102.416 178.048 103.152 178.048C103.878 178.048 104.496 178.208 105.008 178.528C105.531 178.837 105.931 179.28 106.208 179.856C106.486 180.432 106.624 181.12 106.624 181.92V182.464H100.608V181.472H105.536L105.264 181.696C105.264 180.896 105.088 180.277 104.736 179.84C104.384 179.403 103.878 179.184 103.216 179.184C102.715 179.184 102.288 179.301 101.936 179.536C101.595 179.771 101.334 180.096 101.152 180.512C100.971 180.928 100.88 181.413 100.88 181.968V182.064C100.88 182.683 100.976 183.205 101.168 183.632C101.371 184.048 101.664 184.363 102.048 184.576C102.432 184.789 102.907 184.896 103.472 184.896C103.92 184.896 104.358 184.827 104.784 184.688C105.222 184.539 105.632 184.309 106.016 184L106.496 185.12C106.144 185.44 105.691 185.691 105.136 185.872C104.582 186.053 104.022 186.144 103.456 186.144ZM111.698 186.144C110.728 186.144 109.997 185.893 109.506 185.392C109.026 184.891 108.786 184.165 108.786 183.216V179.44H107.266V178.192H108.786V175.84H110.402V178.192H112.818V179.44H110.402V183.088C110.402 183.653 110.52 184.08 110.754 184.368C111 184.656 111.394 184.8 111.938 184.8C112.098 184.8 112.258 184.779 112.418 184.736C112.589 184.693 112.754 184.651 112.914 184.608L113.17 185.824C113.01 185.92 112.786 185.995 112.498 186.048C112.221 186.112 111.954 186.144 111.698 186.144ZM117.23 186.144C116.259 186.144 115.528 185.893 115.038 185.392C114.558 184.891 114.318 184.165 114.318 183.216V179.44H112.798V178.192H114.318V175.84H115.934V178.192H118.35V179.44H115.934V183.088C115.934 183.653 116.051 184.08 116.286 184.368C116.531 184.656 116.926 184.8 117.47 184.8C117.63 184.8 117.79 184.779 117.95 184.736C118.12 184.693 118.286 184.651 118.446 184.608L118.702 185.824C118.542 185.92 118.318 185.995 118.03 186.048C117.752 186.112 117.486 186.144 117.23 186.144ZM119.601 176.384V174.704H121.489V176.384H119.601ZM119.745 186V178.192H121.361V186H119.745ZM123.636 186V178.192H125.204V179.856H125.028C125.263 179.259 125.631 178.811 126.132 178.512C126.633 178.203 127.209 178.048 127.86 178.048C128.479 178.048 128.991 178.165 129.396 178.4C129.812 178.624 130.121 178.971 130.324 179.44C130.527 179.899 130.628 180.48 130.628 181.184V186H129.012V181.28C129.012 180.832 128.953 180.469 128.836 180.192C128.719 179.904 128.543 179.691 128.308 179.552C128.073 179.413 127.769 179.344 127.396 179.344C126.969 179.344 126.591 179.435 126.26 179.616C125.94 179.797 125.689 180.059 125.508 180.4C125.337 180.741 125.252 181.136 125.252 181.584V186H123.636ZM136.391 189.024C135.687 189.024 135.031 188.939 134.423 188.768C133.815 188.597 133.276 188.341 132.807 188L133.303 186.848C133.612 187.051 133.927 187.221 134.247 187.36C134.577 187.509 134.908 187.616 135.239 187.68C135.58 187.744 135.927 187.776 136.279 187.776C137.025 187.776 137.585 187.584 137.959 187.2C138.332 186.827 138.519 186.272 138.519 185.536V183.904H138.663C138.503 184.491 138.167 184.955 137.655 185.296C137.143 185.637 136.551 185.808 135.879 185.808C135.175 185.808 134.561 185.648 134.039 185.328C133.516 184.997 133.111 184.544 132.823 183.968C132.535 183.381 132.391 182.699 132.391 181.92C132.391 181.141 132.535 180.464 132.823 179.888C133.111 179.312 133.516 178.864 134.039 178.544C134.561 178.213 135.175 178.048 135.879 178.048C136.561 178.048 137.153 178.219 137.655 178.56C138.167 178.901 138.497 179.365 138.647 179.952H138.519V178.192H140.087V185.344C140.087 186.155 139.948 186.832 139.671 187.376C139.393 187.931 138.977 188.341 138.423 188.608C137.879 188.885 137.201 189.024 136.391 189.024ZM136.263 184.544C136.956 184.544 137.5 184.309 137.895 183.84C138.3 183.371 138.503 182.731 138.503 181.92C138.503 181.12 138.3 180.485 137.895 180.016C137.5 179.547 136.956 179.312 136.263 179.312C135.58 179.312 135.036 179.547 134.631 180.016C134.225 180.485 134.023 181.12 134.023 181.92C134.023 182.731 134.225 183.371 134.631 183.84C135.036 184.309 135.58 184.544 136.263 184.544ZM145.091 186.144C144.675 186.144 144.269 186.107 143.875 186.032C143.48 185.957 143.117 185.851 142.787 185.712C142.456 185.573 142.163 185.403 141.907 185.2L142.371 184.112C142.637 184.293 142.92 184.453 143.219 184.592C143.517 184.72 143.827 184.816 144.147 184.88C144.477 184.944 144.797 184.976 145.107 184.976C145.672 184.976 146.099 184.875 146.387 184.672C146.675 184.469 146.819 184.197 146.819 183.856C146.819 183.579 146.723 183.365 146.531 183.216C146.339 183.056 146.051 182.933 145.667 182.848L144.147 182.544C143.485 182.405 142.984 182.16 142.643 181.808C142.301 181.456 142.131 181.008 142.131 180.464C142.131 179.973 142.264 179.547 142.531 179.184C142.797 178.821 143.171 178.544 143.651 178.352C144.131 178.149 144.685 178.048 145.315 178.048C145.677 178.048 146.029 178.085 146.371 178.16C146.712 178.235 147.032 178.341 147.331 178.48C147.64 178.619 147.901 178.795 148.115 179.008L147.651 180.096C147.448 179.915 147.213 179.76 146.947 179.632C146.691 179.504 146.424 179.408 146.147 179.344C145.869 179.269 145.592 179.232 145.315 179.232C144.749 179.232 144.323 179.339 144.035 179.552C143.757 179.755 143.619 180.032 143.619 180.384C143.619 180.651 143.704 180.869 143.875 181.04C144.045 181.211 144.312 181.333 144.675 181.408L146.195 181.712C146.888 181.851 147.411 182.085 147.763 182.416C148.125 182.747 148.307 183.195 148.307 183.76C148.307 184.251 148.173 184.677 147.907 185.04C147.64 185.403 147.261 185.68 146.771 185.872C146.291 186.053 145.731 186.144 145.091 186.144Z" fill="#0084FF"/>
<path d="M167 179L167 175M167 175H163M167 175L161.667 180.333M159.667 176.333H158.2C157.08 176.333 156.52 176.333 156.092 176.551C155.716 176.743 155.41 177.049 155.218 177.425C155 177.853 155 178.413 155 179.533V183.8C155 184.92 155 185.48 155.218 185.908C155.41 186.284 155.716 186.59 156.092 186.782C156.52 187 157.08 187 158.2 187H162.467C163.587 187 164.147 187 164.575 186.782C164.951 186.59 165.257 186.284 165.449 185.908C165.667 185.48 165.667 184.92 165.667 183.8V182.333" stroke="#0084FF" stroke-width="1.33333" stroke-linecap="round" stroke-linejoin="round"/>
</g>
<defs>
<filter id="filter0_d_537_5707" x="-32" y="0" width="451" height="268" filterUnits="userSpaceOnUse" color-interpolation-filters="sRGB">
<feFlood flood-opacity="0" result="BackgroundImageFix"/>
<feColorMatrix in="SourceAlpha" type="matrix" values="0 0 0 0 0 0 0 0 0 0 0 0 0 0 0 0 0 0 127 0" result="hardAlpha"/>
<feOffset dx="6" dy="6"/>
<feGaussianBlur stdDeviation="27"/>
<feColorMatrix type="matrix" values="0 0 0 0 0 0 0 0 0 0 0 0 0 0 0 0 0 0 0.05 0"/>
<feBlend mode="normal" in2="BackgroundImageFix" result="effect1_dropShadow_537_5707"/>
<feBlend mode="normal" in="SourceGraphic" in2="effect1_dropShadow_537_5707" result="shape"/>
</filter>
</defs>
</svg>
