<svg width="375" height="270" viewBox="0 0 375 270" fill="none" xmlns="http://www.w3.org/2000/svg">
<g filter="url(#filter0_d_537_5678)">
<rect x="16" y="48" width="343" height="162" rx="14" fill="white"/>
<path opacity="0.7" d="M36.064 80V70.112H32.064V68.72H41.712V70.112H37.712V80H36.064ZM45.0749 80.144C44.2855 80.144 43.6029 79.9787 43.0269 79.648C42.4615 79.3173 42.0189 78.848 41.6989 78.24C41.3789 77.632 41.2189 76.9173 41.2189 76.096C41.2189 75.264 41.3789 74.5493 41.6989 73.952C42.0189 73.344 42.4615 72.8747 43.0269 72.544C43.6029 72.2133 44.2855 72.048 45.0749 72.048C45.8535 72.048 46.5255 72.2133 47.0909 72.544C47.6669 72.8747 48.1149 73.344 48.4349 73.952C48.7549 74.56 48.9149 75.2747 48.9149 76.096C48.9149 76.9173 48.7549 77.632 48.4349 78.24C48.1149 78.848 47.6669 79.3173 47.0909 79.648C46.5255 79.9787 45.8535 80.144 45.0749 80.144ZM45.0589 78.896C45.7309 78.896 46.2695 78.656 46.6749 78.176C47.0802 77.696 47.2829 77.0027 47.2829 76.096C47.2829 75.1787 47.0802 74.4853 46.6749 74.016C46.2695 73.5467 45.7309 73.312 45.0589 73.312C44.3975 73.312 43.8642 73.5467 43.4589 74.016C43.0535 74.4853 42.8509 75.1787 42.8509 76.096C42.8509 77.0027 43.0535 77.696 43.4589 78.176C43.8642 78.656 44.3975 78.896 45.0589 78.896ZM53.9796 80.144C53.009 80.144 52.2783 79.8933 51.7876 79.392C51.3076 78.8907 51.0676 78.1653 51.0676 77.216V73.44H49.5476V72.192H51.0676V69.84H52.6836V72.192H55.0996V73.44H52.6836V77.088C52.6836 77.6533 52.801 78.08 53.0356 78.368C53.281 78.656 53.6756 78.8 54.2196 78.8C54.3796 78.8 54.5396 78.7787 54.6996 78.736C54.8703 78.6933 55.0356 78.6507 55.1956 78.608L55.4516 79.824C55.2916 79.92 55.0676 79.9947 54.7796 80.048C54.5023 80.112 54.2356 80.144 53.9796 80.144ZM58.9914 80.144C58.4474 80.144 57.9567 80.0373 57.5194 79.824C57.0927 79.6107 56.7567 79.3227 56.5114 78.96C56.266 78.5973 56.1434 78.1867 56.1434 77.728C56.1434 77.152 56.2874 76.6987 56.5754 76.368C56.874 76.0267 57.3594 75.7867 58.0314 75.648C58.714 75.4987 59.6314 75.424 60.7834 75.424H61.5354V76.416H60.7994C60.2234 76.416 59.738 76.4373 59.3434 76.48C58.9487 76.5227 58.634 76.592 58.3994 76.688C58.1647 76.7733 57.994 76.896 57.8874 77.056C57.7914 77.216 57.7434 77.408 57.7434 77.632C57.7434 78.0373 57.882 78.368 58.1594 78.624C58.4367 78.8693 58.8207 78.992 59.3114 78.992C59.706 78.992 60.0527 78.9013 60.3514 78.72C60.65 78.528 60.8847 78.272 61.0554 77.952C61.2367 77.632 61.3274 77.264 61.3274 76.848V75.008C61.3274 74.4 61.1994 73.9627 60.9434 73.696C60.6874 73.4293 60.266 73.296 59.6794 73.296C59.2314 73.296 58.7834 73.3653 58.3354 73.504C57.8874 73.632 57.4287 73.84 56.9594 74.128L56.4634 72.992C56.7407 72.8 57.0607 72.6347 57.4234 72.496C57.786 72.3573 58.1647 72.2507 58.5594 72.176C58.9647 72.0907 59.354 72.048 59.7274 72.048C60.442 72.048 61.0287 72.16 61.4874 72.384C61.9567 72.608 62.3034 72.9493 62.5274 73.408C62.7514 73.8667 62.8634 74.4587 62.8634 75.184V80H61.3434V78.256H61.4874C61.402 78.6507 61.242 78.992 61.0074 79.28C60.7834 79.5573 60.5007 79.7707 60.1594 79.92C59.818 80.0693 59.4287 80.144 58.9914 80.144ZM67.6331 80.144C66.7798 80.144 66.1398 79.904 65.7131 79.424C65.2971 78.9333 65.0891 78.2293 65.0891 77.312V68.72H66.7051V77.216C66.7051 77.5573 66.7531 77.8507 66.8491 78.096C66.9451 78.3307 67.0891 78.5067 67.2811 78.624C67.4731 78.7413 67.7131 78.8 68.0011 78.8C68.1291 78.8 68.2518 78.7947 68.3691 78.784C68.4865 78.7733 68.5985 78.752 68.7051 78.72L68.6731 80.016C68.4918 80.0587 68.3158 80.0907 68.1451 80.112C67.9745 80.1333 67.8038 80.144 67.6331 80.144ZM74.3589 80V68.72H81.6549V70.064H75.9589V73.6H81.3189V74.944H75.9589V78.656H81.6549V80H74.3589ZM85.7521 80L82.3921 72.192H84.1361L86.7441 78.672H86.2961L88.9681 72.192H90.6161L87.2081 80H85.7521ZM95.3 80.144C94.4467 80.144 93.7107 79.984 93.092 79.664C92.484 79.3333 92.0093 78.8693 91.668 78.272C91.3373 77.664 91.172 76.944 91.172 76.112C91.172 75.3013 91.3373 74.592 91.668 73.984C91.9987 73.376 92.452 72.9013 93.028 72.56C93.604 72.2187 94.26 72.048 94.996 72.048C95.7213 72.048 96.34 72.208 96.852 72.528C97.3747 72.8373 97.7747 73.28 98.052 73.856C98.3293 74.432 98.468 75.12 98.468 75.92V76.464H92.452V75.472H97.38L97.108 75.696C97.108 74.896 96.932 74.2773 96.58 73.84C96.228 73.4027 95.7213 73.184 95.06 73.184C94.5587 73.184 94.132 73.3013 93.78 73.536C93.4387 73.7707 93.1773 74.096 92.996 74.512C92.8147 74.928 92.724 75.4133 92.724 75.968V76.064C92.724 76.6827 92.82 77.2053 93.012 77.632C93.2147 78.048 93.508 78.3627 93.892 78.576C94.276 78.7893 94.7507 78.896 95.316 78.896C95.764 78.896 96.2013 78.8267 96.628 78.688C97.0653 78.5387 97.476 78.3093 97.86 78L98.34 79.12C97.988 79.44 97.5347 79.6907 96.98 79.872C96.4253 80.0533 95.8653 80.144 95.3 80.144ZM100.23 80V72.192H101.798V73.856H101.622C101.856 73.2587 102.224 72.8107 102.726 72.512C103.227 72.2027 103.803 72.048 104.454 72.048C105.072 72.048 105.584 72.1653 105.99 72.4C106.406 72.624 106.715 72.9707 106.918 73.44C107.12 73.8987 107.222 74.48 107.222 75.184V80H105.606V75.28C105.606 74.832 105.547 74.4693 105.43 74.192C105.312 73.904 105.136 73.6907 104.902 73.552C104.667 73.4133 104.363 73.344 103.99 73.344C103.563 73.344 103.184 73.4347 102.854 73.616C102.534 73.7973 102.283 74.0587 102.102 74.4C101.931 74.7413 101.846 75.136 101.846 75.584V80H100.23ZM112.777 80.144C111.806 80.144 111.075 79.8933 110.585 79.392C110.105 78.8907 109.865 78.1653 109.865 77.216V73.44H108.345V72.192H109.865V69.84H111.481V72.192H113.897V73.44H111.481V77.088C111.481 77.6533 111.598 78.08 111.833 78.368C112.078 78.656 112.473 78.8 113.016 78.8C113.177 78.8 113.337 78.7787 113.497 78.736C113.667 78.6933 113.833 78.6507 113.993 78.608L114.249 79.824C114.089 79.92 113.865 79.9947 113.577 80.048C113.299 80.112 113.033 80.144 112.777 80.144ZM118.028 80.144C117.612 80.144 117.207 80.1067 116.812 80.032C116.418 79.9573 116.055 79.8507 115.724 79.712C115.394 79.5733 115.1 79.4027 114.844 79.2L115.308 78.112C115.575 78.2933 115.858 78.4533 116.156 78.592C116.455 78.72 116.764 78.816 117.084 78.88C117.415 78.944 117.735 78.976 118.044 78.976C118.61 78.976 119.036 78.8747 119.324 78.672C119.612 78.4693 119.756 78.1973 119.756 77.856C119.756 77.5787 119.66 77.3653 119.468 77.216C119.276 77.056 118.988 76.9333 118.604 76.848L117.084 76.544C116.423 76.4053 115.922 76.16 115.58 75.808C115.239 75.456 115.068 75.008 115.068 74.464C115.068 73.9733 115.202 73.5467 115.468 73.184C115.735 72.8213 116.108 72.544 116.588 72.352C117.068 72.1493 117.623 72.048 118.252 72.048C118.615 72.048 118.967 72.0853 119.308 72.16C119.65 72.2347 119.97 72.3413 120.268 72.48C120.578 72.6187 120.839 72.7947 121.052 73.008L120.588 74.096C120.386 73.9147 120.151 73.76 119.884 73.632C119.628 73.504 119.362 73.408 119.084 73.344C118.807 73.2693 118.53 73.232 118.252 73.232C117.687 73.232 117.26 73.3387 116.972 73.552C116.695 73.7547 116.556 74.032 116.556 74.384C116.556 74.6507 116.642 74.8693 116.812 75.04C116.983 75.2107 117.25 75.3333 117.612 75.408L119.132 75.712C119.826 75.8507 120.348 76.0853 120.7 76.416C121.063 76.7467 121.244 77.1947 121.244 77.76C121.244 78.2507 121.111 78.6773 120.844 79.04C120.578 79.4027 120.199 79.68 119.708 79.872C119.228 80.0533 118.668 80.144 118.028 80.144Z" fill="#202224"/>
<rect x="283" y="64" width="60" height="60" rx="8" fill="#FFB31F" fill-opacity="0.1"/>
<path d="M323 103H306.6C306.04 103 305.76 103 305.546 102.891C305.358 102.795 305.205 102.642 305.109 102.454C305 102.24 305 101.96 305 101.4V85M322 90L318.081 94.1827C317.933 94.3412 317.858 94.4204 317.769 94.4614C317.69 94.4976 317.603 94.5125 317.516 94.5047C317.418 94.4958 317.321 94.4458 317.129 94.3457L313.871 92.6543C313.679 92.5542 313.582 92.5042 313.484 92.4953C313.397 92.4875 313.31 92.5024 313.231 92.5386C313.142 92.5796 313.067 92.6588 312.919 92.8173L309 97" stroke="black" stroke-width="2" stroke-linecap="round" stroke-linejoin="round"/>
<path d="M33.92 148V145.72L39.392 139.888C39.888 139.36 40.28 138.872 40.568 138.424C40.872 137.976 41.096 137.544 41.24 137.128C41.384 136.712 41.456 136.296 41.456 135.88C41.456 135.08 41.2 134.472 40.688 134.056C40.192 133.64 39.464 133.432 38.504 133.432C37.752 133.432 37.016 133.576 36.296 133.864C35.592 134.136 34.912 134.568 34.256 135.16L33.224 132.856C33.896 132.248 34.736 131.76 35.744 131.392C36.752 131.024 37.8 130.84 38.888 130.84C40.104 130.84 41.128 131.024 41.96 131.392C42.792 131.76 43.424 132.296 43.856 133C44.288 133.704 44.504 134.56 44.504 135.568C44.504 136.08 44.44 136.584 44.312 137.08C44.2 137.56 44.016 138.04 43.76 138.52C43.52 139 43.208 139.496 42.824 140.008C42.456 140.504 42.008 141.024 41.48 141.568L36.968 146.272V145.456H45.152V148H33.92ZM54.5906 148.24C53.2626 148.24 52.1346 147.904 51.2066 147.232C50.2946 146.544 49.5986 145.552 49.1186 144.256C48.6546 142.96 48.4226 141.376 48.4226 139.504C48.4226 137.616 48.6546 136.032 49.1186 134.752C49.5986 133.456 50.2946 132.48 51.2066 131.824C52.1346 131.168 53.2626 130.84 54.5906 130.84C55.9346 130.84 57.0626 131.168 57.9746 131.824C58.9026 132.48 59.5986 133.448 60.0626 134.728C60.5266 136.008 60.7586 137.592 60.7586 139.48C60.7586 141.352 60.5186 142.944 60.0386 144.256C59.5746 145.552 58.8866 146.544 57.9746 147.232C57.0626 147.904 55.9346 148.24 54.5906 148.24ZM54.5906 145.72C55.6786 145.72 56.4786 145.224 56.9906 144.232C57.5186 143.224 57.7826 141.64 57.7826 139.48C57.7826 137.336 57.5186 135.784 56.9906 134.824C56.4786 133.848 55.6786 133.36 54.5906 133.36C53.5186 133.36 52.7186 133.848 52.1906 134.824C51.6626 135.784 51.3986 137.344 51.3986 139.504C51.3986 141.648 51.6626 143.224 52.1906 144.232C52.7186 145.224 53.5186 145.72 54.5906 145.72ZM68.6853 148.24C68.0933 148.24 67.4933 148.16 66.8853 148C66.2933 147.856 65.7253 147.64 65.1813 147.352C64.6533 147.064 64.1733 146.72 63.7413 146.32L64.7733 144.016C65.3493 144.56 65.9733 144.968 66.6453 145.24C67.3333 145.512 68.0213 145.648 68.7093 145.648C69.4133 145.648 70.0293 145.528 70.5573 145.288C71.1013 145.032 71.5573 144.664 71.9253 144.184C72.2933 143.688 72.5653 143.08 72.7413 142.36C72.9333 141.624 73.0293 140.776 73.0293 139.816V138.016H73.2933C73.1813 138.816 72.9173 139.512 72.5013 140.104C72.0853 140.696 71.5573 141.152 70.9173 141.472C70.2933 141.776 69.5813 141.928 68.7812 141.928C67.8213 141.928 66.9653 141.696 66.2133 141.232C65.4613 140.768 64.8613 140.128 64.4133 139.312C63.9813 138.48 63.7653 137.544 63.7653 136.504C63.7653 135.4 64.0053 134.424 64.4853 133.576C64.9653 132.728 65.6213 132.064 66.4533 131.584C67.3013 131.088 68.2693 130.84 69.3573 130.84C70.7653 130.84 71.9573 131.168 72.9333 131.824C73.9093 132.48 74.6533 133.44 75.1653 134.704C75.6773 135.952 75.9333 137.464 75.9333 139.24C75.9333 141.144 75.6453 142.768 75.0693 144.112C74.4933 145.456 73.6613 146.48 72.5733 147.184C71.5013 147.888 70.2053 148.24 68.6853 148.24ZM69.5493 139.48C70.1253 139.48 70.6293 139.352 71.0613 139.096C71.5093 138.84 71.8533 138.48 72.0933 138.016C72.3333 137.536 72.4533 136.992 72.4533 136.384C72.4533 135.76 72.3333 135.216 72.0933 134.752C71.8533 134.288 71.5093 133.928 71.0613 133.672C70.6293 133.4 70.1253 133.264 69.5493 133.264C68.9733 133.264 68.4693 133.4 68.0373 133.672C67.6053 133.928 67.2613 134.288 67.0053 134.752C66.7653 135.216 66.6453 135.76 66.6453 136.384C66.6453 136.992 66.7653 137.536 67.0053 138.016C67.2613 138.48 67.6053 138.84 68.0373 139.096C68.4693 139.352 68.9733 139.48 69.5493 139.48Z" fill="#202224"/>
<path d="M48 188L50.29 185.71L45.41 180.83L41.41 184.83L34 177.41L35.41 176L41.41 182L45.41 178L51.71 184.29L54 182V188H48Z" fill="#F93C65"/>
<path d="M65.824 187V184.712H60.752V183.48L66.112 175.72H67.472V183.32H69.12V184.712H67.472V187H65.824ZM65.824 183.32V177.704H66.256L62.096 183.768V183.32H65.824ZM70.5378 187V185.096H72.4418V187H70.5378ZM78.0146 187.144C77.5133 187.144 77.0226 187.096 76.5426 187C76.0733 186.893 75.6306 186.744 75.2146 186.552C74.8093 186.349 74.452 186.109 74.1426 185.832L74.7186 184.552C75.22 184.957 75.7373 185.256 76.2706 185.448C76.804 185.64 77.3693 185.736 77.9666 185.736C78.4786 185.736 78.9106 185.661 79.2626 185.512C79.6146 185.363 79.876 185.144 80.0466 184.856C80.228 184.568 80.3186 184.221 80.3186 183.816C80.3186 183.208 80.116 182.755 79.7106 182.456C79.316 182.147 78.74 181.992 77.9826 181.992H76.2386V180.6H77.8226C78.2813 180.6 78.6706 180.525 78.9906 180.376C79.3106 180.216 79.556 179.997 79.7266 179.72C79.908 179.432 79.9986 179.085 79.9986 178.68C79.9986 178.136 79.8173 177.72 79.4546 177.432C79.1026 177.133 78.5853 176.984 77.9026 176.984C77.3266 176.984 76.7933 177.085 76.3026 177.288C75.812 177.491 75.348 177.8 74.9106 178.216L74.3346 176.952C74.772 176.515 75.316 176.179 75.9666 175.944C76.628 175.699 77.316 175.576 78.0306 175.576C78.7773 175.576 79.4173 175.693 79.9506 175.928C80.4946 176.163 80.9053 176.499 81.1826 176.936C81.4706 177.373 81.6146 177.896 81.6146 178.504C81.6146 179.187 81.4226 179.779 81.0386 180.28C80.6653 180.771 80.148 181.096 79.4866 181.256V181.08C80.0093 181.165 80.452 181.336 80.8146 181.592C81.1773 181.848 81.4546 182.173 81.6466 182.568C81.8386 182.963 81.9346 183.416 81.9346 183.928C81.9346 184.589 81.7746 185.165 81.4546 185.656C81.1453 186.136 80.6973 186.504 80.1106 186.76C79.524 187.016 78.8253 187.144 78.0146 187.144ZM87.7204 187.416L86.6324 186.776L93.2404 175.304L94.3284 175.944L87.7204 187.416ZM86.5684 182.472C85.9924 182.472 85.491 182.333 85.0644 182.056C84.6484 181.779 84.3284 181.384 84.1044 180.872C83.891 180.349 83.7844 179.731 83.7844 179.016C83.7844 177.939 84.0297 177.096 84.5204 176.488C85.0217 175.88 85.7044 175.576 86.5684 175.576C87.1444 175.576 87.6404 175.715 88.0564 175.992C88.4724 176.259 88.7924 176.648 89.0164 177.16C89.2404 177.672 89.3524 178.291 89.3524 179.016C89.3524 179.731 89.2404 180.349 89.0164 180.872C88.803 181.384 88.4884 181.779 88.0724 182.056C87.6564 182.333 87.155 182.472 86.5684 182.472ZM86.5684 181.336C87.0164 181.336 87.363 181.144 87.6084 180.76C87.8644 180.376 87.9924 179.795 87.9924 179.016C87.9924 178.237 87.8644 177.656 87.6084 177.272C87.363 176.888 87.0164 176.696 86.5684 176.696C86.1204 176.696 85.7684 176.888 85.5124 177.272C85.267 177.645 85.1444 178.227 85.1444 179.016C85.1444 179.805 85.267 180.392 85.5124 180.776C85.7684 181.149 86.1204 181.336 86.5684 181.336ZM94.3924 187.144C93.8164 187.144 93.3204 187.011 92.9044 186.744C92.4884 186.467 92.1684 186.072 91.9444 185.56C91.731 185.037 91.6244 184.413 91.6244 183.688C91.6244 182.621 91.8697 181.784 92.3604 181.176C92.851 180.557 93.5284 180.248 94.3924 180.248C94.979 180.248 95.4804 180.387 95.8964 180.664C96.3124 180.941 96.627 181.336 96.8404 181.848C97.0644 182.36 97.1764 182.973 97.1764 183.688C97.1764 184.413 97.0644 185.037 96.8404 185.56C96.627 186.072 96.3124 186.467 95.8964 186.744C95.4804 187.011 94.979 187.144 94.3924 187.144ZM94.3924 186.024C94.8404 186.024 95.187 185.832 95.4324 185.448C95.6884 185.053 95.8164 184.467 95.8164 183.688C95.8164 182.92 95.6884 182.344 95.4324 181.96C95.187 181.576 94.8404 181.384 94.3924 181.384C93.955 181.384 93.6084 181.576 93.3524 181.96C93.0964 182.333 92.9684 182.909 92.9684 183.688C92.9684 184.477 93.0964 185.064 93.3524 185.448C93.6084 185.832 93.955 186.024 94.3924 186.024Z" fill="#F93C65"/>
<path d="M103.484 187V175.72H107.468C108.705 175.72 109.756 175.939 110.62 176.376C111.484 176.803 112.14 177.437 112.588 178.28C113.047 179.112 113.276 180.136 113.276 181.352C113.276 182.568 113.047 183.597 112.588 184.44C112.14 185.272 111.484 185.907 110.62 186.344C109.756 186.781 108.705 187 107.468 187H103.484ZM105.148 185.608H107.372C108.769 185.608 109.815 185.256 110.508 184.552C111.201 183.837 111.548 182.771 111.548 181.352C111.548 179.933 111.196 178.872 110.492 178.168C109.799 177.464 108.759 177.112 107.372 177.112H105.148V185.608ZM118.716 187.144C117.926 187.144 117.244 186.979 116.668 186.648C116.102 186.317 115.66 185.848 115.34 185.24C115.02 184.632 114.86 183.917 114.86 183.096C114.86 182.264 115.02 181.549 115.34 180.952C115.66 180.344 116.102 179.875 116.668 179.544C117.244 179.213 117.926 179.048 118.716 179.048C119.494 179.048 120.166 179.213 120.732 179.544C121.308 179.875 121.756 180.344 122.076 180.952C122.396 181.56 122.556 182.275 122.556 183.096C122.556 183.917 122.396 184.632 122.076 185.24C121.756 185.848 121.308 186.317 120.732 186.648C120.166 186.979 119.494 187.144 118.716 187.144ZM118.7 185.896C119.372 185.896 119.91 185.656 120.316 185.176C120.721 184.696 120.924 184.003 120.924 183.096C120.924 182.179 120.721 181.485 120.316 181.016C119.91 180.547 119.372 180.312 118.7 180.312C118.038 180.312 117.505 180.547 117.1 181.016C116.694 181.485 116.492 182.179 116.492 183.096C116.492 184.003 116.694 184.696 117.1 185.176C117.505 185.656 118.038 185.896 118.7 185.896ZM126.342 187L123.366 179.192H125.03L127.318 185.64H126.934L129.286 179.192H130.534L132.838 185.64H132.486L134.79 179.192H136.374L133.398 187H131.926L129.462 180.344H130.262L127.814 187H126.342ZM137.761 187V179.192H139.329V180.856H139.153C139.388 180.259 139.756 179.811 140.257 179.512C140.758 179.203 141.334 179.048 141.985 179.048C142.604 179.048 143.116 179.165 143.521 179.4C143.937 179.624 144.246 179.971 144.449 180.44C144.652 180.899 144.753 181.48 144.753 182.184V187H143.137V182.28C143.137 181.832 143.078 181.469 142.961 181.192C142.844 180.904 142.668 180.691 142.433 180.552C142.198 180.413 141.894 180.344 141.521 180.344C141.094 180.344 140.716 180.435 140.385 180.616C140.065 180.797 139.814 181.059 139.633 181.4C139.462 181.741 139.377 182.136 139.377 182.584V187H137.761ZM151.647 187V180.44H150.127V179.192H152.111L151.647 179.624V179.048C151.647 177.981 151.919 177.176 152.463 176.632C153.018 176.077 153.866 175.768 155.007 175.704L155.711 175.656L155.823 176.872L155.087 176.92C154.65 176.941 154.298 177.027 154.031 177.176C153.764 177.325 153.567 177.539 153.439 177.816C153.322 178.083 153.263 178.419 153.263 178.824V179.448L153.039 179.192H155.455V180.44H153.263V187H151.647ZM156.73 187V179.192H158.298V181.064H158.138C158.308 180.424 158.612 179.939 159.05 179.608C159.498 179.277 160.09 179.085 160.826 179.032L161.354 179L161.466 180.376L160.49 180.472C159.796 180.536 159.268 180.755 158.906 181.128C158.543 181.501 158.362 182.013 158.362 182.664V187H156.73ZM165.981 187.144C165.192 187.144 164.509 186.979 163.933 186.648C163.368 186.317 162.925 185.848 162.605 185.24C162.285 184.632 162.125 183.917 162.125 183.096C162.125 182.264 162.285 181.549 162.605 180.952C162.925 180.344 163.368 179.875 163.933 179.544C164.509 179.213 165.192 179.048 165.981 179.048C166.76 179.048 167.432 179.213 167.997 179.544C168.573 179.875 169.021 180.344 169.341 180.952C169.661 181.56 169.821 182.275 169.821 183.096C169.821 183.917 169.661 184.632 169.341 185.24C169.021 185.848 168.573 186.317 167.997 186.648C167.432 186.979 166.76 187.144 165.981 187.144ZM165.965 185.896C166.637 185.896 167.176 185.656 167.581 185.176C167.986 184.696 168.189 184.003 168.189 183.096C168.189 182.179 167.986 181.485 167.581 181.016C167.176 180.547 166.637 180.312 165.965 180.312C165.304 180.312 164.77 180.547 164.365 181.016C163.96 181.485 163.757 182.179 163.757 183.096C163.757 184.003 163.96 184.696 164.365 185.176C164.77 185.656 165.304 185.896 165.965 185.896ZM171.668 187V179.192H173.236V180.856H173.06C173.199 180.472 173.391 180.147 173.636 179.88C173.881 179.613 174.175 179.411 174.516 179.272C174.868 179.123 175.252 179.048 175.668 179.048C176.319 179.048 176.847 179.203 177.252 179.512C177.657 179.821 177.935 180.296 178.084 180.936H177.86C178.063 180.349 178.409 179.891 178.9 179.56C179.391 179.219 179.961 179.048 180.612 179.048C181.209 179.048 181.7 179.165 182.084 179.4C182.468 179.624 182.756 179.971 182.948 180.44C183.14 180.899 183.236 181.48 183.236 182.184V187H181.62V182.264C181.62 181.603 181.503 181.117 181.268 180.808C181.044 180.499 180.671 180.344 180.148 180.344C179.764 180.344 179.428 180.435 179.14 180.616C178.852 180.797 178.628 181.064 178.468 181.416C178.319 181.757 178.244 182.163 178.244 182.632V187H176.628V182.264C176.628 181.603 176.516 181.117 176.292 180.808C176.068 180.499 175.695 180.344 175.172 180.344C174.777 180.344 174.436 180.435 174.148 180.616C173.871 180.797 173.657 181.064 173.508 181.416C173.359 181.757 173.284 182.163 173.284 182.632V187H171.668ZM190.499 189.88L192.035 186.456V187.144L188.627 179.192H190.355L192.979 185.672H192.531L195.187 179.192H196.851L192.195 189.88H190.499ZM201.534 187.144C200.681 187.144 199.945 186.984 199.326 186.664C198.718 186.333 198.244 185.869 197.902 185.272C197.572 184.664 197.406 183.944 197.406 183.112C197.406 182.301 197.572 181.592 197.902 180.984C198.233 180.376 198.686 179.901 199.262 179.56C199.838 179.219 200.494 179.048 201.23 179.048C201.956 179.048 202.574 179.208 203.086 179.528C203.609 179.837 204.009 180.28 204.286 180.856C204.564 181.432 204.702 182.12 204.702 182.92V183.464H198.686V182.472H203.614L203.342 182.696C203.342 181.896 203.166 181.277 202.814 180.84C202.462 180.403 201.956 180.184 201.294 180.184C200.793 180.184 200.366 180.301 200.014 180.536C199.673 180.771 199.412 181.096 199.23 181.512C199.049 181.928 198.958 182.413 198.958 182.968V183.064C198.958 183.683 199.054 184.205 199.246 184.632C199.449 185.048 199.742 185.363 200.126 185.576C200.51 185.789 200.985 185.896 201.55 185.896C201.998 185.896 202.436 185.827 202.862 185.688C203.3 185.539 203.71 185.309 204.094 185L204.574 186.12C204.222 186.44 203.769 186.691 203.214 186.872C202.66 187.053 202.1 187.144 201.534 187.144ZM209.2 187.144C208.784 187.144 208.379 187.107 207.984 187.032C207.589 186.957 207.227 186.851 206.896 186.712C206.565 186.573 206.272 186.403 206.016 186.2L206.48 185.112C206.747 185.293 207.029 185.453 207.328 185.592C207.627 185.72 207.936 185.816 208.256 185.88C208.587 185.944 208.907 185.976 209.216 185.976C209.781 185.976 210.208 185.875 210.496 185.672C210.784 185.469 210.928 185.197 210.928 184.856C210.928 184.579 210.832 184.365 210.64 184.216C210.448 184.056 210.16 183.933 209.776 183.848L208.256 183.544C207.595 183.405 207.093 183.16 206.752 182.808C206.411 182.456 206.24 182.008 206.24 181.464C206.24 180.973 206.373 180.547 206.64 180.184C206.907 179.821 207.28 179.544 207.76 179.352C208.24 179.149 208.795 179.048 209.424 179.048C209.787 179.048 210.139 179.085 210.48 179.16C210.821 179.235 211.141 179.341 211.44 179.48C211.749 179.619 212.011 179.795 212.224 180.008L211.76 181.096C211.557 180.915 211.323 180.76 211.056 180.632C210.8 180.504 210.533 180.408 210.256 180.344C209.979 180.269 209.701 180.232 209.424 180.232C208.859 180.232 208.432 180.339 208.144 180.552C207.867 180.755 207.728 181.032 207.728 181.384C207.728 181.651 207.813 181.869 207.984 182.04C208.155 182.211 208.421 182.333 208.784 182.408L210.304 182.712C210.997 182.851 211.52 183.085 211.872 183.416C212.235 183.747 212.416 184.195 212.416 184.76C212.416 185.251 212.283 185.677 212.016 186.04C211.749 186.403 211.371 186.68 210.88 186.872C210.4 187.053 209.84 187.144 209.2 187.144ZM217.464 187.144C216.493 187.144 215.763 186.893 215.272 186.392C214.792 185.891 214.552 185.165 214.552 184.216V180.44H213.032V179.192H214.552V176.84H216.168V179.192H218.584V180.44H216.168V184.088C216.168 184.653 216.285 185.08 216.52 185.368C216.765 185.656 217.16 185.8 217.704 185.8C217.864 185.8 218.024 185.779 218.184 185.736C218.355 185.693 218.52 185.651 218.68 185.608L218.936 186.824C218.776 186.92 218.552 186.995 218.264 187.048C217.987 187.112 217.72 187.144 217.464 187.144ZM223.566 187.144C222.712 187.144 221.976 186.984 221.358 186.664C220.75 186.333 220.275 185.869 219.934 185.272C219.603 184.664 219.438 183.944 219.438 183.112C219.438 182.301 219.603 181.592 219.934 180.984C220.264 180.376 220.718 179.901 221.294 179.56C221.87 179.219 222.526 179.048 223.262 179.048C223.987 179.048 224.606 179.208 225.118 179.528C225.64 179.837 226.04 180.28 226.318 180.856C226.595 181.432 226.734 182.12 226.734 182.92V183.464H220.718V182.472H225.646L225.374 182.696C225.374 181.896 225.198 181.277 224.846 180.84C224.494 180.403 223.987 180.184 223.326 180.184C222.824 180.184 222.398 180.301 222.046 180.536C221.704 180.771 221.443 181.096 221.262 181.512C221.08 181.928 220.99 182.413 220.99 182.968V183.064C220.99 183.683 221.086 184.205 221.278 184.632C221.48 185.048 221.774 185.363 222.158 185.576C222.542 185.789 223.016 185.896 223.582 185.896C224.03 185.896 224.467 185.827 224.894 185.688C225.331 185.539 225.742 185.309 226.126 185L226.606 186.12C226.254 186.44 225.8 186.691 225.246 186.872C224.691 187.053 224.131 187.144 223.566 187.144ZM228.495 187V179.192H230.063V181.064H229.903C230.074 180.424 230.378 179.939 230.815 179.608C231.263 179.277 231.855 179.085 232.591 179.032L233.119 179L233.231 180.376L232.255 180.472C231.562 180.536 231.034 180.755 230.671 181.128C230.309 181.501 230.127 182.013 230.127 182.664V187H228.495ZM237.331 187.144C236.648 187.144 236.045 186.984 235.523 186.664C235.011 186.333 234.611 185.864 234.323 185.256C234.035 184.637 233.891 183.917 233.891 183.096C233.891 182.253 234.035 181.533 234.323 180.936C234.611 180.339 235.011 179.875 235.523 179.544C236.045 179.213 236.648 179.048 237.331 179.048C238.013 179.048 238.6 179.219 239.091 179.56C239.592 179.891 239.928 180.339 240.099 180.904H239.923V175.72H241.539V187H239.955V185.24H240.115C239.944 185.816 239.608 186.28 239.107 186.632C238.616 186.973 238.024 187.144 237.331 187.144ZM237.747 185.896C238.408 185.896 238.941 185.656 239.347 185.176C239.752 184.696 239.955 184.003 239.955 183.096C239.955 182.179 239.752 181.485 239.347 181.016C238.941 180.547 238.408 180.312 237.747 180.312C237.075 180.312 236.536 180.547 236.131 181.016C235.725 181.485 235.523 182.179 235.523 183.096C235.523 184.003 235.725 184.696 236.131 185.176C236.536 185.656 237.075 185.896 237.747 185.896ZM246.304 187.144C245.76 187.144 245.269 187.037 244.832 186.824C244.405 186.611 244.069 186.323 243.824 185.96C243.579 185.597 243.456 185.187 243.456 184.728C243.456 184.152 243.6 183.699 243.888 183.368C244.187 183.027 244.672 182.787 245.344 182.648C246.027 182.499 246.944 182.424 248.096 182.424H248.848V183.416H248.112C247.536 183.416 247.051 183.437 246.656 183.48C246.261 183.523 245.947 183.592 245.712 183.688C245.477 183.773 245.307 183.896 245.2 184.056C245.104 184.216 245.056 184.408 245.056 184.632C245.056 185.037 245.195 185.368 245.472 185.624C245.749 185.869 246.133 185.992 246.624 185.992C247.019 185.992 247.365 185.901 247.664 185.72C247.963 185.528 248.197 185.272 248.368 184.952C248.549 184.632 248.64 184.264 248.64 183.848V182.008C248.64 181.4 248.512 180.963 248.256 180.696C248 180.429 247.579 180.296 246.992 180.296C246.544 180.296 246.096 180.365 245.648 180.504C245.2 180.632 244.741 180.84 244.272 181.128L243.776 179.992C244.053 179.8 244.373 179.635 244.736 179.496C245.099 179.357 245.477 179.251 245.872 179.176C246.277 179.091 246.667 179.048 247.04 179.048C247.755 179.048 248.341 179.16 248.8 179.384C249.269 179.608 249.616 179.949 249.84 180.408C250.064 180.867 250.176 181.459 250.176 182.184V187H248.656V185.256H248.8C248.715 185.651 248.555 185.992 248.32 186.28C248.096 186.557 247.813 186.771 247.472 186.92C247.131 187.069 246.741 187.144 246.304 187.144ZM253.124 189.88L254.66 186.456V187.144L251.252 179.192H252.98L255.604 185.672H255.156L257.812 179.192H259.476L254.82 189.88H253.124Z" fill="#606060"/>
</g>
<defs>
<filter id="filter0_d_537_5678" x="-32" y="0" width="451" height="270" filterUnits="userSpaceOnUse" color-interpolation-filters="sRGB">
<feFlood flood-opacity="0" result="BackgroundImageFix"/>
<feColorMatrix in="SourceAlpha" type="matrix" values="0 0 0 0 0 0 0 0 0 0 0 0 0 0 0 0 0 0 127 0" result="hardAlpha"/>
<feOffset dx="6" dy="6"/>
<feGaussianBlur stdDeviation="27"/>
<feColorMatrix type="matrix" values="0 0 0 0 0 0 0 0 0 0 0 0 0 0 0 0 0 0 0.05 0"/>
<feBlend mode="normal" in2="BackgroundImageFix" result="effect1_dropShadow_537_5678"/>
<feBlend mode="normal" in="SourceGraphic" in2="effect1_dropShadow_537_5678" result="shape"/>
</filter>
</defs>
</svg>
