<svg width="375" height="270" viewBox="0 0 375 270" fill="none" xmlns="http://www.w3.org/2000/svg">
<g filter="url(#filter0_d_537_5692)">
<rect x="16" y="48" width="343" height="162" rx="14" fill="white"/>
<path opacity="0.7" d="M36.064 80V70.112H32.064V68.72H41.712V70.112H37.712V80H36.064ZM45.0749 80.144C44.2855 80.144 43.6029 79.9787 43.0269 79.648C42.4615 79.3173 42.0189 78.848 41.6989 78.24C41.3789 77.632 41.2189 76.9173 41.2189 76.096C41.2189 75.264 41.3789 74.5493 41.6989 73.952C42.0189 73.344 42.4615 72.8747 43.0269 72.544C43.6029 72.2133 44.2855 72.048 45.0749 72.048C45.8535 72.048 46.5255 72.2133 47.0909 72.544C47.6669 72.8747 48.1149 73.344 48.4349 73.952C48.7549 74.56 48.9149 75.2747 48.9149 76.096C48.9149 76.9173 48.7549 77.632 48.4349 78.24C48.1149 78.848 47.6669 79.3173 47.0909 79.648C46.5255 79.9787 45.8535 80.144 45.0749 80.144ZM45.0589 78.896C45.7309 78.896 46.2695 78.656 46.6749 78.176C47.0802 77.696 47.2829 77.0027 47.2829 76.096C47.2829 75.1787 47.0802 74.4853 46.6749 74.016C46.2695 73.5467 45.7309 73.312 45.0589 73.312C44.3975 73.312 43.8642 73.5467 43.4589 74.016C43.0535 74.4853 42.8509 75.1787 42.8509 76.096C42.8509 77.0027 43.0535 77.696 43.4589 78.176C43.8642 78.656 44.3975 78.896 45.0589 78.896ZM53.9796 80.144C53.009 80.144 52.2783 79.8933 51.7876 79.392C51.3076 78.8907 51.0676 78.1653 51.0676 77.216V73.44H49.5476V72.192H51.0676V69.84H52.6836V72.192H55.0996V73.44H52.6836V77.088C52.6836 77.6533 52.801 78.08 53.0356 78.368C53.281 78.656 53.6756 78.8 54.2196 78.8C54.3796 78.8 54.5396 78.7787 54.6996 78.736C54.8703 78.6933 55.0356 78.6507 55.1956 78.608L55.4516 79.824C55.2916 79.92 55.0676 79.9947 54.7796 80.048C54.5023 80.112 54.2356 80.144 53.9796 80.144ZM58.9914 80.144C58.4474 80.144 57.9567 80.0373 57.5194 79.824C57.0927 79.6107 56.7567 79.3227 56.5114 78.96C56.266 78.5973 56.1434 78.1867 56.1434 77.728C56.1434 77.152 56.2874 76.6987 56.5754 76.368C56.874 76.0267 57.3594 75.7867 58.0314 75.648C58.714 75.4987 59.6314 75.424 60.7834 75.424H61.5354V76.416H60.7994C60.2234 76.416 59.738 76.4373 59.3434 76.48C58.9487 76.5227 58.634 76.592 58.3994 76.688C58.1647 76.7733 57.994 76.896 57.8874 77.056C57.7914 77.216 57.7434 77.408 57.7434 77.632C57.7434 78.0373 57.882 78.368 58.1594 78.624C58.4367 78.8693 58.8207 78.992 59.3114 78.992C59.706 78.992 60.0527 78.9013 60.3514 78.72C60.65 78.528 60.8847 78.272 61.0554 77.952C61.2367 77.632 61.3274 77.264 61.3274 76.848V75.008C61.3274 74.4 61.1994 73.9627 60.9434 73.696C60.6874 73.4293 60.266 73.296 59.6794 73.296C59.2314 73.296 58.7834 73.3653 58.3354 73.504C57.8874 73.632 57.4287 73.84 56.9594 74.128L56.4634 72.992C56.7407 72.8 57.0607 72.6347 57.4234 72.496C57.786 72.3573 58.1647 72.2507 58.5594 72.176C58.9647 72.0907 59.354 72.048 59.7274 72.048C60.442 72.048 61.0287 72.16 61.4874 72.384C61.9567 72.608 62.3034 72.9493 62.5274 73.408C62.7514 73.8667 62.8634 74.4587 62.8634 75.184V80H61.3434V78.256H61.4874C61.402 78.6507 61.242 78.992 61.0074 79.28C60.7834 79.5573 60.5007 79.7707 60.1594 79.92C59.818 80.0693 59.4287 80.144 58.9914 80.144ZM67.6331 80.144C66.7798 80.144 66.1398 79.904 65.7131 79.424C65.2971 78.9333 65.0891 78.2293 65.0891 77.312V68.72H66.7051V77.216C66.7051 77.5573 66.7531 77.8507 66.8491 78.096C66.9451 78.3307 67.0891 78.5067 67.2811 78.624C67.4731 78.7413 67.7131 78.8 68.0011 78.8C68.1291 78.8 68.2518 78.7947 68.3691 78.784C68.4865 78.7733 68.5985 78.752 68.7051 78.72L68.6731 80.016C68.4918 80.0587 68.3158 80.0907 68.1451 80.112C67.9745 80.1333 67.8038 80.144 67.6331 80.144ZM74.3589 80V68.72H79.0309C79.8522 68.72 80.5455 68.8587 81.1109 69.136C81.6762 69.4027 82.1029 69.792 82.3909 70.304C82.6895 70.816 82.8389 71.4347 82.8389 72.16C82.8389 72.8853 82.6895 73.5093 82.3909 74.032C82.1029 74.544 81.6762 74.9387 81.1109 75.216C80.5455 75.4827 79.8522 75.616 79.0309 75.616H76.0229V80H74.3589ZM76.0229 74.288H78.7909C79.5909 74.288 80.1935 74.112 80.5989 73.76C81.0149 73.3973 81.2229 72.864 81.2229 72.16C81.2229 71.4667 81.0149 70.944 80.5989 70.592C80.1935 70.2293 79.5909 70.048 78.7909 70.048H76.0229V74.288ZM87.7375 80.144C86.8842 80.144 86.1482 79.984 85.5295 79.664C84.9215 79.3333 84.4468 78.8693 84.1055 78.272C83.7748 77.664 83.6095 76.944 83.6095 76.112C83.6095 75.3013 83.7748 74.592 84.1055 73.984C84.4362 73.376 84.8895 72.9013 85.4655 72.56C86.0415 72.2187 86.6975 72.048 87.4335 72.048C88.1588 72.048 88.7775 72.208 89.2895 72.528C89.8122 72.8373 90.2122 73.28 90.4895 73.856C90.7668 74.432 90.9055 75.12 90.9055 75.92V76.464H84.8895V75.472H89.8175L89.5455 75.696C89.5455 74.896 89.3695 74.2773 89.0175 73.84C88.6655 73.4027 88.1588 73.184 87.4975 73.184C86.9962 73.184 86.5695 73.3013 86.2175 73.536C85.8762 73.7707 85.6148 74.096 85.4335 74.512C85.2522 74.928 85.1615 75.4133 85.1615 75.968V76.064C85.1615 76.6827 85.2575 77.2053 85.4495 77.632C85.6522 78.048 85.9455 78.3627 86.3295 78.576C86.7135 78.7893 87.1882 78.896 87.7535 78.896C88.2015 78.896 88.6388 78.8267 89.0655 78.688C89.5028 78.5387 89.9135 78.3093 90.2975 78L90.7775 79.12C90.4255 79.44 89.9722 79.6907 89.4175 79.872C88.8628 80.0533 88.3028 80.144 87.7375 80.144ZM92.6673 80V72.192H94.2353V73.856H94.0593C94.2939 73.2587 94.6619 72.8107 95.1633 72.512C95.6646 72.2027 96.2406 72.048 96.8913 72.048C97.5099 72.048 98.0219 72.1653 98.4273 72.4C98.8433 72.624 99.1526 72.9707 99.3553 73.44C99.5579 73.8987 99.6593 74.48 99.6593 75.184V80H98.0433V75.28C98.0433 74.832 97.9846 74.4693 97.8673 74.192C97.7499 73.904 97.5739 73.6907 97.3393 73.552C97.1046 73.4133 96.8006 73.344 96.4273 73.344C96.0006 73.344 95.6219 73.4347 95.2913 73.616C94.9713 73.7973 94.7206 74.0587 94.5393 74.4C94.3686 74.7413 94.2833 75.136 94.2833 75.584V80H92.6673ZM104.862 80.144C104.179 80.144 103.577 79.984 103.054 79.664C102.542 79.3333 102.142 78.864 101.854 78.256C101.566 77.6373 101.422 76.9173 101.422 76.096C101.422 75.2533 101.566 74.5333 101.854 73.936C102.142 73.3387 102.542 72.8747 103.054 72.544C103.577 72.2133 104.179 72.048 104.862 72.048C105.545 72.048 106.131 72.2187 106.622 72.56C107.123 72.8907 107.459 73.3387 107.63 73.904H107.454V68.72H109.07V80H107.486V78.24H107.646C107.475 78.816 107.139 79.28 106.638 79.632C106.147 79.9733 105.555 80.144 104.862 80.144ZM105.278 78.896C105.939 78.896 106.473 78.656 106.878 78.176C107.283 77.696 107.486 77.0027 107.486 76.096C107.486 75.1787 107.283 74.4853 106.878 74.016C106.473 73.5467 105.939 73.312 105.278 73.312C104.606 73.312 104.067 73.5467 103.662 74.016C103.257 74.4853 103.054 75.1787 103.054 76.096C103.054 77.0027 103.257 77.696 103.662 78.176C104.067 78.656 104.606 78.896 105.278 78.896ZM111.195 70.384V68.704H113.083V70.384H111.195ZM111.339 80V72.192H112.955V80H111.339ZM115.23 80V72.192H116.798V73.856H116.622C116.856 73.2587 117.224 72.8107 117.726 72.512C118.227 72.2027 118.803 72.048 119.454 72.048C120.072 72.048 120.584 72.1653 120.99 72.4C121.406 72.624 121.715 72.9707 121.918 73.44C122.12 73.8987 122.222 74.48 122.222 75.184V80H120.606V75.28C120.606 74.832 120.547 74.4693 120.43 74.192C120.312 73.904 120.136 73.6907 119.902 73.552C119.667 73.4133 119.363 73.344 118.99 73.344C118.563 73.344 118.184 73.4347 117.854 73.616C117.534 73.7973 117.283 74.0587 117.102 74.4C116.931 74.7413 116.846 75.136 116.846 75.584V80H115.23ZM127.985 83.024C127.281 83.024 126.625 82.9387 126.017 82.768C125.409 82.5973 124.87 82.3413 124.401 82L124.897 80.848C125.206 81.0507 125.521 81.2213 125.841 81.36C126.171 81.5093 126.502 81.616 126.833 81.68C127.174 81.744 127.521 81.776 127.873 81.776C128.619 81.776 129.179 81.584 129.553 81.2C129.926 80.8267 130.113 80.272 130.113 79.536V77.904H130.257C130.097 78.4907 129.761 78.9547 129.249 79.296C128.737 79.6373 128.145 79.808 127.473 79.808C126.769 79.808 126.155 79.648 125.633 79.328C125.11 78.9973 124.705 78.544 124.417 77.968C124.129 77.3813 123.985 76.6987 123.985 75.92C123.985 75.1413 124.129 74.464 124.417 73.888C124.705 73.312 125.11 72.864 125.633 72.544C126.155 72.2133 126.769 72.048 127.473 72.048C128.155 72.048 128.747 72.2187 129.249 72.56C129.761 72.9013 130.091 73.3653 130.241 73.952H130.113V72.192H131.681V79.344C131.681 80.1547 131.542 80.832 131.265 81.376C130.987 81.9307 130.571 82.3413 130.017 82.608C129.473 82.8853 128.795 83.024 127.985 83.024ZM127.857 78.544C128.55 78.544 129.094 78.3093 129.489 77.84C129.894 77.3707 130.097 76.7307 130.097 75.92C130.097 75.12 129.894 74.4853 129.489 74.016C129.094 73.5467 128.55 73.312 127.857 73.312C127.174 73.312 126.63 73.5467 126.225 74.016C125.819 74.4853 125.617 75.12 125.617 75.92C125.617 76.7307 125.819 77.3707 126.225 77.84C126.63 78.3093 127.174 78.544 127.857 78.544Z" fill="#202224"/>
<rect x="283" y="64" width="60" height="60" rx="8" fill="#FF0000" fill-opacity="0.1"/>
<path d="M324.7 95.5L322.701 93.5L320.7 95.5M323 94C323 98.9706 318.971 103 314 103C309.029 103 305 98.9706 305 94C305 89.0294 309.029 85 314 85C317.302 85 320.189 86.7781 321.755 89.4291M314 89V94L317 96" stroke="black" stroke-width="2" stroke-linecap="round" stroke-linejoin="round"/>
<path d="M39.344 148.24C38.608 148.24 37.88 148.16 37.16 148C36.456 147.84 35.792 147.616 35.168 147.328C34.56 147.04 34.032 146.704 33.584 146.32L34.592 143.968C35.328 144.528 36.088 144.952 36.872 145.24C37.656 145.512 38.464 145.648 39.296 145.648C40.304 145.648 41.088 145.392 41.648 144.88C42.224 144.352 42.512 143.648 42.512 142.768C42.512 141.872 42.24 141.152 41.696 140.608C41.152 140.048 40.408 139.768 39.464 139.768C38.776 139.768 38.16 139.904 37.616 140.176C37.072 140.432 36.576 140.832 36.128 141.376H34.064V131.08H44.456V133.624H37.064V139H36.272C36.688 138.44 37.232 138.008 37.904 137.704C38.592 137.4 39.352 137.248 40.184 137.248C41.256 137.248 42.184 137.48 42.968 137.944C43.768 138.392 44.384 139.024 44.816 139.84C45.264 140.64 45.488 141.576 45.488 142.648C45.488 143.752 45.24 144.728 44.744 145.576C44.248 146.408 43.536 147.064 42.608 147.544C41.696 148.008 40.608 148.24 39.344 148.24Z" fill="#202224"/>
<path d="M48.3145 176L50.6495 178.29L45.6735 183.17L41.5948 179.17L34.0391 186.59L35.4768 188L41.5948 182L45.6735 186L52.0975 179.71L54.4325 182V176H48.3145Z" fill="#00B69B"/>
<path d="M76.0771 187V185.608H78.6371V177.128H79.4691L76.6371 178.888L75.9651 177.656L79.1171 175.72H80.2851V185.608H82.6851V187H76.0771ZM84.7428 187V185.096H86.6468V187H84.7428ZM92.3957 187.144C91.105 187.144 90.097 186.867 89.3717 186.312C88.657 185.757 88.2997 184.984 88.2997 183.992C88.2997 183.459 88.4064 182.989 88.6197 182.584C88.833 182.168 89.1317 181.832 89.5157 181.576C89.8997 181.32 90.3424 181.16 90.8437 181.096V181.384C90.385 181.288 89.985 181.112 89.6437 180.856C89.3024 180.589 89.0357 180.264 88.8437 179.88C88.6624 179.485 88.5717 179.053 88.5717 178.584C88.5717 177.645 88.9184 176.909 89.6117 176.376C90.305 175.843 91.233 175.576 92.3957 175.576C93.569 175.576 94.5024 175.843 95.1957 176.376C95.889 176.909 96.2357 177.645 96.2357 178.584C96.2357 179.053 96.1397 179.485 95.9477 179.88C95.7664 180.264 95.505 180.589 95.1637 180.856C94.8224 181.112 94.4224 181.283 93.9637 181.368V181.096C94.4757 181.16 94.9184 181.325 95.2917 181.592C95.665 181.848 95.9584 182.179 96.1717 182.584C96.385 182.989 96.4917 183.459 96.4917 183.992C96.4917 184.984 96.129 185.757 95.4037 186.312C94.689 186.867 93.6864 187.144 92.3957 187.144ZM92.3957 185.832C93.2384 185.832 93.873 185.672 94.2997 185.352C94.7264 185.021 94.9397 184.531 94.9397 183.88C94.9397 183.229 94.7264 182.744 94.2997 182.424C93.873 182.104 93.2384 181.944 92.3957 181.944C91.5637 181.944 90.929 182.104 90.4917 182.424C90.065 182.744 89.8517 183.229 89.8517 183.88C89.8517 184.531 90.065 185.021 90.4917 185.352C90.929 185.672 91.5637 185.832 92.3957 185.832ZM92.3957 180.632C93.1104 180.632 93.665 180.467 94.0597 180.136C94.465 179.795 94.6677 179.331 94.6677 178.744C94.6677 178.168 94.465 177.715 94.0597 177.384C93.665 177.053 93.1104 176.888 92.3957 176.888C91.681 176.888 91.1264 177.053 90.7317 177.384C90.337 177.715 90.1397 178.168 90.1397 178.744C90.1397 179.331 90.337 179.795 90.7317 180.136C91.1264 180.467 91.681 180.632 92.3957 180.632ZM101.925 187.416L100.837 186.776L107.445 175.304L108.533 175.944L101.925 187.416ZM100.773 182.472C100.197 182.472 99.6961 182.333 99.2695 182.056C98.8535 181.779 98.5335 181.384 98.3095 180.872C98.0961 180.349 97.9895 179.731 97.9895 179.016C97.9895 177.939 98.2348 177.096 98.7255 176.488C99.2268 175.88 99.9095 175.576 100.773 175.576C101.349 175.576 101.845 175.715 102.261 175.992C102.677 176.259 102.997 176.648 103.221 177.16C103.445 177.672 103.557 178.291 103.557 179.016C103.557 179.731 103.445 180.349 103.221 180.872C103.008 181.384 102.693 181.779 102.277 182.056C101.861 182.333 101.36 182.472 100.773 182.472ZM100.773 181.336C101.221 181.336 101.568 181.144 101.813 180.76C102.069 180.376 102.197 179.795 102.197 179.016C102.197 178.237 102.069 177.656 101.813 177.272C101.568 176.888 101.221 176.696 100.773 176.696C100.325 176.696 99.9735 176.888 99.7175 177.272C99.4721 177.645 99.3495 178.227 99.3495 179.016C99.3495 179.805 99.4721 180.392 99.7175 180.776C99.9735 181.149 100.325 181.336 100.773 181.336ZM108.597 187.144C108.021 187.144 107.525 187.011 107.109 186.744C106.693 186.467 106.373 186.072 106.149 185.56C105.936 185.037 105.829 184.413 105.829 183.688C105.829 182.621 106.075 181.784 106.565 181.176C107.056 180.557 107.733 180.248 108.597 180.248C109.184 180.248 109.685 180.387 110.101 180.664C110.517 180.941 110.832 181.336 111.045 181.848C111.269 182.36 111.381 182.973 111.381 183.688C111.381 184.413 111.269 185.037 111.045 185.56C110.832 186.072 110.517 186.467 110.101 186.744C109.685 187.011 109.184 187.144 108.597 187.144ZM108.597 186.024C109.045 186.024 109.392 185.832 109.637 185.448C109.893 185.053 110.021 184.467 110.021 183.688C110.021 182.92 109.893 182.344 109.637 181.96C109.392 181.576 109.045 181.384 108.597 181.384C108.16 181.384 107.813 181.576 107.557 181.96C107.301 182.333 107.173 182.909 107.173 183.688C107.173 184.477 107.301 185.064 107.557 185.448C107.813 185.832 108.16 186.024 108.597 186.024Z" fill="#00B69B"/>
<path d="M122.249 187.144C120.745 187.144 119.593 186.749 118.793 185.96C118.004 185.171 117.609 184.003 117.609 182.456V175.72H119.273V182.424C119.273 183.523 119.524 184.344 120.025 184.888C120.537 185.432 121.278 185.704 122.249 185.704C123.23 185.704 123.972 185.432 124.473 184.888C124.974 184.344 125.225 183.523 125.225 182.424V175.72H126.857V182.456C126.857 184.003 126.468 185.171 125.689 185.96C124.91 186.749 123.764 187.144 122.249 187.144ZM129.247 189.88V179.192H130.831V180.952H130.655C130.826 180.376 131.162 179.917 131.663 179.576C132.165 179.224 132.757 179.048 133.439 179.048C134.133 179.048 134.735 179.213 135.247 179.544C135.77 179.875 136.17 180.339 136.447 180.936C136.735 181.533 136.879 182.253 136.879 183.096C136.879 183.917 136.735 184.637 136.447 185.256C136.17 185.864 135.775 186.333 135.263 186.664C134.751 186.984 134.143 187.144 133.439 187.144C132.767 187.144 132.181 186.973 131.679 186.632C131.178 186.291 130.842 185.837 130.671 185.272H130.863V189.88H129.247ZM133.039 185.896C133.711 185.896 134.245 185.656 134.639 185.176C135.045 184.696 135.247 184.003 135.247 183.096C135.247 182.179 135.045 181.485 134.639 181.016C134.245 180.547 133.711 180.312 133.039 180.312C132.378 180.312 131.845 180.547 131.439 181.016C131.034 181.485 130.831 182.179 130.831 183.096C130.831 184.003 131.034 184.696 131.439 185.176C131.845 185.656 132.378 185.896 133.039 185.896ZM143.368 187V180.44H141.848V179.192H143.832L143.368 179.624V179.048C143.368 177.981 143.64 177.176 144.184 176.632C144.738 176.077 145.586 175.768 146.728 175.704L147.432 175.656L147.544 176.872L146.808 176.92C146.37 176.941 146.018 177.027 145.752 177.176C145.485 177.325 145.288 177.539 145.16 177.816C145.042 178.083 144.984 178.419 144.984 178.824V179.448L144.76 179.192H147.176V180.44H144.984V187H143.368ZM148.45 187V179.192H150.018V181.064H149.858C150.029 180.424 150.333 179.939 150.77 179.608C151.218 179.277 151.81 179.085 152.546 179.032L153.074 179L153.186 180.376L152.21 180.472C151.517 180.536 150.989 180.755 150.626 181.128C150.264 181.501 150.082 182.013 150.082 182.664V187H148.45ZM157.702 187.144C156.912 187.144 156.23 186.979 155.654 186.648C155.088 186.317 154.646 185.848 154.326 185.24C154.006 184.632 153.846 183.917 153.846 183.096C153.846 182.264 154.006 181.549 154.326 180.952C154.646 180.344 155.088 179.875 155.654 179.544C156.23 179.213 156.912 179.048 157.702 179.048C158.48 179.048 159.152 179.213 159.718 179.544C160.294 179.875 160.742 180.344 161.062 180.952C161.382 181.56 161.542 182.275 161.542 183.096C161.542 183.917 161.382 184.632 161.062 185.24C160.742 185.848 160.294 186.317 159.718 186.648C159.152 186.979 158.48 187.144 157.702 187.144ZM157.686 185.896C158.358 185.896 158.896 185.656 159.302 185.176C159.707 184.696 159.91 184.003 159.91 183.096C159.91 182.179 159.707 181.485 159.302 181.016C158.896 180.547 158.358 180.312 157.686 180.312C157.024 180.312 156.491 180.547 156.086 181.016C155.68 181.485 155.478 182.179 155.478 183.096C155.478 184.003 155.68 184.696 156.086 185.176C156.491 185.656 157.024 185.896 157.686 185.896ZM163.389 187V179.192H164.957V180.856H164.781C164.919 180.472 165.111 180.147 165.357 179.88C165.602 179.613 165.895 179.411 166.237 179.272C166.589 179.123 166.973 179.048 167.389 179.048C168.039 179.048 168.567 179.203 168.973 179.512C169.378 179.821 169.655 180.296 169.805 180.936H169.581C169.783 180.349 170.13 179.891 170.621 179.56C171.111 179.219 171.682 179.048 172.333 179.048C172.93 179.048 173.421 179.165 173.805 179.4C174.189 179.624 174.477 179.971 174.669 180.44C174.861 180.899 174.957 181.48 174.957 182.184V187H173.341V182.264C173.341 181.603 173.223 181.117 172.989 180.808C172.765 180.499 172.391 180.344 171.869 180.344C171.485 180.344 171.149 180.435 170.861 180.616C170.573 180.797 170.349 181.064 170.189 181.416C170.039 181.757 169.965 182.163 169.965 182.632V187H168.349V182.264C168.349 181.603 168.237 181.117 168.013 180.808C167.789 180.499 167.415 180.344 166.893 180.344C166.498 180.344 166.157 180.435 165.869 180.616C165.591 180.797 165.378 181.064 165.229 181.416C165.079 181.757 165.005 182.163 165.005 182.632V187H163.389ZM182.219 189.88L183.755 186.456V187.144L180.347 179.192H182.075L184.699 185.672H184.251L186.907 179.192H188.571L183.915 189.88H182.219ZM193.255 187.144C192.402 187.144 191.666 186.984 191.047 186.664C190.439 186.333 189.964 185.869 189.623 185.272C189.292 184.664 189.127 183.944 189.127 183.112C189.127 182.301 189.292 181.592 189.623 180.984C189.954 180.376 190.407 179.901 190.983 179.56C191.559 179.219 192.215 179.048 192.951 179.048C193.676 179.048 194.295 179.208 194.807 179.528C195.33 179.837 195.73 180.28 196.007 180.856C196.284 181.432 196.423 182.12 196.423 182.92V183.464H190.407V182.472H195.335L195.063 182.696C195.063 181.896 194.887 181.277 194.535 180.84C194.183 180.403 193.676 180.184 193.015 180.184C192.514 180.184 192.087 180.301 191.735 180.536C191.394 180.771 191.132 181.096 190.951 181.512C190.77 181.928 190.679 182.413 190.679 182.968V183.064C190.679 183.683 190.775 184.205 190.967 184.632C191.17 185.048 191.463 185.363 191.847 185.576C192.231 185.789 192.706 185.896 193.271 185.896C193.719 185.896 194.156 185.827 194.583 185.688C195.02 185.539 195.431 185.309 195.815 185L196.295 186.12C195.943 186.44 195.49 186.691 194.935 186.872C194.38 187.053 193.82 187.144 193.255 187.144ZM200.921 187.144C200.505 187.144 200.099 187.107 199.705 187.032C199.31 186.957 198.947 186.851 198.617 186.712C198.286 186.573 197.993 186.403 197.737 186.2L198.201 185.112C198.467 185.293 198.75 185.453 199.049 185.592C199.347 185.72 199.657 185.816 199.977 185.88C200.307 185.944 200.627 185.976 200.937 185.976C201.502 185.976 201.929 185.875 202.217 185.672C202.505 185.469 202.649 185.197 202.649 184.856C202.649 184.579 202.553 184.365 202.361 184.216C202.169 184.056 201.881 183.933 201.497 183.848L199.977 183.544C199.315 183.405 198.814 183.16 198.473 182.808C198.131 182.456 197.961 182.008 197.961 181.464C197.961 180.973 198.094 180.547 198.361 180.184C198.627 179.821 199.001 179.544 199.481 179.352C199.961 179.149 200.515 179.048 201.145 179.048C201.507 179.048 201.859 179.085 202.201 179.16C202.542 179.235 202.862 179.341 203.161 179.48C203.47 179.619 203.731 179.795 203.945 180.008L203.481 181.096C203.278 180.915 203.043 180.76 202.777 180.632C202.521 180.504 202.254 180.408 201.977 180.344C201.699 180.269 201.422 180.232 201.145 180.232C200.579 180.232 200.153 180.339 199.865 180.552C199.587 180.755 199.449 181.032 199.449 181.384C199.449 181.651 199.534 181.869 199.705 182.04C199.875 182.211 200.142 182.333 200.505 182.408L202.025 182.712C202.718 182.851 203.241 183.085 203.593 183.416C203.955 183.747 204.137 184.195 204.137 184.76C204.137 185.251 204.003 185.677 203.737 186.04C203.47 186.403 203.091 186.68 202.601 186.872C202.121 187.053 201.561 187.144 200.921 187.144ZM209.185 187.144C208.214 187.144 207.483 186.893 206.993 186.392C206.513 185.891 206.273 185.165 206.273 184.216V180.44H204.753V179.192H206.273V176.84H207.889V179.192H210.305V180.44H207.889V184.088C207.889 184.653 208.006 185.08 208.241 185.368C208.486 185.656 208.881 185.8 209.425 185.8C209.585 185.8 209.745 185.779 209.905 185.736C210.075 185.693 210.241 185.651 210.401 185.608L210.657 186.824C210.497 186.92 210.273 186.995 209.985 187.048C209.707 187.112 209.441 187.144 209.185 187.144ZM215.286 187.144C214.433 187.144 213.697 186.984 213.078 186.664C212.47 186.333 211.996 185.869 211.654 185.272C211.324 184.664 211.158 183.944 211.158 183.112C211.158 182.301 211.324 181.592 211.654 180.984C211.985 180.376 212.438 179.901 213.014 179.56C213.59 179.219 214.246 179.048 214.982 179.048C215.708 179.048 216.326 179.208 216.838 179.528C217.361 179.837 217.761 180.28 218.038 180.856C218.316 181.432 218.454 182.12 218.454 182.92V183.464H212.438V182.472H217.366L217.094 182.696C217.094 181.896 216.918 181.277 216.566 180.84C216.214 180.403 215.708 180.184 215.046 180.184C214.545 180.184 214.118 180.301 213.766 180.536C213.425 180.771 213.164 181.096 212.982 181.512C212.801 181.928 212.71 182.413 212.71 182.968V183.064C212.71 183.683 212.806 184.205 212.998 184.632C213.201 185.048 213.494 185.363 213.878 185.576C214.262 185.789 214.737 185.896 215.302 185.896C215.75 185.896 216.188 185.827 216.614 185.688C217.052 185.539 217.462 185.309 217.846 185L218.326 186.12C217.974 186.44 217.521 186.691 216.966 186.872C216.412 187.053 215.852 187.144 215.286 187.144ZM220.216 187V179.192H221.784V181.064H221.624C221.795 180.424 222.099 179.939 222.536 179.608C222.984 179.277 223.576 179.085 224.312 179.032L224.84 179L224.952 180.376L223.976 180.472C223.283 180.536 222.755 180.755 222.392 181.128C222.029 181.501 221.848 182.013 221.848 182.664V187H220.216ZM229.051 187.144C228.369 187.144 227.766 186.984 227.243 186.664C226.731 186.333 226.331 185.864 226.043 185.256C225.755 184.637 225.611 183.917 225.611 183.096C225.611 182.253 225.755 181.533 226.043 180.936C226.331 180.339 226.731 179.875 227.243 179.544C227.766 179.213 228.369 179.048 229.051 179.048C229.734 179.048 230.321 179.219 230.811 179.56C231.313 179.891 231.649 180.339 231.819 180.904H231.643V175.72H233.259V187H231.675V185.24H231.835C231.665 185.816 231.329 186.28 230.827 186.632C230.337 186.973 229.745 187.144 229.051 187.144ZM229.467 185.896C230.129 185.896 230.662 185.656 231.067 185.176C231.473 184.696 231.675 184.003 231.675 183.096C231.675 182.179 231.473 181.485 231.067 181.016C230.662 180.547 230.129 180.312 229.467 180.312C228.795 180.312 228.257 180.547 227.851 181.016C227.446 181.485 227.243 182.179 227.243 183.096C227.243 184.003 227.446 184.696 227.851 185.176C228.257 185.656 228.795 185.896 229.467 185.896ZM238.025 187.144C237.481 187.144 236.99 187.037 236.553 186.824C236.126 186.611 235.79 186.323 235.545 185.96C235.299 185.597 235.177 185.187 235.177 184.728C235.177 184.152 235.321 183.699 235.609 183.368C235.907 183.027 236.393 182.787 237.065 182.648C237.747 182.499 238.665 182.424 239.817 182.424H240.569V183.416H239.833C239.257 183.416 238.771 183.437 238.377 183.48C237.982 183.523 237.667 183.592 237.433 183.688C237.198 183.773 237.027 183.896 236.921 184.056C236.825 184.216 236.777 184.408 236.777 184.632C236.777 185.037 236.915 185.368 237.193 185.624C237.47 185.869 237.854 185.992 238.345 185.992C238.739 185.992 239.086 185.901 239.385 185.72C239.683 185.528 239.918 185.272 240.089 184.952C240.27 184.632 240.361 184.264 240.361 183.848V182.008C240.361 181.4 240.233 180.963 239.977 180.696C239.721 180.429 239.299 180.296 238.713 180.296C238.265 180.296 237.817 180.365 237.369 180.504C236.921 180.632 236.462 180.84 235.993 181.128L235.497 179.992C235.774 179.8 236.094 179.635 236.457 179.496C236.819 179.357 237.198 179.251 237.593 179.176C237.998 179.091 238.387 179.048 238.761 179.048C239.475 179.048 240.062 179.16 240.521 179.384C240.99 179.608 241.337 179.949 241.561 180.408C241.785 180.867 241.897 181.459 241.897 182.184V187H240.377V185.256H240.521C240.435 185.651 240.275 185.992 240.041 186.28C239.817 186.557 239.534 186.771 239.193 186.92C238.851 187.069 238.462 187.144 238.025 187.144ZM244.844 189.88L246.38 186.456V187.144L242.972 179.192H244.7L247.324 185.672H246.876L249.532 179.192H251.196L246.54 189.88H244.844Z" fill="#606060"/>
</g>
<defs>
<filter id="filter0_d_537_5692" x="-32" y="0" width="451" height="270" filterUnits="userSpaceOnUse" color-interpolation-filters="sRGB">
<feFlood flood-opacity="0" result="BackgroundImageFix"/>
<feColorMatrix in="SourceAlpha" type="matrix" values="0 0 0 0 0 0 0 0 0 0 0 0 0 0 0 0 0 0 127 0" result="hardAlpha"/>
<feOffset dx="6" dy="6"/>
<feGaussianBlur stdDeviation="27"/>
<feColorMatrix type="matrix" values="0 0 0 0 0 0 0 0 0 0 0 0 0 0 0 0 0 0 0.05 0"/>
<feBlend mode="normal" in2="BackgroundImageFix" result="effect1_dropShadow_537_5692"/>
<feBlend mode="normal" in="SourceGraphic" in2="effect1_dropShadow_537_5692" result="shape"/>
</filter>
</defs>
</svg>
