<svg width="375" height="270" viewBox="0 0 375 270" fill="none" xmlns="http://www.w3.org/2000/svg">
<g filter="url(#filter0_d_537_5663)">
<rect x="16" y="48" width="343" height="162" rx="14" fill="white"/>
<path opacity="0.7" d="M36.064 80V70.112H32.064V68.72H41.712V70.112H37.712V80H36.064ZM45.0749 80.144C44.2855 80.144 43.6029 79.9787 43.0269 79.648C42.4615 79.3173 42.0189 78.848 41.6989 78.24C41.3789 77.632 41.2189 76.9173 41.2189 76.096C41.2189 75.264 41.3789 74.5493 41.6989 73.952C42.0189 73.344 42.4615 72.8747 43.0269 72.544C43.6029 72.2133 44.2855 72.048 45.0749 72.048C45.8535 72.048 46.5255 72.2133 47.0909 72.544C47.6669 72.8747 48.1149 73.344 48.4349 73.952C48.7549 74.56 48.9149 75.2747 48.9149 76.096C48.9149 76.9173 48.7549 77.632 48.4349 78.24C48.1149 78.848 47.6669 79.3173 47.0909 79.648C46.5255 79.9787 45.8535 80.144 45.0749 80.144ZM45.0589 78.896C45.7309 78.896 46.2695 78.656 46.6749 78.176C47.0802 77.696 47.2829 77.0027 47.2829 76.096C47.2829 75.1787 47.0802 74.4853 46.6749 74.016C46.2695 73.5467 45.7309 73.312 45.0589 73.312C44.3975 73.312 43.8642 73.5467 43.4589 74.016C43.0535 74.4853 42.8509 75.1787 42.8509 76.096C42.8509 77.0027 43.0535 77.696 43.4589 78.176C43.8642 78.656 44.3975 78.896 45.0589 78.896ZM53.9796 80.144C53.009 80.144 52.2783 79.8933 51.7876 79.392C51.3076 78.8907 51.0676 78.1653 51.0676 77.216V73.44H49.5476V72.192H51.0676V69.84H52.6836V72.192H55.0996V73.44H52.6836V77.088C52.6836 77.6533 52.801 78.08 53.0356 78.368C53.281 78.656 53.6756 78.8 54.2196 78.8C54.3796 78.8 54.5396 78.7787 54.6996 78.736C54.8703 78.6933 55.0356 78.6507 55.1956 78.608L55.4516 79.824C55.2916 79.92 55.0676 79.9947 54.7796 80.048C54.5023 80.112 54.2356 80.144 53.9796 80.144ZM58.9914 80.144C58.4474 80.144 57.9567 80.0373 57.5194 79.824C57.0927 79.6107 56.7567 79.3227 56.5114 78.96C56.266 78.5973 56.1434 78.1867 56.1434 77.728C56.1434 77.152 56.2874 76.6987 56.5754 76.368C56.874 76.0267 57.3594 75.7867 58.0314 75.648C58.714 75.4987 59.6314 75.424 60.7834 75.424H61.5354V76.416H60.7994C60.2234 76.416 59.738 76.4373 59.3434 76.48C58.9487 76.5227 58.634 76.592 58.3994 76.688C58.1647 76.7733 57.994 76.896 57.8874 77.056C57.7914 77.216 57.7434 77.408 57.7434 77.632C57.7434 78.0373 57.882 78.368 58.1594 78.624C58.4367 78.8693 58.8207 78.992 59.3114 78.992C59.706 78.992 60.0527 78.9013 60.3514 78.72C60.65 78.528 60.8847 78.272 61.0554 77.952C61.2367 77.632 61.3274 77.264 61.3274 76.848V75.008C61.3274 74.4 61.1994 73.9627 60.9434 73.696C60.6874 73.4293 60.266 73.296 59.6794 73.296C59.2314 73.296 58.7834 73.3653 58.3354 73.504C57.8874 73.632 57.4287 73.84 56.9594 74.128L56.4634 72.992C56.7407 72.8 57.0607 72.6347 57.4234 72.496C57.786 72.3573 58.1647 72.2507 58.5594 72.176C58.9647 72.0907 59.354 72.048 59.7274 72.048C60.442 72.048 61.0287 72.16 61.4874 72.384C61.9567 72.608 62.3034 72.9493 62.5274 73.408C62.7514 73.8667 62.8634 74.4587 62.8634 75.184V80H61.3434V78.256H61.4874C61.402 78.6507 61.242 78.992 61.0074 79.28C60.7834 79.5573 60.5007 79.7707 60.1594 79.92C59.818 80.0693 59.4287 80.144 58.9914 80.144ZM67.6331 80.144C66.7798 80.144 66.1398 79.904 65.7131 79.424C65.2971 78.9333 65.0891 78.2293 65.0891 77.312V68.72H66.7051V77.216C66.7051 77.5573 66.7531 77.8507 66.8491 78.096C66.9451 78.3307 67.0891 78.5067 67.2811 78.624C67.4731 78.7413 67.7131 78.8 68.0011 78.8C68.1291 78.8 68.2518 78.7947 68.3691 78.784C68.4865 78.7733 68.5985 78.752 68.7051 78.72L68.6731 80.016C68.4918 80.0587 68.3158 80.0907 68.1451 80.112C67.9745 80.1333 67.8038 80.144 67.6331 80.144ZM74.3589 80V68.72H81.6549V70.064H75.9589V73.6H81.3189V74.944H75.9589V78.656H81.6549V80H74.3589ZM86.007 80.144C85.463 80.144 84.9723 80.0373 84.535 79.824C84.1083 79.6107 83.7723 79.3227 83.527 78.96C83.2817 78.5973 83.159 78.1867 83.159 77.728C83.159 77.152 83.303 76.6987 83.591 76.368C83.8897 76.0267 84.375 75.7867 85.047 75.648C85.7297 75.4987 86.647 75.424 87.799 75.424H88.551V76.416H87.815C87.239 76.416 86.7537 76.4373 86.359 76.48C85.9643 76.5227 85.6497 76.592 85.415 76.688C85.1803 76.7733 85.0097 76.896 84.903 77.056C84.807 77.216 84.759 77.408 84.759 77.632C84.759 78.0373 84.8977 78.368 85.175 78.624C85.4523 78.8693 85.8363 78.992 86.327 78.992C86.7217 78.992 87.0683 78.9013 87.367 78.72C87.6657 78.528 87.9003 78.272 88.071 77.952C88.2523 77.632 88.343 77.264 88.343 76.848V75.008C88.343 74.4 88.215 73.9627 87.959 73.696C87.703 73.4293 87.2817 73.296 86.695 73.296C86.247 73.296 85.799 73.3653 85.351 73.504C84.903 73.632 84.4443 73.84 83.975 74.128L83.479 72.992C83.7563 72.8 84.0763 72.6347 84.439 72.496C84.8017 72.3573 85.1803 72.2507 85.575 72.176C85.9803 72.0907 86.3697 72.048 86.743 72.048C87.4577 72.048 88.0443 72.16 88.503 72.384C88.9723 72.608 89.319 72.9493 89.543 73.408C89.767 73.8667 89.879 74.4587 89.879 75.184V80H88.359V78.256H88.503C88.4177 78.6507 88.2577 78.992 88.023 79.28C87.799 79.5573 87.5163 79.7707 87.175 79.92C86.8337 80.0693 86.4443 80.144 86.007 80.144ZM92.1048 80V72.192H93.6728V74.064H93.5128C93.6834 73.424 93.9874 72.9387 94.4248 72.608C94.8728 72.2773 95.4648 72.0853 96.2008 72.032L96.7288 72L96.8408 73.376L95.8648 73.472C95.1714 73.536 94.6434 73.7547 94.2808 74.128C93.9181 74.5013 93.7368 75.0133 93.7368 75.664V80H92.1048ZM98.0735 80V72.192H99.6415V73.856H99.4655C99.7002 73.2587 100.068 72.8107 100.57 72.512C101.071 72.2027 101.647 72.048 102.298 72.048C102.916 72.048 103.428 72.1653 103.834 72.4C104.25 72.624 104.559 72.9707 104.762 73.44C104.964 73.8987 105.066 74.48 105.066 75.184V80H103.45V75.28C103.45 74.832 103.391 74.4693 103.274 74.192C103.156 73.904 102.98 73.6907 102.746 73.552C102.511 73.4133 102.207 73.344 101.834 73.344C101.407 73.344 101.028 73.4347 100.698 73.616C100.378 73.7973 100.127 74.0587 99.9455 74.4C99.7748 74.7413 99.6895 75.136 99.6895 75.584V80H98.0735ZM107.148 70.384V68.704H109.036V70.384H107.148ZM107.292 80V72.192H108.908V80H107.292ZM111.183 80V72.192H112.751V73.856H112.575C112.81 73.2587 113.178 72.8107 113.679 72.512C114.18 72.2027 114.756 72.048 115.407 72.048C116.026 72.048 116.538 72.1653 116.943 72.4C117.359 72.624 117.668 72.9707 117.871 73.44C118.074 73.8987 118.175 74.48 118.175 75.184V80H116.559V75.28C116.559 74.832 116.5 74.4693 116.383 74.192C116.266 73.904 116.09 73.6907 115.855 73.552C115.62 73.4133 115.316 73.344 114.943 73.344C114.516 73.344 114.138 73.4347 113.807 73.616C113.487 73.7973 113.236 74.0587 113.055 74.4C112.884 74.7413 112.799 75.136 112.799 75.584V80H111.183ZM123.938 83.024C123.234 83.024 122.578 82.9387 121.97 82.768C121.362 82.5973 120.823 82.3413 120.354 82L120.85 80.848C121.159 81.0507 121.474 81.2213 121.794 81.36C122.124 81.5093 122.455 81.616 122.786 81.68C123.127 81.744 123.474 81.776 123.826 81.776C124.572 81.776 125.132 81.584 125.506 81.2C125.879 80.8267 126.066 80.272 126.066 79.536V77.904H126.21C126.05 78.4907 125.714 78.9547 125.202 79.296C124.69 79.6373 124.098 79.808 123.426 79.808C122.722 79.808 122.108 79.648 121.586 79.328C121.063 78.9973 120.658 78.544 120.37 77.968C120.082 77.3813 119.938 76.6987 119.938 75.92C119.938 75.1413 120.082 74.464 120.37 73.888C120.658 73.312 121.063 72.864 121.586 72.544C122.108 72.2133 122.722 72.048 123.426 72.048C124.108 72.048 124.7 72.2187 125.202 72.56C125.714 72.9013 126.044 73.3653 126.194 73.952H126.066V72.192H127.634V79.344C127.634 80.1547 127.495 80.832 127.218 81.376C126.94 81.9307 126.524 82.3413 125.97 82.608C125.426 82.8853 124.748 83.024 123.938 83.024ZM123.81 78.544C124.503 78.544 125.047 78.3093 125.442 77.84C125.847 77.3707 126.05 76.7307 126.05 75.92C126.05 75.12 125.847 74.4853 125.442 74.016C125.047 73.5467 124.503 73.312 123.81 73.312C123.127 73.312 122.583 73.5467 122.178 74.016C121.772 74.4853 121.57 75.12 121.57 75.92C121.57 76.7307 121.772 77.3707 122.178 77.84C122.583 78.3093 123.127 78.544 123.81 78.544ZM132.638 80.144C132.222 80.144 131.816 80.1067 131.422 80.032C131.027 79.9573 130.664 79.8507 130.334 79.712C130.003 79.5733 129.71 79.4027 129.454 79.2L129.918 78.112C130.184 78.2933 130.467 78.4533 130.766 78.592C131.064 78.72 131.374 78.816 131.694 78.88C132.024 78.944 132.344 78.976 132.654 78.976C133.219 78.976 133.646 78.8747 133.934 78.672C134.222 78.4693 134.366 78.1973 134.366 77.856C134.366 77.5787 134.27 77.3653 134.078 77.216C133.886 77.056 133.598 76.9333 133.214 76.848L131.694 76.544C131.032 76.4053 130.531 76.16 130.19 75.808C129.848 75.456 129.678 75.008 129.678 74.464C129.678 73.9733 129.811 73.5467 130.078 73.184C130.344 72.8213 130.718 72.544 131.198 72.352C131.678 72.1493 132.232 72.048 132.862 72.048C133.224 72.048 133.576 72.0853 133.918 72.16C134.259 72.2347 134.579 72.3413 134.878 72.48C135.187 72.6187 135.448 72.7947 135.662 73.008L135.198 74.096C134.995 73.9147 134.76 73.76 134.494 73.632C134.238 73.504 133.971 73.408 133.694 73.344C133.416 73.2693 133.139 73.232 132.862 73.232C132.296 73.232 131.87 73.3387 131.582 73.552C131.304 73.7547 131.166 74.032 131.166 74.384C131.166 74.6507 131.251 74.8693 131.422 75.04C131.592 75.2107 131.859 75.3333 132.222 75.408L133.742 75.712C134.435 75.8507 134.958 76.0853 135.31 76.416C135.672 76.7467 135.854 77.1947 135.854 77.76C135.854 78.2507 135.72 78.6773 135.454 79.04C135.187 79.4027 134.808 79.68 134.318 79.872C133.838 80.0533 133.278 80.144 132.638 80.144Z" fill="#202224"/>
<rect x="283" y="64" width="60" height="60" rx="8" fill="#4AD991" fill-opacity="0.1"/>
<path d="M323.5 91H303.5M303.5 95H307.047C307.587 95 307.857 95 308.118 95.0466C308.35 95.0879 308.576 95.1563 308.792 95.2506C309.035 95.3567 309.26 95.5065 309.709 95.8062L310.291 96.1938C310.74 96.4935 310.965 96.6433 311.208 96.7494C311.424 96.8437 311.65 96.9121 311.882 96.9534C312.143 97 312.413 97 312.953 97H314.047C314.587 97 314.857 97 315.118 96.9534C315.35 96.9121 315.576 96.8437 315.792 96.7494C316.035 96.6433 316.26 96.4935 316.709 96.1938L317.291 95.8062C317.74 95.5065 317.965 95.3567 318.208 95.2506C318.424 95.1563 318.65 95.0879 318.882 95.0466C319.143 95 319.413 95 319.953 95H323.5M303.5 89.7L303.5 99.3C303.5 100.42 303.5 100.98 303.718 101.408C303.91 101.784 304.216 102.09 304.592 102.282C305.02 102.5 305.58 102.5 306.7 102.5L320.3 102.5C321.42 102.5 321.98 102.5 322.408 102.282C322.784 102.09 323.09 101.784 323.282 101.408C323.5 100.98 323.5 100.42 323.5 99.3V89.7C323.5 88.5799 323.5 88.0198 323.282 87.592C323.09 87.2157 322.784 86.9097 322.408 86.718C321.98 86.5 321.42 86.5 320.3 86.5L306.7 86.5C305.58 86.5 305.02 86.5 304.592 86.718C304.216 86.9097 303.91 87.2157 303.718 87.592C303.5 88.0198 303.5 88.5799 303.5 89.7Z" stroke="black" stroke-width="2" stroke-linecap="round" stroke-linejoin="round"/>
<path d="M34.496 148V142.432H32.456V140.32H34.496V138.688H32.456V136.576H34.496V131.08H37.208L41.936 142.936H41.12V131.08H43.904V136.576H45.968V138.688H43.904V140.32H45.968V142.432H43.904V148H41.192L36.464 136.168H37.28V148H34.496ZM50.0066 148V145.456H53.8226V133.672H55.3106L50.8706 136.36L49.6706 134.104L54.7106 131.08H56.8946V145.456H60.4706V148H50.0066ZM69.9813 148.24C68.6533 148.24 67.5253 147.904 66.5973 147.232C65.6853 146.544 64.9893 145.552 64.5093 144.256C64.0453 142.96 63.8133 141.376 63.8133 139.504C63.8133 137.616 64.0453 136.032 64.5093 134.752C64.9893 133.456 65.6853 132.48 66.5973 131.824C67.5253 131.168 68.6533 130.84 69.9813 130.84C71.3253 130.84 72.4533 131.168 73.3653 131.824C74.2933 132.48 74.9893 133.448 75.4532 134.728C75.9173 136.008 76.1493 137.592 76.1493 139.48C76.1493 141.352 75.9093 142.944 75.4293 144.256C74.9653 145.552 74.2773 146.544 73.3653 147.232C72.4533 147.904 71.3253 148.24 69.9813 148.24ZM69.9813 145.72C71.0693 145.72 71.8693 145.224 72.3813 144.232C72.9093 143.224 73.1733 141.64 73.1733 139.48C73.1733 137.336 72.9093 135.784 72.3813 134.824C71.8693 133.848 71.0693 133.36 69.9813 133.36C68.9093 133.36 68.1093 133.848 67.5813 134.824C67.0533 135.784 66.7893 137.344 66.7893 139.504C66.7893 141.648 67.0533 143.224 67.5813 144.232C68.1093 145.224 68.9093 145.72 69.9813 145.72ZM80.0919 148V145.72L85.5639 139.888C86.0599 139.36 86.4519 138.872 86.7399 138.424C87.0439 137.976 87.2679 137.544 87.4119 137.128C87.5559 136.712 87.6279 136.296 87.6279 135.88C87.6279 135.08 87.3719 134.472 86.8599 134.056C86.3639 133.64 85.6359 133.432 84.6759 133.432C83.9239 133.432 83.1879 133.576 82.4679 133.864C81.7639 134.136 81.0839 134.568 80.4279 135.16L79.3959 132.856C80.0679 132.248 80.9079 131.76 81.9159 131.392C82.9239 131.024 83.9719 130.84 85.0599 130.84C86.2759 130.84 87.2999 131.024 88.1319 131.392C88.9639 131.76 89.5959 132.296 90.0279 133C90.4599 133.704 90.6759 134.56 90.6759 135.568C90.6759 136.08 90.6119 136.584 90.4839 137.08C90.3719 137.56 90.1879 138.04 89.9319 138.52C89.6919 139 89.3799 139.496 88.9959 140.008C88.6279 140.504 88.1799 141.024 87.6519 141.568L83.1399 146.272V145.456H91.3239V148H80.0919ZM96.3225 151.192L95.0985 150.232C95.4505 149.88 95.7225 149.544 95.9145 149.224C96.1065 148.92 96.2425 148.608 96.3225 148.288C96.4185 147.968 96.4665 147.64 96.4665 147.304L97.1145 148H94.8585V144.664H98.2185V146.872C98.2185 147.416 98.1545 147.928 98.0265 148.408C97.9145 148.888 97.7225 149.352 97.4505 149.8C97.1785 150.264 96.8025 150.728 96.3225 151.192ZM108.892 148V144.784H101.524V142.528L109.42 131.08H111.964V142.24H114.34V144.784H111.964V148H108.892ZM108.892 142.24V134.752H109.588L103.924 143.056V142.24H108.892ZM123.106 148.24C121.778 148.24 120.65 147.904 119.722 147.232C118.81 146.544 118.114 145.552 117.634 144.256C117.17 142.96 116.938 141.376 116.938 139.504C116.938 137.616 117.17 136.032 117.634 134.752C118.114 133.456 118.81 132.48 119.722 131.824C120.65 131.168 121.778 130.84 123.106 130.84C124.45 130.84 125.578 131.168 126.49 131.824C127.418 132.48 128.114 133.448 128.578 134.728C129.042 136.008 129.274 137.592 129.274 139.48C129.274 141.352 129.034 142.944 128.554 144.256C128.09 145.552 127.402 146.544 126.49 147.232C125.578 147.904 124.45 148.24 123.106 148.24ZM123.106 145.72C124.194 145.72 124.994 145.224 125.506 144.232C126.034 143.224 126.298 141.64 126.298 139.48C126.298 137.336 126.034 135.784 125.506 134.824C124.994 133.848 124.194 133.36 123.106 133.36C122.034 133.36 121.234 133.848 120.706 134.824C120.178 135.784 119.914 137.344 119.914 139.504C119.914 141.648 120.178 143.224 120.706 144.232C121.234 145.224 122.034 145.72 123.106 145.72ZM138.497 148.24C137.169 148.24 136.041 147.904 135.113 147.232C134.201 146.544 133.505 145.552 133.025 144.256C132.561 142.96 132.329 141.376 132.329 139.504C132.329 137.616 132.561 136.032 133.025 134.752C133.505 133.456 134.201 132.48 135.113 131.824C136.041 131.168 137.169 130.84 138.497 130.84C139.841 130.84 140.969 131.168 141.881 131.824C142.809 132.48 143.505 133.448 143.969 134.728C144.433 136.008 144.665 137.592 144.665 139.48C144.665 141.352 144.425 142.944 143.945 144.256C143.481 145.552 142.793 146.544 141.881 147.232C140.969 147.904 139.841 148.24 138.497 148.24ZM138.497 145.72C139.585 145.72 140.385 145.224 140.897 144.232C141.425 143.224 141.689 141.64 141.689 139.48C141.689 137.336 141.425 135.784 140.897 134.824C140.385 133.848 139.585 133.36 138.497 133.36C137.425 133.36 136.625 133.848 136.097 134.824C135.569 135.784 135.305 137.344 135.305 139.504C135.305 141.648 135.569 143.224 136.097 144.232C136.625 145.224 137.425 145.72 138.497 145.72Z" fill="#202224"/>
<path d="M48 176L50.29 178.29L45.41 183.17L41.41 179.17L34 186.59L35.41 188L41.41 182L45.41 186L51.71 179.71L54 182V176H48Z" fill="#00B69B"/>
<path d="M70.848 181.208C71.5093 181.4 72.0213 181.741 72.384 182.232C72.7467 182.723 72.928 183.309 72.928 183.992C72.928 184.973 72.5653 185.741 71.84 186.296C71.1253 186.84 70.112 187.112 68.8 187.112C67.488 187.112 66.4693 186.84 65.744 186.296C65.0293 185.741 64.672 184.973 64.672 183.992C64.672 183.299 64.8533 182.707 65.216 182.216C65.5893 181.725 66.1067 181.389 66.768 181.208C66.2027 180.995 65.7547 180.659 65.424 180.2C65.104 179.741 64.944 179.208 64.944 178.6C64.944 177.672 65.2853 176.941 65.968 176.408C66.6507 175.864 67.5947 175.592 68.8 175.592C70.0053 175.592 70.9493 175.864 71.632 176.408C72.3147 176.941 72.656 177.672 72.656 178.6C72.656 179.208 72.4907 179.747 72.16 180.216C71.84 180.675 71.4027 181.005 70.848 181.208ZM68.8 176.92C68.0533 176.92 67.488 177.08 67.104 177.4C66.72 177.709 66.528 178.157 66.528 178.744C66.528 179.352 66.72 179.816 67.104 180.136C67.488 180.456 68.0533 180.616 68.8 180.616C69.5467 180.616 70.112 180.456 70.496 180.136C70.88 179.816 71.072 179.352 71.072 178.744C71.072 178.157 70.88 177.709 70.496 177.4C70.112 177.08 69.5467 176.92 68.8 176.92ZM68.8 185.784C70.496 185.784 71.344 185.149 71.344 183.88C71.344 182.6 70.496 181.96 68.8 181.96C67.104 181.96 66.256 182.6 66.256 183.88C66.256 185.149 67.104 185.784 68.8 185.784ZM74.5378 185.096H76.4418V187H74.5378V185.096ZM82.7503 179.864C83.4543 179.864 84.0729 180.013 84.6063 180.312C85.1396 180.611 85.5503 181.032 85.8383 181.576C86.1369 182.12 86.2863 182.744 86.2863 183.448C86.2863 184.173 86.1209 184.813 85.7903 185.368C85.4703 185.923 85.0063 186.355 84.3983 186.664C83.8009 186.963 83.1023 187.112 82.3023 187.112C81.6089 187.112 80.9209 186.989 80.2383 186.744C79.5663 186.499 79.0063 186.168 78.5583 185.752L79.1343 184.536C80.1476 185.357 81.2089 185.768 82.3183 185.768C83.0649 185.768 83.6463 185.571 84.0623 185.176C84.4783 184.771 84.6863 184.205 84.6863 183.48C84.6863 182.787 84.4783 182.232 84.0623 181.816C83.6463 181.4 83.0916 181.192 82.3983 181.192C81.4063 181.192 80.5903 181.576 79.9503 182.344H78.8943V175.72H85.8063V177.048H80.5263V180.6C81.1129 180.109 81.8543 179.864 82.7503 179.864ZM91.736 187.416L90.616 186.776L97.256 175.304L98.376 175.944L91.736 187.416ZM90.568 182.472C89.704 182.472 89.0267 182.179 88.536 181.592C88.0453 181.005 87.8 180.147 87.8 179.016C87.8 177.885 88.0453 177.032 88.536 176.456C89.0267 175.869 89.704 175.576 90.568 175.576C91.4427 175.576 92.1253 175.869 92.616 176.456C93.1067 177.032 93.352 177.885 93.352 179.016C93.352 180.157 93.1067 181.021 92.616 181.608C92.1253 182.184 91.4427 182.472 90.568 182.472ZM90.568 181.384C91.0373 181.384 91.384 181.197 91.608 180.824C91.832 180.44 91.944 179.837 91.944 179.016C91.944 178.205 91.832 177.613 91.608 177.24C91.384 176.867 91.0373 176.68 90.568 176.68C90.0987 176.68 89.752 176.867 89.528 177.24C89.3147 177.603 89.208 178.195 89.208 179.016C89.208 179.837 89.3147 180.44 89.528 180.824C89.752 181.197 90.0987 181.384 90.568 181.384ZM98.424 187.112C97.5493 187.112 96.8667 186.824 96.376 186.248C95.8853 185.661 95.64 184.797 95.64 183.656C95.64 182.525 95.8853 181.672 96.376 181.096C96.8667 180.509 97.5493 180.216 98.424 180.216C99.288 180.216 99.9653 180.509 100.456 181.096C100.957 181.672 101.208 182.525 101.208 183.656C101.208 184.787 100.963 185.645 100.472 186.232C99.9813 186.819 99.2987 187.112 98.424 187.112ZM98.424 186.024C98.8933 186.024 99.2347 185.837 99.448 185.464C99.672 185.08 99.784 184.477 99.784 183.656C99.784 182.845 99.672 182.253 99.448 181.88C99.224 181.496 98.8827 181.304 98.424 181.304C97.9547 181.304 97.608 181.491 97.384 181.864C97.16 182.237 97.048 182.835 97.048 183.656C97.048 184.477 97.16 185.08 97.384 185.464C97.608 185.837 97.9547 186.024 98.424 186.024Z" fill="#00B69B"/>
<path d="M112.027 187.128C110.523 187.128 109.382 186.739 108.603 185.96C107.824 185.181 107.435 184.035 107.435 182.52V175.72H109.067V182.632C109.067 183.667 109.312 184.451 109.803 184.984C110.304 185.517 111.046 185.784 112.027 185.784C112.998 185.784 113.734 185.517 114.235 184.984C114.736 184.451 114.987 183.667 114.987 182.632V175.72H116.619V182.52C116.619 184.024 116.224 185.171 115.435 185.96C114.656 186.739 113.52 187.128 112.027 187.128ZM123.156 179C123.828 179 124.425 179.171 124.948 179.512C125.481 179.853 125.892 180.333 126.18 180.952C126.478 181.571 126.628 182.285 126.628 183.096C126.628 183.896 126.484 184.6 126.196 185.208C125.908 185.816 125.497 186.285 124.964 186.616C124.441 186.947 123.838 187.112 123.156 187.112C122.569 187.112 122.052 186.989 121.604 186.744C121.156 186.488 120.814 186.125 120.58 185.656V189.88H118.964V179.192H120.58V180.472C120.814 180.003 121.156 179.64 121.604 179.384C122.052 179.128 122.569 179 123.156 179ZM122.772 185.832C123.476 185.832 124.02 185.597 124.404 185.128C124.788 184.648 124.98 183.971 124.98 183.096C124.98 182.211 124.782 181.523 124.388 181.032C124.004 180.541 123.465 180.296 122.772 180.296C122.068 180.296 121.524 180.536 121.14 181.016C120.766 181.496 120.58 182.179 120.58 183.064C120.58 183.949 120.766 184.632 121.14 185.112C121.524 185.592 122.068 185.832 122.772 185.832ZM134.748 179.192H136.892V180.44H134.748V187H133.132V180.44H131.612V179.192H133.132V179.048C133.132 177.971 133.404 177.16 133.948 176.616C134.502 176.072 135.345 175.768 136.476 175.704L137.196 175.672L137.292 176.888L136.556 176.936C135.916 176.968 135.452 177.133 135.164 177.432C134.886 177.731 134.748 178.184 134.748 178.792V179.192ZM142.856 180.36L141.88 180.456C141.112 180.531 140.558 180.765 140.216 181.16C139.886 181.555 139.72 182.056 139.72 182.664V187H138.104V179.192H139.672V180.552C140.088 179.635 140.936 179.128 142.216 179.032L142.744 179L142.856 180.36ZM147.2 187.112C146.432 187.112 145.754 186.947 145.168 186.616C144.592 186.285 144.144 185.816 143.824 185.208C143.514 184.589 143.36 183.875 143.36 183.064C143.36 182.243 143.514 181.528 143.824 180.92C144.144 180.301 144.592 179.827 145.168 179.496C145.754 179.165 146.432 179 147.2 179C147.968 179 148.64 179.165 149.216 179.496C149.802 179.827 150.25 180.301 150.56 180.92C150.88 181.528 151.04 182.243 151.04 183.064C151.04 183.875 150.88 184.589 150.56 185.208C150.25 185.816 149.802 186.285 149.216 186.616C148.64 186.947 147.968 187.112 147.2 187.112ZM147.2 185.832C147.914 185.832 148.458 185.597 148.832 185.128C149.216 184.659 149.408 183.971 149.408 183.064C149.408 182.168 149.216 181.485 148.832 181.016C148.448 180.536 147.904 180.296 147.2 180.296C146.496 180.296 145.952 180.536 145.568 181.016C145.184 181.485 144.992 182.168 144.992 183.064C144.992 183.971 145.178 184.659 145.552 185.128C145.936 185.597 146.485 185.832 147.2 185.832ZM161.799 179C163.548 179 164.423 180.051 164.423 182.152V187H162.807V182.216C162.807 181.555 162.689 181.075 162.455 180.776C162.231 180.467 161.863 180.312 161.351 180.312C160.764 180.312 160.3 180.515 159.959 180.92C159.617 181.325 159.447 181.88 159.447 182.584V187H157.831V182.216C157.831 181.555 157.713 181.075 157.479 180.776C157.244 180.467 156.876 180.312 156.375 180.312C155.777 180.312 155.308 180.515 154.967 180.92C154.625 181.325 154.455 181.88 154.455 182.584V187H152.839V179.192H154.423V180.376C154.668 179.939 154.999 179.603 155.415 179.368C155.831 179.123 156.305 179 156.839 179C158.044 179 158.828 179.501 159.191 180.504C159.436 180.035 159.788 179.667 160.247 179.4C160.705 179.133 161.223 179 161.799 179ZM176.39 179.208H178.006L173.35 189.88H171.718L173.078 186.808L169.798 179.208H171.494L173.926 185.176L176.39 179.208ZM185.746 183.368H180.226C180.343 185.021 181.164 185.848 182.69 185.848C183.586 185.848 184.396 185.555 185.122 184.968L185.618 186.104C185.255 186.413 184.807 186.659 184.274 186.84C183.74 187.021 183.196 187.112 182.641 187.112C181.394 187.112 180.407 186.755 179.682 186.04C178.967 185.325 178.61 184.339 178.61 183.08C178.61 182.28 178.764 181.571 179.074 180.952C179.394 180.333 179.836 179.853 180.402 179.512C180.978 179.171 181.628 179 182.354 179C183.41 179 184.236 179.341 184.834 180.024C185.442 180.707 185.746 181.651 185.746 182.856V183.368ZM182.386 180.184C181.767 180.184 181.271 180.381 180.898 180.776C180.535 181.16 180.316 181.715 180.242 182.44H184.354C184.322 181.715 184.135 181.16 183.794 180.776C183.463 180.381 182.994 180.184 182.386 180.184ZM190.278 187.112C188.924 187.112 187.841 186.781 187.03 186.12L187.526 184.952C188.326 185.571 189.26 185.88 190.326 185.88C190.849 185.88 191.249 185.795 191.526 185.624C191.804 185.443 191.942 185.192 191.942 184.872C191.942 184.595 191.846 184.376 191.654 184.216C191.473 184.056 191.153 183.923 190.694 183.816L189.398 183.528C188.705 183.368 188.182 183.107 187.83 182.744C187.478 182.381 187.302 181.923 187.302 181.368C187.302 180.664 187.585 180.093 188.15 179.656C188.726 179.219 189.478 179 190.406 179C190.961 179 191.489 179.091 191.99 179.272C192.492 179.443 192.924 179.688 193.286 180.008L192.79 181.144C192.022 180.536 191.228 180.232 190.406 180.232C189.916 180.232 189.526 180.328 189.238 180.52C188.961 180.712 188.822 180.973 188.822 181.304C188.822 181.571 188.908 181.789 189.078 181.96C189.26 182.12 189.542 182.243 189.926 182.328L191.254 182.632C192.012 182.803 192.566 183.069 192.918 183.432C193.27 183.784 193.446 184.248 193.446 184.824C193.446 185.528 193.158 186.088 192.582 186.504C192.017 186.909 191.249 187.112 190.278 187.112ZM198.863 185.864C199.108 185.864 199.348 185.848 199.583 185.816L199.503 187.048C199.236 187.091 198.959 187.112 198.671 187.112C197.658 187.112 196.9 186.867 196.399 186.376C195.908 185.875 195.663 185.155 195.663 184.216V180.44H194.143V179.192H195.663V176.84H197.279V179.192H199.423V180.44H197.279V184.152C197.279 185.293 197.807 185.864 198.863 185.864ZM207.496 183.368H201.976C202.093 185.021 202.914 185.848 204.44 185.848C205.336 185.848 206.146 185.555 206.872 184.968L207.368 186.104C207.005 186.413 206.557 186.659 206.024 186.84C205.49 187.021 204.946 187.112 204.391 187.112C203.144 187.112 202.157 186.755 201.432 186.04C200.717 185.325 200.36 184.339 200.36 183.08C200.36 182.28 200.514 181.571 200.824 180.952C201.144 180.333 201.586 179.853 202.152 179.512C202.728 179.171 203.378 179 204.104 179C205.16 179 205.986 179.341 206.584 180.024C207.192 180.707 207.496 181.651 207.496 182.856V183.368ZM204.136 180.184C203.517 180.184 203.021 180.381 202.648 180.776C202.285 181.16 202.066 181.715 201.992 182.44H206.104C206.072 181.715 205.885 181.16 205.544 180.776C205.213 180.381 204.744 180.184 204.136 180.184ZM214.028 180.36L213.052 180.456C212.284 180.531 211.73 180.765 211.388 181.16C211.058 181.555 210.892 182.056 210.892 182.664V187H209.276V179.192H210.844V180.552C211.26 179.635 212.108 179.128 213.388 179.032L213.916 179L214.028 180.36ZM222.179 175.72V187H220.579V185.656C220.345 186.125 220.003 186.488 219.555 186.744C219.107 186.989 218.59 187.112 218.003 187.112C217.331 187.112 216.729 186.941 216.195 186.6C215.673 186.259 215.262 185.779 214.963 185.16C214.675 184.541 214.531 183.832 214.531 183.032C214.531 182.221 214.675 181.512 214.963 180.904C215.262 180.296 215.673 179.827 216.195 179.496C216.718 179.165 217.321 179 218.003 179C218.59 179 219.102 179.128 219.539 179.384C219.987 179.629 220.329 179.981 220.563 180.44V175.72H222.179ZM218.387 185.832C219.091 185.832 219.63 185.592 220.003 185.112C220.387 184.632 220.579 183.949 220.579 183.064C220.579 182.179 220.387 181.496 220.003 181.016C219.63 180.536 219.091 180.296 218.387 180.296C217.683 180.296 217.134 180.536 216.739 181.016C216.355 181.485 216.163 182.157 216.163 183.032C216.163 183.907 216.361 184.595 216.755 185.096C217.15 185.587 217.694 185.832 218.387 185.832ZM227.697 179C228.742 179 229.515 179.261 230.017 179.784C230.529 180.307 230.785 181.101 230.785 182.168V187H229.233V185.704C229.03 186.163 228.726 186.515 228.321 186.76C227.926 186.995 227.462 187.112 226.929 187.112C226.417 187.112 225.947 187.011 225.521 186.808C225.094 186.595 224.758 186.301 224.513 185.928C224.278 185.555 224.161 185.139 224.161 184.68C224.161 184.115 224.305 183.672 224.593 183.352C224.891 183.021 225.377 182.787 226.049 182.648C226.731 182.509 227.665 182.44 228.849 182.44H229.217V181.976C229.217 181.379 229.089 180.947 228.833 180.68C228.587 180.413 228.182 180.28 227.617 180.28C226.731 180.28 225.846 180.552 224.961 181.096L224.481 179.96C224.897 179.672 225.398 179.443 225.985 179.272C226.582 179.091 227.153 179 227.697 179ZM227.217 185.912C227.803 185.912 228.283 185.715 228.657 185.32C229.03 184.915 229.217 184.397 229.217 183.768V183.352H228.929C228.097 183.352 227.457 183.389 227.009 183.464C226.561 183.539 226.241 183.667 226.049 183.848C225.857 184.019 225.761 184.269 225.761 184.6C225.761 184.973 225.894 185.288 226.161 185.544C226.438 185.789 226.79 185.912 227.217 185.912ZM238.531 179.208H240.147L235.491 189.88H233.859L235.219 186.808L231.939 179.208H233.635L236.067 185.176L238.531 179.208Z" fill="#606060"/>
</g>
<defs>
<filter id="filter0_d_537_5663" x="-32" y="0" width="451" height="270" filterUnits="userSpaceOnUse" color-interpolation-filters="sRGB">
<feFlood flood-opacity="0" result="BackgroundImageFix"/>
<feColorMatrix in="SourceAlpha" type="matrix" values="0 0 0 0 0 0 0 0 0 0 0 0 0 0 0 0 0 0 127 0" result="hardAlpha"/>
<feOffset dx="6" dy="6"/>
<feGaussianBlur stdDeviation="27"/>
<feColorMatrix type="matrix" values="0 0 0 0 0 0 0 0 0 0 0 0 0 0 0 0 0 0 0.05 0"/>
<feBlend mode="normal" in2="BackgroundImageFix" result="effect1_dropShadow_537_5663"/>
<feBlend mode="normal" in="SourceGraphic" in2="effect1_dropShadow_537_5663" result="shape"/>
</filter>
</defs>
</svg>
