<svg width="47" height="47" viewBox="0 0 47 47" fill="none" xmlns="http://www.w3.org/2000/svg">
<circle cx="23.5" cy="23.5" r="23" fill="white" stroke="#CBD0DC"/>
<path d="M19.1491 30.5342H17.309C14.4915 30.333 13.2266 28.1672 13.2266 26.2409C13.2266 24.3147 14.4915 22.1392 17.2611 21.9476C17.654 21.9092 17.999 22.2159 18.0278 22.6184C18.0565 23.0113 17.7595 23.3563 17.357 23.3851C15.4978 23.5192 14.6641 24.9184 14.6641 26.2505C14.6641 27.5826 15.4978 28.9817 17.357 29.1159H19.1491C19.542 29.1159 19.8678 29.4417 19.8678 29.8347C19.8678 30.2276 19.542 30.5342 19.1491 30.5342Z" fill="#292D32"/>
<path d="M27.9741 30.5344C27.955 30.5344 27.9454 30.5344 27.9262 30.5344C27.5333 30.5344 27.1692 30.2085 27.1692 29.8156C27.1692 29.4035 27.4758 29.0969 27.8783 29.0969C29.0571 29.0969 30.1112 28.6848 30.9354 27.9469C32.4304 26.6435 32.5262 24.7652 32.1237 23.4427C31.7212 22.1298 30.6 20.6252 28.645 20.3856C28.3287 20.3473 28.0795 20.1077 28.022 19.7915C27.6387 17.4915 26.4025 15.9006 24.5242 15.3256C22.5883 14.7219 20.3266 15.316 18.9179 16.7919C17.5475 18.2198 17.2312 20.2227 18.0266 22.4269C18.1608 22.8006 17.9692 23.2127 17.5954 23.3469C17.2217 23.481 16.8096 23.2894 16.6754 22.9156C15.7075 20.2131 16.1483 17.6256 17.8829 15.8048C19.6558 13.9456 22.5021 13.2077 24.9458 13.9552C27.1883 14.6452 28.7695 16.4948 29.3445 19.0631C31.2995 19.504 32.8712 20.9894 33.4941 23.0402C34.1746 25.2731 33.5612 27.5731 31.8842 29.0298C30.8204 29.9881 29.4308 30.5344 27.9741 30.5344Z" fill="#292D32"/>
<path d="M23.5007 33.3519C21.5744 33.3519 19.7728 32.3265 18.7857 30.6686C18.6803 30.5056 18.5748 30.314 18.4886 30.1031C18.1628 29.4227 17.9902 28.6465 17.9902 27.8415C17.9902 24.8036 20.4627 22.3311 23.5007 22.3311C26.5386 22.3311 29.0111 24.8036 29.0111 27.8415C29.0111 28.6561 28.8386 29.4227 28.4936 30.1319C28.4169 30.314 28.3115 30.5056 28.1965 30.6877C27.2286 32.3265 25.4269 33.3519 23.5007 33.3519ZM23.5007 23.7686C21.2582 23.7686 19.4277 25.599 19.4277 27.8415C19.4277 28.4356 19.5523 28.9915 19.7919 29.4994C19.8686 29.6623 19.9356 29.7965 20.0123 29.9211C20.7406 31.1573 22.0727 31.9144 23.4911 31.9144C24.9094 31.9144 26.2415 31.1573 26.9602 29.9402C27.0465 29.7965 27.1232 29.6623 27.1807 29.5281C27.4394 29.001 27.564 28.4452 27.564 27.851C27.5736 25.599 25.7432 23.7686 23.5007 23.7686Z" fill="#292D32"/>
<path d="M22.9542 29.5091C22.7721 29.5091 22.59 29.442 22.4463 29.2983L21.4975 28.3495C21.2196 28.0716 21.2196 27.6116 21.4975 27.3337C21.7754 27.0558 22.2354 27.0558 22.5133 27.3337L22.9734 27.7937L24.5067 26.3754C24.8038 26.107 25.2542 26.1262 25.5225 26.4137C25.7908 26.7012 25.7717 27.1612 25.4842 27.4296L23.4429 29.3175C23.2992 29.4421 23.1267 29.5091 22.9542 29.5091Z" fill="#292D32"/>
</svg>
