<svg width="14" height="13" viewBox="0 0 14 13" fill="none" xmlns="http://www.w3.org/2000/svg">
<g clip-path="url(#clip0_312_1091)">
<path d="M8.19921 0.100342C5.4714 1.67206 5.79921 6.10034 5.79921 6.10034C5.79921 6.10034 4.59922 5.70033 4.59922 3.90035C3.16754 4.73052 2.19922 6.32617 2.19922 8.10034C2.19922 10.7513 4.34825 12.9003 6.99922 12.9003C9.6502 12.9003 11.7992 10.7513 11.7992 8.10034C11.7992 4.20035 8.19921 3.40034 8.19921 0.100342V0.100342ZM7.42085 11.2464C6.4563 11.4869 5.47939 10.8999 5.23886 9.93534C4.99838 8.97079 5.58534 7.99383 6.54994 7.75335C8.87865 7.17274 9.1705 5.8632 9.1705 5.8632C9.1705 5.8632 10.3317 10.5206 7.42085 11.2464Z" fill="#E80000"/>
</g>
<defs>
<clipPath id="clip0_312_1091">
<rect width="12.8" height="12.8" fill="white" transform="translate(0.599609 0.100342)"/>
</clipPath>
</defs>
</svg>
