<svg width="20" height="19" viewBox="0 0 20 19" fill="none" xmlns="http://www.w3.org/2000/svg">
<path d="M10.4333 5.23245C8.0731 5.23245 6.16938 7.13616 6.16938 9.49631C6.16938 11.8565 8.0731 13.7602 10.4333 13.7602C12.7934 13.7602 14.6971 11.8565 14.6971 9.49631C14.6971 7.13616 12.7934 5.23245 10.4333 5.23245ZM10.4333 12.2684C8.90806 12.2684 7.66118 11.0252 7.66118 9.49631C7.66118 7.96741 8.90435 6.72424 10.4333 6.72424C11.9622 6.72424 13.2053 7.96741 13.2053 9.49631C13.2053 11.0252 11.9584 12.2684 10.4333 12.2684ZM15.8661 5.05803C15.8661 5.61096 15.4208 6.05256 14.8715 6.05256C14.3186 6.05256 13.877 5.60725 13.877 5.05803C13.877 4.50881 14.3223 4.0635 14.8715 4.0635C15.4208 4.0635 15.8661 4.50881 15.8661 5.05803ZM18.6901 6.06741C18.627 4.73518 18.3227 3.5551 17.3467 2.58284C16.3745 1.61057 15.1944 1.30627 13.8622 1.23948C12.4891 1.16155 8.37368 1.16155 7.00063 1.23948C5.67212 1.30256 4.49204 1.60686 3.51606 2.57913C2.54009 3.55139 2.2395 4.73147 2.17271 6.0637C2.09478 7.43674 2.09478 11.5522 2.17271 12.9252C2.23579 14.2574 2.54009 15.4375 3.51606 16.4098C4.49204 17.3821 5.66841 17.6864 7.00063 17.7531C8.37368 17.8311 12.4891 17.8311 13.8622 17.7531C15.1944 17.6901 16.3745 17.3858 17.3467 16.4098C18.319 15.4375 18.6233 14.2574 18.6901 12.9252C18.768 11.5522 18.768 7.44045 18.6901 6.06741ZM16.9163 14.3985C16.6268 15.1258 16.0665 15.6862 15.3354 15.9793C14.2407 16.4135 11.643 16.3133 10.4333 16.3133C9.22349 16.3133 6.62212 16.4098 5.5311 15.9793C4.80376 15.6899 4.24341 15.1295 3.95024 14.3985C3.51606 13.3037 3.61626 10.7061 3.61626 9.49631C3.61626 8.28655 3.51978 5.68518 3.95024 4.59417C4.2397 3.86682 4.80005 3.30647 5.5311 3.01331C6.62583 2.57913 9.22349 2.67932 10.4333 2.67932C11.643 2.67932 14.2444 2.58284 15.3354 3.01331C16.0627 3.30276 16.6231 3.86311 16.9163 4.59417C17.3504 5.68889 17.2502 8.28655 17.2502 9.49631C17.2502 10.7061 17.3504 13.3074 16.9163 14.3985Z" fill="white"/>
</svg>
