<svg width="607" height="47" viewBox="0 0 607 47" fill="none" xmlns="http://www.w3.org/2000/svg">
<circle cx="23.5" cy="23.5" r="23" fill="white" stroke="#CBD0DC"/>
<path d="M19.1491 30.5342H17.309C14.4915 30.333 13.2266 28.1672 13.2266 26.2409C13.2266 24.3147 14.4915 22.1392 17.2611 21.9476C17.654 21.9092 17.999 22.2159 18.0278 22.6184C18.0565 23.0113 17.7595 23.3563 17.357 23.3851C15.4978 23.5192 14.6641 24.9184 14.6641 26.2505C14.6641 27.5826 15.4978 28.9817 17.357 29.1159H19.1491C19.542 29.1159 19.8678 29.4417 19.8678 29.8347C19.8678 30.2276 19.542 30.5342 19.1491 30.5342Z" fill="#292D32"/>
<path d="M27.9741 30.5344C27.955 30.5344 27.9454 30.5344 27.9262 30.5344C27.5333 30.5344 27.1692 30.2085 27.1692 29.8156C27.1692 29.4035 27.4758 29.0969 27.8783 29.0969C29.0571 29.0969 30.1112 28.6848 30.9354 27.9469C32.4304 26.6435 32.5262 24.7652 32.1237 23.4427C31.7212 22.1298 30.6 20.6252 28.645 20.3856C28.3287 20.3473 28.0795 20.1077 28.022 19.7915C27.6387 17.4915 26.4025 15.9006 24.5242 15.3256C22.5883 14.7219 20.3266 15.316 18.9179 16.7919C17.5475 18.2198 17.2312 20.2227 18.0266 22.4269C18.1608 22.8006 17.9692 23.2127 17.5954 23.3469C17.2217 23.481 16.8096 23.2894 16.6754 22.9156C15.7075 20.2131 16.1483 17.6256 17.8829 15.8048C19.6558 13.9456 22.5021 13.2077 24.9458 13.9552C27.1883 14.6452 28.7695 16.4948 29.3445 19.0631C31.2995 19.504 32.8712 20.9894 33.4941 23.0402C34.1746 25.2731 33.5612 27.5731 31.8842 29.0298C30.8204 29.9881 29.4308 30.5344 27.9741 30.5344Z" fill="#292D32"/>
<path d="M23.5007 33.3519C21.5744 33.3519 19.7728 32.3265 18.7857 30.6686C18.6803 30.5056 18.5748 30.314 18.4886 30.1031C18.1628 29.4227 17.9902 28.6465 17.9902 27.8415C17.9902 24.8036 20.4627 22.3311 23.5007 22.3311C26.5386 22.3311 29.0111 24.8036 29.0111 27.8415C29.0111 28.6561 28.8386 29.4227 28.4936 30.1319C28.4169 30.314 28.3115 30.5056 28.1965 30.6877C27.2286 32.3265 25.4269 33.3519 23.5007 33.3519ZM23.5007 23.7686C21.2582 23.7686 19.4277 25.599 19.4277 27.8415C19.4277 28.4356 19.5523 28.9915 19.7919 29.4994C19.8686 29.6623 19.9356 29.7965 20.0123 29.9211C20.7406 31.1573 22.0727 31.9144 23.4911 31.9144C24.9094 31.9144 26.2415 31.1573 26.9602 29.9402C27.0465 29.7965 27.1232 29.6623 27.1807 29.5281C27.4394 29.001 27.564 28.4452 27.564 27.851C27.5736 25.599 25.7432 23.7686 23.5007 23.7686Z" fill="#292D32"/>
<path d="M22.9542 29.5091C22.7721 29.5091 22.59 29.442 22.4463 29.2983L21.4975 28.3495C21.2196 28.0716 21.2196 27.6116 21.4975 27.3337C21.7754 27.0558 22.2354 27.0558 22.5133 27.3337L22.9734 27.7937L24.5067 26.3754C24.8038 26.107 25.2542 26.1262 25.5225 26.4137C25.7908 26.7012 25.7717 27.1612 25.4842 27.4296L23.4429 29.3175C23.2992 29.4421 23.1267 29.5091 22.9542 29.5091Z" fill="#292D32"/>
<path d="M70.976 11.192C70.976 11.7573 70.8427 12.2907 70.576 12.792C70.3093 13.2933 69.8827 13.704 69.296 14.024C68.7093 14.3333 67.9573 14.488 67.04 14.488H65.024V19H63.2V7.88H67.04C67.8933 7.88 68.6133 8.02933 69.2 8.328C69.7973 8.616 70.24 9.01067 70.528 9.512C70.8267 10.0133 70.976 10.5733 70.976 11.192ZM67.04 13C67.7333 13 68.2507 12.8453 68.592 12.536C68.9333 12.216 69.104 11.768 69.104 11.192C69.104 9.976 68.416 9.368 67.04 9.368H65.024V13H67.04ZM74.5396 11.464C74.8063 11.016 75.1583 10.6693 75.5956 10.424C76.0436 10.168 76.5716 10.04 77.1796 10.04V11.928H76.7156C76.001 11.928 75.457 12.1093 75.0836 12.472C74.721 12.8347 74.5396 13.464 74.5396 14.36V19H72.7156V10.184H74.5396V11.464ZM82.6803 19.144C81.8483 19.144 81.0963 18.9573 80.4243 18.584C79.7523 18.2 79.2243 17.6667 78.8403 16.984C78.4563 16.2907 78.2643 15.4907 78.2643 14.584C78.2643 13.688 78.4616 12.8933 78.8563 12.2C79.2509 11.5067 79.7896 10.9733 80.4723 10.6C81.1549 10.2267 81.9176 10.04 82.7603 10.04C83.6029 10.04 84.3656 10.2267 85.0483 10.6C85.7309 10.9733 86.2696 11.5067 86.6643 12.2C87.0589 12.8933 87.2563 13.688 87.2563 14.584C87.2563 15.48 87.0536 16.2747 86.6483 16.968C86.2429 17.6613 85.6883 18.2 84.9843 18.584C84.2909 18.9573 83.5229 19.144 82.6803 19.144ZM82.6803 17.56C83.1496 17.56 83.5869 17.448 83.9923 17.224C84.4083 17 84.7443 16.664 85.0003 16.216C85.2563 15.768 85.3843 15.224 85.3843 14.584C85.3843 13.944 85.2616 13.4053 85.0163 12.968C84.7709 12.52 84.4456 12.184 84.0403 11.96C83.6349 11.736 83.1976 11.624 82.7283 11.624C82.2589 11.624 81.8216 11.736 81.4163 11.96C81.0216 12.184 80.7069 12.52 80.4723 12.968C80.2376 13.4053 80.1203 13.944 80.1203 14.584C80.1203 15.5333 80.3603 16.2693 80.8403 16.792C81.3309 17.304 81.9443 17.56 82.6803 17.56ZM99.7314 10.04C100.425 10.04 101.043 10.184 101.587 10.472C102.142 10.76 102.574 11.1867 102.883 11.752C103.203 12.3173 103.363 13 103.363 13.8V19H101.555V14.072C101.555 13.2827 101.358 12.68 100.963 12.264C100.569 11.8373 100.03 11.624 99.3474 11.624C98.6647 11.624 98.1207 11.8373 97.7154 12.264C97.3207 12.68 97.1234 13.2827 97.1234 14.072V19H95.3154V14.072C95.3154 13.2827 95.118 12.68 94.7234 12.264C94.3287 11.8373 93.79 11.624 93.1074 11.624C92.4247 11.624 91.8807 11.8373 91.4754 12.264C91.0807 12.68 90.8834 13.2827 90.8834 14.072V19H89.0594V10.184H90.8834V11.192C91.182 10.8293 91.5607 10.5467 92.0194 10.344C92.478 10.1413 92.9687 10.04 93.4914 10.04C94.1954 10.04 94.8247 10.1893 95.3794 10.488C95.934 10.7867 96.3607 11.2187 96.6594 11.784C96.926 11.2507 97.342 10.8293 97.9074 10.52C98.4727 10.2 99.0807 10.04 99.7314 10.04ZM109.508 19.144C108.676 19.144 107.924 18.9573 107.252 18.584C106.58 18.2 106.052 17.6667 105.668 16.984C105.284 16.2907 105.092 15.4907 105.092 14.584C105.092 13.688 105.29 12.8933 105.684 12.2C106.079 11.5067 106.618 10.9733 107.3 10.6C107.983 10.2267 108.746 10.04 109.588 10.04C110.431 10.04 111.194 10.2267 111.876 10.6C112.559 10.9733 113.098 11.5067 113.492 12.2C113.887 12.8933 114.084 13.688 114.084 14.584C114.084 15.48 113.882 16.2747 113.476 16.968C113.071 17.6613 112.516 18.2 111.812 18.584C111.119 18.9573 110.351 19.144 109.508 19.144ZM109.508 17.56C109.978 17.56 110.415 17.448 110.82 17.224C111.236 17 111.572 16.664 111.828 16.216C112.084 15.768 112.212 15.224 112.212 14.584C112.212 13.944 112.09 13.4053 111.844 12.968C111.599 12.52 111.274 12.184 110.868 11.96C110.463 11.736 110.026 11.624 109.556 11.624C109.087 11.624 108.65 11.736 108.244 11.96C107.85 12.184 107.535 12.52 107.3 12.968C107.066 13.4053 106.948 13.944 106.948 14.584C106.948 15.5333 107.188 16.2693 107.668 16.792C108.159 17.304 108.772 17.56 109.508 17.56ZM118.016 11.672V16.552C118.016 16.8827 118.09 17.1227 118.24 17.272C118.4 17.4107 118.666 17.48 119.04 17.48H120.16V19H118.72C117.898 19 117.269 18.808 116.832 18.424C116.394 18.04 116.176 17.416 116.176 16.552V11.672H115.136V10.184H116.176V7.992H118.016V10.184H120.16V11.672H118.016ZM129.921 14.376C129.921 14.7067 129.899 15.0053 129.857 15.272H123.121C123.174 15.976 123.435 16.5413 123.905 16.968C124.374 17.3947 124.95 17.608 125.633 17.608C126.614 17.608 127.307 17.1973 127.713 16.376H129.681C129.414 17.1867 128.929 17.8533 128.225 18.376C127.531 18.888 126.667 19.144 125.633 19.144C124.79 19.144 124.033 18.9573 123.361 18.584C122.699 18.2 122.177 17.6667 121.793 16.984C121.419 16.2907 121.233 15.4907 121.233 14.584C121.233 13.6773 121.414 12.8827 121.777 12.2C122.15 11.5067 122.667 10.9733 123.329 10.6C124.001 10.2267 124.769 10.04 125.633 10.04C126.465 10.04 127.206 10.2213 127.857 10.584C128.507 10.9467 129.014 11.4587 129.377 12.12C129.739 12.7707 129.921 13.5227 129.921 14.376ZM128.017 13.8C128.006 13.128 127.766 12.5893 127.297 12.184C126.827 11.7787 126.246 11.576 125.553 11.576C124.923 11.576 124.385 11.7787 123.937 12.184C123.489 12.5787 123.222 13.1173 123.137 13.8H128.017ZM147.712 10.184L144.976 19H143.056L141.28 12.488L139.504 19H137.584L134.832 10.184H136.688L138.528 17.272L140.4 10.184H142.304L144.096 17.24L145.92 10.184H147.712ZM150.003 9.016C149.672 9.016 149.395 8.904 149.171 8.68C148.947 8.456 148.835 8.17867 148.835 7.848C148.835 7.51733 148.947 7.24 149.171 7.016C149.395 6.792 149.672 6.68 150.003 6.68C150.323 6.68 150.595 6.792 150.819 7.016C151.043 7.24 151.155 7.51733 151.155 7.848C151.155 8.17867 151.043 8.456 150.819 8.68C150.595 8.904 150.323 9.016 150.003 9.016ZM150.899 10.184V19H149.075V10.184H150.899ZM155.422 11.672V16.552C155.422 16.8827 155.496 17.1227 155.646 17.272C155.806 17.4107 156.072 17.48 156.446 17.48H157.566V19H156.126C155.304 19 154.675 18.808 154.238 18.424C153.8 18.04 153.582 17.416 153.582 16.552V11.672H152.542V10.184H153.582V7.992H155.422V10.184H157.566V11.672H155.422ZM163.807 10.04C164.479 10.04 165.076 10.184 165.599 10.472C166.132 10.76 166.548 11.1867 166.847 11.752C167.156 12.3173 167.311 13 167.311 13.8V19H165.503V14.072C165.503 13.2827 165.306 12.68 164.911 12.264C164.516 11.8373 163.978 11.624 163.295 11.624C162.612 11.624 162.068 11.8373 161.663 12.264C161.268 12.68 161.071 13.2827 161.071 14.072V19H159.247V7.16H161.071V11.208C161.38 10.8347 161.77 10.5467 162.239 10.344C162.719 10.1413 163.242 10.04 163.807 10.04ZM181.778 10.184V19H179.954V17.96C179.666 18.3227 179.287 18.6107 178.818 18.824C178.359 19.0267 177.868 19.128 177.346 19.128C176.652 19.128 176.028 18.984 175.474 18.696C174.93 18.408 174.498 17.9813 174.178 17.416C173.868 16.8507 173.714 16.168 173.714 15.368V10.184H175.522V15.096C175.522 15.8853 175.719 16.4933 176.114 16.92C176.508 17.336 177.047 17.544 177.73 17.544C178.412 17.544 178.951 17.336 179.346 16.92C179.751 16.4933 179.954 15.8853 179.954 15.096V10.184H181.778ZM187.384 19.144C186.691 19.144 186.067 19.0213 185.512 18.776C184.968 18.52 184.536 18.1787 184.216 17.752C183.896 17.3147 183.726 16.8293 183.704 16.296H185.592C185.624 16.6693 185.8 16.984 186.12 17.24C186.451 17.4853 186.862 17.608 187.352 17.608C187.864 17.608 188.259 17.512 188.536 17.32C188.824 17.1173 188.968 16.8613 188.968 16.552C188.968 16.2213 188.808 15.976 188.488 15.816C188.179 15.656 187.683 15.48 187 15.288C186.339 15.1067 185.8 14.9307 185.384 14.76C184.968 14.5893 184.606 14.328 184.296 13.976C183.998 13.624 183.848 13.16 183.848 12.584C183.848 12.1147 183.987 11.688 184.264 11.304C184.542 10.9093 184.936 10.6 185.448 10.376C185.971 10.152 186.568 10.04 187.24 10.04C188.243 10.04 189.048 10.296 189.656 10.808C190.275 11.3093 190.606 11.9973 190.648 12.872H188.824C188.792 12.4773 188.632 12.1627 188.344 11.928C188.056 11.6933 187.667 11.576 187.176 11.576C186.696 11.576 186.328 11.6667 186.072 11.848C185.816 12.0293 185.688 12.2693 185.688 12.568C185.688 12.8027 185.774 13 185.944 13.16C186.115 13.32 186.323 13.448 186.568 13.544C186.814 13.6293 187.176 13.7413 187.656 13.88C188.296 14.0507 188.819 14.2267 189.224 14.408C189.64 14.5787 189.998 14.8347 190.296 15.176C190.595 15.5173 190.75 15.9707 190.76 16.536C190.76 17.0373 190.622 17.4853 190.344 17.88C190.067 18.2747 189.672 18.584 189.16 18.808C188.659 19.032 188.067 19.144 187.384 19.144Z" fill="white"/>
<path d="M65.648 41.084C65.088 41.084 64.584 40.988 64.136 40.796C63.688 40.596 63.336 40.316 63.08 39.956C62.824 39.596 62.696 39.176 62.696 38.696H64.16C64.192 39.056 64.332 39.352 64.58 39.584C64.836 39.816 65.192 39.932 65.648 39.932C66.12 39.932 66.488 39.82 66.752 39.596C67.016 39.364 67.148 39.068 67.148 38.708C67.148 38.428 67.064 38.2 66.896 38.024C66.736 37.848 66.532 37.712 66.284 37.616C66.044 37.52 65.708 37.416 65.276 37.304C64.732 37.16 64.288 37.016 63.944 36.872C63.608 36.72 63.32 36.488 63.08 36.176C62.84 35.864 62.72 35.448 62.72 34.928C62.72 34.448 62.84 34.028 63.08 33.668C63.32 33.308 63.656 33.032 64.088 32.84C64.52 32.648 65.02 32.552 65.588 32.552C66.396 32.552 67.056 32.756 67.568 33.164C68.088 33.564 68.376 34.116 68.432 34.82H66.92C66.896 34.516 66.752 34.256 66.488 34.04C66.224 33.824 65.876 33.716 65.444 33.716C65.052 33.716 64.732 33.816 64.484 34.016C64.236 34.216 64.112 34.504 64.112 34.88C64.112 35.136 64.188 35.348 64.34 35.516C64.5 35.676 64.7 35.804 64.94 35.9C65.18 35.996 65.508 36.1 65.924 36.212C66.476 36.364 66.924 36.516 67.268 36.668C67.62 36.82 67.916 37.056 68.156 37.376C68.404 37.688 68.528 38.108 68.528 38.636C68.528 39.06 68.412 39.46 68.18 39.836C67.956 40.212 67.624 40.516 67.184 40.748C66.752 40.972 66.24 41.084 65.648 41.084ZM73.5622 34.28C74.0662 34.28 74.5142 34.388 74.9062 34.604C75.3062 34.82 75.6182 35.14 75.8422 35.564C76.0742 35.988 76.1902 36.5 76.1902 37.1V41H74.8342V37.304C74.8342 36.712 74.6862 36.26 74.3902 35.948C74.0942 35.628 73.6902 35.468 73.1782 35.468C72.6662 35.468 72.2582 35.628 71.9542 35.948C71.6582 36.26 71.5102 36.712 71.5102 37.304V41H70.1422V32.12H71.5102V35.156C71.7422 34.876 72.0342 34.66 72.3862 34.508C72.7462 34.356 73.1382 34.28 73.5622 34.28ZM80.8032 41.108C80.1792 41.108 79.6152 40.968 79.1112 40.688C78.6072 40.4 78.2112 40 77.9232 39.488C77.6352 38.968 77.4912 38.368 77.4912 37.688C77.4912 37.016 77.6392 36.42 77.9352 35.9C78.2312 35.38 78.6352 34.98 79.1472 34.7C79.6592 34.42 80.2312 34.28 80.8632 34.28C81.4952 34.28 82.0672 34.42 82.5792 34.7C83.0912 34.98 83.4952 35.38 83.7912 35.9C84.0872 36.42 84.2352 37.016 84.2352 37.688C84.2352 38.36 84.0832 38.956 83.7792 39.476C83.4752 39.996 83.0592 40.4 82.5312 40.688C82.0112 40.968 81.4352 41.108 80.8032 41.108ZM80.8032 39.92C81.1552 39.92 81.4832 39.836 81.7872 39.668C82.0992 39.5 82.3512 39.248 82.5432 38.912C82.7352 38.576 82.8312 38.168 82.8312 37.688C82.8312 37.208 82.7392 36.804 82.5552 36.476C82.3712 36.14 82.1272 35.888 81.8232 35.72C81.5192 35.552 81.1912 35.468 80.8392 35.468C80.4872 35.468 80.1592 35.552 79.8552 35.72C79.5592 35.888 79.3232 36.14 79.1472 36.476C78.9712 36.804 78.8832 37.208 78.8832 37.688C78.8832 38.4 79.0632 38.952 79.4232 39.344C79.7912 39.728 80.2512 39.92 80.8032 39.92ZM94.4675 34.388L92.4155 41H90.9755L89.6435 36.116L88.3115 41H86.8715L84.8075 34.388H86.1995L87.5795 39.704L88.9835 34.388H90.4115L91.7555 39.68L93.1235 34.388H94.4675ZM95.0338 37.688C95.0338 37.008 95.1698 36.412 95.4418 35.9C95.7218 35.38 96.1058 34.98 96.5938 34.7C97.0818 34.42 97.6418 34.28 98.2738 34.28C99.0738 34.28 99.7338 34.472 100.254 34.856C100.782 35.232 101.138 35.772 101.322 36.476H99.8458C99.7258 36.148 99.5338 35.892 99.2698 35.708C99.0058 35.524 98.6738 35.432 98.2738 35.432C97.7138 35.432 97.2658 35.632 96.9298 36.032C96.6018 36.424 96.4378 36.976 96.4378 37.688C96.4378 38.4 96.6018 38.956 96.9298 39.356C97.2658 39.756 97.7138 39.956 98.2738 39.956C99.0658 39.956 99.5898 39.608 99.8458 38.912H101.322C101.13 39.584 100.77 40.12 100.242 40.52C99.7138 40.912 99.0578 41.108 98.2738 41.108C97.6418 41.108 97.0818 40.968 96.5938 40.688C96.1058 40.4 95.7218 40 95.4418 39.488C95.1698 38.968 95.0338 38.368 95.0338 37.688ZM102.229 37.664C102.229 37 102.365 36.412 102.637 35.9C102.917 35.388 103.293 34.992 103.765 34.712C104.245 34.424 104.773 34.28 105.349 34.28C105.869 34.28 106.321 34.384 106.705 34.592C107.097 34.792 107.409 35.044 107.641 35.348V34.388H109.021V41H107.641V40.016C107.409 40.328 107.093 40.588 106.693 40.796C106.293 41.004 105.837 41.108 105.325 41.108C104.757 41.108 104.237 40.964 103.765 40.676C103.293 40.38 102.917 39.972 102.637 39.452C102.365 38.924 102.229 38.328 102.229 37.664ZM107.641 37.688C107.641 37.232 107.545 36.836 107.353 36.5C107.169 36.164 106.925 35.908 106.621 35.732C106.317 35.556 105.989 35.468 105.637 35.468C105.285 35.468 104.957 35.556 104.653 35.732C104.349 35.9 104.101 36.152 103.909 36.488C103.725 36.816 103.633 37.208 103.633 37.664C103.633 38.12 103.725 38.52 103.909 38.864C104.101 39.208 104.349 39.472 104.653 39.656C104.965 39.832 105.293 39.92 105.637 39.92C105.989 39.92 106.317 39.832 106.621 39.656C106.925 39.48 107.169 39.224 107.353 38.888C107.545 38.544 107.641 38.144 107.641 37.688ZM113.218 41.108C112.698 41.108 112.23 41.016 111.814 40.832C111.406 40.64 111.082 40.384 110.842 40.064C110.602 39.736 110.474 39.372 110.458 38.972H111.874C111.898 39.252 112.03 39.488 112.27 39.68C112.518 39.864 112.826 39.956 113.194 39.956C113.578 39.956 113.874 39.884 114.082 39.74C114.298 39.588 114.406 39.396 114.406 39.164C114.406 38.916 114.286 38.732 114.046 38.612C113.814 38.492 113.442 38.36 112.93 38.216C112.434 38.08 112.03 37.948 111.718 37.82C111.406 37.692 111.134 37.496 110.902 37.232C110.678 36.968 110.566 36.62 110.566 36.188C110.566 35.836 110.67 35.516 110.878 35.228C111.086 34.932 111.382 34.7 111.766 34.532C112.158 34.364 112.606 34.28 113.11 34.28C113.862 34.28 114.466 34.472 114.922 34.856C115.386 35.232 115.634 35.748 115.666 36.404H114.298C114.274 36.108 114.154 35.872 113.938 35.696C113.722 35.52 113.43 35.432 113.062 35.432C112.702 35.432 112.426 35.5 112.234 35.636C112.042 35.772 111.946 35.952 111.946 36.176C111.946 36.352 112.01 36.5 112.138 36.62C112.266 36.74 112.422 36.836 112.606 36.908C112.79 36.972 113.062 37.056 113.422 37.16C113.902 37.288 114.294 37.42 114.598 37.556C114.91 37.684 115.178 37.876 115.402 38.132C115.626 38.388 115.742 38.728 115.75 39.152C115.75 39.528 115.646 39.864 115.438 40.16C115.23 40.456 114.934 40.688 114.55 40.856C114.174 41.024 113.73 41.108 113.218 41.108ZM123.288 37.532C123.288 37.78 123.272 38.004 123.24 38.204H118.188C118.228 38.732 118.424 39.156 118.776 39.476C119.128 39.796 119.56 39.956 120.072 39.956C120.808 39.956 121.328 39.648 121.632 39.032H123.108C122.908 39.64 122.544 40.14 122.016 40.532C121.496 40.916 120.848 41.108 120.072 41.108C119.44 41.108 118.872 40.968 118.368 40.688C117.872 40.4 117.48 40 117.192 39.488C116.912 38.968 116.772 38.368 116.772 37.688C116.772 37.008 116.908 36.412 117.18 35.9C117.46 35.38 117.848 34.98 118.344 34.7C118.848 34.42 119.424 34.28 120.072 34.28C120.696 34.28 121.252 34.416 121.74 34.688C122.228 34.96 122.608 35.344 122.88 35.84C123.152 36.328 123.288 36.892 123.288 37.532ZM121.86 37.1C121.852 36.596 121.672 36.192 121.32 35.888C120.968 35.584 120.532 35.432 120.012 35.432C119.54 35.432 119.136 35.584 118.8 35.888C118.464 36.184 118.264 36.588 118.2 37.1H121.86ZM133.704 34.388L129.648 44.108H128.232L129.576 40.892L126.972 34.388H128.496L130.356 39.428L132.288 34.388H133.704ZM137.604 41.108C136.98 41.108 136.416 40.968 135.912 40.688C135.408 40.4 135.012 40 134.724 39.488C134.436 38.968 134.292 38.368 134.292 37.688C134.292 37.016 134.44 36.42 134.736 35.9C135.032 35.38 135.436 34.98 135.948 34.7C136.46 34.42 137.032 34.28 137.664 34.28C138.296 34.28 138.868 34.42 139.38 34.7C139.892 34.98 140.296 35.38 140.592 35.9C140.888 36.42 141.036 37.016 141.036 37.688C141.036 38.36 140.884 38.956 140.58 39.476C140.276 39.996 139.86 40.4 139.332 40.688C138.812 40.968 138.236 41.108 137.604 41.108ZM137.604 39.92C137.956 39.92 138.284 39.836 138.588 39.668C138.9 39.5 139.152 39.248 139.344 38.912C139.536 38.576 139.632 38.168 139.632 37.688C139.632 37.208 139.54 36.804 139.356 36.476C139.172 36.14 138.928 35.888 138.624 35.72C138.32 35.552 137.992 35.468 137.64 35.468C137.288 35.468 136.96 35.552 136.656 35.72C136.36 35.888 136.124 36.14 135.948 36.476C135.772 36.804 135.684 37.208 135.684 37.688C135.684 38.4 135.864 38.952 136.224 39.344C136.592 39.728 137.052 39.92 137.604 39.92ZM148.376 34.388V41H147.008V40.22C146.792 40.492 146.508 40.708 146.156 40.868C145.812 41.02 145.444 41.096 145.052 41.096C144.532 41.096 144.064 40.988 143.648 40.772C143.24 40.556 142.916 40.236 142.676 39.812C142.444 39.388 142.328 38.876 142.328 38.276V34.388H143.684V38.072C143.684 38.664 143.832 39.12 144.128 39.44C144.424 39.752 144.828 39.908 145.34 39.908C145.852 39.908 146.256 39.752 146.552 39.44C146.856 39.12 147.008 38.664 147.008 38.072V34.388H148.376ZM151.549 35.348C151.749 35.012 152.013 34.752 152.341 34.568C152.677 34.376 153.073 34.28 153.529 34.28V35.696H153.181C152.645 35.696 152.237 35.832 151.957 36.104C151.685 36.376 151.549 36.848 151.549 37.52V41H150.181V34.388H151.549V35.348ZM163.964 37.532C163.964 37.78 163.948 38.004 163.916 38.204H158.864C158.904 38.732 159.1 39.156 159.452 39.476C159.804 39.796 160.236 39.956 160.748 39.956C161.484 39.956 162.004 39.648 162.308 39.032H163.784C163.584 39.64 163.22 40.14 162.692 40.532C162.172 40.916 161.524 41.108 160.748 41.108C160.116 41.108 159.548 40.968 159.044 40.688C158.548 40.4 158.156 40 157.868 39.488C157.588 38.968 157.448 38.368 157.448 37.688C157.448 37.008 157.584 36.412 157.856 35.9C158.136 35.38 158.524 34.98 159.02 34.7C159.524 34.42 160.1 34.28 160.748 34.28C161.372 34.28 161.928 34.416 162.416 34.688C162.904 34.96 163.284 35.344 163.556 35.84C163.828 36.328 163.964 36.892 163.964 37.532ZM162.536 37.1C162.528 36.596 162.348 36.192 161.996 35.888C161.644 35.584 161.208 35.432 160.688 35.432C160.216 35.432 159.812 35.584 159.476 35.888C159.14 36.184 158.94 36.588 158.876 37.1H162.536ZM167.866 39.776L169.738 34.388H171.19L168.67 41H167.038L164.53 34.388H165.994L167.866 39.776ZM178.284 37.532C178.284 37.78 178.268 38.004 178.236 38.204H173.184C173.224 38.732 173.42 39.156 173.772 39.476C174.124 39.796 174.556 39.956 175.068 39.956C175.804 39.956 176.324 39.648 176.628 39.032H178.104C177.904 39.64 177.54 40.14 177.012 40.532C176.492 40.916 175.844 41.108 175.068 41.108C174.436 41.108 173.868 40.968 173.364 40.688C172.868 40.4 172.476 40 172.188 39.488C171.908 38.968 171.768 38.368 171.768 37.688C171.768 37.008 171.904 36.412 172.176 35.9C172.456 35.38 172.844 34.98 173.34 34.7C173.844 34.42 174.42 34.28 175.068 34.28C175.692 34.28 176.248 34.416 176.736 34.688C177.224 34.96 177.604 35.344 177.876 35.84C178.148 36.328 178.284 36.892 178.284 37.532ZM176.856 37.1C176.848 36.596 176.668 36.192 176.316 35.888C175.964 35.584 175.528 35.432 175.008 35.432C174.536 35.432 174.132 35.584 173.796 35.888C173.46 36.184 173.26 36.588 173.196 37.1H176.856ZM182.966 34.28C183.486 34.28 183.95 34.388 184.358 34.604C184.774 34.82 185.098 35.14 185.33 35.564C185.562 35.988 185.678 36.5 185.678 37.1V41H184.322V37.304C184.322 36.712 184.174 36.26 183.878 35.948C183.582 35.628 183.178 35.468 182.666 35.468C182.154 35.468 181.746 35.628 181.442 35.948C181.146 36.26 180.998 36.712 180.998 37.304V41H179.63V34.388H180.998V35.144C181.222 34.872 181.506 34.66 181.85 34.508C182.202 34.356 182.574 34.28 182.966 34.28ZM189.019 35.504V39.164C189.019 39.412 189.075 39.592 189.187 39.704C189.307 39.808 189.507 39.86 189.787 39.86H190.627V41H189.547C188.931 41 188.459 40.856 188.131 40.568C187.803 40.28 187.639 39.812 187.639 39.164V35.504H186.859V34.388H187.639V32.744H189.019V34.388H190.627V35.504H189.019ZM194.288 41.108C193.768 41.108 193.3 41.016 192.884 40.832C192.476 40.64 192.152 40.384 191.912 40.064C191.672 39.736 191.544 39.372 191.528 38.972H192.944C192.968 39.252 193.1 39.488 193.34 39.68C193.588 39.864 193.896 39.956 194.264 39.956C194.648 39.956 194.944 39.884 195.152 39.74C195.368 39.588 195.476 39.396 195.476 39.164C195.476 38.916 195.356 38.732 195.116 38.612C194.884 38.492 194.512 38.36 194 38.216C193.504 38.08 193.1 37.948 192.788 37.82C192.476 37.692 192.204 37.496 191.972 37.232C191.748 36.968 191.636 36.62 191.636 36.188C191.636 35.836 191.74 35.516 191.948 35.228C192.156 34.932 192.452 34.7 192.836 34.532C193.228 34.364 193.676 34.28 194.18 34.28C194.932 34.28 195.536 34.472 195.992 34.856C196.456 35.232 196.704 35.748 196.736 36.404H195.368C195.344 36.108 195.224 35.872 195.008 35.696C194.792 35.52 194.5 35.432 194.132 35.432C193.772 35.432 193.496 35.5 193.304 35.636C193.112 35.772 193.016 35.952 193.016 36.176C193.016 36.352 193.08 36.5 193.208 36.62C193.336 36.74 193.492 36.836 193.676 36.908C193.86 36.972 194.132 37.056 194.492 37.16C194.972 37.288 195.364 37.42 195.668 37.556C195.98 37.684 196.248 37.876 196.472 38.132C196.696 38.388 196.812 38.728 196.82 39.152C196.82 39.528 196.716 39.864 196.508 40.16C196.3 40.456 196.004 40.688 195.62 40.856C195.244 41.024 194.8 41.108 194.288 41.108ZM204.284 41.108C203.66 41.108 203.096 40.968 202.592 40.688C202.088 40.4 201.692 40 201.404 39.488C201.116 38.968 200.972 38.368 200.972 37.688C200.972 37.016 201.12 36.42 201.416 35.9C201.712 35.38 202.116 34.98 202.628 34.7C203.14 34.42 203.712 34.28 204.344 34.28C204.976 34.28 205.548 34.42 206.06 34.7C206.572 34.98 206.976 35.38 207.272 35.9C207.568 36.42 207.716 37.016 207.716 37.688C207.716 38.36 207.564 38.956 207.26 39.476C206.956 39.996 206.54 40.4 206.012 40.688C205.492 40.968 204.916 41.108 204.284 41.108ZM204.284 39.92C204.636 39.92 204.964 39.836 205.268 39.668C205.58 39.5 205.832 39.248 206.024 38.912C206.216 38.576 206.312 38.168 206.312 37.688C206.312 37.208 206.22 36.804 206.036 36.476C205.852 36.14 205.608 35.888 205.304 35.72C205 35.552 204.672 35.468 204.32 35.468C203.968 35.468 203.64 35.552 203.336 35.72C203.04 35.888 202.804 36.14 202.628 36.476C202.452 36.804 202.364 37.208 202.364 37.688C202.364 38.4 202.544 38.952 202.904 39.344C203.272 39.728 203.732 39.92 204.284 39.92ZM210.436 35.348C210.636 35.012 210.9 34.752 211.228 34.568C211.564 34.376 211.96 34.28 212.416 34.28V35.696H212.068C211.532 35.696 211.124 35.832 210.844 36.104C210.572 36.376 210.436 36.848 210.436 37.52V41H209.068V34.388H210.436V35.348ZM218.159 35.372C218.391 35.052 218.707 34.792 219.107 34.592C219.515 34.384 219.967 34.28 220.463 34.28C221.047 34.28 221.575 34.42 222.047 34.7C222.519 34.98 222.891 35.38 223.163 35.9C223.435 36.412 223.571 37 223.571 37.664C223.571 38.328 223.435 38.924 223.163 39.452C222.891 39.972 222.515 40.38 222.035 40.676C221.563 40.964 221.039 41.108 220.463 41.108C219.951 41.108 219.495 41.008 219.095 40.808C218.703 40.608 218.391 40.352 218.159 40.04V41H216.791V32.12H218.159V35.372ZM222.179 37.664C222.179 37.208 222.083 36.816 221.891 36.488C221.707 36.152 221.459 35.9 221.147 35.732C220.843 35.556 220.515 35.468 220.163 35.468C219.819 35.468 219.491 35.556 219.179 35.732C218.875 35.908 218.627 36.164 218.435 36.5C218.251 36.836 218.159 37.232 218.159 37.688C218.159 38.144 218.251 38.544 218.435 38.888C218.627 39.224 218.875 39.48 219.179 39.656C219.491 39.832 219.819 39.92 220.163 39.92C220.515 39.92 220.843 39.832 221.147 39.656C221.459 39.472 221.707 39.208 221.891 38.864C222.083 38.52 222.179 38.12 222.179 37.664ZM224.467 37.664C224.467 37 224.603 36.412 224.875 35.9C225.155 35.388 225.531 34.992 226.003 34.712C226.483 34.424 227.011 34.28 227.587 34.28C228.107 34.28 228.559 34.384 228.943 34.592C229.335 34.792 229.647 35.044 229.879 35.348V34.388H231.259V41H229.879V40.016C229.647 40.328 229.331 40.588 228.931 40.796C228.531 41.004 228.075 41.108 227.563 41.108C226.995 41.108 226.475 40.964 226.003 40.676C225.531 40.38 225.155 39.972 224.875 39.452C224.603 38.924 224.467 38.328 224.467 37.664ZM229.879 37.688C229.879 37.232 229.783 36.836 229.591 36.5C229.407 36.164 229.163 35.908 228.859 35.732C228.555 35.556 228.227 35.468 227.875 35.468C227.523 35.468 227.195 35.556 226.891 35.732C226.587 35.9 226.339 36.152 226.147 36.488C225.963 36.816 225.871 37.208 225.871 37.664C225.871 38.12 225.963 38.52 226.147 38.864C226.339 39.208 226.587 39.472 226.891 39.656C227.203 39.832 227.531 39.92 227.875 39.92C228.227 39.92 228.555 39.832 228.859 39.656C229.163 39.48 229.407 39.224 229.591 38.888C229.783 38.544 229.879 38.144 229.879 37.688ZM236.392 34.28C236.912 34.28 237.376 34.388 237.784 34.604C238.2 34.82 238.524 35.14 238.756 35.564C238.988 35.988 239.104 36.5 239.104 37.1V41H237.748V37.304C237.748 36.712 237.6 36.26 237.304 35.948C237.008 35.628 236.604 35.468 236.092 35.468C235.58 35.468 235.172 35.628 234.868 35.948C234.572 36.26 234.424 36.712 234.424 37.304V41H233.056V34.388H234.424V35.144C234.648 34.872 234.932 34.66 235.276 34.508C235.628 34.356 236 34.28 236.392 34.28ZM244.185 34.28C244.705 34.28 245.169 34.388 245.577 34.604C245.993 34.82 246.317 35.14 246.549 35.564C246.781 35.988 246.897 36.5 246.897 37.1V41H245.541V37.304C245.541 36.712 245.393 36.26 245.097 35.948C244.801 35.628 244.397 35.468 243.885 35.468C243.373 35.468 242.965 35.628 242.661 35.948C242.365 36.26 242.217 36.712 242.217 37.304V41H240.849V34.388H242.217V35.144C242.441 34.872 242.725 34.66 243.069 34.508C243.421 34.356 243.793 34.28 244.185 34.28ZM254.702 37.532C254.702 37.78 254.686 38.004 254.654 38.204H249.602C249.642 38.732 249.838 39.156 250.19 39.476C250.542 39.796 250.974 39.956 251.486 39.956C252.222 39.956 252.742 39.648 253.046 39.032H254.522C254.322 39.64 253.958 40.14 253.43 40.532C252.91 40.916 252.262 41.108 251.486 41.108C250.854 41.108 250.286 40.968 249.782 40.688C249.286 40.4 248.894 40 248.606 39.488C248.326 38.968 248.186 38.368 248.186 37.688C248.186 37.008 248.322 36.412 248.594 35.9C248.874 35.38 249.262 34.98 249.758 34.7C250.262 34.42 250.838 34.28 251.486 34.28C252.11 34.28 252.666 34.416 253.154 34.688C253.642 34.96 254.022 35.344 254.294 35.84C254.566 36.328 254.702 36.892 254.702 37.532ZM253.274 37.1C253.266 36.596 253.086 36.192 252.734 35.888C252.382 35.584 251.946 35.432 251.426 35.432C250.954 35.432 250.55 35.584 250.214 35.888C249.878 36.184 249.678 36.588 249.614 37.1H253.274ZM257.416 35.348C257.616 35.012 257.88 34.752 258.208 34.568C258.544 34.376 258.94 34.28 259.396 34.28V35.696H259.048C258.512 35.696 258.104 35.832 257.824 36.104C257.552 36.376 257.416 36.848 257.416 37.52V41H256.048V34.388H257.416V35.348ZM263.054 41.108C262.534 41.108 262.066 41.016 261.65 40.832C261.242 40.64 260.918 40.384 260.678 40.064C260.438 39.736 260.31 39.372 260.294 38.972H261.71C261.734 39.252 261.866 39.488 262.106 39.68C262.354 39.864 262.662 39.956 263.03 39.956C263.414 39.956 263.71 39.884 263.918 39.74C264.134 39.588 264.242 39.396 264.242 39.164C264.242 38.916 264.122 38.732 263.882 38.612C263.65 38.492 263.278 38.36 262.766 38.216C262.27 38.08 261.866 37.948 261.554 37.82C261.242 37.692 260.97 37.496 260.738 37.232C260.514 36.968 260.402 36.62 260.402 36.188C260.402 35.836 260.506 35.516 260.714 35.228C260.922 34.932 261.218 34.7 261.602 34.532C261.994 34.364 262.442 34.28 262.946 34.28C263.698 34.28 264.302 34.472 264.758 34.856C265.222 35.232 265.47 35.748 265.502 36.404H264.134C264.11 36.108 263.99 35.872 263.774 35.696C263.558 35.52 263.266 35.432 262.898 35.432C262.538 35.432 262.262 35.5 262.07 35.636C261.878 35.772 261.782 35.952 261.782 36.176C261.782 36.352 261.846 36.5 261.974 36.62C262.102 36.74 262.258 36.836 262.442 36.908C262.626 36.972 262.898 37.056 263.258 37.16C263.738 37.288 264.13 37.42 264.434 37.556C264.746 37.684 265.014 37.876 265.238 38.132C265.462 38.388 265.578 38.728 265.586 39.152C265.586 39.528 265.482 39.864 265.274 40.16C265.066 40.456 264.77 40.688 264.386 40.856C264.01 41.024 263.566 41.108 263.054 41.108ZM271.777 35.504V39.164C271.777 39.412 271.833 39.592 271.945 39.704C272.065 39.808 272.265 39.86 272.545 39.86H273.385V41H272.305C271.689 41 271.217 40.856 270.889 40.568C270.561 40.28 270.397 39.812 270.397 39.164V35.504H269.617V34.388H270.397V32.744H271.777V34.388H273.385V35.504H271.777ZM277.514 41.108C276.89 41.108 276.326 40.968 275.822 40.688C275.318 40.4 274.922 40 274.634 39.488C274.346 38.968 274.202 38.368 274.202 37.688C274.202 37.016 274.35 36.42 274.646 35.9C274.942 35.38 275.346 34.98 275.858 34.7C276.37 34.42 276.942 34.28 277.574 34.28C278.206 34.28 278.778 34.42 279.29 34.7C279.802 34.98 280.206 35.38 280.502 35.9C280.798 36.42 280.946 37.016 280.946 37.688C280.946 38.36 280.794 38.956 280.49 39.476C280.186 39.996 279.77 40.4 279.242 40.688C278.722 40.968 278.146 41.108 277.514 41.108ZM277.514 39.92C277.866 39.92 278.194 39.836 278.498 39.668C278.81 39.5 279.062 39.248 279.254 38.912C279.446 38.576 279.542 38.168 279.542 37.688C279.542 37.208 279.45 36.804 279.266 36.476C279.082 36.14 278.838 35.888 278.534 35.72C278.23 35.552 277.902 35.468 277.55 35.468C277.198 35.468 276.87 35.552 276.566 35.72C276.27 35.888 276.034 36.14 275.858 36.476C275.682 36.804 275.594 37.208 275.594 37.688C275.594 38.4 275.774 38.952 276.134 39.344C276.502 39.728 276.962 39.92 277.514 39.92ZM286.784 35.348C286.984 35.012 287.248 34.752 287.576 34.568C287.912 34.376 288.308 34.28 288.764 34.28V35.696H288.416C287.88 35.696 287.472 35.832 287.192 36.104C286.92 36.376 286.784 36.848 286.784 37.52V41H285.416V34.388H286.784V35.348ZM296.081 37.532C296.081 37.78 296.065 38.004 296.033 38.204H290.981C291.021 38.732 291.217 39.156 291.569 39.476C291.921 39.796 292.353 39.956 292.865 39.956C293.601 39.956 294.121 39.648 294.425 39.032H295.901C295.701 39.64 295.337 40.14 294.809 40.532C294.289 40.916 293.641 41.108 292.865 41.108C292.233 41.108 291.665 40.968 291.161 40.688C290.665 40.4 290.273 40 289.985 39.488C289.705 38.968 289.565 38.368 289.565 37.688C289.565 37.008 289.701 36.412 289.973 35.9C290.253 35.38 290.641 34.98 291.137 34.7C291.641 34.42 292.217 34.28 292.865 34.28C293.489 34.28 294.045 34.416 294.533 34.688C295.021 34.96 295.401 35.344 295.673 35.84C295.945 36.328 296.081 36.892 296.081 37.532ZM294.653 37.1C294.645 36.596 294.465 36.192 294.113 35.888C293.761 35.584 293.325 35.432 292.805 35.432C292.333 35.432 291.929 35.584 291.593 35.888C291.257 36.184 291.057 36.588 290.993 37.1H294.653ZM296.971 37.664C296.971 37 297.107 36.412 297.379 35.9C297.659 35.388 298.035 34.992 298.507 34.712C298.987 34.424 299.515 34.28 300.091 34.28C300.611 34.28 301.063 34.384 301.447 34.592C301.839 34.792 302.151 35.044 302.383 35.348V34.388H303.763V41H302.383V40.016C302.151 40.328 301.835 40.588 301.435 40.796C301.035 41.004 300.579 41.108 300.067 41.108C299.499 41.108 298.979 40.964 298.507 40.676C298.035 40.38 297.659 39.972 297.379 39.452C297.107 38.924 296.971 38.328 296.971 37.664ZM302.383 37.688C302.383 37.232 302.287 36.836 302.095 36.5C301.911 36.164 301.667 35.908 301.363 35.732C301.059 35.556 300.731 35.468 300.379 35.468C300.027 35.468 299.699 35.556 299.395 35.732C299.091 35.9 298.843 36.152 298.651 36.488C298.467 36.816 298.375 37.208 298.375 37.664C298.375 38.12 298.467 38.52 298.651 38.864C298.843 39.208 299.091 39.472 299.395 39.656C299.707 39.832 300.035 39.92 300.379 39.92C300.731 39.92 301.059 39.832 301.363 39.656C301.667 39.48 301.911 39.224 302.095 38.888C302.287 38.544 302.383 38.144 302.383 37.688ZM305.104 37.688C305.104 37.008 305.24 36.412 305.512 35.9C305.792 35.38 306.176 34.98 306.664 34.7C307.152 34.42 307.712 34.28 308.344 34.28C309.144 34.28 309.804 34.472 310.324 34.856C310.852 35.232 311.208 35.772 311.392 36.476H309.916C309.796 36.148 309.604 35.892 309.34 35.708C309.076 35.524 308.744 35.432 308.344 35.432C307.784 35.432 307.336 35.632 307 36.032C306.672 36.424 306.508 36.976 306.508 37.688C306.508 38.4 306.672 38.956 307 39.356C307.336 39.756 307.784 39.956 308.344 39.956C309.136 39.956 309.66 39.608 309.916 38.912H311.392C311.2 39.584 310.84 40.12 310.312 40.52C309.784 40.912 309.128 41.108 308.344 41.108C307.712 41.108 307.152 40.968 306.664 40.688C306.176 40.4 305.792 40 305.512 39.488C305.24 38.968 305.104 38.368 305.104 37.688ZM316.175 34.28C316.679 34.28 317.127 34.388 317.519 34.604C317.919 34.82 318.231 35.14 318.455 35.564C318.687 35.988 318.803 36.5 318.803 37.1V41H317.447V37.304C317.447 36.712 317.299 36.26 317.003 35.948C316.707 35.628 316.303 35.468 315.791 35.468C315.279 35.468 314.871 35.628 314.567 35.948C314.271 36.26 314.123 36.712 314.123 37.304V41H312.755V32.12H314.123V35.156C314.355 34.876 314.647 34.66 314.999 34.508C315.359 34.356 315.751 34.28 316.175 34.28ZM325.262 35.504V39.164C325.262 39.412 325.318 39.592 325.43 39.704C325.55 39.808 325.75 39.86 326.03 39.86H326.87V41H325.79C325.174 41 324.702 40.856 324.374 40.568C324.046 40.28 323.882 39.812 323.882 39.164V35.504H323.102V34.388H323.882V32.744H325.262V34.388H326.87V35.504H325.262ZM331.55 34.28C332.054 34.28 332.502 34.388 332.894 34.604C333.294 34.82 333.606 35.14 333.83 35.564C334.062 35.988 334.178 36.5 334.178 37.1V41H332.822V37.304C332.822 36.712 332.674 36.26 332.378 35.948C332.082 35.628 331.678 35.468 331.166 35.468C330.654 35.468 330.246 35.628 329.942 35.948C329.646 36.26 329.498 36.712 329.498 37.304V41H328.13V32.12H329.498V35.156C329.73 34.876 330.022 34.66 330.374 34.508C330.734 34.356 331.126 34.28 331.55 34.28ZM341.983 37.532C341.983 37.78 341.967 38.004 341.935 38.204H336.883C336.923 38.732 337.119 39.156 337.471 39.476C337.823 39.796 338.255 39.956 338.767 39.956C339.503 39.956 340.023 39.648 340.327 39.032H341.803C341.603 39.64 341.239 40.14 340.711 40.532C340.191 40.916 339.543 41.108 338.767 41.108C338.135 41.108 337.567 40.968 337.063 40.688C336.567 40.4 336.175 40 335.887 39.488C335.607 38.968 335.467 38.368 335.467 37.688C335.467 37.008 335.603 36.412 335.875 35.9C336.155 35.38 336.543 34.98 337.039 34.7C337.543 34.42 338.119 34.28 338.767 34.28C339.391 34.28 339.947 34.416 340.435 34.688C340.923 34.96 341.303 35.344 341.575 35.84C341.847 36.328 341.983 36.892 341.983 37.532ZM340.555 37.1C340.547 36.596 340.367 36.192 340.015 35.888C339.663 35.584 339.227 35.432 338.707 35.432C338.235 35.432 337.831 35.584 337.495 35.888C337.159 36.184 336.959 36.588 336.895 37.1H340.555ZM347.815 35.348C348.015 35.012 348.279 34.752 348.607 34.568C348.943 34.376 349.339 34.28 349.795 34.28V35.696H349.447C348.911 35.696 348.503 35.832 348.223 36.104C347.951 36.376 347.815 36.848 347.815 37.52V41H346.447V34.388H347.815V35.348ZM351.748 33.512C351.5 33.512 351.292 33.428 351.124 33.26C350.956 33.092 350.872 32.884 350.872 32.636C350.872 32.388 350.956 32.18 351.124 32.012C351.292 31.844 351.5 31.76 351.748 31.76C351.988 31.76 352.192 31.844 352.36 32.012C352.528 32.18 352.612 32.388 352.612 32.636C352.612 32.884 352.528 33.092 352.36 33.26C352.192 33.428 351.988 33.512 351.748 33.512ZM352.42 34.388V41H351.052V34.388H352.42ZM356.88 34.28C357.392 34.28 357.844 34.384 358.236 34.592C358.636 34.792 358.948 35.044 359.172 35.348V34.388H360.552V41.108C360.552 41.716 360.424 42.256 360.168 42.728C359.912 43.208 359.54 43.584 359.052 43.856C358.572 44.128 357.996 44.264 357.324 44.264C356.428 44.264 355.684 44.052 355.092 43.628C354.5 43.212 354.164 42.644 354.084 41.924H355.44C355.544 42.268 355.764 42.544 356.1 42.752C356.444 42.968 356.852 43.076 357.324 43.076C357.876 43.076 358.32 42.908 358.656 42.572C359 42.236 359.172 41.748 359.172 41.108V40.004C358.94 40.316 358.624 40.58 358.224 40.796C357.832 41.004 357.384 41.108 356.88 41.108C356.304 41.108 355.776 40.964 355.296 40.676C354.824 40.38 354.448 39.972 354.168 39.452C353.896 38.924 353.76 38.328 353.76 37.664C353.76 37 353.896 36.412 354.168 35.9C354.448 35.388 354.824 34.992 355.296 34.712C355.776 34.424 356.304 34.28 356.88 34.28ZM359.172 37.688C359.172 37.232 359.076 36.836 358.884 36.5C358.7 36.164 358.456 35.908 358.152 35.732C357.848 35.556 357.52 35.468 357.168 35.468C356.816 35.468 356.488 35.556 356.184 35.732C355.88 35.9 355.632 36.152 355.44 36.488C355.256 36.816 355.164 37.208 355.164 37.664C355.164 38.12 355.256 38.52 355.44 38.864C355.632 39.208 355.88 39.472 356.184 39.656C356.496 39.832 356.824 39.92 357.168 39.92C357.52 39.92 357.848 39.832 358.152 39.656C358.456 39.48 358.7 39.224 358.884 38.888C359.076 38.544 359.172 38.144 359.172 37.688ZM365.769 34.28C366.273 34.28 366.721 34.388 367.113 34.604C367.513 34.82 367.825 35.14 368.049 35.564C368.281 35.988 368.397 36.5 368.397 37.1V41H367.041V37.304C367.041 36.712 366.893 36.26 366.597 35.948C366.301 35.628 365.897 35.468 365.385 35.468C364.873 35.468 364.465 35.628 364.161 35.948C363.865 36.26 363.717 36.712 363.717 37.304V41H362.349V32.12H363.717V35.156C363.949 34.876 364.241 34.66 364.593 34.508C364.953 34.356 365.345 34.28 365.769 34.28ZM371.738 35.504V39.164C371.738 39.412 371.794 39.592 371.906 39.704C372.026 39.808 372.226 39.86 372.506 39.86H373.346V41H372.266C371.65 41 371.178 40.856 370.85 40.568C370.522 40.28 370.358 39.812 370.358 39.164V35.504H369.578V34.388H370.358V32.744H371.738V34.388H373.346V35.504H371.738ZM377.268 37.664C377.268 37 377.404 36.412 377.676 35.9C377.956 35.388 378.332 34.992 378.804 34.712C379.284 34.424 379.812 34.28 380.388 34.28C380.908 34.28 381.36 34.384 381.744 34.592C382.136 34.792 382.448 35.044 382.68 35.348V34.388H384.06V41H382.68V40.016C382.448 40.328 382.132 40.588 381.732 40.796C381.332 41.004 380.876 41.108 380.364 41.108C379.796 41.108 379.276 40.964 378.804 40.676C378.332 40.38 377.956 39.972 377.676 39.452C377.404 38.924 377.268 38.328 377.268 37.664ZM382.68 37.688C382.68 37.232 382.584 36.836 382.392 36.5C382.208 36.164 381.964 35.908 381.66 35.732C381.356 35.556 381.028 35.468 380.676 35.468C380.324 35.468 379.996 35.556 379.692 35.732C379.388 35.9 379.14 36.152 378.948 36.488C378.764 36.816 378.672 37.208 378.672 37.664C378.672 38.12 378.764 38.52 378.948 38.864C379.14 39.208 379.388 39.472 379.692 39.656C380.004 39.832 380.332 39.92 380.676 39.92C381.028 39.92 381.356 39.832 381.66 39.656C381.964 39.48 382.208 39.224 382.392 38.888C382.584 38.544 382.68 38.144 382.68 37.688ZM391.845 34.388V41H390.477V40.22C390.261 40.492 389.977 40.708 389.625 40.868C389.281 41.02 388.913 41.096 388.521 41.096C388.001 41.096 387.533 40.988 387.117 40.772C386.709 40.556 386.385 40.236 386.145 39.812C385.913 39.388 385.797 38.876 385.797 38.276V34.388H387.153V38.072C387.153 38.664 387.301 39.12 387.597 39.44C387.893 39.752 388.297 39.908 388.809 39.908C389.321 39.908 389.725 39.752 390.021 39.44C390.325 39.12 390.477 38.664 390.477 38.072V34.388H391.845ZM393.194 37.664C393.194 37 393.33 36.412 393.602 35.9C393.882 35.388 394.258 34.992 394.73 34.712C395.21 34.424 395.742 34.28 396.326 34.28C396.758 34.28 397.182 34.376 397.598 34.568C398.022 34.752 398.358 35 398.606 35.312V32.12H399.986V41H398.606V40.004C398.382 40.324 398.07 40.588 397.67 40.796C397.278 41.004 396.826 41.108 396.314 41.108C395.738 41.108 395.21 40.964 394.73 40.676C394.258 40.38 393.882 39.972 393.602 39.452C393.33 38.924 393.194 38.328 393.194 37.664ZM398.606 37.688C398.606 37.232 398.51 36.836 398.318 36.5C398.134 36.164 397.89 35.908 397.586 35.732C397.282 35.556 396.954 35.468 396.602 35.468C396.25 35.468 395.922 35.556 395.618 35.732C395.314 35.9 395.066 36.152 394.874 36.488C394.69 36.816 394.598 37.208 394.598 37.664C394.598 38.12 394.69 38.52 394.874 38.864C395.066 39.208 395.314 39.472 395.618 39.656C395.93 39.832 396.258 39.92 396.602 39.92C396.954 39.92 397.282 39.832 397.586 39.656C397.89 39.48 398.134 39.224 398.318 38.888C398.51 38.544 398.606 38.144 398.606 37.688ZM402.479 33.512C402.231 33.512 402.023 33.428 401.855 33.26C401.687 33.092 401.603 32.884 401.603 32.636C401.603 32.388 401.687 32.18 401.855 32.012C402.023 31.844 402.231 31.76 402.479 31.76C402.719 31.76 402.923 31.844 403.091 32.012C403.259 32.18 403.343 32.388 403.343 32.636C403.343 32.884 403.259 33.092 403.091 33.26C402.923 33.428 402.719 33.512 402.479 33.512ZM403.151 34.388V41H401.783V34.388H403.151ZM411.007 37.532C411.007 37.78 410.991 38.004 410.959 38.204H405.907C405.947 38.732 406.143 39.156 406.495 39.476C406.847 39.796 407.279 39.956 407.791 39.956C408.527 39.956 409.047 39.648 409.351 39.032H410.827C410.627 39.64 410.263 40.14 409.735 40.532C409.215 40.916 408.567 41.108 407.791 41.108C407.159 41.108 406.591 40.968 406.087 40.688C405.591 40.4 405.199 40 404.911 39.488C404.631 38.968 404.491 38.368 404.491 37.688C404.491 37.008 404.627 36.412 404.899 35.9C405.179 35.38 405.567 34.98 406.063 34.7C406.567 34.42 407.143 34.28 407.791 34.28C408.415 34.28 408.971 34.416 409.459 34.688C409.947 34.96 410.327 35.344 410.599 35.84C410.871 36.328 411.007 36.892 411.007 37.532ZM409.579 37.1C409.571 36.596 409.391 36.192 409.039 35.888C408.687 35.584 408.251 35.432 407.731 35.432C407.259 35.432 406.855 35.584 406.519 35.888C406.183 36.184 405.983 36.588 405.919 37.1H409.579ZM415.689 34.28C416.209 34.28 416.673 34.388 417.081 34.604C417.497 34.82 417.821 35.14 418.053 35.564C418.285 35.988 418.401 36.5 418.401 37.1V41H417.045V37.304C417.045 36.712 416.897 36.26 416.601 35.948C416.305 35.628 415.901 35.468 415.389 35.468C414.877 35.468 414.469 35.628 414.165 35.948C413.869 36.26 413.721 36.712 413.721 37.304V41H412.353V34.388H413.721V35.144C413.945 34.872 414.229 34.66 414.573 34.508C414.925 34.356 415.297 34.28 415.689 34.28ZM419.69 37.688C419.69 37.008 419.826 36.412 420.098 35.9C420.378 35.38 420.762 34.98 421.25 34.7C421.738 34.42 422.298 34.28 422.93 34.28C423.73 34.28 424.39 34.472 424.91 34.856C425.438 35.232 425.794 35.772 425.978 36.476H424.502C424.382 36.148 424.19 35.892 423.926 35.708C423.662 35.524 423.33 35.432 422.93 35.432C422.37 35.432 421.922 35.632 421.586 36.032C421.258 36.424 421.094 36.976 421.094 37.688C421.094 38.4 421.258 38.956 421.586 39.356C421.922 39.756 422.37 39.956 422.93 39.956C423.722 39.956 424.246 39.608 424.502 38.912H425.978C425.786 39.584 425.426 40.12 424.898 40.52C424.37 40.912 423.714 41.108 422.93 41.108C422.298 41.108 421.738 40.968 421.25 40.688C420.762 40.4 420.378 40 420.098 39.488C419.826 38.968 419.69 38.368 419.69 37.688ZM433.401 37.532C433.401 37.78 433.385 38.004 433.353 38.204H428.301C428.341 38.732 428.537 39.156 428.889 39.476C429.241 39.796 429.673 39.956 430.185 39.956C430.921 39.956 431.441 39.648 431.745 39.032H433.221C433.021 39.64 432.657 40.14 432.129 40.532C431.609 40.916 430.961 41.108 430.185 41.108C429.553 41.108 428.985 40.968 428.481 40.688C427.985 40.4 427.593 40 427.305 39.488C427.025 38.968 426.885 38.368 426.885 37.688C426.885 37.008 427.021 36.412 427.293 35.9C427.573 35.38 427.961 34.98 428.457 34.7C428.961 34.42 429.537 34.28 430.185 34.28C430.809 34.28 431.365 34.416 431.853 34.688C432.341 34.96 432.721 35.344 432.993 35.84C433.265 36.328 433.401 36.892 433.401 37.532ZM431.973 37.1C431.965 36.596 431.785 36.192 431.433 35.888C431.081 35.584 430.645 35.432 430.125 35.432C429.653 35.432 429.249 35.584 428.913 35.888C428.577 36.184 428.377 36.588 428.313 37.1H431.973ZM437.409 37.664C437.409 37 437.545 36.412 437.817 35.9C438.097 35.388 438.473 34.992 438.945 34.712C439.425 34.424 439.953 34.28 440.529 34.28C441.049 34.28 441.501 34.384 441.885 34.592C442.277 34.792 442.589 35.044 442.821 35.348V34.388H444.201V41H442.821V40.016C442.589 40.328 442.273 40.588 441.873 40.796C441.473 41.004 441.017 41.108 440.505 41.108C439.937 41.108 439.417 40.964 438.945 40.676C438.473 40.38 438.097 39.972 437.817 39.452C437.545 38.924 437.409 38.328 437.409 37.664ZM442.821 37.688C442.821 37.232 442.725 36.836 442.533 36.5C442.349 36.164 442.105 35.908 441.801 35.732C441.497 35.556 441.169 35.468 440.817 35.468C440.465 35.468 440.137 35.556 439.833 35.732C439.529 35.9 439.281 36.152 439.089 36.488C438.905 36.816 438.813 37.208 438.813 37.664C438.813 38.12 438.905 38.52 439.089 38.864C439.281 39.208 439.529 39.472 439.833 39.656C440.145 39.832 440.473 39.92 440.817 39.92C441.169 39.92 441.497 39.832 441.801 39.656C442.105 39.48 442.349 39.224 442.533 38.888C442.725 38.544 442.821 38.144 442.821 37.688ZM449.334 34.28C449.854 34.28 450.318 34.388 450.726 34.604C451.142 34.82 451.466 35.14 451.698 35.564C451.93 35.988 452.046 36.5 452.046 37.1V41H450.69V37.304C450.69 36.712 450.542 36.26 450.246 35.948C449.95 35.628 449.546 35.468 449.034 35.468C448.522 35.468 448.114 35.628 447.81 35.948C447.514 36.26 447.366 36.712 447.366 37.304V41H445.998V34.388H447.366V35.144C447.59 34.872 447.874 34.66 448.218 34.508C448.57 34.356 448.942 34.28 449.334 34.28ZM453.335 37.664C453.335 37 453.471 36.412 453.743 35.9C454.023 35.388 454.399 34.992 454.871 34.712C455.351 34.424 455.883 34.28 456.467 34.28C456.899 34.28 457.323 34.376 457.739 34.568C458.163 34.752 458.499 35 458.747 35.312V32.12H460.127V41H458.747V40.004C458.523 40.324 458.211 40.588 457.811 40.796C457.419 41.004 456.967 41.108 456.455 41.108C455.879 41.108 455.351 40.964 454.871 40.676C454.399 40.38 454.023 39.972 453.743 39.452C453.471 38.924 453.335 38.328 453.335 37.664ZM458.747 37.688C458.747 37.232 458.651 36.836 458.459 36.5C458.275 36.164 458.031 35.908 457.727 35.732C457.423 35.556 457.095 35.468 456.743 35.468C456.391 35.468 456.063 35.556 455.759 35.732C455.455 35.9 455.207 36.152 455.015 36.488C454.831 36.816 454.739 37.208 454.739 37.664C454.739 38.12 454.831 38.52 455.015 38.864C455.207 39.208 455.455 39.472 455.759 39.656C456.071 39.832 456.399 39.92 456.743 39.92C457.095 39.92 457.423 39.832 457.727 39.656C458.031 39.48 458.275 39.224 458.459 38.888C458.651 38.544 458.747 38.144 458.747 37.688ZM473.045 34.28C473.565 34.28 474.029 34.388 474.437 34.604C474.853 34.82 475.177 35.14 475.409 35.564C475.649 35.988 475.769 36.5 475.769 37.1V41H474.413V37.304C474.413 36.712 474.265 36.26 473.969 35.948C473.673 35.628 473.269 35.468 472.757 35.468C472.245 35.468 471.837 35.628 471.533 35.948C471.237 36.26 471.089 36.712 471.089 37.304V41H469.733V37.304C469.733 36.712 469.585 36.26 469.289 35.948C468.993 35.628 468.589 35.468 468.077 35.468C467.565 35.468 467.157 35.628 466.853 35.948C466.557 36.26 466.409 36.712 466.409 37.304V41H465.041V34.388H466.409V35.144C466.633 34.872 466.917 34.66 467.261 34.508C467.605 34.356 467.973 34.28 468.365 34.28C468.893 34.28 469.365 34.392 469.781 34.616C470.197 34.84 470.517 35.164 470.741 35.588C470.941 35.188 471.253 34.872 471.677 34.64C472.101 34.4 472.557 34.28 473.045 34.28ZM477.053 37.664C477.053 37 477.189 36.412 477.461 35.9C477.741 35.388 478.117 34.992 478.589 34.712C479.069 34.424 479.597 34.28 480.173 34.28C480.693 34.28 481.145 34.384 481.529 34.592C481.921 34.792 482.233 35.044 482.465 35.348V34.388H483.845V41H482.465V40.016C482.233 40.328 481.917 40.588 481.517 40.796C481.117 41.004 480.661 41.108 480.149 41.108C479.581 41.108 479.061 40.964 478.589 40.676C478.117 40.38 477.741 39.972 477.461 39.452C477.189 38.924 477.053 38.328 477.053 37.664ZM482.465 37.688C482.465 37.232 482.369 36.836 482.177 36.5C481.993 36.164 481.749 35.908 481.445 35.732C481.141 35.556 480.813 35.468 480.461 35.468C480.109 35.468 479.781 35.556 479.477 35.732C479.173 35.9 478.925 36.152 478.733 36.488C478.549 36.816 478.457 37.208 478.457 37.664C478.457 38.12 478.549 38.52 478.733 38.864C478.925 39.208 479.173 39.472 479.477 39.656C479.789 39.832 480.117 39.92 480.461 39.92C480.813 39.92 481.141 39.832 481.445 39.656C481.749 39.48 481.993 39.224 482.177 38.888C482.369 38.544 482.465 38.144 482.465 37.688ZM488.258 37.7L491.306 41H489.458L487.01 38.156V41H485.642V32.12H487.01V37.28L489.41 34.388H491.306L488.258 37.7ZM498.347 37.532C498.347 37.78 498.331 38.004 498.299 38.204H493.247C493.287 38.732 493.483 39.156 493.835 39.476C494.187 39.796 494.619 39.956 495.131 39.956C495.867 39.956 496.387 39.648 496.691 39.032H498.167C497.967 39.64 497.603 40.14 497.075 40.532C496.555 40.916 495.907 41.108 495.131 41.108C494.499 41.108 493.931 40.968 493.427 40.688C492.931 40.4 492.539 40 492.251 39.488C491.971 38.968 491.831 38.368 491.831 37.688C491.831 37.008 491.967 36.412 492.239 35.9C492.519 35.38 492.907 34.98 493.403 34.7C493.907 34.42 494.483 34.28 495.131 34.28C495.755 34.28 496.311 34.416 496.799 34.688C497.287 34.96 497.667 35.344 497.939 35.84C498.211 36.328 498.347 36.892 498.347 37.532ZM496.919 37.1C496.911 36.596 496.731 36.192 496.379 35.888C496.027 35.584 495.591 35.432 495.071 35.432C494.599 35.432 494.195 35.584 493.859 35.888C493.523 36.184 493.323 36.588 493.259 37.1H496.919ZM502.354 37.664C502.354 37 502.49 36.412 502.762 35.9C503.042 35.388 503.418 34.992 503.89 34.712C504.37 34.424 504.898 34.28 505.474 34.28C505.994 34.28 506.446 34.384 506.83 34.592C507.222 34.792 507.534 35.044 507.766 35.348V34.388H509.146V41H507.766V40.016C507.534 40.328 507.218 40.588 506.818 40.796C506.418 41.004 505.962 41.108 505.45 41.108C504.882 41.108 504.362 40.964 503.89 40.676C503.418 40.38 503.042 39.972 502.762 39.452C502.49 38.924 502.354 38.328 502.354 37.664ZM507.766 37.688C507.766 37.232 507.67 36.836 507.478 36.5C507.294 36.164 507.05 35.908 506.746 35.732C506.442 35.556 506.114 35.468 505.762 35.468C505.41 35.468 505.082 35.556 504.778 35.732C504.474 35.9 504.226 36.152 504.034 36.488C503.85 36.816 503.758 37.208 503.758 37.664C503.758 38.12 503.85 38.52 504.034 38.864C504.226 39.208 504.474 39.472 504.778 39.656C505.09 39.832 505.418 39.92 505.762 39.92C506.114 39.92 506.442 39.832 506.746 39.656C507.05 39.48 507.294 39.224 507.478 38.888C507.67 38.544 507.766 38.144 507.766 37.688ZM514.279 34.28C514.799 34.28 515.263 34.388 515.671 34.604C516.087 34.82 516.411 35.14 516.643 35.564C516.875 35.988 516.991 36.5 516.991 37.1V41H515.635V37.304C515.635 36.712 515.487 36.26 515.191 35.948C514.895 35.628 514.491 35.468 513.979 35.468C513.467 35.468 513.059 35.628 512.755 35.948C512.459 36.26 512.311 36.712 512.311 37.304V41H510.943V34.388H512.311V35.144C512.535 34.872 512.819 34.66 513.163 34.508C513.515 34.356 513.887 34.28 514.279 34.28ZM522.549 33.512C522.301 33.512 522.093 33.428 521.925 33.26C521.757 33.092 521.673 32.884 521.673 32.636C521.673 32.388 521.757 32.18 521.925 32.012C522.093 31.844 522.301 31.76 522.549 31.76C522.789 31.76 522.993 31.844 523.161 32.012C523.329 32.18 523.413 32.388 523.413 32.636C523.413 32.884 523.329 33.092 523.161 33.26C522.993 33.428 522.789 33.512 522.549 33.512ZM523.221 34.388V41H521.853V34.388H523.221ZM533.021 34.28C533.541 34.28 534.005 34.388 534.413 34.604C534.829 34.82 535.153 35.14 535.385 35.564C535.625 35.988 535.745 36.5 535.745 37.1V41H534.389V37.304C534.389 36.712 534.241 36.26 533.945 35.948C533.649 35.628 533.245 35.468 532.733 35.468C532.221 35.468 531.813 35.628 531.509 35.948C531.213 36.26 531.065 36.712 531.065 37.304V41H529.709V37.304C529.709 36.712 529.561 36.26 529.265 35.948C528.969 35.628 528.565 35.468 528.053 35.468C527.541 35.468 527.133 35.628 526.829 35.948C526.533 36.26 526.385 36.712 526.385 37.304V41H525.017V34.388H526.385V35.144C526.609 34.872 526.893 34.66 527.237 34.508C527.581 34.356 527.949 34.28 528.341 34.28C528.869 34.28 529.341 34.392 529.757 34.616C530.173 34.84 530.493 35.164 530.717 35.588C530.917 35.188 531.229 34.872 531.653 34.64C532.077 34.4 532.533 34.28 533.021 34.28ZM538.854 35.36C539.086 35.056 539.402 34.8 539.802 34.592C540.202 34.384 540.654 34.28 541.158 34.28C541.734 34.28 542.258 34.424 542.73 34.712C543.21 34.992 543.586 35.388 543.858 35.9C544.13 36.412 544.266 37 544.266 37.664C544.266 38.328 544.13 38.924 543.858 39.452C543.586 39.972 543.21 40.38 542.73 40.676C542.258 40.964 541.734 41.108 541.158 41.108C540.654 41.108 540.206 41.008 539.814 40.808C539.422 40.6 539.102 40.344 538.854 40.04V44.144H537.486V34.388H538.854V35.36ZM542.874 37.664C542.874 37.208 542.778 36.816 542.586 36.488C542.402 36.152 542.154 35.9 541.842 35.732C541.538 35.556 541.21 35.468 540.858 35.468C540.514 35.468 540.186 35.556 539.874 35.732C539.57 35.908 539.322 36.164 539.13 36.5C538.946 36.836 538.854 37.232 538.854 37.688C538.854 38.144 538.946 38.544 539.13 38.888C539.322 39.224 539.57 39.48 539.874 39.656C540.186 39.832 540.514 39.92 540.858 39.92C541.21 39.92 541.538 39.832 541.842 39.656C542.154 39.472 542.402 39.208 542.586 38.864C542.778 38.52 542.874 38.12 542.874 37.664ZM545.163 37.664C545.163 37 545.299 36.412 545.571 35.9C545.851 35.388 546.227 34.992 546.699 34.712C547.179 34.424 547.707 34.28 548.283 34.28C548.803 34.28 549.255 34.384 549.639 34.592C550.031 34.792 550.343 35.044 550.575 35.348V34.388H551.955V41H550.575V40.016C550.343 40.328 550.027 40.588 549.627 40.796C549.227 41.004 548.771 41.108 548.259 41.108C547.691 41.108 547.171 40.964 546.699 40.676C546.227 40.38 545.851 39.972 545.571 39.452C545.299 38.924 545.163 38.328 545.163 37.664ZM550.575 37.688C550.575 37.232 550.479 36.836 550.287 36.5C550.103 36.164 549.859 35.908 549.555 35.732C549.251 35.556 548.923 35.468 548.571 35.468C548.219 35.468 547.891 35.556 547.587 35.732C547.283 35.9 547.035 36.152 546.843 36.488C546.659 36.816 546.567 37.208 546.567 37.664C546.567 38.12 546.659 38.52 546.843 38.864C547.035 39.208 547.283 39.472 547.587 39.656C547.899 39.832 548.227 39.92 548.571 39.92C548.923 39.92 549.251 39.832 549.555 39.656C549.859 39.48 550.103 39.224 550.287 38.888C550.479 38.544 550.575 38.144 550.575 37.688ZM553.296 37.688C553.296 37.008 553.432 36.412 553.704 35.9C553.984 35.38 554.368 34.98 554.856 34.7C555.344 34.42 555.904 34.28 556.536 34.28C557.336 34.28 557.996 34.472 558.516 34.856C559.044 35.232 559.4 35.772 559.584 36.476H558.108C557.988 36.148 557.796 35.892 557.532 35.708C557.268 35.524 556.936 35.432 556.536 35.432C555.976 35.432 555.528 35.632 555.192 36.032C554.864 36.424 554.7 36.976 554.7 37.688C554.7 38.4 554.864 38.956 555.192 39.356C555.528 39.756 555.976 39.956 556.536 39.956C557.328 39.956 557.852 39.608 558.108 38.912H559.584C559.392 39.584 559.032 40.12 558.504 40.52C557.976 40.912 557.32 41.108 556.536 41.108C555.904 41.108 555.344 40.968 554.856 40.688C554.368 40.4 553.984 40 553.704 39.488C553.432 38.968 553.296 38.368 553.296 37.688ZM562.543 35.504V39.164C562.543 39.412 562.599 39.592 562.711 39.704C562.831 39.808 563.031 39.86 563.311 39.86H564.151V41H563.071C562.455 41 561.983 40.856 561.655 40.568C561.327 40.28 561.163 39.812 561.163 39.164V35.504H560.383V34.388H561.163V32.744H562.543V34.388H564.151V35.504H562.543ZM570.125 35.504V39.164C570.125 39.412 570.181 39.592 570.293 39.704C570.413 39.808 570.613 39.86 570.893 39.86H571.733V41H570.653C570.037 41 569.565 40.856 569.237 40.568C568.909 40.28 568.745 39.812 568.745 39.164V35.504H567.965V34.388H568.745V32.744H570.125V34.388H571.733V35.504H570.125ZM575.862 41.108C575.238 41.108 574.674 40.968 574.17 40.688C573.666 40.4 573.27 40 572.982 39.488C572.694 38.968 572.55 38.368 572.55 37.688C572.55 37.016 572.698 36.42 572.994 35.9C573.29 35.38 573.694 34.98 574.206 34.7C574.718 34.42 575.29 34.28 575.922 34.28C576.554 34.28 577.126 34.42 577.638 34.7C578.15 34.98 578.554 35.38 578.85 35.9C579.146 36.42 579.294 37.016 579.294 37.688C579.294 38.36 579.142 38.956 578.838 39.476C578.534 39.996 578.118 40.4 577.59 40.688C577.07 40.968 576.494 41.108 575.862 41.108ZM575.862 39.92C576.214 39.92 576.542 39.836 576.846 39.668C577.158 39.5 577.41 39.248 577.602 38.912C577.794 38.576 577.89 38.168 577.89 37.688C577.89 37.208 577.798 36.804 577.614 36.476C577.43 36.14 577.186 35.888 576.882 35.72C576.578 35.552 576.25 35.468 575.898 35.468C575.546 35.468 575.218 35.552 574.914 35.72C574.618 35.888 574.382 36.14 574.206 36.476C574.03 36.804 573.942 37.208 573.942 37.688C573.942 38.4 574.122 38.952 574.482 39.344C574.85 39.728 575.31 39.92 575.862 39.92ZM580.19 37.664C580.19 37 580.326 36.412 580.598 35.9C580.878 35.388 581.254 34.992 581.726 34.712C582.206 34.424 582.738 34.28 583.322 34.28C583.754 34.28 584.178 34.376 584.594 34.568C585.018 34.752 585.354 35 585.602 35.312V32.12H586.982V41H585.602V40.004C585.378 40.324 585.066 40.588 584.666 40.796C584.274 41.004 583.822 41.108 583.31 41.108C582.734 41.108 582.206 40.964 581.726 40.676C581.254 40.38 580.878 39.972 580.598 39.452C580.326 38.924 580.19 38.328 580.19 37.664ZM585.602 37.688C585.602 37.232 585.506 36.836 585.314 36.5C585.13 36.164 584.886 35.908 584.582 35.732C584.278 35.556 583.95 35.468 583.598 35.468C583.246 35.468 582.918 35.556 582.614 35.732C582.31 35.9 582.062 36.152 581.87 36.488C581.686 36.816 581.594 37.208 581.594 37.664C581.594 38.12 581.686 38.52 581.87 38.864C582.062 39.208 582.31 39.472 582.614 39.656C582.926 39.832 583.254 39.92 583.598 39.92C583.95 39.92 584.278 39.832 584.582 39.656C584.886 39.48 585.13 39.224 585.314 38.888C585.506 38.544 585.602 38.144 585.602 37.688ZM588.323 37.664C588.323 37 588.459 36.412 588.731 35.9C589.011 35.388 589.387 34.992 589.859 34.712C590.339 34.424 590.867 34.28 591.443 34.28C591.963 34.28 592.415 34.384 592.799 34.592C593.191 34.792 593.503 35.044 593.735 35.348V34.388H595.115V41H593.735V40.016C593.503 40.328 593.187 40.588 592.787 40.796C592.387 41.004 591.931 41.108 591.419 41.108C590.851 41.108 590.331 40.964 589.859 40.676C589.387 40.38 589.011 39.972 588.731 39.452C588.459 38.924 588.323 38.328 588.323 37.664ZM593.735 37.688C593.735 37.232 593.639 36.836 593.447 36.5C593.263 36.164 593.019 35.908 592.715 35.732C592.411 35.556 592.083 35.468 591.731 35.468C591.379 35.468 591.051 35.556 590.747 35.732C590.443 35.9 590.195 36.152 590.003 36.488C589.819 36.816 589.727 37.208 589.727 37.664C589.727 38.12 589.819 38.52 590.003 38.864C590.195 39.208 590.443 39.472 590.747 39.656C591.059 39.832 591.387 39.92 591.731 39.92C592.083 39.92 592.411 39.832 592.715 39.656C593.019 39.48 593.263 39.224 593.447 38.888C593.639 38.544 593.735 38.144 593.735 37.688ZM602.864 34.388L598.808 44.108H597.392L598.736 40.892L596.132 34.388H597.656L599.516 39.428L601.448 34.388H602.864ZM605.612 32.66L605.456 38.48H604.316L604.16 32.66H605.612ZM604.928 41.084C604.68 41.084 604.472 41 604.304 40.832C604.136 40.664 604.052 40.456 604.052 40.208C604.052 39.96 604.136 39.752 604.304 39.584C604.472 39.416 604.68 39.332 604.928 39.332C605.168 39.332 605.372 39.416 605.54 39.584C605.708 39.752 605.792 39.96 605.792 40.208C605.792 40.456 605.708 40.664 605.54 40.832C605.372 41 605.168 41.084 604.928 41.084Z" fill="white" fill-opacity="0.7"/>
</svg>
