<svg width="403" height="394" viewBox="0 0 403 394" fill="none" xmlns="http://www.w3.org/2000/svg">
<rect x="0.5" y="0.5" width="402" height="393.005" rx="23.5" stroke="white"/>
<circle cx="47.5" cy="71.5" r="23" fill="white" stroke="#CBD0DC"/>
<path d="M43.1495 78.5352H41.3095C38.492 78.334 37.2271 76.1681 37.2271 74.2419C37.2271 72.3156 38.492 70.1402 41.2616 69.9486C41.6545 69.9102 41.9995 70.2169 42.0283 70.6194C42.057 71.0123 41.76 71.3573 41.3575 71.3861C39.4983 71.5202 38.6646 72.9194 38.6646 74.2515C38.6646 75.5835 39.4983 76.9827 41.3575 77.1169H43.1495C43.5425 77.1169 43.8683 77.4427 43.8683 77.8356C43.8683 78.2285 43.5425 78.5352 43.1495 78.5352Z" fill="#292D32"/>
<path d="M51.9751 78.5353C51.9559 78.5353 51.9464 78.5353 51.9272 78.5353C51.5343 78.5353 51.1701 78.2095 51.1701 77.8166C51.1701 77.4045 51.4768 77.0978 51.8793 77.0978C53.0581 77.0978 54.1122 76.6858 54.9364 75.9478C56.4314 74.6445 56.5272 72.7662 56.1247 71.4437C55.7222 70.1308 54.601 68.6262 52.646 68.3866C52.3297 68.3483 52.0805 68.1087 52.023 67.7924C51.6397 65.4924 50.4035 63.9016 48.5251 63.3266C46.5893 62.7228 44.3276 63.317 42.9189 64.7928C41.5484 66.2208 41.2322 68.2237 42.0276 70.4279C42.1618 70.8016 41.9702 71.2137 41.5964 71.3478C41.2227 71.482 40.8106 71.2903 40.6764 70.9166C39.7085 68.2141 40.1493 65.6266 41.8839 63.8058C43.6568 61.9466 46.5031 61.2087 48.9468 61.9562C51.1893 62.6462 52.7705 64.4958 53.3455 67.0641C55.3005 67.5049 56.8722 68.9904 57.4951 71.0412C58.1755 73.2741 57.5622 75.5741 55.8851 77.0308C54.8214 77.9891 53.4318 78.5353 51.9751 78.5353Z" fill="#292D32"/>
<path d="M47.5002 81.3529C45.5739 81.3529 43.7723 80.3274 42.7852 78.6695C42.6798 78.5066 42.5743 78.3149 42.4881 78.1041C42.1623 77.4237 41.9897 76.6474 41.9897 75.8424C41.9897 72.8045 44.4622 70.332 47.5002 70.332C50.5381 70.332 53.0106 72.8045 53.0106 75.8424C53.0106 76.657 52.8381 77.4237 52.4931 78.1329C52.4164 78.3149 52.311 78.5066 52.196 78.6887C51.2281 80.3274 49.4264 81.3529 47.5002 81.3529ZM47.5002 71.7695C45.2577 71.7695 43.4272 73.5999 43.4272 75.8424C43.4272 76.4366 43.5518 76.9924 43.7914 77.5004C43.8681 77.6633 43.9351 77.7974 44.0118 77.922C44.7401 79.1583 46.0722 79.9154 47.4906 79.9154C48.9089 79.9154 50.241 79.1583 50.9597 77.9412C51.046 77.7975 51.1227 77.6633 51.1802 77.5291C51.4389 77.002 51.5635 76.4462 51.5635 75.852C51.5731 73.5999 49.7427 71.7695 47.5002 71.7695Z" fill="#292D32"/>
<path d="M46.9537 77.5091C46.7716 77.5091 46.5896 77.442 46.4458 77.2983L45.497 76.3495C45.2191 76.0716 45.2191 75.6116 45.497 75.3337C45.7749 75.0558 46.2349 75.0558 46.5128 75.3337L46.9729 75.7937L48.5062 74.3754C48.8033 74.107 49.2537 74.1262 49.522 74.4137C49.7904 74.7012 49.7712 75.1612 49.4837 75.4296L47.4425 77.3175C47.2987 77.4421 47.1262 77.5091 46.9537 77.5091Z" fill="#292D32"/>
<path d="M89.008 55.88V62.968C89.008 63.8107 89.2267 64.4453 89.664 64.872C90.112 65.2987 90.7307 65.512 91.52 65.512C92.32 65.512 92.9387 65.2987 93.376 64.872C93.824 64.4453 94.048 63.8107 94.048 62.968V55.88H95.872V62.936C95.872 63.8427 95.6747 64.6107 95.28 65.24C94.8853 65.8693 94.3573 66.3387 93.696 66.648C93.0347 66.9573 92.304 67.112 91.504 67.112C90.704 67.112 89.9733 66.9573 89.312 66.648C88.6613 66.3387 88.144 65.8693 87.76 65.24C87.376 64.6107 87.184 63.8427 87.184 62.936V55.88H89.008ZM100.071 59.48C100.38 59.0747 100.802 58.7333 101.335 58.456C101.868 58.1787 102.471 58.04 103.143 58.04C103.911 58.04 104.61 58.232 105.239 58.616C105.879 58.9893 106.38 59.5173 106.743 60.2C107.106 60.8827 107.287 61.6667 107.287 62.552C107.287 63.4373 107.106 64.232 106.743 64.936C106.38 65.6293 105.879 66.1733 105.239 66.568C104.61 66.952 103.911 67.144 103.143 67.144C102.471 67.144 101.874 67.0107 101.351 66.744C100.828 66.4667 100.402 66.1253 100.071 65.72V71.192H98.2469V58.184H100.071V59.48ZM105.431 62.552C105.431 61.944 105.303 61.4213 105.047 60.984C104.802 60.536 104.471 60.2 104.055 59.976C103.65 59.7413 103.212 59.624 102.743 59.624C102.284 59.624 101.847 59.7413 101.431 59.976C101.026 60.2107 100.695 60.552 100.439 61C100.194 61.448 100.071 61.976 100.071 62.584C100.071 63.192 100.194 63.7253 100.439 64.184C100.695 64.632 101.026 64.9733 101.431 65.208C101.847 65.4427 102.284 65.56 102.743 65.56C103.212 65.56 103.65 65.4427 104.055 65.208C104.471 64.9627 104.802 64.6107 105.047 64.152C105.303 63.6933 105.431 63.16 105.431 62.552ZM110.915 55.16V67H109.091V55.16H110.915ZM117.133 67.144C116.301 67.144 115.549 66.9573 114.877 66.584C114.205 66.2 113.677 65.6667 113.293 64.984C112.909 64.2907 112.717 63.4907 112.717 62.584C112.717 61.688 112.915 60.8933 113.309 60.2C113.704 59.5067 114.243 58.9733 114.925 58.6C115.608 58.2267 116.371 58.04 117.213 58.04C118.056 58.04 118.819 58.2267 119.501 58.6C120.184 58.9733 120.723 59.5067 121.117 60.2C121.512 60.8933 121.709 61.688 121.709 62.584C121.709 63.48 121.507 64.2747 121.101 64.968C120.696 65.6613 120.141 66.2 119.437 66.584C118.744 66.9573 117.976 67.144 117.133 67.144ZM117.133 65.56C117.603 65.56 118.04 65.448 118.445 65.224C118.861 65 119.197 64.664 119.453 64.216C119.709 63.768 119.837 63.224 119.837 62.584C119.837 61.944 119.715 61.4053 119.469 60.968C119.224 60.52 118.899 60.184 118.493 59.96C118.088 59.736 117.651 59.624 117.181 59.624C116.712 59.624 116.275 59.736 115.869 59.96C115.475 60.184 115.16 60.52 114.925 60.968C114.691 61.4053 114.573 61.944 114.573 62.584C114.573 63.5333 114.813 64.2693 115.293 64.792C115.784 65.304 116.397 65.56 117.133 65.56ZM122.905 62.552C122.905 61.6667 123.086 60.8827 123.449 60.2C123.822 59.5173 124.323 58.9893 124.953 58.616C125.593 58.232 126.297 58.04 127.065 58.04C127.758 58.04 128.361 58.1787 128.873 58.456C129.395 58.7227 129.811 59.0587 130.121 59.464V58.184H131.961V67H130.121V65.688C129.811 66.104 129.39 66.4507 128.857 66.728C128.323 67.0053 127.715 67.144 127.033 67.144C126.275 67.144 125.582 66.952 124.953 66.568C124.323 66.1733 123.822 65.6293 123.449 64.936C123.086 64.232 122.905 63.4373 122.905 62.552ZM130.121 62.584C130.121 61.976 129.993 61.448 129.737 61C129.491 60.552 129.166 60.2107 128.761 59.976C128.355 59.7413 127.918 59.624 127.449 59.624C126.979 59.624 126.542 59.7413 126.137 59.976C125.731 60.2 125.401 60.536 125.145 60.984C124.899 61.4213 124.777 61.944 124.777 62.552C124.777 63.16 124.899 63.6933 125.145 64.152C125.401 64.6107 125.731 64.9627 126.137 65.208C126.553 65.4427 126.99 65.56 127.449 65.56C127.918 65.56 128.355 65.4427 128.761 65.208C129.166 64.9733 129.491 64.632 129.737 64.184C129.993 63.7253 130.121 63.192 130.121 62.584ZM133.748 62.552C133.748 61.6667 133.93 60.8827 134.292 60.2C134.666 59.5173 135.167 58.9893 135.796 58.616C136.436 58.232 137.146 58.04 137.924 58.04C138.5 58.04 139.066 58.168 139.62 58.424C140.186 58.6693 140.634 59 140.964 59.416V55.16H142.804V67H140.964V65.672C140.666 66.0987 140.25 66.4507 139.716 66.728C139.194 67.0053 138.591 67.144 137.908 67.144C137.14 67.144 136.436 66.952 135.796 66.568C135.167 66.1733 134.666 65.6293 134.292 64.936C133.93 64.232 133.748 63.4373 133.748 62.552ZM140.964 62.584C140.964 61.976 140.836 61.448 140.58 61C140.335 60.552 140.01 60.2107 139.604 59.976C139.199 59.7413 138.762 59.624 138.292 59.624C137.823 59.624 137.386 59.7413 136.98 59.976C136.575 60.2 136.244 60.536 135.988 60.984C135.743 61.4213 135.62 61.944 135.62 62.552C135.62 63.16 135.743 63.6933 135.988 64.152C136.244 64.6107 136.575 64.9627 136.98 65.208C137.396 65.4427 137.834 65.56 138.292 65.56C138.762 65.56 139.199 65.4427 139.604 65.208C140.01 64.9733 140.335 64.632 140.58 64.184C140.836 63.7253 140.964 63.192 140.964 62.584ZM155.9 55.88V57.368H151.18V60.648H154.86V62.136H151.18V67H149.356V55.88H155.9ZM159.415 55.16V67H157.591V55.16H159.415ZM169.745 58.184L164.337 71.144H162.449L164.241 66.856L160.769 58.184H162.801L165.281 64.904L167.857 58.184H169.745ZM179.202 62.376C179.202 62.7067 179.181 63.0053 179.138 63.272H172.402C172.455 63.976 172.717 64.5413 173.186 64.968C173.655 65.3947 174.231 65.608 174.914 65.608C175.895 65.608 176.589 65.1973 176.994 64.376H178.962C178.695 65.1867 178.21 65.8533 177.506 66.376C176.813 66.888 175.949 67.144 174.914 67.144C174.071 67.144 173.314 66.9573 172.642 66.584C171.981 66.2 171.458 65.6667 171.074 64.984C170.701 64.2907 170.514 63.4907 170.514 62.584C170.514 61.6773 170.695 60.8827 171.058 60.2C171.431 59.5067 171.949 58.9733 172.61 58.6C173.282 58.2267 174.05 58.04 174.914 58.04C175.746 58.04 176.487 58.2213 177.138 58.584C177.789 58.9467 178.295 59.4587 178.658 60.12C179.021 60.7707 179.202 61.5227 179.202 62.376ZM177.298 61.8C177.287 61.128 177.047 60.5893 176.578 60.184C176.109 59.7787 175.527 59.576 174.834 59.576C174.205 59.576 173.666 59.7787 173.218 60.184C172.77 60.5787 172.503 61.1173 172.418 61.8H177.298ZM182.821 59.464C183.088 59.016 183.44 58.6693 183.877 58.424C184.325 58.168 184.853 58.04 185.461 58.04V59.928H184.997C184.282 59.928 183.738 60.1093 183.365 60.472C183.002 60.8347 182.821 61.464 182.821 62.36V67H180.997V58.184H182.821V59.464Z" fill="white"/>
<path d="M89.648 89.084C89.088 89.084 88.584 88.988 88.136 88.796C87.688 88.596 87.336 88.316 87.08 87.956C86.824 87.596 86.696 87.176 86.696 86.696H88.16C88.192 87.056 88.332 87.352 88.58 87.584C88.836 87.816 89.192 87.932 89.648 87.932C90.12 87.932 90.488 87.82 90.752 87.596C91.016 87.364 91.148 87.068 91.148 86.708C91.148 86.428 91.064 86.2 90.896 86.024C90.736 85.848 90.532 85.712 90.284 85.616C90.044 85.52 89.708 85.416 89.276 85.304C88.732 85.16 88.288 85.016 87.944 84.872C87.608 84.72 87.32 84.488 87.08 84.176C86.84 83.864 86.72 83.448 86.72 82.928C86.72 82.448 86.84 82.028 87.08 81.668C87.32 81.308 87.656 81.032 88.088 80.84C88.52 80.648 89.02 80.552 89.588 80.552C90.396 80.552 91.056 80.756 91.568 81.164C92.088 81.564 92.376 82.116 92.432 82.82H90.92C90.896 82.516 90.752 82.256 90.488 82.04C90.224 81.824 89.876 81.716 89.444 81.716C89.052 81.716 88.732 81.816 88.484 82.016C88.236 82.216 88.112 82.504 88.112 82.88C88.112 83.136 88.188 83.348 88.34 83.516C88.5 83.676 88.7 83.804 88.94 83.9C89.18 83.996 89.508 84.1 89.924 84.212C90.476 84.364 90.924 84.516 91.268 84.668C91.62 84.82 91.916 85.056 92.156 85.376C92.404 85.688 92.528 86.108 92.528 86.636C92.528 87.06 92.412 87.46 92.18 87.836C91.956 88.212 91.624 88.516 91.184 88.748C90.752 88.972 90.24 89.084 89.648 89.084ZM100.202 85.532C100.202 85.78 100.186 86.004 100.154 86.204H95.1022C95.1422 86.732 95.3382 87.156 95.6902 87.476C96.0422 87.796 96.4742 87.956 96.9862 87.956C97.7222 87.956 98.2422 87.648 98.5462 87.032H100.022C99.8222 87.64 99.4582 88.14 98.9302 88.532C98.4102 88.916 97.7622 89.108 96.9862 89.108C96.3542 89.108 95.7862 88.968 95.2822 88.688C94.7862 88.4 94.3942 88 94.1062 87.488C93.8262 86.968 93.6862 86.368 93.6862 85.688C93.6862 85.008 93.8222 84.412 94.0942 83.9C94.3742 83.38 94.7622 82.98 95.2582 82.7C95.7622 82.42 96.3382 82.28 96.9862 82.28C97.6102 82.28 98.1662 82.416 98.6542 82.688C99.1422 82.96 99.5222 83.344 99.7942 83.84C100.066 84.328 100.202 84.892 100.202 85.532ZM98.7742 85.1C98.7662 84.596 98.5862 84.192 98.2342 83.888C97.8822 83.584 97.4462 83.432 96.9262 83.432C96.4542 83.432 96.0502 83.584 95.7142 83.888C95.3782 84.184 95.1782 84.588 95.1142 85.1H98.7742ZM102.916 80.12V89H101.548V80.12H102.916ZM110.773 85.532C110.773 85.78 110.757 86.004 110.725 86.204H105.673C105.713 86.732 105.909 87.156 106.261 87.476C106.613 87.796 107.045 87.956 107.557 87.956C108.293 87.956 108.813 87.648 109.117 87.032H110.592C110.393 87.64 110.029 88.14 109.501 88.532C108.981 88.916 108.333 89.108 107.557 89.108C106.925 89.108 106.357 88.968 105.853 88.688C105.357 88.4 104.965 88 104.677 87.488C104.397 86.968 104.257 86.368 104.257 85.688C104.257 85.008 104.393 84.412 104.665 83.9C104.945 83.38 105.333 82.98 105.829 82.7C106.333 82.42 106.909 82.28 107.557 82.28C108.181 82.28 108.737 82.416 109.225 82.688C109.713 82.96 110.093 83.344 110.365 83.84C110.637 84.328 110.773 84.892 110.773 85.532ZM109.345 85.1C109.337 84.596 109.157 84.192 108.805 83.888C108.453 83.584 108.017 83.432 107.497 83.432C107.025 83.432 106.621 83.584 106.285 83.888C105.949 84.184 105.749 84.588 105.685 85.1H109.345ZM111.663 85.688C111.663 85.008 111.799 84.412 112.071 83.9C112.351 83.38 112.735 82.98 113.223 82.7C113.711 82.42 114.271 82.28 114.903 82.28C115.703 82.28 116.363 82.472 116.883 82.856C117.411 83.232 117.767 83.772 117.951 84.476H116.475C116.355 84.148 116.163 83.892 115.899 83.708C115.635 83.524 115.303 83.432 114.903 83.432C114.343 83.432 113.895 83.632 113.559 84.032C113.231 84.424 113.067 84.976 113.067 85.688C113.067 86.4 113.231 86.956 113.559 87.356C113.895 87.756 114.343 87.956 114.903 87.956C115.695 87.956 116.219 87.608 116.475 86.912H117.951C117.759 87.584 117.399 88.12 116.871 88.52C116.343 88.912 115.687 89.108 114.903 89.108C114.271 89.108 113.711 88.968 113.223 88.688C112.735 88.4 112.351 88 112.071 87.488C111.799 86.968 111.663 86.368 111.663 85.688ZM120.91 83.504V87.164C120.91 87.412 120.966 87.592 121.078 87.704C121.198 87.808 121.398 87.86 121.678 87.86H122.518V89H121.438C120.822 89 120.35 88.856 120.022 88.568C119.694 88.28 119.53 87.812 119.53 87.164V83.504H118.75V82.388H119.53V80.744H120.91V82.388H122.518V83.504H120.91ZM126.44 85.664C126.44 85 126.576 84.412 126.848 83.9C127.128 83.388 127.504 82.992 127.976 82.712C128.456 82.424 128.984 82.28 129.56 82.28C130.08 82.28 130.532 82.384 130.916 82.592C131.308 82.792 131.62 83.044 131.852 83.348V82.388H133.232V89H131.852V88.016C131.62 88.328 131.304 88.588 130.904 88.796C130.504 89.004 130.048 89.108 129.536 89.108C128.968 89.108 128.448 88.964 127.976 88.676C127.504 88.38 127.128 87.972 126.848 87.452C126.576 86.924 126.44 86.328 126.44 85.664ZM131.852 85.688C131.852 85.232 131.756 84.836 131.564 84.5C131.38 84.164 131.136 83.908 130.832 83.732C130.528 83.556 130.2 83.468 129.848 83.468C129.496 83.468 129.168 83.556 128.864 83.732C128.56 83.9 128.312 84.152 128.12 84.488C127.936 84.816 127.844 85.208 127.844 85.664C127.844 86.12 127.936 86.52 128.12 86.864C128.312 87.208 128.56 87.472 128.864 87.656C129.176 87.832 129.504 87.92 129.848 87.92C130.2 87.92 130.528 87.832 130.832 87.656C131.136 87.48 131.38 87.224 131.564 86.888C131.756 86.544 131.852 86.144 131.852 85.688ZM138.365 82.28C138.885 82.28 139.349 82.388 139.757 82.604C140.173 82.82 140.497 83.14 140.729 83.564C140.961 83.988 141.077 84.5 141.077 85.1V89H139.721V85.304C139.721 84.712 139.573 84.26 139.277 83.948C138.981 83.628 138.577 83.468 138.065 83.468C137.553 83.468 137.145 83.628 136.841 83.948C136.545 84.26 136.397 84.712 136.397 85.304V89H135.029V82.388H136.397V83.144C136.621 82.872 136.905 82.66 137.249 82.508C137.601 82.356 137.973 82.28 138.365 82.28ZM142.366 85.664C142.366 85 142.502 84.412 142.774 83.9C143.054 83.388 143.43 82.992 143.902 82.712C144.382 82.424 144.914 82.28 145.498 82.28C145.93 82.28 146.354 82.376 146.77 82.568C147.194 82.752 147.53 83 147.778 83.312V80.12H149.158V89H147.778V88.004C147.554 88.324 147.242 88.588 146.842 88.796C146.45 89.004 145.998 89.108 145.486 89.108C144.91 89.108 144.382 88.964 143.902 88.676C143.43 88.38 143.054 87.972 142.774 87.452C142.502 86.924 142.366 86.328 142.366 85.664ZM147.778 85.688C147.778 85.232 147.682 84.836 147.49 84.5C147.306 84.164 147.062 83.908 146.758 83.732C146.454 83.556 146.126 83.468 145.774 83.468C145.422 83.468 145.094 83.556 144.79 83.732C144.486 83.9 144.238 84.152 144.046 84.488C143.862 84.816 143.77 85.208 143.77 85.664C143.77 86.12 143.862 86.52 144.046 86.864C144.238 87.208 144.486 87.472 144.79 87.656C145.102 87.832 145.43 87.92 145.774 87.92C146.126 87.92 146.454 87.832 146.758 87.656C147.062 87.48 147.306 87.224 147.49 86.888C147.682 86.544 147.778 86.144 147.778 85.688ZM160.06 82.388V89H158.692V88.22C158.476 88.492 158.192 88.708 157.84 88.868C157.496 89.02 157.128 89.096 156.736 89.096C156.216 89.096 155.748 88.988 155.332 88.772C154.924 88.556 154.6 88.236 154.36 87.812C154.128 87.388 154.012 86.876 154.012 86.276V82.388H155.368V86.072C155.368 86.664 155.516 87.12 155.812 87.44C156.108 87.752 156.512 87.908 157.024 87.908C157.536 87.908 157.94 87.752 158.236 87.44C158.54 87.12 158.692 86.664 158.692 86.072V82.388H160.06ZM163.233 83.36C163.465 83.056 163.781 82.8 164.181 82.592C164.581 82.384 165.033 82.28 165.537 82.28C166.113 82.28 166.637 82.424 167.109 82.712C167.589 82.992 167.965 83.388 168.237 83.9C168.509 84.412 168.645 85 168.645 85.664C168.645 86.328 168.509 86.924 168.237 87.452C167.965 87.972 167.589 88.38 167.109 88.676C166.637 88.964 166.113 89.108 165.537 89.108C165.033 89.108 164.585 89.008 164.193 88.808C163.801 88.6 163.481 88.344 163.233 88.04V92.144H161.865V82.388H163.233V83.36ZM167.253 85.664C167.253 85.208 167.157 84.816 166.965 84.488C166.781 84.152 166.533 83.9 166.221 83.732C165.917 83.556 165.589 83.468 165.237 83.468C164.893 83.468 164.565 83.556 164.253 83.732C163.949 83.908 163.701 84.164 163.509 84.5C163.325 84.836 163.233 85.232 163.233 85.688C163.233 86.144 163.325 86.544 163.509 86.888C163.701 87.224 163.949 87.48 164.253 87.656C164.565 87.832 164.893 87.92 165.237 87.92C165.589 87.92 165.917 87.832 166.221 87.656C166.533 87.472 166.781 87.208 166.965 86.864C167.157 86.52 167.253 86.12 167.253 85.664ZM171.366 80.12V89H169.998V80.12H171.366ZM176.03 89.108C175.406 89.108 174.842 88.968 174.338 88.688C173.834 88.4 173.438 88 173.15 87.488C172.862 86.968 172.718 86.368 172.718 85.688C172.718 85.016 172.866 84.42 173.162 83.9C173.458 83.38 173.862 82.98 174.374 82.7C174.886 82.42 175.458 82.28 176.09 82.28C176.722 82.28 177.294 82.42 177.806 82.7C178.318 82.98 178.722 83.38 179.018 83.9C179.314 84.42 179.462 85.016 179.462 85.688C179.462 86.36 179.31 86.956 179.006 87.476C178.702 87.996 178.286 88.4 177.758 88.688C177.238 88.968 176.662 89.108 176.03 89.108ZM176.03 87.92C176.382 87.92 176.71 87.836 177.014 87.668C177.326 87.5 177.578 87.248 177.77 86.912C177.962 86.576 178.058 86.168 178.058 85.688C178.058 85.208 177.966 84.804 177.782 84.476C177.598 84.14 177.354 83.888 177.05 83.72C176.746 83.552 176.418 83.468 176.066 83.468C175.714 83.468 175.386 83.552 175.082 83.72C174.786 83.888 174.55 84.14 174.374 84.476C174.198 84.804 174.11 85.208 174.11 85.688C174.11 86.4 174.29 86.952 174.65 87.344C175.018 87.728 175.478 87.92 176.03 87.92ZM180.358 85.664C180.358 85 180.494 84.412 180.766 83.9C181.046 83.388 181.422 82.992 181.894 82.712C182.374 82.424 182.902 82.28 183.478 82.28C183.998 82.28 184.45 82.384 184.834 82.592C185.226 82.792 185.538 83.044 185.77 83.348V82.388H187.15V89H185.77V88.016C185.538 88.328 185.222 88.588 184.822 88.796C184.422 89.004 183.966 89.108 183.454 89.108C182.886 89.108 182.366 88.964 181.894 88.676C181.422 88.38 181.046 87.972 180.766 87.452C180.494 86.924 180.358 86.328 180.358 85.664ZM185.77 85.688C185.77 85.232 185.674 84.836 185.482 84.5C185.298 84.164 185.054 83.908 184.75 83.732C184.446 83.556 184.118 83.468 183.766 83.468C183.414 83.468 183.086 83.556 182.782 83.732C182.478 83.9 182.23 84.152 182.038 84.488C181.854 84.816 181.762 85.208 181.762 85.664C181.762 86.12 181.854 86.52 182.038 86.864C182.23 87.208 182.478 87.472 182.782 87.656C183.094 87.832 183.422 87.92 183.766 87.92C184.118 87.92 184.446 87.832 184.75 87.656C185.054 87.48 185.298 87.224 185.482 86.888C185.674 86.544 185.77 86.144 185.77 85.688ZM188.491 85.664C188.491 85 188.627 84.412 188.899 83.9C189.179 83.388 189.555 82.992 190.027 82.712C190.507 82.424 191.039 82.28 191.623 82.28C192.055 82.28 192.479 82.376 192.895 82.568C193.319 82.752 193.655 83 193.903 83.312V80.12H195.283V89H193.903V88.004C193.679 88.324 193.367 88.588 192.967 88.796C192.575 89.004 192.123 89.108 191.611 89.108C191.035 89.108 190.507 88.964 190.027 88.676C189.555 88.38 189.179 87.972 188.899 87.452C188.627 86.924 188.491 86.328 188.491 85.664ZM193.903 85.688C193.903 85.232 193.807 84.836 193.615 84.5C193.431 84.164 193.187 83.908 192.883 83.732C192.579 83.556 192.251 83.468 191.899 83.468C191.547 83.468 191.219 83.556 190.915 83.732C190.611 83.9 190.363 84.152 190.171 84.488C189.987 84.816 189.895 85.208 189.895 85.664C189.895 86.12 189.987 86.52 190.171 86.864C190.363 87.208 190.611 87.472 190.915 87.656C191.227 87.832 191.555 87.92 191.899 87.92C192.251 87.92 192.579 87.832 192.883 87.656C193.187 87.48 193.431 87.224 193.615 86.888C193.807 86.544 193.903 86.144 193.903 85.688ZM201.793 83.504V87.164C201.793 87.412 201.849 87.592 201.961 87.704C202.081 87.808 202.281 87.86 202.561 87.86H203.401V89H202.321C201.705 89 201.233 88.856 200.905 88.568C200.577 88.28 200.413 87.812 200.413 87.164V83.504H199.633V82.388H200.413V80.744H201.793V82.388H203.401V83.504H201.793ZM208.082 82.28C208.586 82.28 209.034 82.388 209.426 82.604C209.826 82.82 210.138 83.14 210.362 83.564C210.594 83.988 210.71 84.5 210.71 85.1V89H209.354V85.304C209.354 84.712 209.206 84.26 208.91 83.948C208.614 83.628 208.21 83.468 207.698 83.468C207.186 83.468 206.778 83.628 206.474 83.948C206.178 84.26 206.03 84.712 206.03 85.304V89H204.662V80.12H206.03V83.156C206.262 82.876 206.554 82.66 206.906 82.508C207.266 82.356 207.658 82.28 208.082 82.28ZM218.515 85.532C218.515 85.78 218.499 86.004 218.467 86.204H213.415C213.455 86.732 213.651 87.156 214.003 87.476C214.355 87.796 214.787 87.956 215.299 87.956C216.035 87.956 216.555 87.648 216.859 87.032H218.335C218.135 87.64 217.771 88.14 217.243 88.532C216.723 88.916 216.075 89.108 215.299 89.108C214.667 89.108 214.099 88.968 213.595 88.688C213.099 88.4 212.707 88 212.419 87.488C212.139 86.968 211.999 86.368 211.999 85.688C211.999 85.008 212.135 84.412 212.407 83.9C212.687 83.38 213.075 82.98 213.571 82.7C214.075 82.42 214.651 82.28 215.299 82.28C215.923 82.28 216.479 82.416 216.967 82.688C217.455 82.96 217.835 83.344 218.107 83.84C218.379 84.328 218.515 84.892 218.515 85.532ZM217.087 85.1C217.079 84.596 216.899 84.192 216.547 83.888C216.195 83.584 215.759 83.432 215.239 83.432C214.767 83.432 214.363 83.584 214.027 83.888C213.691 84.184 213.491 84.588 213.427 85.1H217.087ZM225.75 83.504H224.526V89H223.146V83.504H222.366V82.388H223.146V81.92C223.146 81.16 223.346 80.608 223.746 80.264C224.154 79.912 224.79 79.736 225.654 79.736V80.876C225.238 80.876 224.946 80.956 224.778 81.116C224.61 81.268 224.526 81.536 224.526 81.92V82.388H225.75V83.504ZM228.331 80.12V89H226.963V80.12H228.331ZM236.079 82.388L232.023 92.108H230.607L231.951 88.892L229.347 82.388H230.871L232.731 87.428L234.663 82.388H236.079ZM243.171 85.532C243.171 85.78 243.155 86.004 243.123 86.204H238.071C238.111 86.732 238.307 87.156 238.659 87.476C239.011 87.796 239.443 87.956 239.955 87.956C240.691 87.956 241.211 87.648 241.515 87.032H242.991C242.791 87.64 242.427 88.14 241.899 88.532C241.379 88.916 240.731 89.108 239.955 89.108C239.323 89.108 238.755 88.968 238.251 88.688C237.755 88.4 237.363 88 237.075 87.488C236.795 86.968 236.655 86.368 236.655 85.688C236.655 85.008 236.791 84.412 237.063 83.9C237.343 83.38 237.731 82.98 238.227 82.7C238.731 82.42 239.307 82.28 239.955 82.28C240.579 82.28 241.135 82.416 241.623 82.688C242.111 82.96 242.491 83.344 242.763 83.84C243.035 84.328 243.171 84.892 243.171 85.532ZM241.743 85.1C241.735 84.596 241.555 84.192 241.203 83.888C240.851 83.584 240.415 83.432 239.895 83.432C239.423 83.432 239.019 83.584 238.683 83.888C238.347 84.184 238.147 84.588 238.083 85.1H241.743ZM245.885 83.348C246.085 83.012 246.349 82.752 246.677 82.568C247.013 82.376 247.409 82.28 247.865 82.28V83.696H247.517C246.981 83.696 246.573 83.832 246.293 84.104C246.021 84.376 245.885 84.848 245.885 85.52V89H244.517V82.388H245.885V83.348ZM255.012 83.504H253.788V89H252.408V83.504H251.628V82.388H252.408V81.92C252.408 81.16 252.608 80.608 253.008 80.264C253.416 79.912 254.052 79.736 254.916 79.736V80.876C254.5 80.876 254.208 80.956 254.04 81.116C253.872 81.268 253.788 81.536 253.788 81.92V82.388H255.012V83.504ZM259.092 89.108C258.468 89.108 257.904 88.968 257.4 88.688C256.896 88.4 256.5 88 256.212 87.488C255.924 86.968 255.78 86.368 255.78 85.688C255.78 85.016 255.928 84.42 256.224 83.9C256.52 83.38 256.924 82.98 257.436 82.7C257.948 82.42 258.52 82.28 259.152 82.28C259.784 82.28 260.356 82.42 260.868 82.7C261.38 82.98 261.784 83.38 262.08 83.9C262.376 84.42 262.524 85.016 262.524 85.688C262.524 86.36 262.372 86.956 262.068 87.476C261.764 87.996 261.348 88.4 260.82 88.688C260.3 88.968 259.724 89.108 259.092 89.108ZM259.092 87.92C259.444 87.92 259.772 87.836 260.076 87.668C260.388 87.5 260.64 87.248 260.832 86.912C261.024 86.576 261.12 86.168 261.12 85.688C261.12 85.208 261.028 84.804 260.844 84.476C260.66 84.14 260.416 83.888 260.112 83.72C259.808 83.552 259.48 83.468 259.128 83.468C258.776 83.468 258.448 83.552 258.144 83.72C257.848 83.888 257.612 84.14 257.436 84.476C257.26 84.804 257.172 85.208 257.172 85.688C257.172 86.4 257.352 86.952 257.712 87.344C258.08 87.728 258.54 87.92 259.092 87.92ZM265.245 83.348C265.445 83.012 265.709 82.752 266.037 82.568C266.373 82.376 266.769 82.28 267.225 82.28V83.696H266.877C266.341 83.696 265.933 83.832 265.653 84.104C265.381 84.376 265.245 84.848 265.245 85.52V89H263.877V82.388H265.245V83.348ZM273.195 83.504V87.164C273.195 87.412 273.251 87.592 273.363 87.704C273.483 87.808 273.683 87.86 273.963 87.86H274.803V89H273.723C273.107 89 272.635 88.856 272.307 88.568C271.979 88.28 271.815 87.812 271.815 87.164V83.504H271.035V82.388H271.815V80.744H273.195V82.388H274.803V83.504H273.195ZM279.484 82.28C279.988 82.28 280.436 82.388 280.828 82.604C281.228 82.82 281.54 83.14 281.764 83.564C281.996 83.988 282.112 84.5 282.112 85.1V89H280.756V85.304C280.756 84.712 280.608 84.26 280.312 83.948C280.016 83.628 279.612 83.468 279.1 83.468C278.588 83.468 278.18 83.628 277.876 83.948C277.58 84.26 277.432 84.712 277.432 85.304V89H276.064V80.12H277.432V83.156C277.664 82.876 277.956 82.66 278.308 82.508C278.668 82.356 279.06 82.28 279.484 82.28ZM289.917 85.532C289.917 85.78 289.901 86.004 289.869 86.204H284.817C284.857 86.732 285.053 87.156 285.405 87.476C285.757 87.796 286.189 87.956 286.701 87.956C287.437 87.956 287.957 87.648 288.261 87.032H289.737C289.537 87.64 289.173 88.14 288.645 88.532C288.125 88.916 287.477 89.108 286.701 89.108C286.069 89.108 285.501 88.968 284.997 88.688C284.501 88.4 284.109 88 283.821 87.488C283.541 86.968 283.401 86.368 283.401 85.688C283.401 85.008 283.537 84.412 283.809 83.9C284.089 83.38 284.477 82.98 284.973 82.7C285.477 82.42 286.053 82.28 286.701 82.28C287.325 82.28 287.881 82.416 288.369 82.688C288.857 82.96 289.237 83.344 289.509 83.84C289.781 84.328 289.917 84.892 289.917 85.532ZM288.489 85.1C288.481 84.596 288.301 84.192 287.949 83.888C287.597 83.584 287.161 83.432 286.641 83.432C286.169 83.432 285.765 83.584 285.429 83.888C285.093 84.184 284.893 84.588 284.829 85.1H288.489ZM300.44 85.532C300.44 85.78 300.424 86.004 300.392 86.204H295.34C295.38 86.732 295.576 87.156 295.928 87.476C296.28 87.796 296.712 87.956 297.224 87.956C297.96 87.956 298.48 87.648 298.784 87.032H300.26C300.06 87.64 299.696 88.14 299.168 88.532C298.648 88.916 298 89.108 297.224 89.108C296.592 89.108 296.024 88.968 295.52 88.688C295.024 88.4 294.632 88 294.344 87.488C294.064 86.968 293.924 86.368 293.924 85.688C293.924 85.008 294.06 84.412 294.332 83.9C294.612 83.38 295 82.98 295.496 82.7C296 82.42 296.576 82.28 297.224 82.28C297.848 82.28 298.404 82.416 298.892 82.688C299.38 82.96 299.76 83.344 300.032 83.84C300.304 84.328 300.44 84.892 300.44 85.532ZM299.012 85.1C299.004 84.596 298.824 84.192 298.472 83.888C298.12 83.584 297.684 83.432 297.164 83.432C296.692 83.432 296.288 83.584 295.952 83.888C295.616 84.184 295.416 84.588 295.352 85.1H299.012ZM304.343 87.776L306.215 82.388H307.667L305.147 89H303.515L301.007 82.388H302.471L304.343 87.776ZM314.761 85.532C314.761 85.78 314.745 86.004 314.713 86.204H309.661C309.701 86.732 309.897 87.156 310.249 87.476C310.601 87.796 311.033 87.956 311.545 87.956C312.281 87.956 312.801 87.648 313.105 87.032H314.581C314.381 87.64 314.017 88.14 313.489 88.532C312.969 88.916 312.321 89.108 311.545 89.108C310.913 89.108 310.345 88.968 309.841 88.688C309.345 88.4 308.953 88 308.665 87.488C308.385 86.968 308.245 86.368 308.245 85.688C308.245 85.008 308.381 84.412 308.653 83.9C308.933 83.38 309.321 82.98 309.817 82.7C310.321 82.42 310.897 82.28 311.545 82.28C312.169 82.28 312.725 82.416 313.213 82.688C313.701 82.96 314.081 83.344 314.353 83.84C314.625 84.328 314.761 84.892 314.761 85.532ZM313.333 85.1C313.325 84.596 313.145 84.192 312.793 83.888C312.441 83.584 312.005 83.432 311.485 83.432C311.013 83.432 310.609 83.584 310.273 83.888C309.937 84.184 309.737 84.588 309.673 85.1H313.333ZM319.443 82.28C319.963 82.28 320.427 82.388 320.835 82.604C321.251 82.82 321.575 83.14 321.807 83.564C322.039 83.988 322.155 84.5 322.155 85.1V89H320.799V85.304C320.799 84.712 320.651 84.26 320.355 83.948C320.059 83.628 319.655 83.468 319.143 83.468C318.631 83.468 318.223 83.628 317.919 83.948C317.623 84.26 317.475 84.712 317.475 85.304V89H316.107V82.388H317.475V83.144C317.699 82.872 317.983 82.66 318.327 82.508C318.679 82.356 319.051 82.28 319.443 82.28ZM325.496 83.504V87.164C325.496 87.412 325.552 87.592 325.664 87.704C325.784 87.808 325.984 87.86 326.264 87.86H327.104V89H326.024C325.408 89 324.936 88.856 324.608 88.568C324.28 88.28 324.116 87.812 324.116 87.164V83.504H323.336V82.388H324.116V80.744H325.496V82.388H327.104V83.504H325.496ZM328.917 89.084C328.669 89.084 328.461 89 328.293 88.832C328.125 88.664 328.041 88.456 328.041 88.208C328.041 87.96 328.125 87.752 328.293 87.584C328.461 87.416 328.669 87.332 328.917 87.332C329.157 87.332 329.361 87.416 329.529 87.584C329.697 87.752 329.781 87.96 329.781 88.208C329.781 88.456 329.697 88.664 329.529 88.832C329.361 89 329.157 89.084 328.917 89.084Z" fill="white" fill-opacity="0.7"/>
<path d="M24 111L379 111" stroke="white" stroke-opacity="0.2"/>
<rect x="25" y="160" width="353" height="185.005" rx="12" stroke="#CBD0DC" stroke-width="2" stroke-dasharray="6 6"/>
<path d="M197.15 204.254H195.31C192.493 204.053 191.228 201.887 191.228 199.961C191.228 198.034 192.493 195.859 195.262 195.667C195.655 195.629 196 195.936 196.029 196.338C196.058 196.731 195.761 197.076 195.358 197.105C193.499 197.239 192.665 198.638 192.665 199.97C192.665 201.302 193.499 202.701 195.358 202.836H197.15C197.543 202.836 197.869 203.161 197.869 203.554C197.869 203.947 197.543 204.254 197.15 204.254Z" fill="white"/>
<path d="M205.976 204.254C205.957 204.254 205.948 204.254 205.928 204.254C205.535 204.254 205.171 203.928 205.171 203.535C205.171 203.123 205.478 202.817 205.88 202.817C207.059 202.817 208.113 202.405 208.938 201.667C210.433 200.363 210.528 198.485 210.126 197.162C209.723 195.85 208.602 194.345 206.647 194.105C206.331 194.067 206.082 193.827 206.024 193.511C205.641 191.211 204.405 189.62 202.526 189.045C200.59 188.442 198.329 189.036 196.92 190.512C195.55 191.94 195.233 193.942 196.029 196.147C196.163 196.52 195.971 196.932 195.598 197.067C195.224 197.201 194.812 197.009 194.678 196.635C193.71 193.933 194.15 191.345 195.885 189.525C197.658 187.665 200.504 186.927 202.948 187.675C205.19 188.365 206.772 190.215 207.347 192.783C209.302 193.224 210.873 194.709 211.496 196.76C212.177 198.993 211.563 201.293 209.886 202.75C208.823 203.708 207.433 204.254 205.976 204.254Z" fill="white"/>
<path d="M201.501 207.072C199.575 207.072 197.773 206.046 196.786 204.388C196.68 204.225 196.575 204.034 196.489 203.823C196.163 203.142 195.99 202.366 195.99 201.561C195.99 198.523 198.463 196.051 201.501 196.051C204.539 196.051 207.011 198.523 207.011 201.561C207.011 202.376 206.839 203.142 206.494 203.852C206.417 204.034 206.312 204.225 206.197 204.407C205.229 206.046 203.427 207.072 201.501 207.072ZM201.501 197.488C199.258 197.488 197.428 199.319 197.428 201.561C197.428 202.155 197.552 202.711 197.792 203.219C197.869 203.382 197.936 203.516 198.012 203.641C198.741 204.877 200.073 205.634 201.491 205.634C202.91 205.634 204.242 204.877 204.96 203.66C205.047 203.516 205.123 203.382 205.181 203.248C205.44 202.721 205.564 202.165 205.564 201.571C205.574 199.319 203.743 197.488 201.501 197.488Z" fill="white"/>
<path d="M200.955 203.23C200.772 203.23 200.59 203.163 200.447 203.019L199.498 202.07C199.22 201.792 199.22 201.332 199.498 201.054C199.776 200.776 200.236 200.776 200.514 201.054L200.974 201.514L202.507 200.096C202.804 199.828 203.255 199.847 203.523 200.134C203.791 200.422 203.772 200.882 203.485 201.15L201.443 203.038C201.3 203.163 201.127 203.23 200.955 203.23Z" fill="white"/>
<path d="M79.0882 234.835C79.0882 233.883 79.3076 233.029 79.7462 232.273C80.1942 231.517 80.7962 230.929 81.5522 230.509C82.3176 230.079 83.1529 229.865 84.0582 229.865C85.0942 229.865 86.0136 230.121 86.8162 230.635C87.6282 231.139 88.2162 231.857 88.5802 232.791H86.6622C86.4102 232.277 86.0602 231.895 85.6122 231.643C85.1642 231.391 84.6462 231.265 84.0582 231.265C83.4142 231.265 82.8402 231.409 82.3362 231.699C81.8322 231.988 81.4356 232.403 81.1462 232.945C80.8662 233.486 80.7262 234.116 80.7262 234.835C80.7262 235.553 80.8662 236.183 81.1462 236.725C81.4356 237.266 81.8322 237.686 82.3362 237.985C82.8402 238.274 83.4142 238.419 84.0582 238.419C84.6462 238.419 85.1642 238.293 85.6122 238.041C86.0602 237.789 86.4102 237.406 86.6622 236.893H88.5802C88.2162 237.826 87.6282 238.545 86.8162 239.049C86.0136 239.553 85.0942 239.805 84.0582 239.805C83.1436 239.805 82.3082 239.595 81.5522 239.175C80.7962 238.745 80.1942 238.153 79.7462 237.397C79.3076 236.641 79.0882 235.787 79.0882 234.835ZM94.4383 231.881C95.0263 231.881 95.549 232.007 96.0063 232.259C96.473 232.511 96.837 232.884 97.0983 233.379C97.369 233.873 97.5043 234.471 97.5043 235.171V239.721H95.9223V235.409C95.9223 234.718 95.7497 234.191 95.4043 233.827C95.059 233.453 94.5877 233.267 93.9903 233.267C93.393 233.267 92.917 233.453 92.5623 233.827C92.217 234.191 92.0443 234.718 92.0443 235.409V239.721H90.4483V229.361H92.0443V232.903C92.315 232.576 92.6557 232.324 93.0663 232.147C93.4863 231.969 93.9437 231.881 94.4383 231.881ZM102.886 239.847C102.158 239.847 101.5 239.683 100.912 239.357C100.324 239.021 99.8621 238.554 99.5261 237.957C99.1901 237.35 99.0221 236.65 99.0221 235.857C99.0221 235.073 99.1948 234.377 99.5401 233.771C99.8855 233.164 100.357 232.697 100.954 232.371C101.551 232.044 102.219 231.881 102.956 231.881C103.693 231.881 104.361 232.044 104.958 232.371C105.555 232.697 106.027 233.164 106.372 233.771C106.717 234.377 106.89 235.073 106.89 235.857C106.89 236.641 106.713 237.336 106.358 237.943C106.003 238.549 105.518 239.021 104.902 239.357C104.295 239.683 103.623 239.847 102.886 239.847ZM102.886 238.461C103.297 238.461 103.679 238.363 104.034 238.167C104.398 237.971 104.692 237.677 104.916 237.285C105.14 236.893 105.252 236.417 105.252 235.857C105.252 235.297 105.145 234.825 104.93 234.443C104.715 234.051 104.431 233.757 104.076 233.561C103.721 233.365 103.339 233.267 102.928 233.267C102.517 233.267 102.135 233.365 101.78 233.561C101.435 233.757 101.159 234.051 100.954 234.443C100.749 234.825 100.646 235.297 100.646 235.857C100.646 236.687 100.856 237.331 101.276 237.789C101.705 238.237 102.242 238.461 102.886 238.461ZM111.814 239.847C111.086 239.847 110.428 239.683 109.84 239.357C109.252 239.021 108.79 238.554 108.454 237.957C108.118 237.35 107.95 236.65 107.95 235.857C107.95 235.073 108.123 234.377 108.468 233.771C108.813 233.164 109.285 232.697 109.882 232.371C110.479 232.044 111.147 231.881 111.884 231.881C112.621 231.881 113.289 232.044 113.886 232.371C114.483 232.697 114.955 233.164 115.3 233.771C115.645 234.377 115.818 235.073 115.818 235.857C115.818 236.641 115.641 237.336 115.286 237.943C114.931 238.549 114.446 239.021 113.83 239.357C113.223 239.683 112.551 239.847 111.814 239.847ZM111.814 238.461C112.225 238.461 112.607 238.363 112.962 238.167C113.326 237.971 113.62 237.677 113.844 237.285C114.068 236.893 114.18 236.417 114.18 235.857C114.18 235.297 114.073 234.825 113.858 234.443C113.643 234.051 113.359 233.757 113.004 233.561C112.649 233.365 112.267 233.267 111.856 233.267C111.445 233.267 111.063 233.365 110.708 233.561C110.363 233.757 110.087 234.051 109.882 234.443C109.677 234.825 109.574 235.297 109.574 235.857C109.574 236.687 109.784 237.331 110.204 237.789C110.633 238.237 111.17 238.461 111.814 238.461ZM120.196 239.847C119.589 239.847 119.043 239.739 118.558 239.525C118.082 239.301 117.704 239.002 117.424 238.629C117.144 238.246 116.994 237.821 116.976 237.355H118.628C118.656 237.681 118.81 237.957 119.09 238.181C119.379 238.395 119.738 238.503 120.168 238.503C120.616 238.503 120.961 238.419 121.204 238.251C121.456 238.073 121.582 237.849 121.582 237.579C121.582 237.289 121.442 237.075 121.162 236.935C120.891 236.795 120.457 236.641 119.86 236.473C119.281 236.314 118.81 236.16 118.446 236.011C118.082 235.861 117.764 235.633 117.494 235.325C117.232 235.017 117.102 234.611 117.102 234.107C117.102 233.696 117.223 233.323 117.466 232.987C117.708 232.641 118.054 232.371 118.502 232.175C118.959 231.979 119.482 231.881 120.07 231.881C120.947 231.881 121.652 232.105 122.184 232.553C122.725 232.991 123.014 233.593 123.052 234.359H121.456C121.428 234.013 121.288 233.738 121.036 233.533C120.784 233.327 120.443 233.225 120.014 233.225C119.594 233.225 119.272 233.304 119.048 233.463C118.824 233.621 118.712 233.831 118.712 234.093C118.712 234.298 118.786 234.471 118.936 234.611C119.085 234.751 119.267 234.863 119.482 234.947C119.696 235.021 120.014 235.119 120.434 235.241C120.994 235.39 121.451 235.544 121.806 235.703C122.17 235.852 122.482 236.076 122.744 236.375C123.005 236.673 123.14 237.07 123.15 237.565C123.15 238.003 123.028 238.395 122.786 238.741C122.543 239.086 122.198 239.357 121.75 239.553C121.311 239.749 120.793 239.847 120.196 239.847ZM131.944 235.675C131.944 235.964 131.925 236.225 131.888 236.459H125.994C126.041 237.075 126.269 237.569 126.68 237.943C127.091 238.316 127.595 238.503 128.192 238.503C129.051 238.503 129.657 238.143 130.012 237.425H131.734C131.501 238.134 131.076 238.717 130.46 239.175C129.853 239.623 129.097 239.847 128.192 239.847C127.455 239.847 126.792 239.683 126.204 239.357C125.625 239.021 125.168 238.554 124.832 237.957C124.505 237.35 124.342 236.65 124.342 235.857C124.342 235.063 124.501 234.368 124.818 233.771C125.145 233.164 125.597 232.697 126.176 232.371C126.764 232.044 127.436 231.881 128.192 231.881C128.92 231.881 129.569 232.039 130.138 232.357C130.707 232.674 131.151 233.122 131.468 233.701C131.785 234.27 131.944 234.928 131.944 235.675ZM130.278 235.171C130.269 234.583 130.059 234.111 129.648 233.757C129.237 233.402 128.729 233.225 128.122 233.225C127.571 233.225 127.1 233.402 126.708 233.757C126.316 234.102 126.083 234.573 126.008 235.171H130.278ZM136.619 235.829C136.619 235.054 136.778 234.368 137.095 233.771C137.422 233.173 137.861 232.711 138.411 232.385C138.971 232.049 139.587 231.881 140.259 231.881C140.866 231.881 141.393 232.002 141.841 232.245C142.299 232.478 142.663 232.772 142.933 233.127V232.007H144.543V239.721H142.933V238.573C142.663 238.937 142.294 239.24 141.827 239.483C141.361 239.725 140.829 239.847 140.231 239.847C139.569 239.847 138.962 239.679 138.411 239.343C137.861 238.997 137.422 238.521 137.095 237.915C136.778 237.299 136.619 236.603 136.619 235.829ZM142.933 235.857C142.933 235.325 142.821 234.863 142.597 234.471C142.383 234.079 142.098 233.78 141.743 233.575C141.389 233.369 141.006 233.267 140.595 233.267C140.185 233.267 139.802 233.369 139.447 233.575C139.093 233.771 138.803 234.065 138.579 234.457C138.365 234.839 138.257 235.297 138.257 235.829C138.257 236.361 138.365 236.827 138.579 237.229C138.803 237.63 139.093 237.938 139.447 238.153C139.811 238.358 140.194 238.461 140.595 238.461C141.006 238.461 141.389 238.358 141.743 238.153C142.098 237.947 142.383 237.649 142.597 237.257C142.821 236.855 142.933 236.389 142.933 235.857ZM153.51 233.309H152.082V239.721H150.472V233.309H149.562V232.007H150.472V231.461C150.472 230.574 150.706 229.93 151.172 229.529C151.648 229.118 152.39 228.913 153.398 228.913V230.243C152.913 230.243 152.572 230.336 152.376 230.523C152.18 230.7 152.082 231.013 152.082 231.461V232.007H153.51V233.309ZM155.737 230.985C155.448 230.985 155.205 230.887 155.009 230.691C154.813 230.495 154.715 230.252 154.715 229.963C154.715 229.673 154.813 229.431 155.009 229.235C155.205 229.039 155.448 228.941 155.737 228.941C156.017 228.941 156.255 229.039 156.451 229.235C156.647 229.431 156.745 229.673 156.745 229.963C156.745 230.252 156.647 230.495 156.451 230.691C156.255 230.887 156.017 230.985 155.737 230.985ZM156.521 232.007V239.721H154.925V232.007H156.521ZM160.212 229.361V239.721H158.616V229.361H160.212ZM169.378 235.675C169.378 235.964 169.359 236.225 169.322 236.459H163.428C163.474 237.075 163.703 237.569 164.114 237.943C164.524 238.316 165.028 238.503 165.626 238.503C166.484 238.503 167.091 238.143 167.446 237.425H169.168C168.934 238.134 168.51 238.717 167.894 239.175C167.287 239.623 166.531 239.847 165.626 239.847C164.888 239.847 164.226 239.683 163.638 239.357C163.059 239.021 162.602 238.554 162.266 237.957C161.939 237.35 161.776 236.65 161.776 235.857C161.776 235.063 161.934 234.368 162.252 233.771C162.578 233.164 163.031 232.697 163.61 232.371C164.198 232.044 164.87 231.881 165.626 231.881C166.354 231.881 167.002 232.039 167.572 232.357C168.141 232.674 168.584 233.122 168.902 233.701C169.219 234.27 169.378 234.928 169.378 235.675ZM167.712 235.171C167.702 234.583 167.492 234.111 167.082 233.757C166.671 233.402 166.162 233.225 165.556 233.225C165.005 233.225 164.534 233.402 164.142 233.757C163.75 234.102 163.516 234.573 163.442 235.171H167.712ZM177.931 239.847C177.203 239.847 176.545 239.683 175.957 239.357C175.369 239.021 174.907 238.554 174.571 237.957C174.235 237.35 174.067 236.65 174.067 235.857C174.067 235.073 174.24 234.377 174.585 233.771C174.93 233.164 175.402 232.697 175.999 232.371C176.596 232.044 177.264 231.881 178.001 231.881C178.738 231.881 179.406 232.044 180.003 232.371C180.6 232.697 181.072 233.164 181.417 233.771C181.762 234.377 181.935 235.073 181.935 235.857C181.935 236.641 181.758 237.336 181.403 237.943C181.048 238.549 180.563 239.021 179.947 239.357C179.34 239.683 178.668 239.847 177.931 239.847ZM177.931 238.461C178.342 238.461 178.724 238.363 179.079 238.167C179.443 237.971 179.737 237.677 179.961 237.285C180.185 236.893 180.297 236.417 180.297 235.857C180.297 235.297 180.19 234.825 179.975 234.443C179.76 234.051 179.476 233.757 179.121 233.561C178.766 233.365 178.384 233.267 177.973 233.267C177.562 233.267 177.18 233.365 176.825 233.561C176.48 233.757 176.204 234.051 175.999 234.443C175.794 234.825 175.691 235.297 175.691 235.857C175.691 236.687 175.901 237.331 176.321 237.789C176.75 238.237 177.287 238.461 177.931 238.461ZM185.109 233.127C185.342 232.735 185.65 232.431 186.033 232.217C186.425 231.993 186.887 231.881 187.419 231.881V233.533H187.013C186.387 233.533 185.911 233.691 185.585 234.009C185.267 234.326 185.109 234.877 185.109 235.661V239.721H183.513V232.007H185.109V233.127ZM191.991 235.829C191.991 235.054 192.149 234.368 192.467 233.771C192.793 233.173 193.232 232.711 193.783 232.385C194.343 232.049 194.963 231.881 195.645 231.881C196.149 231.881 196.643 231.993 197.129 232.217C197.623 232.431 198.015 232.721 198.305 233.085V229.361H199.915V239.721H198.305V238.559C198.043 238.932 197.679 239.24 197.213 239.483C196.755 239.725 196.228 239.847 195.631 239.847C194.959 239.847 194.343 239.679 193.783 239.343C193.232 238.997 192.793 238.521 192.467 237.915C192.149 237.299 191.991 236.603 191.991 235.829ZM198.305 235.857C198.305 235.325 198.193 234.863 197.969 234.471C197.754 234.079 197.469 233.78 197.115 233.575C196.76 233.369 196.377 233.267 195.967 233.267C195.556 233.267 195.173 233.369 194.819 233.575C194.464 233.771 194.175 234.065 193.951 234.457C193.736 234.839 193.629 235.297 193.629 235.829C193.629 236.361 193.736 236.827 193.951 237.229C194.175 237.63 194.464 237.938 194.819 238.153C195.183 238.358 195.565 238.461 195.967 238.461C196.377 238.461 196.76 238.358 197.115 238.153C197.469 237.947 197.754 237.649 197.969 237.257C198.193 236.855 198.305 236.389 198.305 235.857ZM203.607 233.127C203.84 232.735 204.148 232.431 204.531 232.217C204.923 231.993 205.385 231.881 205.917 231.881V233.533H205.511C204.886 233.533 204.41 233.691 204.083 234.009C203.766 234.326 203.607 234.877 203.607 235.661V239.721H202.011V232.007H203.607V233.127ZM206.852 235.829C206.852 235.054 207.011 234.368 207.328 233.771C207.655 233.173 208.093 232.711 208.644 232.385C209.204 232.049 209.82 231.881 210.492 231.881C211.099 231.881 211.626 232.002 212.074 232.245C212.531 232.478 212.895 232.772 213.166 233.127V232.007H214.776V239.721H213.166V238.573C212.895 238.937 212.527 239.24 212.06 239.483C211.593 239.725 211.061 239.847 210.464 239.847C209.801 239.847 209.195 239.679 208.644 239.343C208.093 238.997 207.655 238.521 207.328 237.915C207.011 237.299 206.852 236.603 206.852 235.829ZM213.166 235.857C213.166 235.325 213.054 234.863 212.83 234.471C212.615 234.079 212.331 233.78 211.976 233.575C211.621 233.369 211.239 233.267 210.828 233.267C210.417 233.267 210.035 233.369 209.68 233.575C209.325 233.771 209.036 234.065 208.812 234.457C208.597 234.839 208.49 235.297 208.49 235.829C208.49 236.361 208.597 236.827 208.812 237.229C209.036 237.63 209.325 237.938 209.68 238.153C210.044 238.358 210.427 238.461 210.828 238.461C211.239 238.461 211.621 238.358 211.976 238.153C212.331 237.947 212.615 237.649 212.83 237.257C213.054 236.855 213.166 236.389 213.166 235.857ZM219.98 231.881C220.578 231.881 221.105 232.002 221.562 232.245C222.029 232.478 222.393 232.772 222.654 233.127V232.007H224.264V239.847C224.264 240.556 224.115 241.186 223.816 241.737C223.518 242.297 223.084 242.735 222.514 243.053C221.954 243.37 221.282 243.529 220.498 243.529C219.453 243.529 218.585 243.281 217.894 242.787C217.204 242.301 216.812 241.639 216.718 240.799H218.3C218.422 241.2 218.678 241.522 219.07 241.765C219.472 242.017 219.948 242.143 220.498 242.143C221.142 242.143 221.66 241.947 222.052 241.555C222.454 241.163 222.654 240.593 222.654 239.847V238.559C222.384 238.923 222.015 239.231 221.548 239.483C221.091 239.725 220.568 239.847 219.98 239.847C219.308 239.847 218.692 239.679 218.132 239.343C217.582 238.997 217.143 238.521 216.816 237.915C216.499 237.299 216.34 236.603 216.34 235.829C216.34 235.054 216.499 234.368 216.816 233.771C217.143 233.173 217.582 232.711 218.132 232.385C218.692 232.049 219.308 231.881 219.98 231.881ZM222.654 235.857C222.654 235.325 222.542 234.863 222.318 234.471C222.104 234.079 221.819 233.78 221.464 233.575C221.11 233.369 220.727 233.267 220.316 233.267C219.906 233.267 219.523 233.369 219.168 233.575C218.814 233.771 218.524 234.065 218.3 234.457C218.086 234.839 217.978 235.297 217.978 235.829C217.978 236.361 218.086 236.827 218.3 237.229C218.524 237.63 218.814 237.938 219.168 238.153C219.532 238.358 219.915 238.461 220.316 238.461C220.727 238.461 221.11 238.358 221.464 238.153C221.819 237.947 222.104 237.649 222.318 237.257C222.542 236.855 222.654 236.389 222.654 235.857ZM237.515 239.721L236.311 238.517C235.845 238.983 235.336 239.333 234.785 239.567C234.235 239.791 233.619 239.903 232.937 239.903C232.247 239.903 231.635 239.781 231.103 239.539C230.571 239.296 230.161 238.951 229.871 238.503C229.582 238.045 229.437 237.518 229.437 236.921C229.437 236.249 229.629 235.651 230.011 235.129C230.394 234.597 230.963 234.177 231.719 233.869C231.449 233.542 231.257 233.239 231.145 232.959C231.033 232.669 230.977 232.352 230.977 232.007C230.977 231.577 231.085 231.195 231.299 230.859C231.523 230.523 231.841 230.257 232.251 230.061C232.662 229.865 233.138 229.767 233.679 229.767C234.23 229.767 234.697 229.874 235.079 230.089C235.471 230.294 235.761 230.579 235.947 230.943C236.143 231.307 236.223 231.713 236.185 232.161H234.589C234.599 231.815 234.515 231.549 234.337 231.363C234.16 231.167 233.917 231.069 233.609 231.069C233.301 231.069 233.049 231.162 232.853 231.349C232.667 231.526 232.573 231.745 232.573 232.007C232.573 232.259 232.643 232.511 232.783 232.763C232.933 233.005 233.189 233.323 233.553 233.715L236.129 236.277L237.123 234.639H238.845L237.585 236.795L237.235 237.369L239.601 239.721H237.515ZM232.937 238.545C233.815 238.545 234.589 238.185 235.261 237.467L232.685 234.877C231.584 235.315 231.033 235.978 231.033 236.865C231.033 237.341 231.211 237.742 231.565 238.069C231.92 238.386 232.377 238.545 232.937 238.545ZM243.752 235.829C243.752 235.054 243.911 234.368 244.228 233.771C244.555 233.173 244.994 232.711 245.544 232.385C246.104 232.049 246.725 231.881 247.406 231.881C247.91 231.881 248.405 231.993 248.89 232.217C249.385 232.431 249.777 232.721 250.066 233.085V229.361H251.676V239.721H250.066V238.559C249.805 238.932 249.441 239.24 248.974 239.483C248.517 239.725 247.99 239.847 247.392 239.847C246.72 239.847 246.104 239.679 245.544 239.343C244.994 238.997 244.555 238.521 244.228 237.915C243.911 237.299 243.752 236.603 243.752 235.829ZM250.066 235.857C250.066 235.325 249.954 234.863 249.73 234.471C249.516 234.079 249.231 233.78 248.876 233.575C248.522 233.369 248.139 233.267 247.728 233.267C247.318 233.267 246.935 233.369 246.58 233.575C246.226 233.771 245.936 234.065 245.712 234.457C245.498 234.839 245.39 235.297 245.39 235.829C245.39 236.361 245.498 236.827 245.712 237.229C245.936 237.63 246.226 237.938 246.58 238.153C246.944 238.358 247.327 238.461 247.728 238.461C248.139 238.461 248.522 238.358 248.876 238.153C249.231 237.947 249.516 237.649 249.73 237.257C249.954 236.855 250.066 236.389 250.066 235.857ZM255.369 233.127C255.602 232.735 255.91 232.431 256.293 232.217C256.685 231.993 257.147 231.881 257.679 231.881V233.533H257.273C256.647 233.533 256.171 233.691 255.845 234.009C255.527 234.326 255.369 234.877 255.369 235.661V239.721H253.773V232.007H255.369V233.127ZM262.492 239.847C261.764 239.847 261.106 239.683 260.518 239.357C259.93 239.021 259.468 238.554 259.132 237.957C258.796 237.35 258.628 236.65 258.628 235.857C258.628 235.073 258.8 234.377 259.146 233.771C259.491 233.164 259.962 232.697 260.56 232.371C261.157 232.044 261.824 231.881 262.562 231.881C263.299 231.881 263.966 232.044 264.564 232.371C265.161 232.697 265.632 233.164 265.978 233.771C266.323 234.377 266.496 235.073 266.496 235.857C266.496 236.641 266.318 237.336 265.964 237.943C265.609 238.549 265.124 239.021 264.508 239.357C263.901 239.683 263.229 239.847 262.492 239.847ZM262.492 238.461C262.902 238.461 263.285 238.363 263.64 238.167C264.004 237.971 264.298 237.677 264.522 237.285C264.746 236.893 264.858 236.417 264.858 235.857C264.858 235.297 264.75 234.825 264.536 234.443C264.321 234.051 264.036 233.757 263.682 233.561C263.327 233.365 262.944 233.267 262.534 233.267C262.123 233.267 261.74 233.365 261.386 233.561C261.04 233.757 260.765 234.051 260.56 234.443C260.354 234.825 260.252 235.297 260.252 235.857C260.252 236.687 260.462 237.331 260.882 237.789C261.311 238.237 261.848 238.461 262.492 238.461ZM269.669 233.141C269.94 232.786 270.309 232.487 270.775 232.245C271.242 232.002 271.769 231.881 272.357 231.881C273.029 231.881 273.641 232.049 274.191 232.385C274.751 232.711 275.19 233.173 275.507 233.771C275.825 234.368 275.983 235.054 275.983 235.829C275.983 236.603 275.825 237.299 275.507 237.915C275.19 238.521 274.751 238.997 274.191 239.343C273.641 239.679 273.029 239.847 272.357 239.847C271.769 239.847 271.247 239.73 270.789 239.497C270.332 239.254 269.959 238.955 269.669 238.601V243.389H268.073V232.007H269.669V233.141ZM274.359 235.829C274.359 235.297 274.247 234.839 274.023 234.457C273.809 234.065 273.519 233.771 273.155 233.575C272.801 233.369 272.418 233.267 272.007 233.267C271.606 233.267 271.223 233.369 270.859 233.575C270.505 233.78 270.215 234.079 269.991 234.471C269.777 234.863 269.669 235.325 269.669 235.857C269.669 236.389 269.777 236.855 269.991 237.257C270.215 237.649 270.505 237.947 270.859 238.153C271.223 238.358 271.606 238.461 272.007 238.461C272.418 238.461 272.801 238.358 273.155 238.153C273.519 237.938 273.809 237.63 274.023 237.229C274.247 236.827 274.359 236.361 274.359 235.829ZM282.01 230.985C281.721 230.985 281.478 230.887 281.282 230.691C281.086 230.495 280.988 230.252 280.988 229.963C280.988 229.673 281.086 229.431 281.282 229.235C281.478 229.039 281.721 228.941 282.01 228.941C282.29 228.941 282.528 229.039 282.724 229.235C282.92 229.431 283.018 229.673 283.018 229.963C283.018 230.252 282.92 230.495 282.724 230.691C282.528 230.887 282.29 230.985 282.01 230.985ZM282.794 232.007V239.721H281.198V232.007H282.794ZM286.752 233.309V237.579C286.752 237.868 286.817 238.078 286.948 238.209C287.088 238.33 287.321 238.391 287.648 238.391H288.628V239.721H287.368C286.649 239.721 286.098 239.553 285.716 239.217C285.333 238.881 285.142 238.335 285.142 237.579V233.309H284.232V232.007H285.142V230.089H286.752V232.007H288.628V233.309H286.752ZM297.725 231.881C298.313 231.881 298.836 232.007 299.293 232.259C299.76 232.511 300.124 232.884 300.385 233.379C300.656 233.873 300.791 234.471 300.791 235.171V239.721H299.209V235.409C299.209 234.718 299.037 234.191 298.691 233.827C298.346 233.453 297.875 233.267 297.277 233.267C296.68 233.267 296.204 233.453 295.849 233.827C295.504 234.191 295.331 234.718 295.331 235.409V239.721H293.735V229.361H295.331V232.903C295.602 232.576 295.943 232.324 296.353 232.147C296.773 231.969 297.231 231.881 297.725 231.881ZM309.897 235.675C309.897 235.964 309.879 236.225 309.841 236.459H303.947C303.994 237.075 304.223 237.569 304.633 237.943C305.044 238.316 305.548 238.503 306.145 238.503C307.004 238.503 307.611 238.143 307.965 237.425H309.687C309.454 238.134 309.029 238.717 308.413 239.175C307.807 239.623 307.051 239.847 306.145 239.847C305.408 239.847 304.745 239.683 304.157 239.357C303.579 239.021 303.121 238.554 302.785 237.957C302.459 237.35 302.295 236.65 302.295 235.857C302.295 235.063 302.454 234.368 302.771 233.771C303.098 233.164 303.551 232.697 304.129 232.371C304.717 232.044 305.389 231.881 306.145 231.881C306.873 231.881 307.522 232.039 308.091 232.357C308.661 232.674 309.104 233.122 309.421 233.701C309.739 234.27 309.897 234.928 309.897 235.675ZM308.231 235.171C308.222 234.583 308.012 234.111 307.601 233.757C307.191 233.402 306.682 233.225 306.075 233.225C305.525 233.225 305.053 233.402 304.661 233.757C304.269 234.102 304.036 234.573 303.961 235.171H308.231ZM313.064 233.127C313.297 232.735 313.605 232.431 313.988 232.217C314.38 231.993 314.842 231.881 315.374 231.881V233.533H314.968C314.343 233.533 313.867 233.691 313.54 234.009C313.223 234.326 313.064 234.877 313.064 235.661V239.721H311.468V232.007H313.064V233.127ZM323.911 235.675C323.911 235.964 323.892 236.225 323.855 236.459H317.961C318.008 237.075 318.236 237.569 318.647 237.943C319.058 238.316 319.562 238.503 320.159 238.503C321.018 238.503 321.624 238.143 321.979 237.425H323.701C323.468 238.134 323.043 238.717 322.427 239.175C321.82 239.623 321.064 239.847 320.159 239.847C319.422 239.847 318.759 239.683 318.171 239.357C317.592 239.021 317.135 238.554 316.799 237.957C316.472 237.35 316.309 236.65 316.309 235.857C316.309 235.063 316.468 234.368 316.785 233.771C317.112 233.164 317.564 232.697 318.143 232.371C318.731 232.044 319.403 231.881 320.159 231.881C320.887 231.881 321.536 232.039 322.105 232.357C322.674 232.674 323.118 233.122 323.435 233.701C323.752 234.27 323.911 234.928 323.911 235.675ZM322.245 235.171C322.236 234.583 322.026 234.111 321.615 233.757C321.204 233.402 320.696 233.225 320.089 233.225C319.538 233.225 319.067 233.402 318.675 233.757C318.283 234.102 318.05 234.573 317.975 235.171H322.245Z" fill="white"/>
<path d="M116.293 257.881V263.893C116.293 264.637 116.065 265.225 115.609 265.657C115.161 266.089 114.569 266.305 113.833 266.305C113.097 266.305 112.501 266.089 112.045 265.657C111.597 265.225 111.373 264.637 111.373 263.893H112.753C112.761 264.261 112.853 264.553 113.029 264.769C113.213 264.985 113.481 265.093 113.833 265.093C114.185 265.093 114.453 264.985 114.637 264.769C114.821 264.545 114.913 264.253 114.913 263.893V257.881H116.293ZM124.35 260.365C124.35 260.789 124.25 261.189 124.05 261.565C123.85 261.941 123.53 262.249 123.09 262.489C122.65 262.721 122.086 262.837 121.398 262.837H119.886V266.221H118.518V257.881H121.398C122.038 257.881 122.578 257.993 123.018 258.217C123.466 258.433 123.798 258.729 124.014 259.105C124.238 259.481 124.35 259.901 124.35 260.365ZM121.398 261.721C121.918 261.721 122.306 261.605 122.562 261.373C122.818 261.133 122.946 260.797 122.946 260.365C122.946 259.453 122.43 258.997 121.398 258.997H119.886V261.721H121.398ZM127.023 258.985V261.433H129.903V262.549H127.023V265.105H130.263V266.221H125.655V257.869H130.263V258.985H127.023ZM137.984 260.281C137.768 259.865 137.468 259.553 137.084 259.345C136.7 259.129 136.256 259.021 135.752 259.021C135.2 259.021 134.708 259.145 134.276 259.393C133.844 259.641 133.504 259.993 133.256 260.449C133.016 260.905 132.896 261.433 132.896 262.033C132.896 262.633 133.016 263.165 133.256 263.629C133.504 264.085 133.844 264.437 134.276 264.685C134.708 264.933 135.2 265.057 135.752 265.057C136.496 265.057 137.1 264.849 137.564 264.433C138.028 264.017 138.312 263.453 138.416 262.741H135.284V261.649H139.88V262.717C139.792 263.365 139.56 263.961 139.184 264.505C138.816 265.049 138.332 265.485 137.732 265.813C137.14 266.133 136.48 266.293 135.752 266.293C134.968 266.293 134.252 266.113 133.604 265.753C132.956 265.385 132.44 264.877 132.056 264.229C131.68 263.581 131.492 262.849 131.492 262.033C131.492 261.217 131.68 260.485 132.056 259.837C132.44 259.189 132.956 258.685 133.604 258.325C134.26 257.957 134.976 257.773 135.752 257.773C136.64 257.773 137.428 257.993 138.116 258.433C138.812 258.865 139.316 259.481 139.628 260.281H137.984ZM142.729 264.577L141.277 267.889H140.389L141.241 264.577H142.729ZM152.874 260.365C152.874 260.789 152.774 261.189 152.574 261.565C152.374 261.941 152.054 262.249 151.614 262.489C151.174 262.721 150.61 262.837 149.922 262.837H148.41V266.221H147.042V257.881H149.922C150.562 257.881 151.102 257.993 151.542 258.217C151.99 258.433 152.322 258.729 152.538 259.105C152.762 259.481 152.874 259.901 152.874 260.365ZM149.922 261.721C150.442 261.721 150.83 261.605 151.086 261.373C151.342 261.133 151.47 260.797 151.47 260.365C151.47 259.453 150.954 258.997 149.922 258.997H148.41V261.721H149.922ZM161.03 266.221H159.662L155.546 259.993V266.221H154.178V257.869H155.546L159.662 264.085V257.869H161.03V266.221ZM168.863 260.281C168.647 259.865 168.347 259.553 167.963 259.345C167.579 259.129 167.135 259.021 166.631 259.021C166.079 259.021 165.587 259.145 165.155 259.393C164.723 259.641 164.383 259.993 164.135 260.449C163.895 260.905 163.775 261.433 163.775 262.033C163.775 262.633 163.895 263.165 164.135 263.629C164.383 264.085 164.723 264.437 165.155 264.685C165.587 264.933 166.079 265.057 166.631 265.057C167.375 265.057 167.979 264.849 168.443 264.433C168.907 264.017 169.191 263.453 169.295 262.741H166.163V261.649H170.759V262.717C170.671 263.365 170.439 263.961 170.063 264.505C169.695 265.049 169.211 265.485 168.611 265.813C168.019 266.133 167.359 266.293 166.631 266.293C165.847 266.293 165.131 266.113 164.483 265.753C163.835 265.385 163.319 264.877 162.935 264.229C162.559 263.581 162.371 262.849 162.371 262.033C162.371 261.217 162.559 260.485 162.935 259.837C163.319 259.189 163.835 258.685 164.483 258.325C165.139 257.957 165.855 257.773 166.631 257.773C167.519 257.773 168.307 257.993 168.995 258.433C169.691 258.865 170.195 259.481 170.507 260.281H168.863ZM177.997 260.725H176.773V266.221H175.393V260.725H174.613V259.609H175.393V259.141C175.393 258.381 175.593 257.829 175.993 257.485C176.401 257.133 177.037 256.957 177.901 256.957V258.097C177.485 258.097 177.193 258.177 177.025 258.337C176.857 258.489 176.773 258.757 176.773 259.141V259.609H177.997V260.725ZM182.077 266.329C181.453 266.329 180.889 266.189 180.385 265.909C179.881 265.621 179.485 265.221 179.197 264.709C178.909 264.189 178.765 263.589 178.765 262.909C178.765 262.237 178.913 261.641 179.209 261.121C179.505 260.601 179.909 260.201 180.421 259.921C180.933 259.641 181.505 259.501 182.137 259.501C182.769 259.501 183.341 259.641 183.853 259.921C184.365 260.201 184.769 260.601 185.065 261.121C185.361 261.641 185.509 262.237 185.509 262.909C185.509 263.581 185.357 264.177 185.053 264.697C184.749 265.217 184.333 265.621 183.805 265.909C183.285 266.189 182.709 266.329 182.077 266.329ZM182.077 265.141C182.429 265.141 182.757 265.057 183.061 264.889C183.373 264.721 183.625 264.469 183.817 264.133C184.009 263.797 184.105 263.389 184.105 262.909C184.105 262.429 184.013 262.025 183.829 261.697C183.645 261.361 183.401 261.109 183.097 260.941C182.793 260.773 182.465 260.689 182.113 260.689C181.761 260.689 181.433 260.773 181.129 260.941C180.833 261.109 180.597 261.361 180.421 261.697C180.245 262.025 180.157 262.429 180.157 262.909C180.157 263.621 180.337 264.173 180.697 264.565C181.065 264.949 181.525 265.141 182.077 265.141ZM188.23 260.569C188.43 260.233 188.694 259.973 189.022 259.789C189.358 259.597 189.754 259.501 190.21 259.501V260.917H189.862C189.326 260.917 188.918 261.053 188.638 261.325C188.366 261.597 188.23 262.069 188.23 262.741V266.221H186.862V259.609H188.23V260.569ZM199.471 259.501C199.991 259.501 200.455 259.609 200.863 259.825C201.279 260.041 201.603 260.361 201.835 260.785C202.075 261.209 202.195 261.721 202.195 262.321V266.221H200.839V262.525C200.839 261.933 200.691 261.481 200.395 261.169C200.099 260.849 199.695 260.689 199.183 260.689C198.671 260.689 198.263 260.849 197.959 261.169C197.663 261.481 197.515 261.933 197.515 262.525V266.221H196.159V262.525C196.159 261.933 196.011 261.481 195.715 261.169C195.419 260.849 195.015 260.689 194.503 260.689C193.991 260.689 193.583 260.849 193.279 261.169C192.983 261.481 192.835 261.933 192.835 262.525V266.221H191.467V259.609H192.835V260.365C193.059 260.093 193.343 259.881 193.687 259.729C194.031 259.577 194.399 259.501 194.791 259.501C195.319 259.501 195.791 259.613 196.207 259.837C196.623 260.061 196.943 260.385 197.167 260.809C197.367 260.409 197.679 260.093 198.103 259.861C198.527 259.621 198.983 259.501 199.471 259.501ZM203.48 262.885C203.48 262.221 203.616 261.633 203.888 261.121C204.168 260.609 204.544 260.213 205.016 259.933C205.496 259.645 206.024 259.501 206.6 259.501C207.12 259.501 207.572 259.605 207.956 259.813C208.348 260.013 208.66 260.265 208.892 260.569V259.609H210.272V266.221H208.892V265.237C208.66 265.549 208.344 265.809 207.944 266.017C207.544 266.225 207.088 266.329 206.576 266.329C206.008 266.329 205.488 266.185 205.016 265.897C204.544 265.601 204.168 265.193 203.888 264.673C203.616 264.145 203.48 263.549 203.48 262.885ZM208.892 262.909C208.892 262.453 208.796 262.057 208.604 261.721C208.42 261.385 208.176 261.129 207.872 260.953C207.568 260.777 207.24 260.689 206.888 260.689C206.536 260.689 206.208 260.777 205.904 260.953C205.6 261.121 205.352 261.373 205.16 261.709C204.976 262.037 204.884 262.429 204.884 262.885C204.884 263.341 204.976 263.741 205.16 264.085C205.352 264.429 205.6 264.693 205.904 264.877C206.216 265.053 206.544 265.141 206.888 265.141C207.24 265.141 207.568 265.053 207.872 264.877C208.176 264.701 208.42 264.445 208.604 264.109C208.796 263.765 208.892 263.365 208.892 262.909ZM213.665 260.725V264.385C213.665 264.633 213.721 264.813 213.833 264.925C213.953 265.029 214.153 265.081 214.433 265.081H215.273V266.221H214.193C213.577 266.221 213.105 266.077 212.777 265.789C212.449 265.501 212.285 265.033 212.285 264.385V260.725H211.505V259.609H212.285V257.965H213.665V259.609H215.273V260.725H213.665ZM218.934 266.329C218.414 266.329 217.946 266.237 217.53 266.053C217.122 265.861 216.798 265.605 216.558 265.285C216.318 264.957 216.19 264.593 216.174 264.193H217.59C217.614 264.473 217.746 264.709 217.986 264.901C218.234 265.085 218.542 265.177 218.91 265.177C219.294 265.177 219.59 265.105 219.798 264.961C220.014 264.809 220.122 264.617 220.122 264.385C220.122 264.137 220.002 263.953 219.762 263.833C219.53 263.713 219.158 263.581 218.646 263.437C218.15 263.301 217.746 263.169 217.434 263.041C217.122 262.913 216.85 262.717 216.618 262.453C216.394 262.189 216.282 261.841 216.282 261.409C216.282 261.057 216.386 260.737 216.594 260.449C216.802 260.153 217.098 259.921 217.482 259.753C217.874 259.585 218.322 259.501 218.826 259.501C219.578 259.501 220.182 259.693 220.638 260.077C221.102 260.453 221.35 260.969 221.382 261.625H220.014C219.99 261.329 219.87 261.093 219.654 260.917C219.438 260.741 219.146 260.653 218.778 260.653C218.418 260.653 218.142 260.721 217.95 260.857C217.758 260.993 217.662 261.173 217.662 261.397C217.662 261.573 217.726 261.721 217.854 261.841C217.982 261.961 218.138 262.057 218.322 262.129C218.506 262.193 218.778 262.277 219.138 262.381C219.618 262.509 220.01 262.641 220.314 262.777C220.626 262.905 220.894 263.097 221.118 263.353C221.342 263.609 221.458 263.949 221.466 264.373C221.466 264.749 221.362 265.085 221.154 265.381C220.946 265.677 220.65 265.909 220.266 266.077C219.89 266.245 219.446 266.329 218.934 266.329ZM224.444 264.577L222.992 267.889H222.104L222.956 264.577H224.444ZM234.744 259.609V266.221H233.376V265.441C233.16 265.713 232.876 265.929 232.524 266.089C232.18 266.241 231.812 266.317 231.42 266.317C230.9 266.317 230.432 266.209 230.016 265.993C229.608 265.777 229.284 265.457 229.044 265.033C228.812 264.609 228.696 264.097 228.696 263.497V259.609H230.052V263.293C230.052 263.885 230.2 264.341 230.496 264.661C230.792 264.973 231.196 265.129 231.708 265.129C232.22 265.129 232.624 264.973 232.92 264.661C233.224 264.341 233.376 263.885 233.376 263.293V259.609H234.744ZM237.917 260.581C238.149 260.277 238.465 260.021 238.865 259.813C239.265 259.605 239.717 259.501 240.221 259.501C240.797 259.501 241.321 259.645 241.793 259.933C242.273 260.213 242.649 260.609 242.921 261.121C243.193 261.633 243.329 262.221 243.329 262.885C243.329 263.549 243.193 264.145 242.921 264.673C242.649 265.193 242.273 265.601 241.793 265.897C241.321 266.185 240.797 266.329 240.221 266.329C239.717 266.329 239.269 266.229 238.877 266.029C238.485 265.821 238.165 265.565 237.917 265.261V269.365H236.549V259.609H237.917V260.581ZM241.937 262.885C241.937 262.429 241.841 262.037 241.649 261.709C241.465 261.373 241.217 261.121 240.905 260.953C240.601 260.777 240.273 260.689 239.921 260.689C239.577 260.689 239.249 260.777 238.937 260.953C238.633 261.129 238.385 261.385 238.193 261.721C238.009 262.057 237.917 262.453 237.917 262.909C237.917 263.365 238.009 263.765 238.193 264.109C238.385 264.445 238.633 264.701 238.937 264.877C239.249 265.053 239.577 265.141 239.921 265.141C240.273 265.141 240.601 265.053 240.905 264.877C241.217 264.693 241.465 264.429 241.649 264.085C241.841 263.741 241.937 263.341 241.937 262.885ZM249.395 260.725V264.385C249.395 264.633 249.451 264.813 249.563 264.925C249.683 265.029 249.883 265.081 250.163 265.081H251.003V266.221H249.923C249.307 266.221 248.835 266.077 248.507 265.789C248.179 265.501 248.015 265.033 248.015 264.385V260.725H247.235V259.609H248.015V257.965H249.395V259.609H251.003V260.725H249.395ZM255.132 266.329C254.508 266.329 253.944 266.189 253.44 265.909C252.936 265.621 252.54 265.221 252.252 264.709C251.964 264.189 251.82 263.589 251.82 262.909C251.82 262.237 251.968 261.641 252.264 261.121C252.56 260.601 252.964 260.201 253.476 259.921C253.988 259.641 254.56 259.501 255.192 259.501C255.824 259.501 256.396 259.641 256.908 259.921C257.42 260.201 257.824 260.601 258.12 261.121C258.416 261.641 258.564 262.237 258.564 262.909C258.564 263.581 258.412 264.177 258.108 264.697C257.804 265.217 257.388 265.621 256.86 265.909C256.34 266.189 255.764 266.329 255.132 266.329ZM255.132 265.141C255.484 265.141 255.812 265.057 256.116 264.889C256.428 264.721 256.68 264.469 256.872 264.133C257.064 263.797 257.16 263.389 257.16 262.909C257.16 262.429 257.068 262.025 256.884 261.697C256.7 261.361 256.456 261.109 256.152 260.941C255.848 260.773 255.52 260.689 255.168 260.689C254.816 260.689 254.488 260.773 254.184 260.941C253.888 261.109 253.652 261.361 253.476 261.697C253.3 262.025 253.212 262.429 253.212 262.909C253.212 263.621 253.392 264.173 253.752 264.565C254.12 264.949 254.58 265.141 255.132 265.141ZM262.674 258.721V257.473H265.17V266.221H263.79V258.721H262.674ZM267.049 261.733C267.049 260.349 267.281 259.269 267.745 258.493C268.217 257.709 269.025 257.317 270.169 257.317C271.313 257.317 272.117 257.709 272.581 258.493C273.053 259.269 273.289 260.349 273.289 261.733C273.289 263.133 273.053 264.229 272.581 265.021C272.117 265.805 271.313 266.197 270.169 266.197C269.025 266.197 268.217 265.805 267.745 265.021C267.281 264.229 267.049 263.133 267.049 261.733ZM271.945 261.733C271.945 261.085 271.901 260.537 271.813 260.089C271.733 259.641 271.565 259.277 271.309 258.997C271.053 258.709 270.673 258.565 270.169 258.565C269.665 258.565 269.285 258.709 269.029 258.997C268.773 259.277 268.601 259.641 268.513 260.089C268.433 260.537 268.393 261.085 268.393 261.733C268.393 262.405 268.433 262.969 268.513 263.425C268.593 263.881 268.761 264.249 269.017 264.529C269.281 264.809 269.665 264.949 270.169 264.949C270.673 264.949 271.053 264.809 271.309 264.529C271.573 264.249 271.745 263.881 271.825 263.425C271.905 262.969 271.945 262.405 271.945 261.733ZM283.701 257.881V266.221H282.333V260.509L279.789 266.221H278.841L276.285 260.509V266.221H274.917V257.881H276.393L279.321 264.421L282.237 257.881H283.701ZM289.963 261.937C290.411 262.017 290.791 262.253 291.103 262.645C291.415 263.037 291.571 263.481 291.571 263.977C291.571 264.401 291.459 264.785 291.235 265.129C291.019 265.465 290.703 265.733 290.287 265.933C289.871 266.125 289.387 266.221 288.835 266.221H285.499V257.881H288.679C289.247 257.881 289.735 257.977 290.143 258.169C290.551 258.361 290.859 258.621 291.067 258.949C291.275 259.269 291.379 259.629 291.379 260.029C291.379 260.509 291.251 260.909 290.995 261.229C290.739 261.549 290.395 261.785 289.963 261.937ZM286.867 261.385H288.559C289.007 261.385 289.355 261.285 289.603 261.085C289.859 260.877 289.987 260.581 289.987 260.197C289.987 259.821 289.859 259.529 289.603 259.321C289.355 259.105 289.007 258.997 288.559 258.997H286.867V261.385ZM288.715 265.105C289.179 265.105 289.543 264.993 289.807 264.769C290.071 264.545 290.203 264.233 290.203 263.833C290.203 263.425 290.063 263.101 289.783 262.861C289.503 262.621 289.131 262.501 288.667 262.501H286.867V265.105H288.715Z" fill="white" fill-opacity="0.7"/>
<rect x="153.988" y="286.646" width="95.0246" height="28.7112" rx="3.5" stroke="white"/>
<path d="M166.603 301.147C167.163 301.247 167.638 301.542 168.028 302.032C168.418 302.522 168.613 303.077 168.613 303.697C168.613 304.227 168.473 304.707 168.193 305.137C167.923 305.557 167.528 305.892 167.008 306.142C166.488 306.382 165.883 306.502 165.193 306.502H161.023V296.077H164.998C165.708 296.077 166.318 296.197 166.828 296.437C167.338 296.677 167.723 297.002 167.983 297.412C168.243 297.812 168.373 298.262 168.373 298.762C168.373 299.362 168.213 299.862 167.893 300.262C167.573 300.662 167.143 300.957 166.603 301.147ZM162.733 300.457H164.848C165.408 300.457 165.843 300.332 166.153 300.082C166.473 299.822 166.633 299.452 166.633 298.972C166.633 298.502 166.473 298.137 166.153 297.877C165.843 297.607 165.408 297.472 164.848 297.472H162.733V300.457ZM165.043 305.107C165.623 305.107 166.078 304.967 166.408 304.687C166.738 304.407 166.903 304.017 166.903 303.517C166.903 303.007 166.728 302.602 166.378 302.302C166.028 302.002 165.563 301.852 164.983 301.852H162.733V305.107H165.043ZM172.182 299.437C172.432 299.017 172.762 298.692 173.172 298.462C173.592 298.222 174.087 298.102 174.657 298.102V299.872H174.222C173.552 299.872 173.042 300.042 172.692 300.382C172.352 300.722 172.182 301.312 172.182 302.152V306.502H170.472V298.237H172.182V299.437ZM179.813 306.637C179.033 306.637 178.328 306.462 177.698 306.112C177.068 305.752 176.573 305.252 176.213 304.612C175.853 303.962 175.673 303.212 175.673 302.362C175.673 301.522 175.858 300.777 176.228 300.127C176.598 299.477 177.103 298.977 177.743 298.627C178.383 298.277 179.098 298.102 179.888 298.102C180.678 298.102 181.393 298.277 182.033 298.627C182.673 298.977 183.178 299.477 183.548 300.127C183.918 300.777 184.103 301.522 184.103 302.362C184.103 303.202 183.913 303.947 183.533 304.597C183.153 305.247 182.633 305.752 181.973 306.112C181.323 306.462 180.603 306.637 179.813 306.637ZM179.813 305.152C180.253 305.152 180.663 305.047 181.043 304.837C181.433 304.627 181.748 304.312 181.988 303.892C182.228 303.472 182.348 302.962 182.348 302.362C182.348 301.762 182.233 301.257 182.003 300.847C181.773 300.427 181.468 300.112 181.088 299.902C180.708 299.692 180.298 299.587 179.858 299.587C179.418 299.587 179.008 299.692 178.628 299.902C178.258 300.112 177.963 300.427 177.743 300.847C177.523 301.257 177.413 301.762 177.413 302.362C177.413 303.252 177.638 303.942 178.088 304.432C178.548 304.912 179.123 305.152 179.813 305.152ZM196.894 298.237L194.329 306.502H192.529L190.864 300.397L189.199 306.502H187.399L184.819 298.237H186.559L188.284 304.882L190.039 298.237H191.824L193.504 304.852L195.214 298.237H196.894ZM201.172 306.637C200.522 306.637 199.937 306.522 199.417 306.292C198.907 306.052 198.502 305.732 198.202 305.332C197.902 304.922 197.742 304.467 197.722 303.967H199.492C199.522 304.317 199.687 304.612 199.987 304.852C200.297 305.082 200.682 305.197 201.142 305.197C201.622 305.197 201.992 305.107 202.252 304.927C202.522 304.737 202.657 304.497 202.657 304.207C202.657 303.897 202.507 303.667 202.207 303.517C201.917 303.367 201.452 303.202 200.812 303.022C200.192 302.852 199.687 302.687 199.297 302.527C198.907 302.367 198.567 302.122 198.277 301.792C197.997 301.462 197.857 301.027 197.857 300.487C197.857 300.047 197.987 299.647 198.247 299.287C198.507 298.917 198.877 298.627 199.357 298.417C199.847 298.207 200.407 298.102 201.037 298.102C201.977 298.102 202.732 298.342 203.302 298.822C203.882 299.292 204.192 299.937 204.232 300.757H202.522C202.492 300.387 202.342 300.092 202.072 299.872C201.802 299.652 201.437 299.542 200.977 299.542C200.527 299.542 200.182 299.627 199.942 299.797C199.702 299.967 199.582 300.192 199.582 300.472C199.582 300.692 199.662 300.877 199.822 301.027C199.982 301.177 200.177 301.297 200.407 301.387C200.637 301.467 200.977 301.572 201.427 301.702C202.027 301.862 202.517 302.027 202.897 302.197C203.287 302.357 203.622 302.597 203.902 302.917C204.182 303.237 204.327 303.662 204.337 304.192C204.337 304.662 204.207 305.082 203.947 305.452C203.687 305.822 203.317 306.112 202.837 306.322C202.367 306.532 201.812 306.637 201.172 306.637ZM213.76 302.167C213.76 302.477 213.74 302.757 213.7 303.007H207.385C207.435 303.667 207.68 304.197 208.12 304.597C208.56 304.997 209.1 305.197 209.74 305.197C210.66 305.197 211.31 304.812 211.69 304.042H213.535C213.285 304.802 212.83 305.427 212.17 305.917C211.52 306.397 210.71 306.637 209.74 306.637C208.95 306.637 208.24 306.462 207.61 306.112C206.99 305.752 206.5 305.252 206.14 304.612C205.79 303.962 205.615 303.212 205.615 302.362C205.615 301.512 205.785 300.767 206.125 300.127C206.475 299.477 206.96 298.977 207.58 298.627C208.21 298.277 208.93 298.102 209.74 298.102C210.52 298.102 211.215 298.272 211.825 298.612C212.435 298.952 212.91 299.432 213.25 300.052C213.59 300.662 213.76 301.367 213.76 302.167ZM211.975 301.627C211.965 300.997 211.74 300.492 211.3 300.112C210.86 299.732 210.315 299.542 209.665 299.542C209.075 299.542 208.57 299.732 208.15 300.112C207.73 300.482 207.48 300.987 207.4 301.627H211.975ZM225.474 296.077V297.472H221.049V300.547H224.499V301.942H221.049V306.502H219.339V296.077H225.474ZM227.929 297.142C227.619 297.142 227.359 297.037 227.149 296.827C226.939 296.617 226.834 296.357 226.834 296.047C226.834 295.737 226.939 295.477 227.149 295.267C227.359 295.057 227.619 294.952 227.929 294.952C228.229 294.952 228.484 295.057 228.694 295.267C228.904 295.477 229.009 295.737 229.009 296.047C229.009 296.357 228.904 296.617 228.694 296.827C228.484 297.037 228.229 297.142 227.929 297.142ZM228.769 298.237V306.502H227.059V298.237H228.769ZM232.724 295.402V306.502H231.014V295.402H232.724ZM242.544 302.167C242.544 302.477 242.524 302.757 242.484 303.007H236.169C236.219 303.667 236.464 304.197 236.904 304.597C237.344 304.997 237.884 305.197 238.524 305.197C239.444 305.197 240.094 304.812 240.474 304.042H242.319C242.069 304.802 241.614 305.427 240.954 305.917C240.304 306.397 239.494 306.637 238.524 306.637C237.734 306.637 237.024 306.462 236.394 306.112C235.774 305.752 235.284 305.252 234.924 304.612C234.574 303.962 234.399 303.212 234.399 302.362C234.399 301.512 234.569 300.767 234.909 300.127C235.259 299.477 235.744 298.977 236.364 298.627C236.994 298.277 237.714 298.102 238.524 298.102C239.304 298.102 239.999 298.272 240.609 298.612C241.219 298.952 241.694 299.432 242.034 300.052C242.374 300.662 242.544 301.367 242.544 302.167ZM240.759 301.627C240.749 300.997 240.524 300.492 240.084 300.112C239.644 299.732 239.099 299.542 238.449 299.542C237.859 299.542 237.354 299.732 236.934 300.112C236.514 300.482 236.264 300.987 236.184 301.627H240.759Z" fill="white" fill-opacity="0.7"/>
</svg>
